<?xml version="1.0" encoding="utf-8"?>
<!-- Generator: Adobe Illustrator 19.1.0, SVG Export Plug-In . SVG Version: 6.00 Build 0)  -->
<svg version="1.1" id="Layer_1" xmlns="http://www.w3.org/2000/svg" xmlns:xlink="http://www.w3.org/1999/xlink" x="0px" y="0px"
	 viewBox="49 113 512 512" style="enable-background:new 49 113 512 512;" xml:space="preserve">
<style type="text/css">
	.st0{fill:url(#SVGID_2_);}
	.st1{fill:url(#SVGID_3_);}
	.st2{fill:url(#SVGID_5_);}
	.st3{fill:url(#SVGID_6_);}
	.st4{fill:url(#SVGID_8_);}
	.st5{fill:url(#SVGID_9_);}
	.st6{fill:url(#SVGID_11_);}
	.st7{fill:url(#SVGID_12_);}
	.st8{fill:url(#SVGID_14_);}
	.st9{fill:url(#SVGID_15_);}
</style>
<g>
	<g>
		<g>
			<g>
				
					<radialGradient id="SVGID_2_" cx="150.1836" cy="537.2217" r="512.0785" gradientTransform="matrix(1 0 0 -1 0 740)" gradientUnits="userSpaceOnUse">
					<stop  offset="0" style="stop-color:#00B1E7"/>
					<stop  offset="0.427" style="stop-color:#0098CD"/>
					<stop  offset="0.5244" style="stop-color:#008DBE"/>
					<stop  offset="0.8403" style="stop-color:#006C91"/>
					<stop  offset="1" style="stop-color:#005F80"/>
				</radialGradient>
				<path id="SVGID_1_" class="st0" d="M312.5,354v-10.1c0,0-0.5-7.9-8.8-7.9h-12.9v18h-13.2v-52h32c0,0,16.7-2,16.7,15.2
					c0,9-7.4,12.1-7.4,12.1s6.4,3,6.4,11.8V354L312.5,354 M290.8,323.8h13.6c4,0,7.2-2.2,7.2-4.9c0-2.7-3.3-4.9-7.2-4.9h-13.6V323.8
					L290.8,323.8"/>
			</g>
		</g>
		<g>
			<g>
				
					<radialGradient id="SVGID_3_" cx="150.2017" cy="537.2222" r="512.044" gradientTransform="matrix(1 0 0 -1 0 740)" gradientUnits="userSpaceOnUse">
					<stop  offset="0" style="stop-color:#00B1E7"/>
					<stop  offset="0.427" style="stop-color:#0098CD"/>
					<stop  offset="0.5244" style="stop-color:#008DBE"/>
					<stop  offset="0.8403" style="stop-color:#006C91"/>
					<stop  offset="1" style="stop-color:#005F80"/>
				</radialGradient>
				<path id="SVGID_4_" class="st1" d="M468.2,354l-20.9-34.8V354h-11.4h-2.1h-12.4l-4.7-10.9h-24.1l-4.6,10.9h-12.1h-2.2h-6.3
					c0,0-17.8-2.5-17.8-24.5c0-28.9,20.2-27.7,20.9-27.9l16.3,0.4v11.7l-13.4,0.2c0,0-8.7,0-9.8,11.4c-0.1,1.3-0.2,2.5-0.2,3.6
					c0,17.6,15.3,12.1,15.8,12l16.4-38.8H414l19.8,47.2V302h18.7l20.7,34.2V302h13.3v52H468.2 M398.3,329.8h12.8l-6.3-15.5
					L398.3,329.8L398.3,329.8"/>
			</g>
		</g>
		<g>
			<g>
				
					<radialGradient id="SVGID_5_" cx="150.2026" cy="537.2144" r="512.0485" gradientTransform="matrix(1 0 0 -1 0 740)" gradientUnits="userSpaceOnUse">
					<stop  offset="0" style="stop-color:#00B1E7"/>
					<stop  offset="0.427" style="stop-color:#0098CD"/>
					<stop  offset="0.5244" style="stop-color:#008DBE"/>
					<stop  offset="0.8403" style="stop-color:#006C91"/>
					<stop  offset="1" style="stop-color:#005F80"/>
				</radialGradient>
				<path id="SVGID_7_" class="st2" d="M208.9,354v-35.9L192.4,354h-10.8l-16.6-35.7V354h-11.5h-1.8h-12.8l-4.6-10.9h-24.1
					l-4.7,10.9H91.1l21.9-52h18.6l20.1,47.8V302h20.9l14.5,32.3l14.4-32.3h20.9v52H208.9 M115.8,329.8h12.8l-6.4-15.5L115.8,329.8
					L115.8,329.8"/>
			</g>
		</g>
		<g>
			<g>
				
					<radialGradient id="SVGID_6_" cx="150.1743" cy="537.2144" r="512.0867" gradientTransform="matrix(1 0 0 -1 0 740)" gradientUnits="userSpaceOnUse">
					<stop  offset="0" style="stop-color:#00B1E7"/>
					<stop  offset="0.427" style="stop-color:#0098CD"/>
					<stop  offset="0.5244" style="stop-color:#008DBE"/>
					<stop  offset="0.8403" style="stop-color:#006C91"/>
					<stop  offset="1" style="stop-color:#005F80"/>
				</radialGradient>
				<polyline id="SVGID_10_" class="st3" points="229.6,354 229.6,302 270.8,302 270.8,314.2 242.9,314.2 242.9,322.2 270.1,322.2 
					270.1,334 242.9,334 242.9,342.8 270.8,342.8 270.8,354 229.6,354 				"/>
			</g>
		</g>
		<g>
			<g>
				
					<radialGradient id="SVGID_8_" cx="150.1943" cy="537.2119" r="512.0569" gradientTransform="matrix(1 0 0 -1 0 740)" gradientUnits="userSpaceOnUse">
					<stop  offset="0" style="stop-color:#00B1E7"/>
					<stop  offset="0.427" style="stop-color:#0098CD"/>
					<stop  offset="0.5244" style="stop-color:#008DBE"/>
					<stop  offset="0.8403" style="stop-color:#006C91"/>
					<stop  offset="1" style="stop-color:#005F80"/>
				</radialGradient>
				<polyline id="SVGID_13_" class="st4" points="331.9,354.2 331.9,302 345.1,302 345.1,354.2 331.9,354.2 				"/>
			</g>
		</g>
	</g>
	<g>
		<g>
			<g>
				
					<radialGradient id="SVGID_9_" cx="150.1943" cy="537.2144" r="512.0429" gradientTransform="matrix(1 0 0 -1 0 740)" gradientUnits="userSpaceOnUse">
					<stop  offset="0" style="stop-color:#00B1E7"/>
					<stop  offset="0.427" style="stop-color:#0098CD"/>
					<stop  offset="0.5244" style="stop-color:#008DBE"/>
					<stop  offset="0.8403" style="stop-color:#006C91"/>
					<stop  offset="1" style="stop-color:#005F80"/>
				</radialGradient>
				<path id="SVGID_16_" class="st5" d="M363.4,442.2v-10.1c0,0-0.5-7.9-8.8-7.9h-12.8v18h-13.2v-52h32c0,0,16.7-2,16.7,15.2
					c0,9-7.4,12.1-7.4,12.1s6.3,3,6.3,11.8v12.9L363.4,442.2 M341.8,411.9h13.6c4,0,7.2-2.2,7.2-4.9c0-2.7-3.3-4.9-7.2-4.9h-13.6
					V411.9L341.8,411.9"/>
			</g>
		</g>
		<g>
			<g>
				
					<radialGradient id="SVGID_11_" cx="150.2002" cy="537.229" r="512.0732" gradientTransform="matrix(1 0 0 -1 0 740)" gradientUnits="userSpaceOnUse">
					<stop  offset="0" style="stop-color:#00B1E7"/>
					<stop  offset="0.427" style="stop-color:#0098CD"/>
					<stop  offset="0.5244" style="stop-color:#008DBE"/>
					<stop  offset="0.8403" style="stop-color:#006C91"/>
					<stop  offset="1" style="stop-color:#005F80"/>
				</radialGradient>
				<path id="SVGID_19_" class="st6" d="M275.4,442.1h-11.5l-14-15.4l-14.1,15.4h-8h-41.1V390h41.1h7l15.1,16.5l15.2-16.5h10.1V390
					h32c0,0,16.7-1.9,16.7,15.3c0,15.3-5.5,20.1-22.6,20.1h-12.9v16.7L275.4,442.1 M258.9,416.5l16.4,18.1v-36.2L258.9,416.5
					L258.9,416.5 M200,430.8h27.8l13-14.3l-13-14.3H200v8h27.1V422H200V430.8L200,430.8 M288.5,411.8h13.6c4,0,7.2-2.2,7.2-4.9
					c0-2.7-3.3-4.9-7.2-4.9h-13.6V411.8L288.5,411.8"/>
			</g>
		</g>
		<g>
			<g>
				
					<radialGradient id="SVGID_12_" cx="150.2031" cy="537.209" r="512.0401" gradientTransform="matrix(1 0 0 -1 0 740)" gradientUnits="userSpaceOnUse">
					<stop  offset="0" style="stop-color:#00B1E7"/>
					<stop  offset="0.427" style="stop-color:#0098CD"/>
					<stop  offset="0.5244" style="stop-color:#008DBE"/>
					<stop  offset="0.8403" style="stop-color:#006C91"/>
					<stop  offset="1" style="stop-color:#005F80"/>
				</radialGradient>
				<path id="SVGID_22_" class="st7" d="M453.4,442h-23.5v-12h20.6c0,0,7.4,0.9,7.4-4.1c0-4.7-11.2-4.3-11.2-4.3
					s-18.2,1.6-18.2-15.5c0-17,16.4-16,16.4-16h25.3v12.1h-20.4c0,0-7-1.4-7,3.7c0,4.3,9.6,3.7,9.6,3.7s20.2-1.5,20.2,14.2
					c0,16.8-13,18.3-17.6,18.3C454,442.1,453.4,442,453.4,442"/>
			</g>
		</g>
		<g>
			<g>
				
					<radialGradient id="SVGID_14_" cx="150.1929" cy="537.2178" r="512.0659" gradientTransform="matrix(1 0 0 -1 0 740)" gradientUnits="userSpaceOnUse">
					<stop  offset="0" style="stop-color:#00B1E7"/>
					<stop  offset="0.427" style="stop-color:#0098CD"/>
					<stop  offset="0.5244" style="stop-color:#008DBE"/>
					<stop  offset="0.8403" style="stop-color:#006C91"/>
					<stop  offset="1" style="stop-color:#005F80"/>
				</radialGradient>
				<polyline id="SVGID_25_" class="st8" points="382.8,442.1 382.8,390.2 424,390.2 424,402.2 396.1,402.2 396.1,410.2 
					423.3,410.2 423.3,422 396.1,422 396.1,430.8 424,430.8 424,442.1 382.8,442.1 				"/>
			</g>
		</g>
		<g>
			<g>
				
					<radialGradient id="SVGID_15_" cx="150.2041" cy="537.209" r="512.0272" gradientTransform="matrix(1 0 0 -1 0 740)" gradientUnits="userSpaceOnUse">
					<stop  offset="0" style="stop-color:#00B1E7"/>
					<stop  offset="0.427" style="stop-color:#0098CD"/>
					<stop  offset="0.5244" style="stop-color:#008DBE"/>
					<stop  offset="0.8403" style="stop-color:#006C91"/>
					<stop  offset="1" style="stop-color:#005F80"/>
				</radialGradient>
				<path id="SVGID_28_" class="st9" d="M500,442h-23.5v-12H497c0,0,7.5,0.9,7.5-4.1c0-4.7-11.2-4.3-11.2-4.3s-18.2,1.6-18.2-15.5
					c0-17,16.4-16,16.4-16h25.3v12.1h-20.3c0,0-7-1.4-7,3.7c0,4.3,9.6,3.7,9.6,3.7s20.1-1.5,20.1,14.2c0,16.8-13,18.3-17.6,18.3
					C500.6,442.1,500,442,500,442"/>
			</g>
		</g>
	</g>
</g>
</svg>
