<?xml version="1.0" encoding="utf-8"?>
<!-- Generator: Adobe Illustrator 19.1.0, SVG Export Plug-In . SVG Version: 6.00 Build 0)  -->
<svg version="1.1" id="Layer_1" xmlns="http://www.w3.org/2000/svg" xmlns:xlink="http://www.w3.org/1999/xlink" x="0px" y="0px"
	 viewBox="49 113 512 512" style="enable-background:new 49 113 512 512;" xml:space="preserve">
<style type="text/css">
	.st0{fill:url(#SVGID_1_);}
	.st1{fill:#05171D;}
	.st2{fill:#1D1D1B;}
</style>
<radialGradient id="SVGID_1_" cx="314.596" cy="899.605" r="36.7179" gradientTransform="matrix(1 0 0 -1 6.416 1226.083)" gradientUnits="userSpaceOnUse">
	<stop  offset="5.600000e-03" style="stop-color:#FFF2E8"/>
	<stop  offset="9.610000e-02" style="stop-color:#FEEDDF"/>
	<stop  offset="0.2438" style="stop-color:#FDE1C7"/>
	<stop  offset="0.4303" style="stop-color:#FACD9F"/>
	<stop  offset="0.6484" style="stop-color:#F6B168"/>
	<stop  offset="0.8901" style="stop-color:#F08E22"/>
	<stop  offset="1" style="stop-color:#EE7D00"/>
</radialGradient>
<path class="st0" d="M321.1,290.2c-20.5,0-37.2,16-37.2,35.8c0,21,15.9,36.8,37.2,36.8c20.7,0,37.1-15.9,37.1-36.4
	C358.1,306.1,341.9,290.2,321.1,290.2z"/>
<path class="st1" d="M110,291.5H90v69.7h19.9c10.6,0,18.2-2.5,24.9-8c7.9-6.6,12.7-16.5,12.7-26.8C147.4,305.8,132,291.5,110,291.5z
	 M125.9,343.8c-4.3,3.9-9.8,5.6-18.6,5.6h-3.7v-46.1h3.7c8.8,0,14.1,1.6,18.6,5.6c4.7,4.2,7.5,10.7,7.5,17.3
	C133.4,333,130.6,339.7,125.9,343.8z"/>
<rect x="153.7" y="291.5" class="st1" width="13.6" height="69.7"/>
<path class="st1" d="M200.5,318.2c-8.2-3-10.6-5-10.6-8.8c0-4.4,4.3-7.7,10.1-7.7c4.1,0,7.4,1.7,11,5.6l7.1-9.3
	c-5.9-5.1-12.9-7.7-20.5-7.7c-12.3,0-21.7,8.6-21.7,20c0,9.6,4.4,14.5,17.1,19.1c5.3,1.9,8,3.1,9.4,4c2.7,1.8,4.1,4.3,4.1,7.2
	c0,5.7-4.5,9.8-10.6,9.8c-6.5,0-11.7-3.2-14.8-9.3l-8.8,8.5c6.3,9.2,13.8,13.3,24.1,13.3c14.1,0,24-9.4,24-22.9
	C220.6,328.9,216,323.9,200.5,318.2z"/>
<path class="st1" d="M224.9,326.4c0,20.5,16.1,36.4,36.8,36.4c5.9,0,10.9-1.2,17-4.1v-16c-5.4,5.4-10.3,7.6-16.4,7.6
	c-13.7,0-23.4-9.9-23.4-24.1c0-13.4,10-23.9,22.8-23.9c6.5,0,11.4,2.3,17,7.8v-16c-6-3-10.9-4.3-16.7-4.3
	C241.4,289.9,224.9,306.1,224.9,326.4z"/>
<polygon class="st1" points="388.9,338.3 370.3,291.5 355.5,291.5 385.1,363 392.4,363 422.5,291.5 407.7,291.5 "/>
<polygon class="st1" points="428.7,361.2 467.2,361.2 467.2,349.4 442.3,349.4 442.3,330.6 466.3,330.6 466.3,318.8 442.3,318.8 
	442.3,303.3 467.2,303.3 467.2,291.5 428.7,291.5 "/>
<path class="st1" d="M521.1,312.1c0-13.1-9-20.6-24.7-20.6h-20.2v69.7h13.6v-28h1.8l18.8,28h16.7l-22-29.4
	C515.4,329.7,521.1,322.7,521.1,312.1z M493.8,323.6h-4v-21.1h4.2c8.5,0,13.1,3.6,13.1,10.3C507.1,319.8,502.5,323.6,493.8,323.6z"
	/>
<path class="st2" d="M530.7,296.7c0-1.2-0.8-1.9-2.3-1.9h-2v6.1h1.5v-2.4l1.7,2.4h1.8l-2-2.5C530.2,298.2,530.7,297.5,530.7,296.7z
	 M528.1,297.5h-0.3v-1.6h0.3c0.7,0,1.1,0.3,1.1,0.8C529.2,297.2,528.8,297.5,528.1,297.5z"/>
<path class="st2" d="M528.6,292.5c-3,0-5.4,2.4-5.4,5.4c0,3,2.4,5.4,5.4,5.4c2.9,0,5.3-2.4,5.3-5.4
	C533.9,294.9,531.6,292.5,528.6,292.5z M528.6,302.2c-2.4,0-4.3-2-4.3-4.4c0-2.5,1.9-4.4,4.3-4.4c2.3,0,4.2,2,4.2,4.4
	C532.9,300.3,530.9,302.2,528.6,302.2z"/>
</svg>
