<?xml version="1.0" encoding="utf-8"?>
<!-- Generator: Adobe Illustrator 19.1.0, SVG Export Plug-In . SVG Version: 6.00 Build 0)  -->
<svg version="1.1" id="Layer_1" xmlns="http://www.w3.org/2000/svg" xmlns:xlink="http://www.w3.org/1999/xlink" x="0px" y="0px"
	 viewBox="-163 341 87 56" style="enable-background:new -163 341 87 56;" xml:space="preserve">
<style type="text/css">
	.st0{fill:#ED1C2E;}
	.st1{fill:#FCB131;}
	.st2{fill:#003473;}
	.st3{fill:#FFFFFF;}
</style>
<g>
	<g>
		<g>
			<circle class="st0" cx="-135.6" cy="369" r="23.9"/>
			<g>
				<path class="st1" d="M-103.4,345.1c-6.2,0-11.8,2.3-16.1,6.2c-0.9,0.8-1.7,1.6-2.4,2.5h4.8c0.7,0.8,1.3,1.6,1.8,2.5h-8.5
					c-0.5,0.8-1,1.7-1.4,2.5h11.2c0.4,0.8,0.7,1.7,1,2.5h-13.3c-0.3,0.8-0.5,1.7-0.7,2.5h14.7c0.4,1.6,0.5,3.3,0.5,5.1
					c0,2.7-0.4,5.2-1.2,7.6h-13.3c0.3,0.9,0.6,1.7,1,2.5h11.2c-0.4,0.9-0.9,1.7-1.4,2.5h-8.5c0.6,0.9,1.2,1.7,1.8,2.5h4.8
					c-0.7,0.9-1.6,1.8-2.4,2.5c4.2,3.8,9.9,6.2,16.1,6.2c13.2,0,23.9-10.7,23.9-23.9C-79.5,355.8-90.2,345.1-103.4,345.1z"/>
			</g>
		</g>
		<path class="st1" d="M-82.7,382.3c0-0.4,0.3-0.8,0.8-0.8c0.4,0,0.8,0.3,0.8,0.8c0,0.4-0.3,0.8-0.8,0.8S-82.7,382.8-82.7,382.3z
			 M-81.9,382.9c0.3,0,0.6-0.3,0.6-0.6c0-0.3-0.3-0.6-0.6-0.6c-0.3,0-0.6,0.3-0.6,0.6C-82.5,382.7-82.2,382.9-81.9,382.9z
			 M-82,382.7h-0.2V382h0.3c0.1,0,0.1,0,0.2,0c0.1,0,0.1,0.1,0.1,0.2c0,0.1,0,0.1-0.1,0.2l0.1,0.3h-0.2l-0.1-0.3H-82L-82,382.7
			L-82,382.7z M-82,382.3L-82,382.3c0.1,0,0.2,0,0.2,0c0,0,0,0,0-0.1c0,0,0-0.1,0-0.1c0,0-0.1,0-0.1,0H-82V382.3z"/>
	</g>
	<g>
		<g>
			<path class="st2" d="M-141.2,371.6c-0.3,0-0.4,0-0.6,0c-1.5,0-2.2,0.5-2.2,1.5c0,0.6,0.4,1,0.9,1
				C-142,374.1-141.2,373.1-141.2,371.6z M-139.3,376c-0.3,0-2.2,0-2.2,0l0-1c-0.7,0.8-1.5,1.2-2.7,1.2c-1.4,0-2.4-1.1-2.4-2.7
				c0-2.4,1.7-3.8,4.6-3.8c0.3,0,0.7,0,1.1,0.1c0.1-0.3,0.1-0.5,0.1-0.6c0-0.7-0.5-0.9-1.7-0.9c-1.3,0-2.3,0.3-2.8,0.4
				c0-0.2,0.4-2.2,0.4-2.2c1.3-0.4,2.1-0.5,3.1-0.5c2.2,0,3.4,1,3.4,2.9c0,0.5-0.1,1.1-0.2,2C-138.7,372.2-139.2,375.3-139.3,376z"
				/>
			<polygon class="st2" points="-147.6,376 -150.2,376 -148.7,366.7 -152,376 -153.8,376 -154,366.7 -155.5,376 -158,376 
				-155.9,363.9 -152.2,363.9 -152,370.7 -149.7,363.9 -145.5,363.9 			"/>
			<path class="st2" d="M-100.2,371.6c-0.3,0-0.4,0-0.6,0c-1.5,0-2.2,0.5-2.2,1.5c0,0.6,0.4,1,0.9,1
				C-101,374.1-100.3,373.1-100.2,371.6z M-98.3,376c-0.3,0-2.2,0-2.2,0l0-1c-0.7,0.8-1.5,1.2-2.7,1.2c-1.4,0-2.4-1.1-2.4-2.7
				c0-2.4,1.7-3.8,4.6-3.8c0.3,0,0.7,0,1.1,0.1c0.1-0.3,0.1-0.5,0.1-0.6c0-0.7-0.5-0.9-1.7-0.9c-1.3,0-2.3,0.3-2.8,0.4
				c0-0.2,0.4-2.2,0.4-2.2c1.3-0.4,2.1-0.5,3.1-0.5c2.2,0,3.4,1,3.4,2.9c0,0.5-0.1,1.1-0.2,2C-97.8,372.2-98.3,375.3-98.3,376z"/>
			<path class="st2" d="M-127.7,375.9c-0.7,0.2-1.3,0.3-1.9,0.3c-1.3,0-2.1-0.8-2.1-2.2c0-0.4,0.2-1.6,0.4-2.6
				c0.1-0.9,1.1-6.7,1.1-6.7h2.6l-0.3,1.5h1.6l-0.4,2.4h-1.6c-0.3,1.9-0.7,4.2-0.7,4.5c0,0.5,0.3,0.7,0.9,0.7c0.3,0,0.5,0,0.7-0.1
				L-127.7,375.9z"/>
			<path class="st2" d="M-119.8,375.8c-0.9,0.3-1.7,0.4-2.7,0.4c-2.9,0-4.4-1.5-4.4-4.4c0-3.4,1.9-5.9,4.5-5.9
				c2.1,0,3.5,1.4,3.5,3.6c0,0.7-0.1,1.4-0.3,2.4h-5.1c-0.2,1.4,0.7,2,2.2,2c0.9,0,1.8-0.2,2.7-0.6L-119.8,375.8z M-121.3,369.9
				c0-0.2,0.3-1.8-1.2-1.8c-0.8,0-1.4,0.6-1.6,1.8H-121.3z"/>
			<path class="st2" d="M-137.7,369.3c0,1.2,0.6,2.1,2,2.8c1.1,0.5,1.2,0.6,1.2,1.1c0,0.6-0.5,0.9-1.5,0.9c-0.8,0-1.5-0.1-2.3-0.4
				c0,0-0.3,2.2-0.4,2.3c0.6,0.1,1.1,0.2,2.7,0.3c2.7,0,4-1,4-3.3c0-1.4-0.5-2.2-1.8-2.8c-1.1-0.5-1.2-0.6-1.2-1.1
				c0-0.5,0.4-0.8,1.3-0.8c0.5,0,1.2,0.1,1.9,0.1l0.4-2.3c-0.7-0.1-1.7-0.2-2.3-0.2C-136.7,365.9-137.7,367.4-137.7,369.3z"/>
			<path class="st2" d="M-107.2,366.2c0.7,0,1.4,0.2,2.3,0.7l0.4-2.6c-0.4-0.1-1.7-1-2.9-1c-1.7,0-3.2,0.9-4.2,2.3
				c-1.5-0.5-2.1,0.5-2.9,1.5l-0.7,0.2c0.1-0.3,0.1-0.7,0.1-1h-2.4c-0.3,3.1-0.9,6.2-1.4,9.2l-0.1,0.7h2.6c0.4-2.8,0.7-4.6,0.8-5.8
				l1-0.5c0.1-0.5,0.6-0.7,1.5-0.7c-0.1,0.6-0.2,1.3-0.2,2c0,3.2,1.7,5.2,4.5,5.2c0.7,0,1.3-0.1,2.3-0.4l0.5-2.8
				c-0.9,0.4-1.6,0.6-2.2,0.6c-1.5,0-2.4-1.1-2.4-3C-110.5,368.1-109.1,366.2-107.2,366.2z"/>
			<path class="st2" d="M-85.2,363.9l-0.6,3.5c-0.7-0.9-1.5-1.6-2.5-1.6c-1.3,0-2.5,1-3.3,2.5c-1.1-0.2-2.2-0.6-2.2-0.6l0,0
				c0.1-0.8,0.1-1.3,0.1-1.5H-96c-0.3,3.1-0.9,6.2-1.4,9.2l-0.1,0.7h2.6c0.4-2.3,0.6-4.2,0.8-5.7c0.9-0.8,1.3-1.5,2.2-1.5
				c-0.4,1-0.6,2.1-0.6,3.2c0,2.5,1.2,4.1,3.1,4.1c1,0,1.7-0.3,2.4-1.1L-87,376h2.5l2-12.1H-85.2z M-88.4,373.7
				c-0.9,0-1.3-0.7-1.3-1.9c0-1.9,0.8-3.3,2-3.3c0.9,0,1.4,0.7,1.4,1.9C-86.4,372.4-87.2,373.7-88.4,373.7z"/>
		</g>
		<g>
			<polygon class="st3" points="-146.8,375.3 -149.4,375.3 -147.9,366 -151.2,375.3 -153,375.3 -153.2,366 -154.8,375.3 
				-157.2,375.3 -155.2,363.2 -151.5,363.2 -151.4,370.7 -148.8,363.2 -144.8,363.2 			"/>
			<path class="st3" d="M-140.4,370.9c-0.3,0-0.4,0-0.6,0c-1.5,0-2.2,0.5-2.2,1.5c0,0.6,0.4,1,0.9,1
				C-141.2,373.4-140.5,372.4-140.4,370.9z M-138.5,375.3c-0.3,0-2.2,0-2.2,0l0-1c-0.7,0.8-1.5,1.2-2.7,1.2c-1.4,0-2.4-1.1-2.4-2.7
				c0-2.4,1.7-3.8,4.6-3.8c0.3,0,0.7,0,1.1,0.1c0.1-0.3,0.1-0.5,0.1-0.6c0-0.7-0.5-0.9-1.7-0.9c-1.3,0-2.3,0.3-2.8,0.4
				c0-0.2,0.4-2.2,0.4-2.2c1.3-0.4,2.1-0.5,3.1-0.5c2.2,0,3.4,1,3.4,2.9c0,0.5-0.1,1.1-0.2,2C-138,371.5-138.5,374.6-138.5,375.3z"
				/>
			<path class="st3" d="M-103.7,363.5l-0.4,2.6c-0.9-0.5-1.6-0.7-2.3-0.7c-1.9,0-3.3,1.9-3.3,4.5c0,1.8,0.9,3,2.4,3
				c0.6,0,1.3-0.2,2.2-0.6l-0.5,2.8c-1,0.3-1.6,0.4-2.3,0.4c-2.8,0-4.5-2-4.5-5.2c0-4.3,2.4-7.4,5.9-7.4
				C-105.4,362.9-104,363.3-103.7,363.5z"/>
			<path class="st3" d="M-99.5,370.9c-0.3,0-0.4,0-0.6,0c-1.5,0-2.2,0.5-2.2,1.5c0,0.6,0.4,1,0.9,1
				C-100.3,373.4-99.5,372.4-99.5,370.9z M-97.6,375.3c-0.3,0-2.2,0-2.2,0l0-1c-0.7,0.8-1.5,1.2-2.7,1.2c-1.4,0-2.4-1.1-2.4-2.7
				c0-2.4,1.7-3.8,4.6-3.8c0.3,0,0.7,0,1.1,0.1c0.1-0.3,0.1-0.5,0.1-0.6c0-0.7-0.5-0.9-1.7-0.9c-1.3,0-2.3,0.3-2.8,0.4
				c0-0.2,0.4-2.2,0.4-2.2c1.3-0.4,2.1-0.5,3.1-0.5c2.2,0,3.4,1,3.4,2.9c0,0.5-0.1,1.1-0.2,2C-97,371.5-97.5,374.6-97.6,375.3z"/>
			<path class="st3" d="M-127,375.1c-0.7,0.2-1.3,0.3-1.9,0.3c-1.3,0-2.1-0.8-2.1-2.2c0-0.4,0.2-1.6,0.4-2.6
				c0.1-0.9,1.1-6.7,1.1-6.7h2.6l-0.3,1.5h1.3l-0.4,2.4h-1.3c-0.3,1.9-0.7,4.2-0.7,4.5c0,0.5,0.3,0.7,0.9,0.7c0.3,0,0.5,0,0.7-0.1
				L-127,375.1z"/>
			<path class="st3" d="M-119.1,375.1c-0.9,0.3-1.7,0.4-2.7,0.4c-2.9,0-4.4-1.5-4.4-4.4c0-3.4,1.9-5.9,4.5-5.9
				c2.1,0,3.5,1.4,3.5,3.6c0,0.7-0.1,1.4-0.3,2.4h-5.1c-0.2,1.4,0.7,2,2.2,2c0.9,0,1.8-0.2,2.7-0.6L-119.1,375.1z M-120.5,369.2
				c0-0.2,0.3-1.8-1.2-1.8c-0.8,0-1.4,0.6-1.6,1.8H-120.5z"/>
			<path class="st3" d="M-137,368.5c0,1.2,0.6,2.1,2,2.8c1.1,0.5,1.2,0.6,1.2,1.1c0,0.6-0.5,0.9-1.5,0.9c-0.8,0-1.5-0.1-2.3-0.4
				c0,0-0.3,2.2-0.4,2.3c0.6,0.1,1.1,0.2,2.7,0.3c2.7,0,4-1,4-3.3c0-1.4-0.5-2.2-1.8-2.8c-1.1-0.5-1.2-0.6-1.2-1.1
				c0-0.5,0.4-0.8,1.3-0.8c0.5,0,1.2,0.1,1.9,0.1l0.4-2.3c-0.7-0.1-1.7-0.2-2.3-0.2C-136,365.2-137,366.7-137,368.5z"/>
			<path class="st3" d="M-83.8,375.3h-2.5l0.1-0.9c-0.7,0.8-1.4,1.1-2.4,1.1c-1.9,0-3.1-1.6-3.1-4.1c0-3.3,1.9-6.1,4.2-6.1
				c1,0,1.8,0.4,2.5,1.3l0.6-3.5h2.6L-83.8,375.3z M-87.7,373c1.2,0,2.1-1.4,2.1-3.3c0-1.3-0.5-1.9-1.4-1.9c-1.2,0-2,1.4-2,3.3
				C-89,372.4-88.5,373-87.7,373z"/>
			<path class="st3" d="M-95.2,365.4c-0.3,3.1-0.9,6.1-1.4,9.2l-0.1,0.7h2.6c0.9-6,1.2-7.2,2.6-7.1c0.2-1.2,0.7-2.3,1-2.9
				c-1.1-0.2-1.7,0.4-2.5,1.6c0.1-0.5,0.2-1,0.2-1.5H-95.2z"/>
			<path class="st3" d="M-116.6,365.4c-0.3,3.1-0.9,6.1-1.4,9.2l-0.1,0.7h2.6c0.9-6,1.2-7.2,2.6-7.1c0.2-1.2,0.7-2.3,1-2.9
				c-1.1-0.2-1.7,0.4-2.5,1.6c0.1-0.5,0.2-1,0.2-1.5H-116.6z"/>
			<g>
				<path class="st3" d="M-82.7,374.5c0-0.4,0.3-0.8,0.8-0.8c0.4,0,0.8,0.3,0.8,0.8c0,0.4-0.3,0.8-0.8,0.8
					C-82.3,375.3-82.7,375-82.7,374.5z M-81.9,375.1c0.3,0,0.6-0.3,0.6-0.6c0-0.3-0.3-0.6-0.6-0.6c-0.3,0-0.6,0.3-0.6,0.6
					C-82.5,374.9-82.2,375.1-81.9,375.1z M-82,374.9h-0.2v-0.7h0.3c0.1,0,0.1,0,0.2,0c0.1,0,0.1,0.1,0.1,0.2c0,0.1,0,0.1-0.1,0.2
					l0.1,0.3h-0.2l-0.1-0.3H-82L-82,374.9L-82,374.9z M-82,374.5L-82,374.5c0.1,0,0.2,0,0.2,0c0,0,0,0,0-0.1c0,0,0-0.1,0-0.1
					c0,0-0.1,0-0.1,0H-82V374.5z"/>
			</g>
		</g>
	</g>
</g>
</svg>
