<?xml version="1.0" standalone="no"?>
<!DOCTYPE svg PUBLIC "-//W3C//DTD SVG 1.1//EN" "http://www.w3.org/Graphics/SVG/1.1/DTD/svg11.dtd" >
<svg>
<metadata>
Created by FontForge 20120731 at Tue May 31 08:59:47 2016
 By www
Copyright (c) 2008 by Gaurav Giri. All rights reserved.
</metadata>
<defs>
<font id="Helvetica-Bold" horiz-adv-x="722" >
  <font-face 
    font-family="Helvetica"
    font-weight="700"
    font-stretch="normal"
    units-per-em="1000"
    panose-1="0 0 0 0 0 0 0 0 0 0"
    ascent="725"
    descent="-275"
    x-height="564"
    cap-height="743"
    bbox="-1018 -481 1426 1188"
    underline-thickness="50"
    underline-position="-27"
    unicode-range="U+0008-F8FF"
  />
<missing-glyph horiz-adv-x="1000" 
d="M104 0v750h750v-750h-750zM167 62h625v625h-625v-625z" />
    <glyph glyph-name=".notdef" horiz-adv-x="1000" 
d="M104 0v750h750v-750h-750zM167 62h625v625h-625v-625z" />
    <glyph glyph-name="uni0000" horiz-adv-x="0" 
 />
    <glyph glyph-name="uni0000" horiz-adv-x="0" 
 />
    <glyph glyph-name="uni0000" horiz-adv-x="0" 
 />
    <glyph glyph-name="nonmarkingreturn" unicode="&#x9;" horiz-adv-x="278" 
 />
    <glyph glyph-name="nonmarkingreturn" unicode="&#xd;" horiz-adv-x="278" 
 />
    <glyph glyph-name="nonmarkingreturn" unicode="&#xa;" horiz-adv-x="278" 
 />
    <glyph glyph-name="space" unicode=" " horiz-adv-x="250" 
 />
    <glyph glyph-name="exclam" unicode="!" horiz-adv-x="238" 
d="M187 742l-15 -508q0 -8 -6 -14t-14 -6h-65q-8 0 -14.5 6t-6.5 14l-15 508q0 8 6.5 13.5t14.5 5.5h95q8 0 14 -5.5t6 -13.5zM187 17q0 -9 -5.5 -14.5t-13.5 -5.5h-98q-8 0 -13.5 5.5t-5.5 14.5v113q0 8 5.5 13.5t13.5 5.5h98q8 0 13.5 -5.5t5.5 -13.5v-113z" />
    <glyph glyph-name="quotedbl" unicode="&#x22;" horiz-adv-x="417" 
d="M412 750q0 -2 -2 -8l-68 -207q-6 -19 -19 -19h-88q-9 0 -9 10q0 6 1 9l51 207q4 19 20 19h102q12 0 12 -11zM204 750q0 -2 -2 -8l-68 -207q-6 -19 -19 -19h-88q-9 0 -9 10q0 6 1 9l51 207q5 19 20 19h102q12 0 12 -11z" />
    <glyph glyph-name="numbersign" unicode="#" horiz-adv-x="672" 
d="M579 191h-84l-15 -172q-2 -19 -18 -19h-87q-7 0 -11.5 5t-4.5 12v2l15 172h-122l-15 -172q-2 -19 -18 -19h-88q-6 0 -11 5.5t-5 11.5v2l15 172h-79q-8 0 -14 5.5t-6 12.5v2l5 54q1 8 6.5 14t13.5 6h82l15 170h-76q-8 0 -14 5t-6 13v2l5 53q0 8 6 14t14 6h79l16 176
q2 9 7 14t12 5h88q16 0 15 -19l-16 -176h122l16 176q2 19 19 19h87q15 0 15 -17v-2l-16 -176h83q8 0 14 -5t6 -13v-2l-5 -53q-1 -9 -6.5 -14.5t-13.5 -5.5h-86l-15 -170h81q9 0 14.5 -5t5.5 -13v-2l-5 -54q0 -8 -6 -14t-14 -6zM275 455l-15 -170h122l15 170h-122z" />
    <glyph glyph-name="dollar" unicode="$" horiz-adv-x="608" 
d="M283 111q64 0 91 22.5t27 67.5q0 29 -17 49t-66 49l-132 79q-45 27 -71.5 55.5t-36.5 60t-10 67.5q0 155 166 184v84q0 7 6.5 13.5t13.5 6.5h91q8 0 14 -6.5t6 -13.5v-82q34 -4 68 -15t50 -20q22 -12 22 -27v-68q0 -24 -25 -15q-26 10 -77 20t-91 10q-105 0 -105 -70
q0 -24 16.5 -41t65.5 -46l120 -71q38 -22 66 -47t42 -47.5t20.5 -49t6.5 -59.5q0 -34 -9.5 -65.5t-30.5 -59.5t-55.5 -48t-83.5 -29v-91q0 -8 -6 -14t-14 -6h-91q-7 0 -13.5 6t-6.5 14v87q-46 5 -82.5 17t-48.5 20q-14 9 -18 13.5t-4 13.5v68q0 22 25 15q97 -31 177 -31z
" />
    <glyph glyph-name="percent" unicode="%" horiz-adv-x="801" 
d="M320 498q0 -170 -144 -170q-69 0 -106.5 42.5t-37.5 127.5v81q0 56 17 94t49 56.5t78 18.5q70 0 107 -41.5t37 -127.5v-81zM230 498v81q0 49 -13.5 69t-40.5 20t-40.5 -20.5t-13.5 -68.5v-81q0 -48 13.5 -69t40.5 -21t40.5 20.5t13.5 69.5zM667 735q0 -6 -4 -12
l-419 -709q-6 -11 -10 -14t-11 -3h-82q-10 0 -10 9q0 7 4 12l419 708q7 10 10.5 13.5t11.5 3.5h81q10 0 10 -8zM770 165q0 -85 -37 -127.5t-107 -42.5t-107 42.5t-37 127.5v81q0 85 37.5 127t106.5 42q70 0 107 -42t37 -127v-81zM680 165v81q0 49 -13.5 69t-40.5 20
t-40.5 -20.5t-13.5 -68.5v-81q0 -48 13.5 -69t40.5 -21t40.5 20.5t13.5 69.5z" />
    <glyph glyph-name="ampersand" unicode="&#x26;" horiz-adv-x="706" 
d="M679 11q0 -11 -11 -11h-112q-9 0 -17 8l-37 39q-79 -55 -190 -55q-117 0 -191 47t-74 145v10q0 41 16 74t45 60t76 56l-7 8q-42 48 -62 80.5t-26.5 55.5t-6.5 49v9q0 50 25.5 87t77 57.5t125.5 20.5q50 0 89.5 -11.5t67.5 -33t43 -52t15 -68.5v-9q0 -64 -39.5 -110.5
t-108.5 -88.5l-24 -15l150 -160q26 59 26 143v12q0 9 4.5 14.5t12.5 5.5h73q8 0 13 -6t5 -14v-12q0 -131 -60 -221l98 -104q4 -4 4 -10zM406 577v9q0 23 -11 39t-32.5 24t-52.5 8q-51 0 -80.5 -18.5t-29.5 -52.5v-9q0 -20 4 -35t20 -38t46 -53l9 -9l30 18q57 34 77 58t20 59
zM433 120l-175 186q-44 -26 -59 -50.5t-15 -61.5v-10q0 -46 35.5 -70t92.5 -24q71 0 121 30z" />
    <glyph glyph-name="quotesingle" unicode="'" horiz-adv-x="216" 
d="M211 750q0 -2 -2 -8l-68 -207q-5 -19 -19 -19h-88q-9 0 -9 10q0 6 1 9l51 207q4 19 20 19h102q12 0 12 -11z" />
    <glyph glyph-name="parenleft" unicode="(" horiz-adv-x="321" 
d="M295 -185q0 -10 -12 -10h-71q-24 0 -34 14q-67 94 -99 199.5t-32 245.5v19q0 140 32 246t99 200q10 14 34 14h71q12 0 12 -10q0 -7 -5 -16q-108 -199 -108 -434v-19q0 -131 29.5 -235.5t78.5 -197.5q5 -8 5 -16z" />
    <glyph glyph-name="parenright" unicode=")" horiz-adv-x="321" 
d="M274 264q0 -71 -8.5 -134.5t-25 -116.5t-41 -101.5t-56.5 -92.5q-11 -14 -34 -14h-71q-12 0 -12 10q0 8 5 16q31 56 55 121t38.5 143t14.5 169v19q0 90 -15 169.5t-38.5 144t-54.5 120.5q-5 9 -5 16q0 10 12 10h71q24 0 34 -14q32 -44 57 -93t41 -102t24.5 -116.5
t8.5 -134.5v-19z" />
    <glyph glyph-name="asterisk" unicode="*" horiz-adv-x="463" 
d="M430 583q0 -11 -15 -16l-119 -36l74 -101q5 -7 5 -14q0 -6 -6 -11l-41 -30q-4 -3 -9 -3q-8 0 -15 10l-72 102l-72 -102q-7 -10 -15 -10q-4 0 -9 3l-42 30q-6 5 -6 11q0 7 5 14l75 101l-118 36q-16 5 -16 16q0 3 1 5l16 49q3 10 13 10q3 0 10 -2l119 -39l-2 125
q0 19 15 19h52q15 0 15 -20l-1 -124l118 39q6 2 10 2q10 0 13 -10l16 -49q1 -2 1 -5z" />
    <glyph glyph-name="plus" unicode="+" horiz-adv-x="606" 
d="M536 352q0 -16 -20 -16h-158v-157q0 -20 -16 -20h-78q-16 0 -16 20v157h-157q-20 0 -20 16v78q0 16 20 16h157v158q0 20 16 20h78q16 0 16 -20v-158h158q20 0 20 -16v-78z" />
    <glyph glyph-name="comma" unicode="," horiz-adv-x="251" 
d="M210 140l-2 -7l-87 -210q-8 -20 -19 -20h-77q-7 0 -11 4t-4 10q0 4 1 6l61 210q7 19 20 19h104q14 0 14 -12z" />
    <glyph glyph-name="hyphen" unicode="-" horiz-adv-x="309" 
d="M272 272q0 -8 -5.5 -13t-13.5 -5h-196q-8 0 -14 5.5t-6 12.5v71q0 8 5.5 13.5t14.5 5.5h196q8 0 13.5 -5.5t5.5 -13.5v-71z" />
    <glyph glyph-name="period" unicode="." horiz-adv-x="241" 
d="M189 20q0 -9 -6 -14.5t-14 -5.5h-97q-8 0 -14 6t-6 14v113q0 8 6 13.5t14 5.5h97q9 0 14.5 -5t5.5 -14v-113z" />
    <glyph glyph-name="slash" unicode="/" horiz-adv-x="382" 
d="M372 728q0 -3 -1 -5l-217 -702q-7 -21 -19 -21h-105q-6 0 -11.5 5t-5.5 11q1 2 1 3v2l218 702q6 20 19 20h105q7 0 11.5 -4t4.5 -11z" />
    <glyph glyph-name="zero" unicode="0" horiz-adv-x="615" 
d="M568 334q0 -93 -17.5 -157.5t-51.5 -105.5t-81.5 -60t-110.5 -19q-62 0 -110 19t-82 60t-51.5 106.5t-17.5 156.5v74q0 91 17.5 157.5t51 107t82 59.5t110.5 19q128 0 194.5 -81t66.5 -262v-74zM429 334v74q0 127 -32.5 178.5t-89.5 51.5t-89.5 -51.5t-32.5 -178.5v-74
q0 -86 15.5 -137t42.5 -71.5t64 -20.5t64 20.5t42.5 71.5t15.5 137z" />
    <glyph glyph-name="one" unicode="1" horiz-adv-x="615" 
d="M395 20q0 -9 -6 -14.5t-14 -5.5h-98q-7 0 -13.5 6t-6.5 14v583l-118 -40q-5 -2 -12 -2q-11 0 -11 12v97q0 8 7 11l164 58q11 4 23 4h66q8 0 13.5 -5.5t5.5 -13.5v-704z" />
    <glyph glyph-name="two" unicode="2" horiz-adv-x="615" 
d="M292 642q-48 0 -104 -12.5t-86 -24.5q-25 -9 -25 15v57q0 14 22 27q14 8 47 19.5t75.5 19.5t81.5 8q126 0 183 -44.5t57 -138.5q0 -60 -30.5 -105t-94.5 -89l-90 -60q-51 -34 -81 -62t-45.5 -61t-15.5 -73v-4h329q9 0 14.5 -5t5.5 -13v-76q0 -8 -6.5 -14t-13.5 -6h-424
q-8 0 -14 6t-6 14v98q0 59 20 109t53 86.5t79 66.5l99 66q42 29 60 44.5t25 32t7 45.5q0 40 -29 57t-93 17z" />
    <glyph glyph-name="three" unicode="3" horiz-adv-x="615" 
d="M292 -8q-59 1 -110 11t-84 25q-22 11 -22 27v57q0 17 14 17q3 0 11 -2q33 -11 83 -18t92 -7q69 0 96 25.5t27 80.5v21q0 46 -19.5 73.5t-72.5 27.5h-177q-8 0 -13.5 5.5t-5.5 13.5v63q0 8 5.5 13.5t13.5 5.5h177q53 0 72.5 26t19.5 72v16q0 45 -23.5 71t-86.5 26
q-47 0 -102.5 -12.5t-85.5 -24.5q-6 -2 -11 -2q-14 0 -14 17v57q0 14 22 27q26 16 84 31.5t120 15.5q69 0 122 -21.5t83.5 -67.5t30.5 -117v-16q0 -101 -86 -148q41 -22 63.5 -63t22.5 -89v-21q0 -54 -18.5 -94.5t-52 -67.5t-77.5 -40.5t-98 -13.5z" />
    <glyph glyph-name="four" unicode="4" horiz-adv-x="615" 
d="M584 199q0 -9 -6 -14.5t-14 -5.5h-74v-159q0 -8 -5.5 -14t-12.5 -6h-103q-8 0 -13 6t-5 14v159h-300q-8 0 -14 6t-6 14v81q0 17 11 32l308 413q13 18 29 18h91q8 0 14 -6.5t6 -13.5v-434h74q8 0 14 -6t6 -14v-70zM352 289v254q0 6 -3 6q-2 0 -7 -6l-175 -243q-3 -3 -3 -6
q0 -5 8 -5h180z" />
    <glyph glyph-name="five" unicode="5" horiz-adv-x="615" 
d="M273 102q73 0 101 32t28 103v5q0 44 -15 67.5t-54.5 34t-107.5 10.5h-132q-16 0 -14 15l32 356q1 7 6.5 12.5t13.5 5.5h363q8 0 14 -5.5t6 -13.5v-76q0 -8 -6 -13.5t-14 -5.5h-271l-15 -166h50q56 0 104 -8.5t89.5 -31.5t65.5 -67t24 -114v-5q0 -58 -15.5 -103t-48 -77
t-80.5 -48.5t-113 -16.5q-108 0 -189 36q-22 11 -22 27v57q0 22 25 15q16 -5 46 -11t65.5 -10t63.5 -4z" />
    <glyph glyph-name="six" unicode="6" horiz-adv-x="615" 
d="M318 751q31 0 62.5 -5t56 -12t44.5 -15.5t30 -14.5q22 -13 22 -27v-57q0 -11 -6.5 -15t-18.5 0q-25 10 -82.5 23t-101.5 13q-51 0 -81 -17t-44 -57t-16 -108q70 12 124 12q71 0 130 -20.5t94.5 -69.5t35.5 -131v-10q0 -55 -17 -101t-50.5 -79t-81.5 -50.5t-109 -17.5
q-56 0 -104 18.5t-83.5 56t-55 97t-19.5 137.5v115q0 88 17.5 152.5t51 104.5t83.5 59t119 19zM431 240v10q0 119 -137 119q-19 0 -52.5 -3t-58.5 -8v-57q0 -117 32.5 -159t93.5 -42q122 0 122 140z" />
    <glyph glyph-name="seven" unicode="7" horiz-adv-x="615" 
d="M546 649q0 -9 -18 -46l-270 -584q-6 -11 -11.5 -15t-15.5 -4h-104q-14 0 -14 15q0 4 2 9l287 598v2q0 2 -1 3.5t-4 1.5h-308q-8 0 -14 5.5t-6 12.5v77q0 8 6 13.5t14 5.5h417q16 0 28 -11.5t12 -28.5v-54z" />
    <glyph glyph-name="eight" unicode="8" horiz-adv-x="615" 
d="M569 215q0 -58 -20 -100t-56 -69.5t-81.5 -40.5t-99.5 -13h-10q-111 0 -183.5 56t-72.5 167v9q0 49 24.5 91t66.5 72q-87 57 -87 156v4q0 54 19.5 93.5t54 64t80 35.5t98.5 11h10q73 0 130 -20.5t90.5 -66t33.5 -117.5v-4q0 -47 -21.5 -86.5t-66.5 -69.5q28 -20 48 -45
t31.5 -55t11.5 -63v-9zM437 539v4q0 106 -125 106h-10q-123 0 -123 -106v-4q0 -46 26.5 -74.5t81.5 -28.5h41q55 0 82 28t27 75zM434 215v9q0 43 -26 76.5t-80 33.5h-41q-54 0 -80 -33.5t-26 -76.5v-9q0 -52 31.5 -85.5t89.5 -33.5h10q59 0 90.5 33.5t31.5 85.5z" />
    <glyph glyph-name="nine" unicode="9" horiz-adv-x="615" 
d="M296 -8q-59 0 -112.5 15.5t-80.5 31.5q-22 12 -22 27v57q0 24 25 15q34 -13 87.5 -24.5t96.5 -11.5q52 0 81.5 17t44 57t15.5 108q-65 -12 -124 -12q-72 0 -130 20t-94 70t-36 131v10q0 113 68.5 180.5t189.5 67.5q76 0 135.5 -32.5t93 -102t33.5 -174.5v-115
q0 -88 -17 -151.5t-51 -104t-84.5 -60t-118.5 -19.5zM183 503v-10q0 -119 137 -119q20 0 55.5 3.5t55.5 7.5v57q0 117 -32 159t-94 42q-57 0 -89.5 -31.5t-32.5 -108.5z" />
    <glyph glyph-name="colon" unicode=":" horiz-adv-x="242" 
d="M193 414q0 -8 -5.5 -13.5t-14.5 -5.5h-97q-9 0 -14.5 5.5t-5.5 13.5v113q0 8 5.5 14t14.5 6h97q9 0 14.5 -5.5t5.5 -14.5v-113zM193 20q0 -9 -6 -14.5t-14 -5.5h-97q-8 0 -14 6t-6 14v113q0 8 5.5 13.5t14.5 5.5h97q9 0 14.5 -5t5.5 -14v-113z" />
    <glyph glyph-name="semicolon" unicode=";" horiz-adv-x="251" 
d="M202 414q0 -8 -6 -13.5t-14 -5.5h-97q-8 0 -14 5.5t-6 13.5v113q0 8 6 14t14 6h97q8 0 14 -6t6 -14v-113zM204 140l-2 -7l-87 -210q-3 -9 -7 -14.5t-12 -5.5h-77q-6 0 -10.5 4.5t-4.5 9.5q0 4 1 6l61 210q6 19 20 19h104q14 0 14 -12z" />
    <glyph glyph-name="less" unicode="&#x3c;" horiz-adv-x="598" 
d="M502 153q0 -6 -3.5 -10t-8.5 -4h-118q-7 0 -11.5 3t-10.5 8l-231 202q-14 13 -18.5 20.5t-4.5 18.5t5 19.5t18 19.5l231 202q5 5 9.5 8t12.5 3h118q6 0 9 -4t3 -10q0 -7 -6 -12l-260 -226l260 -226q6 -4 6 -12z" />
    <glyph glyph-name="equal" unicode="=" horiz-adv-x="604" 
d="M525 473q0 -16 -20 -16h-405q-20 0 -20 16v78q0 16 20 16h405q20 0 20 -16v-78zM525 231q0 -8 -5.5 -12t-14.5 -4h-405q-9 0 -14.5 4.5t-5.5 11.5v78q0 7 5.5 11.5t14.5 4.5h405q9 0 14.5 -4t5.5 -12v-78z" />
    <glyph glyph-name="greater" unicode="&#x3e;" horiz-adv-x="598" 
d="M503 391q0 -12 -5 -20t-18 -19l-231 -202q-6 -5 -10.5 -8t-11.5 -3h-119q-5 0 -8.5 4.5t-3.5 9.5q0 8 6 12l260 226l-260 226q-6 5 -6 12q0 5 3.5 9.5t8.5 4.5h119q8 0 12.5 -3t9.5 -8l231 -202q12 -10 17.5 -18.5t5.5 -20.5z" />
    <glyph glyph-name="question" unicode="?" horiz-adv-x="429" 
d="M233 19q0 -8 -5.5 -13.5t-14.5 -5.5h-98q-9 0 -14.5 5.5t-5.5 13.5v113q0 8 5.5 14t14.5 6h98q9 0 14.5 -5.5t5.5 -14.5v-113zM196 632q-61 0 -145 -30q-12 -4 -18.5 0t-6.5 15v68q0 9 5.5 15t16.5 12q10 5 34 14.5t60.5 17t78.5 7.5q88 0 135 -35t47 -127v-6
q0 -37 -13 -71t-58 -87l-61 -72q-5 -6 -15.5 -18.5t-17 -21.5t-10 -20.5t-3.5 -21.5v-38q0 -7 -6.5 -13t-13.5 -6h-83q-8 0 -13.5 5.5t-5.5 13.5v38q0 47 12 76.5t47 70.5l64 74q18 22 23.5 41t5.5 50v4q0 23 -12.5 34t-46.5 11z" />
    <glyph glyph-name="at" unicode="@" horiz-adv-x="762" 
d="M655 362q0 62 -26 114.5t-80.5 84t-133.5 31.5q-66 0 -117 -16.5t-88 -48t-58.5 -78.5t-27.5 -105l-15 -158q-2 -24 -2 -33q0 -92 63.5 -147t186.5 -55q79 0 145 7q9 0 11 -1t2 -8v-37q0 -12 -13 -13q-74 -10 -145 -10q-96 0 -170 31.5t-115 91.5t-41 142q0 21 1 32
l15 163q6 70 33.5 127.5t75 98.5t114 63t146.5 22q78 0 138 -24.5t99 -66t59 -95t20 -112.5q0 -73 -16.5 -130.5t-46.5 -97t-68.5 -59.5t-80.5 -20q-36 0 -54 11.5t-32 29.5q-28 -20 -56.5 -34t-67.5 -14q-50 0 -83.5 37.5t-33.5 105.5q0 4 0.5 8t0.5 10l9 117
q6 82 57.5 123.5t136.5 41.5q20 1 57.5 -4t74.5 -11q23 -3 23 -30l-24 -254q0 -5 -0.5 -7.5t-0.5 -5.5q0 -33 23 -33q58 0 81 65.5t24 150.5zM420 161l21 236q-30 5 -55 5q-38 0 -55.5 -18t-21.5 -62l-11 -112q-1 -6 -1 -17q0 -22 14.5 -38.5t40.5 -16.5q32 0 68 23z" />
    <glyph glyph-name="A" unicode="A" horiz-adv-x="642" 
d="M625 17q0 -8 -5 -12.5t-13 -4.5h-106q-6 0 -12 5t-7 12l-46 190h-230l-46 -190q-1 -7 -7 -12t-12 -5h-106q-8 0 -13 4.5t-5 12.5q1 1 1 2v3l164 627q26 102 139 102t139 -102l164 -627q1 -1 1 -2v-3zM409 321l-72 297q-3 9 -6 12.5t-10 3.5t-10 -3.5t-6 -12.5l-72 -297
h176z" />
    <glyph glyph-name="B" unicode="B" horiz-adv-x="632" 
d="M589 208q0 -77 -36 -125t-104 -69.5t-164 -21.5q-116 0 -173 11q-26 5 -37 16.5t-11 37.5v630q0 18 4.5 29t14 16.5t26.5 8.5q25 4 69.5 7t97.5 3q73 0 127.5 -11t95.5 -34.5t63 -63t22 -94.5v-20q0 -33 -10.5 -63t-31.5 -52.5t-50 -35.5q46 -19 71.5 -58t25.5 -94v-17z
M449 526v14q0 36 -16.5 56.5t-54.5 30t-102 9.5q-20 0 -73 -2v-203h127q65 0 92 26t27 69zM453 210v13q0 47 -28.5 76.5t-94.5 29.5h-127v-220q13 0 42.5 -1t39.5 -1q93 0 130.5 24.5t37.5 78.5z" />
    <glyph glyph-name="C" unicode="C" horiz-adv-x="549" 
d="M323 -8q-49 0 -96.5 14.5t-88.5 48.5t-66 94t-25 149v147q0 119 40.5 187t101.5 93.5t134 25.5q38 0 73 -7.5t60 -17.5t32 -14q22 -12 22 -27v-68q0 -24 -25 -15q-17 6 -45 13.5t-55.5 12t-52.5 4.5q-50 0 -81.5 -17.5t-47.5 -58.5t-16 -111v-147q0 -68 16 -109.5
t48 -59.5t81 -18q39 0 80.5 9t72.5 21q25 9 25 -15v-68q0 -15 -22 -27q-21 -12 -67 -25.5t-98 -13.5z" />
    <glyph glyph-name="D" unicode="D" horiz-adv-x="648" 
d="M601 298q0 -98 -37 -167t-107 -104t-170 -35q-24 0 -72 2t-78 4.5t-47 5.5q-26 4 -26 31v673q0 26 26 31q16 3 48.5 5.5t78.5 4.5t70 2q100 0 170 -35t107 -104.5t37 -166.5v-147zM463 298v147q0 71 -22 113t-61 59t-93 17q-23 0 -30.5 -0.5t-23.5 -1t-30 -1.5v-519
q25 -1 44.5 -2t39.5 -1q54 0 92.5 17t61 58.5t22.5 113.5z" />
    <glyph glyph-name="E" unicode="E" horiz-adv-x="556" 
d="M505 27q0 -19 -20 -21q-10 -1 -26 -4t-48 -5.5t-52 -3.5t-64 -1q-71 0 -121.5 17t-80 62t-29.5 126v349q0 80 29.5 125.5t80 62.5t121.5 17q106 0 190 -14q12 -2 16 -6t4 -15v-64q0 -8 -6 -14t-14 -6h-204q-44 0 -61.5 -18.5t-17.5 -67.5v-108h271q8 0 14 -6t6 -14v-72
q0 -8 -6.5 -14t-13.5 -6h-271v-129q0 -49 17.5 -67.5t61.5 -18.5h204q9 0 14.5 -5.5t5.5 -14.5v-64z" />
    <glyph glyph-name="F" unicode="F" horiz-adv-x="556" 
d="M505 652q0 -8 -6 -14t-14 -6h-204q-44 0 -61.5 -18.5t-17.5 -67.5v-108h271q8 0 14 -6t6 -14v-72q0 -8 -6.5 -14t-13.5 -6h-271v-306q0 -8 -6.5 -14t-13.5 -6h-98q-7 0 -13.5 6t-6.5 14v526q0 80 29.5 125.5t80 62.5t121.5 17q106 0 190 -14q12 -2 16 -6t4 -15v-64z" />
    <glyph glyph-name="G" unicode="G" horiz-adv-x="616" 
d="M187 445v-146q0 -98 38 -143t90 -45t99 3v255q0 8 5.5 14t13.5 6h99q8 0 14 -6t6 -14v-336q0 -19 -19 -24q-25 -5 -56 -9t-77.5 -6t-84.5 -2q-44 0 -89.5 15.5t-87 52t-66.5 96.5t-25 143v144q0 91 25.5 152.5t68.5 95.5t90.5 47t101.5 13q44 0 83 -9.5t69 -21.5t45 -22
q22 -12 22 -27v-67q0 -24 -25 -15q-37 15 -85.5 29t-98.5 14q-81 0 -118.5 -42.5t-37.5 -144.5z" />
    <glyph glyph-name="H" unicode="H" horiz-adv-x="690" 
d="M626 20q0 -9 -6 -14.5t-14 -5.5h-99q-7 0 -13.5 6t-6.5 14v306h-284v-306q0 -8 -6.5 -14t-13.5 -6h-99q-7 0 -13.5 6t-6.5 14v704q0 8 6 13.5t14 5.5h99q8 0 14 -5.5t6 -13.5v-276h284v276q0 8 6 13.5t14 5.5h99q9 0 14.5 -5t5.5 -14v-704z" />
    <glyph glyph-name="I" unicode="I" horiz-adv-x="267" 
d="M203 20q0 -8 -6.5 -14t-13.5 -6h-99q-7 0 -13.5 6t-6.5 14v704q0 8 6 13.5t14 5.5h99q8 0 14 -5.5t6 -13.5v-704z" />
    <glyph glyph-name="J" unicode="J" horiz-adv-x="283" 
d="M219 -21q0 -52 -17.5 -84.5t-52.5 -47t-90 -14.5q-21 0 -47 3t-33 5q-10 3 -10 14v71q0 8 5.5 13t14.5 5h66q14 0 19.5 7t5.5 28v745q0 8 5.5 13.5t14.5 5.5h99q8 0 14 -5.5t6 -13.5v-745z" />
    <glyph glyph-name="K" unicode="K" horiz-adv-x="628" 
d="M604 9q0 -9 -15 -9h-134q-16 0 -23 11l-229 341v-332q0 -8 -6.5 -14t-13.5 -6h-99q-7 0 -13.5 6t-6.5 14v703q0 8 6 13.5t14 5.5h99q8 0 14 -5.5t6 -13.5v-318l245 329q6 8 23 8h114q19 0 19 -12q0 -7 -7 -16l-256 -331l258 -362q5 -8 5 -12z" />
    <glyph glyph-name="L" unicode="L" horiz-adv-x="502" 
d="M485 27q0 -10 -4.5 -14.5t-15.5 -6.5q-23 -6 -78.5 -10t-91.5 -4q-71 0 -121.5 17t-80 62t-29.5 126v526q0 7 6.5 13.5t13.5 6.5h99q7 0 13.5 -6.5t6.5 -13.5v-526q0 -49 17 -67.5t61 -18.5h184q9 0 14.5 -5.5t5.5 -14.5v-64z" />
    <glyph glyph-name="M" unicode="M" horiz-adv-x="770" 
d="M706 15q0 -15 -17 -15h-101q-6 0 -11 6t-5 14v465q0 10 -3 10q-2 0 -5 -6l-96 -191q-10 -17 -32 -17h-101q-23 0 -32 17l-97 191q-3 6 -5 6q-3 0 -3 -10v-465q0 -8 -5 -14t-11 -6h-101q-17 0 -17 15v688q0 17 11.5 28.5t28.5 11.5h82q24 0 37 -24l151 -306q7 -14 11 -14
t11 14l151 306q13 24 37 24h82q17 0 28.5 -11.5t11.5 -28.5v-688z" />
    <glyph glyph-name="N" unicode="N" horiz-adv-x="690" 
d="M626 40q0 -17 -11.5 -28.5t-28.5 -11.5h-101q-23 0 -36.5 6.5t-24.5 29.5l-222 487q-4 8 -9 8t-5 -8v-503q0 -9 -5.5 -14.5t-13.5 -5.5h-85q-7 0 -13.5 6t-6.5 14v683q0 17 11.5 28.5t28.5 11.5h108q17 0 26.5 -7t17.5 -25l233 -514q4 -8 8 -8q5 0 5 9v526q0 8 5.5 13.5
t13.5 5.5h86q8 0 13.5 -5.5t5.5 -13.5v-684z" />
    <glyph glyph-name="O" unicode="O" horiz-adv-x="664" 
d="M617 304q0 -106 -36 -176t-100.5 -103t-148.5 -33t-148.5 33t-100.5 103t-36 176v135q0 106 36 176.5t100.5 103t148.5 32.5t148.5 -32.5t100.5 -103t36 -176.5v-135zM477 304v135q0 99 -35.5 145t-109.5 46t-109.5 -46t-35.5 -145v-135q0 -98 35.5 -144.5t109.5 -46.5
t109.5 46.5t35.5 144.5z" />
    <glyph glyph-name="P" unicode="P" horiz-adv-x="610" 
d="M580 511q0 -123 -80 -178.5t-208 -55.5q-8 0 -35 1t-35 1.5t-19 1.5v-261q0 -9 -5.5 -14.5t-13.5 -5.5h-100q-7 0 -13.5 6t-6.5 14v688q0 14 8 20.5t24 9.5q82 13 196 13q129 0 208.5 -54t79.5 -177v-9zM442 511v9q0 63 -36.5 89.5t-113.5 26.5q-48 0 -89 -4v-238
q48 -3 89 -3q54 0 86.5 13t48 39.5t15.5 67.5z" />
    <glyph glyph-name="Q" unicode="Q" horiz-adv-x="678" 
d="M617 304q0 -50 -7.5 -91.5t-23.5 -75.5t-38.5 -59.5t-50.5 -43.5q7 -25 22.5 -35t49.5 -10h58q24 0 24 -16v-54q0 -14 -4.5 -19.5t-17.5 -9.5q-42 -11 -87 -11q-147 0 -177 114q-11 -1 -33 -1q-84 0 -148.5 33t-100.5 103t-36 176v135q0 106 36 176.5t100.5 103
t148.5 32.5t148.5 -32.5t100.5 -103t36 -176.5v-135zM477 304v135q0 99 -35.5 145t-109.5 46t-109.5 -46t-35.5 -145v-135q0 -98 35.5 -144.5t109.5 -46.5t109.5 46.5t35.5 144.5z" />
    <glyph glyph-name="R" unicode="R" horiz-adv-x="637" 
d="M604 12q0 -12 -12 -12h-122q-7 0 -10.5 4.5t-9.5 15.5l-144 267h-14q-8 0 -35 1.5t-35 2t-19 0.5v-271q0 -9 -5.5 -14.5t-13.5 -5.5h-100q-7 0 -13.5 6t-6.5 14v688q0 14 8 20.5t24 9.5q82 13 196 13q128 0 208 -53t80 -173v-9q0 -77 -35.5 -128t-99.5 -76l157 -292
q2 -3 2 -8zM442 516v9q0 56 -37 81.5t-113 25.5q-11 0 -45 -1.5t-44 -2.5v-225q48 -3 89 -3q79 0 114.5 26t35.5 90z" />
    <glyph glyph-name="S" unicode="S" horiz-adv-x="557" 
d="M254 111q64 0 91 22t27 68q0 29 -17 49t-66 49l-132 79q-45 27 -71 55.5t-36.5 60t-10.5 67.5q0 88 58 139t185 51q50 0 98 -12t74 -27q11 -6 16.5 -12t5.5 -15v-68q0 -24 -25 -15q-27 10 -77.5 20t-90.5 10q-105 0 -105 -70q0 -24 16.5 -41t65.5 -46l120 -71
q53 -31 82.5 -62.5t41 -64.5t11.5 -76q0 -55 -25 -102t-82.5 -77t-149.5 -30q-62 0 -113 14.5t-71 25.5q-14 9 -18 13.5t-4 13.5v68q0 23 25 15q97 -31 177 -31z" />
    <glyph glyph-name="T" unicode="T" horiz-adv-x="573" 
d="M551 645q0 -9 -6 -13.5t-14 -4.5h-175v-607q0 -9 -6 -14.5t-14 -5.5h-99q-8 0 -14 6t-6 14v607h-175q-8 0 -14 5t-6 13v79q0 8 5.5 13.5t14.5 5.5h489q9 0 14.5 -5t5.5 -14v-79z" />
    <glyph glyph-name="U" unicode="U" horiz-adv-x="670" 
d="M610 275q0 -79 -19.5 -133t-55.5 -87t-87 -48t-113 -15q-63 0 -113 15t-86 47.5t-56 88t-20 132.5v449q0 8 5.5 13.5t14.5 5.5h99q8 0 14 -5.5t6 -13.5v-449q0 -60 12 -96t41.5 -54t82.5 -18t83 18t41.5 54t11.5 96v449q0 8 5.5 13.5t14.5 5.5h99q9 0 14.5 -5t5.5 -14
v-449z" />
    <glyph glyph-name="V" unicode="V" horiz-adv-x="650" 
d="M629 726q0 -1 -0.5 -2t-0.5 -3l-164 -627q-27 -102 -139 -102q-113 0 -139 102l-164 627q0 2 -0.5 3t-0.5 2q0 8 5 12.5t13 4.5h106q7 0 12.5 -5t6.5 -12l145 -601q3 -10 6 -13t10 -3q8 0 10.5 3t5.5 13l145 601q1 7 6.5 12t12.5 5h106q8 0 13 -4.5t5 -12.5z" />
    <glyph glyph-name="W" unicode="W" horiz-adv-x="856" 
d="M835 729v-3l-94 -653q-6 -45 -27.5 -63t-62.5 -18h-54q-35 0 -54 18t-29 62l-79 330q-2 11 -6 11q-5 0 -7 -11l-79 -330q-10 -44 -29.5 -62t-53.5 -18h-54q-21 0 -35.5 4t-25.5 13.5t-18 25t-11 38.5l-94 653v3q0 14 17 14h106q5 0 11 -5.5t6 -12.5l72 -597q1 -15 5 -15
q3 0 3.5 2.5l2.5 12.5l86 351q11 45 63 45h69q52 0 63 -45l86 -351l2.5 -12.5t3.5 -2.5q4 0 5 15l72 597q0 7 6 12.5t11 5.5h106q7 0 12 -4t5 -10z" />
    <glyph glyph-name="X" unicode="X" horiz-adv-x="644" 
d="M624 12q0 -12 -16 -12h-118q-12 0 -26 20l-147 236l-138 -236q-11 -20 -26 -20h-109q-16 0 -16 13q0 3 2 7l213 355l-219 349q-2 4 -2 6q0 5 4.5 9t11.5 4h118q12 0 26 -19l146 -233l135 233q11 19 26 19h109q6 0 11 -3.5t5 -9.5q0 -2 -2 -6l-210 -352l220 -352
q2 -3 2 -8z" />
    <glyph glyph-name="Y" unicode="Y" horiz-adv-x="609" 
d="M587 728q0 -2 -2 -8l-152 -347q-25 -58 -61 -73v-280q0 -9 -5.5 -14.5t-13.5 -5.5h-100q-8 0 -13.5 5.5t-5.5 14.5v280q-36 15 -61 73l-151 347q-2 6 -2 8q0 7 4 11t12 4h111q13 0 19 -16l120 -298q8 -20 17 -20q10 0 18 20l120 298q6 16 19 16h110q7 0 12 -4t5 -11z" />
    <glyph glyph-name="Z" unicode="Z" horiz-adv-x="576" 
d="M542 20q0 -9 -6 -14.5t-14 -5.5h-437q-51 0 -51 37v55q0 19 13 38l317 475q3 4 3 9q0 8 -10 8h-278q-19 0 -19 18v84q0 8 5.5 13.5t13.5 5.5h403q23 0 38 -9.5t15 -28.5v-58q0 -19 -14 -41l-312 -467q-4 -6 -4 -11q0 -6 9 -6h308q9 0 14.5 -4.5t5.5 -13.5v-84z" />
    <glyph glyph-name="bracketleft" unicode="[" horiz-adv-x="342" 
d="M318 -178q0 -16 -19 -16h-222q-7 0 -12 6t-5 13v899q0 7 5 13t12 6h222q9 0 14 -4.5t5 -11.5v-73q0 -17 -19 -17h-105v-725h105q8 0 13.5 -4.5t5.5 -12.5v-73z" />
    <glyph glyph-name="backslash" unicode="\" horiz-adv-x="381" 
d="M369 8q0 -7 -5 -11.5t-12 -4.5h-101q-12 0 -18 21l-219 710v3t-1 2q0 6 5.5 10.5t11.5 4.5h100q14 0 20 -20l218 -710q1 -1 1 -2v-3z" />
    <glyph glyph-name="bracketright" unicode="]" horiz-adv-x="342" 
d="M282 -175q0 -7 -5 -13t-12 -6h-222q-19 0 -19 16v73q0 8 5.5 12.5t13.5 4.5h105v725h-105q-19 0 -19 16v73q0 8 5.5 12.5t13.5 4.5h222q7 0 12 -6t5 -13v-899z" />
    <glyph glyph-name="asciicircum" unicode="^" horiz-adv-x="606" 
d="M536 573q0 -9 -12 -9h-102q-10 0 -15.5 3t-14.5 13l-89 102l-89 -102q-9 -10 -14.5 -13t-15.5 -3h-102q-12 0 -12 9q0 6 5 12l113 148q9 11 14.5 14.5t17.5 3.5h166q12 0 18 -3.5t14 -14.5l113 -148q5 -6 5 -12z" />
    <glyph glyph-name="underscore" unicode="_" horiz-adv-x="531" 
d="M558 -108q0 -16 -20 -16h-545q-20 0 -20 16v49q0 16 20 16h545q20 0 20 -16v-49z" />
    <glyph glyph-name="grave" unicode="`" horiz-adv-x="390" 
d="M269 634q0 -7 -9 -7h-86q-6 0 -9.5 1.5t-7 5l-6.5 6.5l-119 124q-4 4 -4 8q0 7 11 7h106q9 0 13.5 -3t12.5 -12l94 -120q4 -4 4 -10z" />
    <glyph glyph-name="a" unicode="a" horiz-adv-x="533" 
d="M257 461q-79 0 -160 -26q-21 -6 -21 16v61q0 9 4.5 15t16.5 11q31 13 76 23t99 10q64 0 110 -21t70.5 -64.5t24.5 -105.5v-341q0 -11 -2.5 -15t-11.5 -7q-45 -12 -86.5 -18.5t-101.5 -6.5q-82 0 -134 17t-77 54t-25 97v5q0 44 12.5 75.5t40.5 53t72.5 32t110.5 10.5h70
v44q0 47 -20.5 64t-67.5 17zM345 100v148h-70q-46 0 -67.5 -8t-28.5 -25t-7 -47v-6q0 -28 9 -43t30.5 -21t63.5 -6t70 8z" />
    <glyph glyph-name="b" unicode="b" horiz-adv-x="562" 
d="M523 243q0 -119 -60.5 -185t-178.5 -66q-101 0 -201 26q-12 3 -17 6t-7.5 8t-2.5 13v696q0 8 6 14t14 6h92q8 0 14 -5.5t6 -14.5v-177q52 7 96 7q80 0 133 -30t79.5 -86.5t26.5 -134.5v-77zM391 243v77q0 68 -23 105.5t-84 37.5q-47 0 -96 -7v-349q33 -7 96 -7
q61 0 84 37.5t23 105.5z" />
    <glyph glyph-name="c" unicode="c" horiz-adv-x="456" 
d="M267 104q56 0 129 23q21 6 21 -16v-64q0 -9 -5 -15t-16 -11q-52 -29 -129 -29q-67 0 -118 25t-80.5 79.5t-29.5 138.5v93q0 82 29 136.5t80.5 80.5t118.5 26q77 0 129 -29q11 -5 16 -11t5 -15v-64q0 -22 -21 -16q-33 11 -59.5 17t-64.5 6q-101 0 -101 -131v-93
q0 -71 27.5 -101t68.5 -30z" />
    <glyph glyph-name="d" unicode="d" horiz-adv-x="562" 
d="M506 45q0 -12 -5.5 -17.5t-21.5 -9.5q-28 -7 -64 -13t-70 -9.5t-67 -3.5q-80 0 -133 30t-79.5 86.5t-26.5 134.5v77q0 78 26.5 134.5t79.5 86.5t133 30q44 0 96 -7v177q0 8 6 14t14 6h92q8 0 14 -5.5t6 -14.5v-696zM374 107v349q-24 3 -48.5 5t-47.5 2q-61 0 -84 -37.5
t-23 -105.5v-77q0 -31 5 -57t17 -45.5t33 -30t52 -10.5q63 0 96 7z" />
    <glyph glyph-name="e" unicode="e" horiz-adv-x="560" 
d="M386 330v4q0 61 -28 92t-77 31q-31 0 -55.5 -13.5t-38 -41t-13.5 -68.5v-4h212zM296 -8q-63 0 -120.5 23.5t-96 79.5t-38.5 148v74q0 77 28 135t82.5 88.5t129.5 30.5t129 -32.5t81.5 -89.5t27.5 -132v-56q0 -25 -20 -25h-326v-3q0 -57 28 -92t105 -35q42 0 91 8.5
t80 18.5q21 6 21 -16v-59q0 -10 -5 -15t-16 -11q-31 -16 -80 -28t-101 -12z" />
    <glyph glyph-name="f" unicode="f" horiz-adv-x="390" 
d="M373 690q0 -17 -15 -17h-45q-25 0 -37 -4.5t-17 -18t-5 -37.5v-49h96q8 0 14 -6t6 -14v-60q0 -8 -6 -13.5t-14 -5.5h-96v-444q0 -9 -5.5 -15t-14.5 -6h-91q-8 0 -14.5 6.5t-6.5 14.5v444l-89 14q-20 3 -20 19v46q0 8 5.5 14t14.5 6h89v49q0 62 21 97.5t58.5 49t93.5 13.5
q22 0 60 -8q18 -4 18 -16v-59z" />
    <glyph glyph-name="g" unicode="g" horiz-adv-x="562" 
d="M279 -94q40 0 60.5 7.5t27.5 26t7 55.5v8q-11 -2 -47.5 -6.5t-48.5 -4.5q-80 0 -133 30t-79.5 86.5t-26.5 134.5v77q0 78 26.5 134.5t79.5 86.5t133 30q27 0 52.5 -2t45.5 -4.5t54 -9t49 -10.5q16 -4 21.5 -9.5t5.5 -17.5v-516q0 -70 -24.5 -115t-75.5 -66t-127 -21
q-51 0 -101 12.5t-83 27.5q-6 3 -11.5 7t-7.5 8t-2 11v51q0 22 21 16q40 -10 91 -18.5t93 -8.5zM374 108v346q-19 4 -43 6.5t-53 2.5q-61 0 -84 -37.5t-23 -105.5v-77q0 -31 5 -57t17 -45.5t33 -30t52 -10.5q17 0 46 2.5t50 5.5z" />
    <glyph glyph-name="h" unicode="h" horiz-adv-x="574" 
d="M518 21q0 -8 -6 -14.5t-14 -6.5h-92q-9 0 -14.5 6.5t-5.5 14.5v329q0 46 -6.5 68t-24 31.5t-51.5 9.5q-51 0 -116 -34v-404q0 -9 -5.5 -15t-14.5 -6h-92q-9 0 -14.5 6.5t-5.5 14.5v720q0 8 6 14t14 6h92q8 0 14 -5.5t6 -14.5v-207q61 37 151 37q179 0 179 -221v-329z" />
    <glyph glyph-name="i" unicode="i" horiz-adv-x="250" 
d="M194 659q0 -9 -6 -14.5t-14 -5.5h-97q-8 0 -14.5 5.5t-6.5 14.5v88q0 8 6.5 14t14.5 6h97q8 0 14 -6t6 -14v-88zM191 21q0 -9 -5.5 -15t-14.5 -6h-92q-9 0 -14.5 6.5t-5.5 14.5v523q0 8 5.5 14t14.5 6h92q9 0 14.5 -5.5t5.5 -14.5v-523z" />
    <glyph glyph-name="j" unicode="j" horiz-adv-x="263" 
d="M207 659q0 -9 -6.5 -14.5t-14.5 -5.5h-96q-7 0 -13.5 6t-6.5 14v88q0 7 6.5 13.5t13.5 6.5h96q8 0 14.5 -6t6.5 -14v-88zM204 -42q0 -87 -37 -122.5t-111 -35.5q-31 0 -66 6q-19 3 -19 18v65q0 16 21 16h45q16 0 23.5 5t9.5 16t2 32v586q0 8 5.5 14t14.5 6h92q8 0 14 -6
t6 -14v-586z" />
    <glyph glyph-name="k" unicode="k" horiz-adv-x="536" 
d="M510 12q0 -5 -4 -8.5t-10 -3.5h-122q-7 0 -15.5 6.5t-13.5 13.5l-157 228v-227q0 -9 -5.5 -15t-14.5 -6h-92q-9 0 -14.5 6.5t-5.5 14.5v720q0 8 6 14t14 6h92q8 0 14 -5.5t6 -14.5v-417l171 228q10 12 23 12h112q15 0 15 -11q0 -5 -4 -10l-201 -247l203 -276q3 -4 3 -8z
" />
    <glyph glyph-name="l" unicode="l" horiz-adv-x="252" 
d="M192 21q0 -8 -5.5 -14.5t-13.5 -6.5h-93q-9 0 -14.5 6.5t-5.5 14.5v720q0 8 6 14t14 6h93q8 0 13.5 -6t5.5 -14v-720z" />
    <glyph glyph-name="m" unicode="m" horiz-adv-x="830" 
d="M481 21q0 -9 -5.5 -15t-14.5 -6h-92q-9 0 -14.5 6.5t-5.5 14.5v330q0 41 -8 63.5t-29 33.5t-59 11q-29 0 -65 -10v-428q0 -9 -5.5 -15t-14.5 -6h-92q-9 0 -14.5 6.5t-5.5 14.5v500q0 13 20 20q38 13 91 21.5t92 8.5q102 0 154 -39q38 17 82.5 28t86.5 11q95 0 143.5 -53
t48.5 -166v-331q0 -9 -5.5 -15t-14.5 -6h-92q-9 0 -14.5 6.5t-5.5 14.5v330q0 40 -7.5 63t-26 34t-50.5 11q-40 0 -87 -19q10 -42 10 -88v-331z" />
    <glyph glyph-name="n" unicode="n" horiz-adv-x="574" 
d="M518 21q0 -8 -6 -14.5t-14 -6.5h-92q-9 0 -14.5 6.5t-5.5 14.5v330q0 40 -9 63t-31 34t-60 11q-46 0 -98 -11v-427q0 -9 -5.5 -15t-14.5 -6h-92q-9 0 -14.5 6.5t-5.5 14.5v500q0 15 20 20q50 14 107.5 22t106.5 8q118 0 173 -52t55 -167v-331z" />
    <glyph glyph-name="o" unicode="o" horiz-adv-x="560" 
d="M519 241q0 -71 -27.5 -128t-81.5 -89t-130 -32t-130 32t-81.5 89t-27.5 128v81q0 71 27.5 128t81.5 89t130 32t130 -32t81.5 -89t27.5 -128v-81zM387 241v81q0 62 -27.5 98.5t-79.5 36.5t-79.5 -36.5t-27.5 -98.5v-81q0 -62 28 -98.5t79 -36.5q52 0 79.5 36.5t27.5 98.5z
" />
    <glyph glyph-name="p" unicode="p" horiz-adv-x="562" 
d="M523 243q0 -119 -60.5 -185t-178.5 -66q-44 0 -96 7v-177q0 -9 -6 -14.5t-14 -5.5h-92q-8 0 -14 6t-6 14v696q0 12 5 17.5t22 9.5q100 26 201 26q80 0 133 -30t79.5 -86.5t26.5 -134.5v-77zM391 243v77q0 68 -23 105.5t-84 37.5q-31 0 -54.5 -2t-41.5 -5v-349
q49 -7 96 -7q61 0 84 37.5t23 105.5z" />
    <glyph glyph-name="q" unicode="q" horiz-adv-x="562" 
d="M506 -178q0 -9 -6 -14.5t-14 -5.5h-92q-8 0 -14 6t-6 14v177q-52 -7 -96 -7q-80 0 -133 30t-79.5 86.5t-26.5 134.5v77q0 78 26.5 134.5t79.5 86.5t133 30q27 0 52.5 -2t45.5 -4.5t54 -9t49 -10.5q16 -4 21.5 -9.5t5.5 -17.5v-696zM374 107v349q-17 3 -40.5 5t-55.5 2
q-61 0 -84 -37.5t-23 -105.5v-77q0 -31 5 -57t17 -45.5t33 -30t52 -10.5q47 0 96 7z" />
    <glyph glyph-name="r" unicode="r" horiz-adv-x="364" 
d="M331 458q-10 0 -19 0.5t-26 0.5q-46 0 -98 -11v-427q0 -9 -5.5 -15t-14.5 -6h-92q-9 0 -14.5 6.5t-5.5 14.5v500q0 15 20 20q50 14 107.5 22t106.5 8q25 0 41 -2q20 -2 20 -19v-72q0 -20 -20 -20z" />
    <glyph glyph-name="s" unicode="s" horiz-adv-x="477" 
d="M228 100q46 0 61 12t15 32q0 17 -9.5 28.5t-34.5 26.5l-137 84q-39 24 -61.5 59.5t-22.5 78.5q0 150 190 150q99 0 175 -33q11 -4 16 -10t5 -16v-61q0 -22 -21 -16q-88 28 -161 28q-38 0 -55 -8.5t-17 -28.5q0 -11 4.5 -18.5t12.5 -13t23 -14.5l131 -80q57 -35 76.5 -70
t19.5 -75q0 -48 -22 -85t-66.5 -57.5t-107.5 -20.5q-99 0 -176 33q-13 6 -17 11.5t-4 14.5v61q0 22 21 16q88 -28 162 -28z" />
    <glyph glyph-name="t" unicode="t" horiz-adv-x="399" 
d="M382 17q0 -15 -19 -18q-42 -7 -79 -7q-59 0 -93 12t-50 46t-16 101v314l-83 14q-20 3 -20 20v45q0 8 5.5 14t14.5 6h83v82q0 17 20 20l93 16h4q16 0 16 -15v-103h101q9 0 14.5 -5.5t5.5 -14.5v-59q0 -8 -6 -14t-14 -6h-101v-314q0 -37 6.5 -46.5t32.5 -9.5h64
q21 0 21 -15v-63z" />
    <glyph glyph-name="u" unicode="u" horiz-adv-x="574" 
d="M56 543q0 8 5.5 14.5t14.5 6.5h92q9 0 14.5 -6t5.5 -15v-330q0 -29 5 -49t16.5 -33.5t30.5 -19.5t48 -6q49 0 98 11v427q0 8 5.5 14.5t14.5 6.5h92q8 0 14 -6.5t6 -14.5v-500q0 -15 -20 -20q-54 -15 -109.5 -22.5t-104.5 -7.5q-60 0 -101.5 12.5t-70.5 39.5t-42.5 68
t-13.5 99v331z" />
    <glyph glyph-name="v" unicode="v" horiz-adv-x="545" 
d="M524 548q0 -5 -1 -7l-126 -455q-25 -94 -125 -94q-99 0 -124 94l-126 455q-1 2 -1 7q0 6 4.5 11t11.5 5h100q15 0 20 -20l96 -419q5 -25 19 -25t19 25l96 419q2 10 7.5 15t13.5 5h100q7 0 11.5 -4.5t4.5 -11.5z" />
    <glyph glyph-name="w" unicode="w" horiz-adv-x="813" 
d="M790 544v-3l-91 -460q-6 -33 -15.5 -50t-26 -25.5t-47.5 -8.5h-27q-40 0 -62.5 19.5t-32.5 58.5l-79 306q-1 5 -3 5t-3 -5l-79 -306q-10 -39 -32 -58.5t-63 -19.5h-27q-31 0 -47.5 8.5t-26 25.5t-15.5 50l-91 460v3q0 8 5.5 14t14.5 6h97q8 0 13 -5.5t5 -12.5l63 -423
q2 -14 5 -14q4 0 7 14l83 336q8 28 18.5 35.5t37.5 7.5h70q27 0 38 -8t18 -35l83 -336q3 -14 7 -14q3 0 5 14l63 423q1 8 5.5 13t12.5 5h97q8 0 14 -6t6 -14z" />
    <glyph glyph-name="x" unicode="x" horiz-adv-x="552" 
d="M535 13q0 -5 -4.5 -9t-10.5 -4h-114q-8 0 -12.5 3t-14.5 17l-114 176l-108 -176q-8 -12 -13.5 -16t-13.5 -4h-103q-12 0 -12 11q0 5 3 9l179 271l-169 253q-2 4 -2 6q0 6 4.5 10t11.5 4h114q12 0 26 -20l101 -156l94 156q8 13 13 16.5t14 3.5h103q12 0 12 -11q0 -5 -3 -9
l-165 -252l182 -272q2 -4 2 -7z" />
    <glyph glyph-name="y" unicode="y" horiz-adv-x="554" 
d="M532 547q0 -4 -1 -6l-167 -584q-17 -59 -38.5 -92t-60 -49t-105.5 -16q-25 0 -56 4t-50 9q-21 5 -21 17v64q0 7 6 12.5t14 5.5h2q13 0 56 -3t57 -3q22 0 37 5.5t25 19t17 39.5l8 30h-15q-17 0 -32.5 5.5t-30 23.5t-24.5 54l-131 458q-1 3 -1 7q0 16 19 16h101
q7 0 12.5 -5.5t6.5 -12.5l101 -407q5 -22 14 -22h1h5h3l108 430q4 17 20 17h102q7 0 12.5 -5t5.5 -12z" />
    <glyph glyph-name="z" unicode="z" horiz-adv-x="478" 
d="M444 20q0 -9 -6 -14.5t-14 -5.5h-350q-16 0 -28 11.5t-12 28.5v43q0 15 13 32l242 333q3 5 3 6q0 3 -6 3h-226q-8 0 -13 4t-5 12v71q0 8 5.5 14t14.5 6h340q16 0 28 -12t12 -29v-57q0 -5 -1.5 -12.5t-3.5 -10.5l-233 -319l-2 -3q0 -4 6 -4h218q8 0 13 -4.5t5 -11.5v-81z
" />
    <glyph glyph-name="braceleft" unicode="{" horiz-adv-x="357" 
d="M348 -181q0 -8 -5.5 -12.5t-13.5 -4.5h-56q-57 0 -92 8t-55 27.5t-27.5 50t-7.5 81.5v152q0 39 -14.5 65t-44.5 47v80q31 21 44.5 46.5t13.5 65.5v151q0 51 7.5 82t27.5 50t55 27t92 8h57q8 0 13.5 -4.5t5.5 -12.5v-73q0 -16 -19 -16h-47q-26 0 -38 -5.5t-16 -18.5
t-4 -37v-151q0 -53 -18 -90t-60 -62q42 -25 60.5 -62t18.5 -90v-152q0 -24 4 -37t16 -18.5t38 -5.5h46q9 0 14 -4.5t5 -11.5v-73z" />
    <glyph glyph-name="bar" unicode="|" horiz-adv-x="254" 
d="M194 -174q0 -9 -5.5 -14.5t-13.5 -5.5h-95q-8 0 -14 6t-6 14v897q0 7 6 13.5t14 6.5h95q8 0 13.5 -6t5.5 -14v-897z" />
    <glyph glyph-name="braceright" unicode="}" horiz-adv-x="357" 
d="M325 233q-30 -21 -44.5 -47t-14.5 -65v-152q0 -51 -8 -82t-27.5 -50t-54 -27t-92.5 -8h-56q-8 0 -13.5 4.5t-5.5 12.5v73q0 7 5.5 11.5t13.5 4.5h46q26 0 38 5.5t16 18.5t4 37v152q0 53 18 90t61 62q-41 25 -59.5 62t-18.5 90v151q0 24 -4 37t-16 18.5t-38 5.5h-47
q-19 0 -19 16v73q0 8 5.5 12.5t13.5 4.5h57q75 0 114 -15t53.5 -50t14.5 -102v-151q0 -39 13.5 -65t44.5 -47v-80z" />
    <glyph glyph-name="asciitilde" unicode="~" horiz-adv-x="608" 
d="M541 475q0 -74 -31.5 -106.5t-97.5 -32.5q-19 0 -39 5t-36 15l-88 61q-19 13 -39 13q-36 0 -36 -42v-26q0 -20 -17 -20h-71q-18 0 -18 20v26q0 49 14.5 80t43 45.5t72.5 14.5t74 -21l88 -60q19 -13 40 -13q19 0 27 9.5t8 31.5v26q0 20 17 20h70q19 0 19 -20v-26z" />
    <glyph glyph-name="Adieresis" unicode="&#xc4;" horiz-adv-x="642" 
d="M625 17q0 -8 -5 -12.5t-13 -4.5h-106q-6 0 -12 5t-7 12l-46 190h-230l-46 -190q-1 -7 -7 -12t-12 -5h-106q-8 0 -13 4.5t-5 12.5q1 1 1 2v3l164 627q26 102 139 102t139 -102l164 -627q1 -1 1 -2v-3zM409 321l-72 297q-3 9 -6 12.5t-10 3.5t-10 -3.5t-6 -12.5l-72 -297
h176zM477 824q0 -9 -6.5 -14.5t-14.5 -5.5h-72q-8 0 -14.5 5.5t-6.5 14.5v88q0 8 6.5 14t14.5 6h72q8 0 14.5 -6t6.5 -14v-88zM277 824q0 -9 -6.5 -14.5t-14.5 -5.5h-72q-8 0 -14.5 5.5t-6.5 14.5v88q0 8 6.5 14t14.5 6h72q8 0 14.5 -6t6.5 -14v-88z" />
    <glyph glyph-name="Aring" unicode="&#xc5;" horiz-adv-x="642" 
d="M625 17q0 -8 -5 -12.5t-13 -4.5h-106q-6 0 -12 5t-7 12l-46 190h-230l-46 -190q-1 -7 -7 -12t-12 -5h-106q-8 0 -13 4.5t-5 12.5q1 1 1 2v3l164 627q26 102 139 102t139 -102l164 -627q1 -1 1 -2v-3zM409 321l-72 297q-3 9 -6 12.5t-10 3.5t-10 -3.5t-6 -12.5l-72 -297
h176zM430 889q0 -30 -15 -55.5t-40.5 -40t-54.5 -14.5t-55 14.5t-41 40t-15 55.5q0 45 32 78t79 33q30 0 55 -14.5t40 -40.5t15 -56zM368 890q0 20 -14.5 33.5t-33.5 13.5t-32.5 -13.5t-13.5 -33.5t13 -34t33 -14q13 0 24 6.5t17.5 17.5t6.5 24z" />
    <glyph glyph-name="Ccedilla" unicode="&#xc7;" horiz-adv-x="549" 
d="M412 -41q0 -3 -5 -8l-119 -123q-9 -10 -12 -12t-11 -2h-86q-9 0 -9 7q0 4 4 10l94 120q7 9 12 12t14 3h106q12 0 12 -7zM323 -8q-49 0 -96.5 14.5t-88.5 48.5t-66 94t-25 149v147q0 119 40.5 187t101.5 93.5t134 25.5q38 0 73 -7.5t60 -17.5t32 -14q22 -12 22 -27v-68
q0 -24 -25 -15q-17 6 -45 13.5t-55.5 12t-52.5 4.5q-50 0 -81.5 -17.5t-47.5 -58.5t-16 -111v-147q0 -68 16 -109.5t48 -59.5t81 -18q39 0 80.5 9t72.5 21q25 9 25 -15v-68q0 -15 -22 -27q-21 -12 -67 -25.5t-98 -13.5z" />
    <glyph glyph-name="Eacute" unicode="&#xc9;" horiz-adv-x="556" 
d="M505 27q0 -19 -20 -21q-10 -1 -26 -4t-48 -5.5t-52 -3.5t-64 -1q-71 0 -121.5 17t-80 62t-29.5 126v349q0 80 29.5 125.5t80 62.5t121.5 17q106 0 190 -14q12 -2 16 -6t4 -15v-64q0 -8 -6 -14t-14 -6h-204q-44 0 -61.5 -18.5t-17.5 -67.5v-108h271q8 0 14 -6t6 -14v-72
q0 -8 -6.5 -14t-13.5 -6h-271v-129q0 -49 17.5 -67.5t61.5 -18.5h204q9 0 14.5 -5.5t5.5 -14.5v-64zM443 939q0 -4 -4 -8l-118 -124q-6 -7 -10.5 -10t-13.5 -3h-86q-9 0 -9 7q0 6 4 10l95 120q8 9 12.5 12t13.5 3h105q11 0 11 -7z" />
    <glyph glyph-name="Ntilde" unicode="&#xd1;" horiz-adv-x="690" 
d="M626 40q0 -17 -11.5 -28.5t-28.5 -11.5h-101q-23 0 -36.5 6.5t-24.5 29.5l-222 487q-4 8 -9 8t-5 -8v-503q0 -9 -5.5 -14.5t-13.5 -5.5h-85q-7 0 -13.5 6t-6.5 14v683q0 17 11.5 28.5t28.5 11.5h108q17 0 26.5 -7t17.5 -25l233 -514q4 -8 8 -8q5 0 5 9v526q0 8 5.5 13.5
t13.5 5.5h86q8 0 13.5 -5.5t5.5 -13.5v-684zM528 900q0 -112 -111 -112q-17 0 -35.5 6t-34.5 17l-44 33q-28 21 -42 21q-28 0 -28 -34v-21q0 -16 -14 -16h-57q-14 0 -14 16v21q0 112 112 112q39 0 69 -22l44 -33q26 -20 42 -20q28 0 28 33v21q0 16 14 16h57q14 0 14 -16v-22
z" />
    <glyph glyph-name="Odieresis" unicode="&#xd6;" horiz-adv-x="664" 
d="M617 304q0 -106 -36 -176t-100.5 -103t-148.5 -33t-148.5 33t-100.5 103t-36 176v135q0 106 36 176.5t100.5 103t148.5 32.5t148.5 -32.5t100.5 -103t36 -176.5v-135zM477 304v135q0 99 -35.5 145t-109.5 46t-109.5 -46t-35.5 -145v-135q0 -98 35.5 -144.5t109.5 -46.5
t109.5 46.5t35.5 144.5zM483 824q0 -9 -6.5 -14.5t-14.5 -5.5h-72q-8 0 -14.5 5.5t-6.5 14.5v88q0 8 6.5 14t14.5 6h72q8 0 14.5 -6t6.5 -14v-88zM283 824q0 -9 -6.5 -14.5t-14.5 -5.5h-72q-8 0 -14.5 5.5t-6.5 14.5v88q0 8 6.5 14t14.5 6h72q8 0 14.5 -6t6.5 -14v-88z" />
    <glyph glyph-name="Udieresis" unicode="&#xdc;" horiz-adv-x="670" 
d="M610 275q0 -79 -19.5 -133t-55.5 -87t-87 -48t-113 -15q-63 0 -113 15t-86 47.5t-56 88t-20 132.5v449q0 8 5.5 13.5t14.5 5.5h99q8 0 14 -5.5t6 -13.5v-449q0 -60 12 -96t41.5 -54t82.5 -18t83 18t41.5 54t11.5 96v449q0 8 5.5 13.5t14.5 5.5h99q9 0 14.5 -5t5.5 -14
v-449zM493 824q0 -9 -6.5 -14.5t-14.5 -5.5h-72q-8 0 -14.5 5.5t-6.5 14.5v88q0 8 6.5 14t14.5 6h72q8 0 14.5 -6t6.5 -14v-88zM293 824q0 -9 -6.5 -14.5t-14.5 -5.5h-72q-8 0 -14.5 5.5t-6.5 14.5v88q0 8 6.5 14t14.5 6h72q8 0 14.5 -6t6.5 -14v-88z" />
    <glyph glyph-name="aacute" unicode="&#xe1;" horiz-adv-x="533" 
d="M257 461q-79 0 -160 -26q-21 -6 -21 16v61q0 9 4.5 15t16.5 11q31 13 76 23t99 10q64 0 110 -21t70.5 -64.5t24.5 -105.5v-341q0 -11 -2.5 -15t-11.5 -7q-45 -12 -86.5 -18.5t-101.5 -6.5q-82 0 -134 17t-77 54t-25 97v5q0 44 12.5 75.5t40.5 53t72.5 32t110.5 10.5h70
v44q0 47 -20.5 64t-67.5 17zM345 100v148h-70q-46 0 -67.5 -8t-28.5 -25t-7 -47v-6q0 -28 9 -43t30.5 -21t63.5 -6t70 8zM433 772q0 -4 -4 -8l-118 -124q-6 -7 -10.5 -10t-13.5 -3h-86q-9 0 -9 7q0 6 4 10l95 120q8 9 12.5 12t13.5 3h105q11 0 11 -7z" />
    <glyph glyph-name="agrave" unicode="&#xe0;" horiz-adv-x="533" 
d="M257 461q-79 0 -160 -26q-21 -6 -21 16v61q0 9 4.5 15t16.5 11q31 13 76 23t99 10q64 0 110 -21t70.5 -64.5t24.5 -105.5v-341q0 -11 -2.5 -15t-11.5 -7q-45 -12 -86.5 -18.5t-101.5 -6.5q-82 0 -134 17t-77 54t-25 97v5q0 44 12.5 75.5t40.5 53t72.5 32t110.5 10.5h70
v44q0 47 -20.5 64t-67.5 17zM345 100v148h-70q-46 0 -67.5 -8t-28.5 -25t-7 -47v-6q0 -28 9 -43t30.5 -21t63.5 -6t70 8zM345 634q0 -7 -9 -7h-86q-6 0 -9.5 1.5t-7 5l-6.5 6.5l-119 124q-4 4 -4 8q0 7 11 7h106q9 0 13.5 -3t12.5 -12l94 -120q4 -4 4 -10z" />
    <glyph glyph-name="acircumflex" unicode="&#xe2;" horiz-adv-x="533" 
d="M257 461q-79 0 -160 -26q-21 -6 -21 16v61q0 9 4.5 15t16.5 11q31 13 76 23t99 10q64 0 110 -21t70.5 -64.5t24.5 -105.5v-341q0 -11 -2.5 -15t-11.5 -7q-45 -12 -86.5 -18.5t-101.5 -6.5q-82 0 -134 17t-77 54t-25 97v5q0 44 12.5 75.5t40.5 53t72.5 32t110.5 10.5h70
v44q0 47 -20.5 64t-67.5 17zM345 100v148h-70q-46 0 -67.5 -8t-28.5 -25t-7 -47v-6q0 -28 9 -43t30.5 -21t63.5 -6t70 8zM457 634q0 -7 -9 -7h-83q-6 0 -9.5 1.5t-7 5l-6.5 6.5l-71 81l-71 -81q-8 -8 -11.5 -10.5t-12.5 -2.5h-83q-9 0 -9 7q0 6 4 10l92 120q9 10 13 12.5
t13 2.5h130q9 0 13.5 -3t12.5 -12l91 -120q4 -4 4 -10z" />
    <glyph glyph-name="adieresis" unicode="&#xe4;" horiz-adv-x="533" 
d="M257 461q-79 0 -160 -26q-21 -6 -21 16v61q0 9 4.5 15t16.5 11q31 13 76 23t99 10q64 0 110 -21t70.5 -64.5t24.5 -105.5v-341q0 -11 -2.5 -15t-11.5 -7q-45 -12 -86.5 -18.5t-101.5 -6.5q-82 0 -134 17t-77 54t-25 97v5q0 44 12.5 75.5t40.5 53t72.5 32t110.5 10.5h70
v44q0 47 -20.5 64t-67.5 17zM345 100v148h-70q-46 0 -67.5 -8t-28.5 -25t-7 -47v-6q0 -28 9 -43t30.5 -21t63.5 -6t70 8zM427 662q0 -9 -6.5 -14.5t-14.5 -5.5h-72q-8 0 -14.5 5.5t-6.5 14.5v88q0 8 6.5 14t14.5 6h72q8 0 14.5 -6t6.5 -14v-88zM227 662q0 -9 -6.5 -14.5
t-14.5 -5.5h-72q-8 0 -14.5 5.5t-6.5 14.5v88q0 8 6.5 14t14.5 6h72q8 0 14.5 -6t6.5 -14v-88z" />
    <glyph glyph-name="atilde" unicode="&#xe3;" horiz-adv-x="533" 
d="M257 461q-79 0 -160 -26q-21 -6 -21 16v61q0 9 4.5 15t16.5 11q31 13 76 23t99 10q64 0 110 -21t70.5 -64.5t24.5 -105.5v-341q0 -11 -2.5 -15t-11.5 -7q-45 -12 -86.5 -18.5t-101.5 -6.5q-82 0 -134 17t-77 54t-25 97v5q0 44 12.5 75.5t40.5 53t72.5 32t110.5 10.5h70
v44q0 47 -20.5 64t-67.5 17zM345 100v148h-70q-46 0 -67.5 -8t-28.5 -25t-7 -47v-6q0 -28 9 -43t30.5 -21t63.5 -6t70 8zM461 739q0 -112 -111 -112q-17 0 -35.5 6t-34.5 17l-44 33q-28 21 -42 21q-28 0 -28 -34v-21q0 -16 -14 -16h-57q-14 0 -14 16v21q0 112 112 112
q39 0 69 -22l44 -33q26 -20 42 -20q28 0 28 33v21q0 16 14 16h57q14 0 14 -16v-22z" />
    <glyph glyph-name="aring" unicode="&#xe5;" horiz-adv-x="533" 
d="M257 461q-79 0 -160 -26q-21 -6 -21 16v61q0 9 4.5 15t16.5 11q31 13 76 23t99 10q64 0 110 -21t70.5 -64.5t24.5 -105.5v-341q0 -11 -2.5 -15t-11.5 -7q-45 -12 -86.5 -18.5t-101.5 -6.5q-82 0 -134 17t-77 54t-25 97v5q0 44 12.5 75.5t40.5 53t72.5 32t110.5 10.5h70
v44q0 47 -20.5 64t-67.5 17zM345 100v148h-70q-46 0 -67.5 -8t-28.5 -25t-7 -47v-6q0 -28 9 -43t30.5 -21t63.5 -6t70 8zM379 731q0 -30 -15 -55.5t-40.5 -40t-54.5 -14.5t-55 14.5t-41 40t-15 55.5q0 45 32 78t79 33q30 0 55 -14.5t40 -40.5t15 -56zM317 732
q0 20 -14.5 33.5t-33.5 13.5t-32.5 -13.5t-13.5 -33.5t13 -34t33 -14q13 0 24 6.5t17.5 17.5t6.5 24z" />
    <glyph glyph-name="ccedilla" unicode="&#xe7;" horiz-adv-x="456" 
d="M330 -41q0 -4 -4 -8l-119 -123q-8 -9 -11.5 -11.5t-11.5 -2.5h-86q-9 0 -9 7q0 6 4 10l94 120q7 9 12 12t14 3h106q11 0 11 -7zM267 104q56 0 129 23q21 6 21 -16v-64q0 -9 -5 -15t-16 -11q-52 -29 -129 -29q-67 0 -118 25t-80.5 79.5t-29.5 138.5v93q0 82 29 136.5
t80.5 80.5t118.5 26q77 0 129 -29q11 -5 16 -11t5 -15v-64q0 -22 -21 -16q-33 11 -59.5 17t-64.5 6q-101 0 -101 -131v-93q0 -71 27.5 -101t68.5 -30z" />
    <glyph glyph-name="eacute" unicode="&#xe9;" horiz-adv-x="560" 
d="M386 330v4q0 61 -28 92t-77 31q-31 0 -55.5 -13.5t-38 -41t-13.5 -68.5v-4h212zM296 -8q-63 0 -120.5 23.5t-96 79.5t-38.5 148v74q0 77 28 135t82.5 88.5t129.5 30.5t129 -32.5t81.5 -89.5t27.5 -132v-56q0 -25 -20 -25h-326v-3q0 -57 28 -92t105 -35q42 0 91 8.5
t80 18.5q21 6 21 -16v-59q0 -10 -5 -15t-16 -11q-31 -16 -80 -28t-101 -12zM449 772q0 -4 -4 -8l-118 -124q-6 -7 -10.5 -10t-13.5 -3h-86q-9 0 -9 7q0 6 4 10l95 120q8 9 12.5 12t13.5 3h105q11 0 11 -7z" />
    <glyph glyph-name="egrave" unicode="&#xe8;" horiz-adv-x="560" 
d="M386 330v4q0 61 -28 92t-77 31q-31 0 -55.5 -13.5t-38 -41t-13.5 -68.5v-4h212zM296 -8q-63 0 -120.5 23.5t-96 79.5t-38.5 148v74q0 77 28 135t82.5 88.5t129.5 30.5t129 -32.5t81.5 -89.5t27.5 -132v-56q0 -25 -20 -25h-326v-3q0 -57 28 -92t105 -35q42 0 91 8.5
t80 18.5q21 6 21 -16v-59q0 -10 -5 -15t-16 -11q-31 -16 -80 -28t-101 -12zM345 634q0 -7 -9 -7h-86q-6 0 -9.5 1.5t-7 5l-6.5 6.5l-119 124q-4 4 -4 8q0 7 11 7h106q9 0 13.5 -3t12.5 -12l94 -120q4 -4 4 -10z" />
    <glyph glyph-name="ecircumflex" unicode="&#xea;" horiz-adv-x="560" 
d="M386 330v4q0 61 -28 92t-77 31q-31 0 -55.5 -13.5t-38 -41t-13.5 -68.5v-4h212zM296 -8q-63 0 -120.5 23.5t-96 79.5t-38.5 148v74q0 77 28 135t82.5 88.5t129.5 30.5t129 -32.5t81.5 -89.5t27.5 -132v-56q0 -25 -20 -25h-326v-3q0 -57 28 -92t105 -35q42 0 91 8.5
t80 18.5q21 6 21 -16v-59q0 -10 -5 -15t-16 -11q-31 -16 -80 -28t-101 -12zM466 634q0 -7 -9 -7h-83q-6 0 -9.5 1.5t-7 5l-6.5 6.5l-71 81l-71 -81q-8 -8 -11.5 -10.5t-12.5 -2.5h-83q-9 0 -9 7q0 6 4 10l92 120q9 10 13 12.5t13 2.5h130q9 0 13.5 -3t12.5 -12l91 -120
q4 -4 4 -10z" />
    <glyph glyph-name="edieresis" unicode="&#xeb;" horiz-adv-x="560" 
d="M386 330v4q0 61 -28 92t-77 31q-31 0 -55.5 -13.5t-38 -41t-13.5 -68.5v-4h212zM296 -8q-63 0 -120.5 23.5t-96 79.5t-38.5 148v74q0 77 28 135t82.5 88.5t129.5 30.5t129 -32.5t81.5 -89.5t27.5 -132v-56q0 -25 -20 -25h-326v-3q0 -57 28 -92t105 -35q42 0 91 8.5
t80 18.5q21 6 21 -16v-59q0 -10 -5 -15t-16 -11q-31 -16 -80 -28t-101 -12zM436 659q0 -9 -6.5 -14.5t-14.5 -5.5h-72q-8 0 -14.5 5.5t-6.5 14.5v88q0 8 6.5 14t14.5 6h72q8 0 14.5 -6t6.5 -14v-88zM236 659q0 -9 -6.5 -14.5t-14.5 -5.5h-72q-8 0 -14.5 5.5t-6.5 14.5v88
q0 8 6.5 14t14.5 6h72q8 0 14.5 -6t6.5 -14v-88z" />
    <glyph glyph-name="iacute" unicode="&#xed;" horiz-adv-x="250" 
d="M191 21q0 -9 -5.5 -15t-14.5 -6h-92q-9 0 -14.5 6.5t-5.5 14.5v523q0 8 5.5 14t14.5 6h92q9 0 14.5 -5.5t5.5 -14.5v-523zM295 772q0 -4 -4 -8l-118 -124q-6 -7 -10.5 -10t-13.5 -3h-86q-9 0 -9 7q0 6 4 10l95 120q8 9 12.5 12t13.5 3h105q11 0 11 -7z" />
    <glyph glyph-name="igrave" unicode="&#xec;" horiz-adv-x="250" 
d="M191 21q0 -9 -5.5 -15t-14.5 -6h-92q-9 0 -14.5 6.5t-5.5 14.5v523q0 8 5.5 14t14.5 6h92q9 0 14.5 -5.5t5.5 -14.5v-523zM205 634q0 -7 -9 -7h-86q-6 0 -9.5 1.5t-7 5l-6.5 6.5l-119 124q-4 4 -4 8q0 7 11 7h106q9 0 13.5 -3t12.5 -12l94 -120q4 -4 4 -10z" />
    <glyph glyph-name="icircumflex" unicode="&#xee;" horiz-adv-x="250" 
d="M191 21q0 -9 -5.5 -15t-14.5 -6h-92q-9 0 -14.5 6.5t-5.5 14.5v523q0 8 5.5 14t14.5 6h92q9 0 14.5 -5.5t5.5 -14.5v-523zM314 634q0 -7 -9 -7h-83q-6 0 -9.5 1.5t-7 5l-6.5 6.5l-71 81l-71 -81q-8 -8 -11.5 -10.5t-12.5 -2.5h-83q-9 0 -9 7q0 6 4 10l92 120
q9 10 13 12.5t13 2.5h130q9 0 13.5 -3t12.5 -12l91 -120q4 -4 4 -10z" />
    <glyph glyph-name="idieresis" unicode="&#xef;" horiz-adv-x="250" 
d="M191 21q0 -9 -5.5 -15t-14.5 -6h-92q-9 0 -14.5 6.5t-5.5 14.5v523q0 8 5.5 14t14.5 6h92q9 0 14.5 -5.5t5.5 -14.5v-523zM284 659q0 -9 -6.5 -14.5t-14.5 -5.5h-72q-8 0 -14.5 5.5t-6.5 14.5v88q0 8 6.5 14t14.5 6h72q8 0 14.5 -6t6.5 -14v-88zM84 659q0 -9 -6.5 -14.5
t-14.5 -5.5h-72q-8 0 -14.5 5.5t-6.5 14.5v88q0 8 6.5 14t14.5 6h72q8 0 14.5 -6t6.5 -14v-88z" />
    <glyph glyph-name="ntilde" unicode="&#xf1;" horiz-adv-x="574" 
d="M518 21q0 -8 -6 -14.5t-14 -6.5h-92q-9 0 -14.5 6.5t-5.5 14.5v330q0 40 -9 63t-31 34t-60 11q-46 0 -98 -11v-427q0 -9 -5.5 -15t-14.5 -6h-92q-9 0 -14.5 6.5t-5.5 14.5v500q0 15 20 20q50 14 107.5 22t106.5 8q118 0 173 -52t55 -167v-331zM473 739q0 -112 -111 -112
q-17 0 -35.5 6t-34.5 17l-44 33q-28 21 -42 21q-28 0 -28 -34v-21q0 -16 -14 -16h-57q-14 0 -14 16v21q0 112 112 112q39 0 69 -22l44 -33q26 -20 42 -20q28 0 28 33v21q0 16 14 16h57q14 0 14 -16v-22z" />
    <glyph glyph-name="oacute" unicode="&#xf3;" horiz-adv-x="560" 
d="M519 241q0 -71 -27.5 -128t-81.5 -89t-130 -32t-130 32t-81.5 89t-27.5 128v81q0 71 27.5 128t81.5 89t130 32t130 -32t81.5 -89t27.5 -128v-81zM387 241v81q0 62 -27.5 98.5t-79.5 36.5t-79.5 -36.5t-27.5 -98.5v-81q0 -62 28 -98.5t79 -36.5q52 0 79.5 36.5t27.5 98.5z
M434 772q0 -4 -4 -8l-118 -124q-6 -7 -10.5 -10t-13.5 -3h-86q-9 0 -9 7q0 6 4 10l95 120q8 9 12.5 12t13.5 3h105q11 0 11 -7z" />
    <glyph glyph-name="ograve" unicode="&#xf2;" horiz-adv-x="560" 
d="M519 241q0 -71 -27.5 -128t-81.5 -89t-130 -32t-130 32t-81.5 89t-27.5 128v81q0 71 27.5 128t81.5 89t130 32t130 -32t81.5 -89t27.5 -128v-81zM387 241v81q0 62 -27.5 98.5t-79.5 36.5t-79.5 -36.5t-27.5 -98.5v-81q0 -62 28 -98.5t79 -36.5q52 0 79.5 36.5t27.5 98.5z
M361 634q0 -7 -9 -7h-86q-6 0 -9.5 1.5t-7 5l-6.5 6.5l-119 124q-4 4 -4 8q0 7 11 7h106q9 0 13.5 -3t12.5 -12l94 -120q4 -4 4 -10z" />
    <glyph glyph-name="ocircumflex" unicode="&#xf4;" horiz-adv-x="560" 
d="M519 241q0 -71 -27.5 -128t-81.5 -89t-130 -32t-130 32t-81.5 89t-27.5 128v81q0 71 27.5 128t81.5 89t130 32t130 -32t81.5 -89t27.5 -128v-81zM387 241v81q0 62 -27.5 98.5t-79.5 36.5t-79.5 -36.5t-27.5 -98.5v-81q0 -62 28 -98.5t79 -36.5q52 0 79.5 36.5t27.5 98.5z
M465 634q0 -7 -9 -7h-83q-6 0 -9.5 1.5t-7 5l-6.5 6.5l-71 81l-71 -81q-8 -8 -11.5 -10.5t-12.5 -2.5h-83q-9 0 -9 7q0 6 4 10l92 120q9 10 13 12.5t13 2.5h130q9 0 13.5 -3t12.5 -12l91 -120q4 -4 4 -10z" />
    <glyph glyph-name="odieresis" unicode="&#xf6;" horiz-adv-x="560" 
d="M519 241q0 -71 -27.5 -128t-81.5 -89t-130 -32t-130 32t-81.5 89t-27.5 128v81q0 71 27.5 128t81.5 89t130 32t130 -32t81.5 -89t27.5 -128v-81zM387 241v81q0 62 -27.5 98.5t-79.5 36.5t-79.5 -36.5t-27.5 -98.5v-81q0 -62 28 -98.5t79 -36.5q52 0 79.5 36.5t27.5 98.5z
M435 659q0 -9 -6.5 -14.5t-14.5 -5.5h-72q-8 0 -14.5 5.5t-6.5 14.5v88q0 8 6.5 14t14.5 6h72q8 0 14.5 -6t6.5 -14v-88zM235 659q0 -9 -6.5 -14.5t-14.5 -5.5h-72q-8 0 -14.5 5.5t-6.5 14.5v88q0 8 6.5 14t14.5 6h72q8 0 14.5 -6t6.5 -14v-88z" />
    <glyph glyph-name="otilde" unicode="&#xf5;" horiz-adv-x="560" 
d="M519 241q0 -71 -27.5 -128t-81.5 -89t-130 -32t-130 32t-81.5 89t-27.5 128v81q0 71 27.5 128t81.5 89t130 32t130 -32t81.5 -89t27.5 -128v-81zM387 241v81q0 62 -27.5 98.5t-79.5 36.5t-79.5 -36.5t-27.5 -98.5v-81q0 -62 28 -98.5t79 -36.5q52 0 79.5 36.5t27.5 98.5z
M467 739q0 -112 -111 -112q-17 0 -35.5 6t-34.5 17l-44 33q-28 21 -42 21q-28 0 -28 -34v-21q0 -16 -14 -16h-57q-14 0 -14 16v21q0 112 112 112q39 0 69 -22l44 -33q26 -20 42 -20q28 0 28 33v21q0 16 14 16h57q14 0 14 -16v-22z" />
    <glyph glyph-name="uacute" unicode="&#xfa;" horiz-adv-x="574" 
d="M56 543q0 8 5.5 14.5t14.5 6.5h92q9 0 14.5 -6t5.5 -15v-330q0 -29 5 -49t16.5 -33.5t30.5 -19.5t48 -6q49 0 98 11v427q0 8 5.5 14.5t14.5 6.5h92q8 0 14 -6.5t6 -14.5v-500q0 -15 -20 -20q-54 -15 -109.5 -22.5t-104.5 -7.5q-60 0 -101.5 12.5t-70.5 39.5t-42.5 68
t-13.5 99v331zM454 772q0 -4 -4 -8l-118 -124q-6 -7 -10.5 -10t-13.5 -3h-86q-9 0 -9 7q0 6 4 10l95 120q8 9 12.5 12t13.5 3h105q11 0 11 -7z" />
    <glyph glyph-name="ugrave" unicode="&#xf9;" horiz-adv-x="574" 
d="M56 543q0 8 5.5 14.5t14.5 6.5h92q9 0 14.5 -6t5.5 -15v-330q0 -29 5 -49t16.5 -33.5t30.5 -19.5t48 -6q49 0 98 11v427q0 8 5.5 14.5t14.5 6.5h92q8 0 14 -6.5t6 -14.5v-500q0 -15 -20 -20q-54 -15 -109.5 -22.5t-104.5 -7.5q-60 0 -101.5 12.5t-70.5 39.5t-42.5 68
t-13.5 99v331zM371 634q0 -7 -9 -7h-86q-6 0 -9.5 1.5t-7 5l-6.5 6.5l-119 124q-4 4 -4 8q0 7 11 7h106q9 0 13.5 -3t12.5 -12l94 -120q4 -4 4 -10z" />
    <glyph glyph-name="ucircumflex" unicode="&#xfb;" horiz-adv-x="574" 
d="M56 543q0 8 5.5 14.5t14.5 6.5h92q9 0 14.5 -6t5.5 -15v-330q0 -29 5 -49t16.5 -33.5t30.5 -19.5t48 -6q49 0 98 11v427q0 8 5.5 14.5t14.5 6.5h92q8 0 14 -6.5t6 -14.5v-500q0 -15 -20 -20q-54 -15 -109.5 -22.5t-104.5 -7.5q-60 0 -101.5 12.5t-70.5 39.5t-42.5 68
t-13.5 99v331zM472 634q0 -7 -9 -7h-83q-6 0 -9.5 1.5t-7 5l-6.5 6.5l-71 81l-71 -81q-8 -8 -11.5 -10.5t-12.5 -2.5h-83q-9 0 -9 7q0 6 4 10l92 120q9 10 13 12.5t13 2.5h130q9 0 13.5 -3t12.5 -12l91 -120q4 -4 4 -10z" />
    <glyph glyph-name="udieresis" unicode="&#xfc;" horiz-adv-x="574" 
d="M56 543q0 8 5.5 14.5t14.5 6.5h92q9 0 14.5 -6t5.5 -15v-330q0 -29 5 -49t16.5 -33.5t30.5 -19.5t48 -6q49 0 98 11v427q0 8 5.5 14.5t14.5 6.5h92q8 0 14 -6.5t6 -14.5v-500q0 -15 -20 -20q-54 -15 -109.5 -22.5t-104.5 -7.5q-60 0 -101.5 12.5t-70.5 39.5t-42.5 68
t-13.5 99v331zM449 659q0 -9 -6.5 -14.5t-14.5 -5.5h-72q-8 0 -14.5 5.5t-6.5 14.5v88q0 8 6.5 14t14.5 6h72q8 0 14.5 -6t6.5 -14v-88zM249 659q0 -9 -6.5 -14.5t-14.5 -5.5h-72q-8 0 -14.5 5.5t-6.5 14.5v88q0 8 6.5 14t14.5 6h72q8 0 14.5 -6t6.5 -14v-88z" />
    <glyph glyph-name="dagger" unicode="&#x2020;" horiz-adv-x="417" 
d="M389 477q0 -16 -19 -16h-99v-447q0 -20 -16 -20h-102q-16 0 -16 20v447h-89q-19 0 -19 16v80q0 15 19 15h89v170q0 19 17 19h101q7 0 11.5 -5.5t4.5 -13.5v-170h99q19 0 19 -15v-80z" />
    <glyph glyph-name="degree" unicode="&#xb0;" horiz-adv-x="345" 
d="M322 602q0 -40 -20 -74.5t-54.5 -54.5t-74.5 -20t-74.5 20t-54.5 54.5t-20 74.5t20 74.5t54.5 54.5t74.5 20t74.5 -20t54.5 -54.5t20 -74.5zM252 602q0 17 -6.5 31t-17 24.5t-25 17t-30.5 6.5q-33 0 -55.5 -23.5t-22.5 -55.5t23 -55t55 -23q33 0 56 22.5t23 55.5z" />
    <glyph glyph-name="cent" unicode="&#xa2;" horiz-adv-x="593" 
d="M328 104q56 0 129 23q21 6 21 -16v-64q0 -9 -5 -15t-16 -11q-39 -20 -86 -26v-82q0 -8 -6.5 -14t-13.5 -6h-82q-8 0 -14 6t-6 14v89q-45 13 -79 42.5t-52 77.5t-18 113v93q0 96 40 154.5t109 77.5v88q0 8 5.5 14t14.5 6h82q8 0 14 -6t6 -14v-80q50 -7 86 -26
q11 -5 16 -11t5 -15v-64q0 -22 -21 -16q-33 11 -59.5 17t-64.5 6q-44 0 -72.5 -29.5t-28.5 -101.5v-93q0 -71 27.5 -101t68.5 -30z" />
    <glyph glyph-name="sterling" unicode="&#xa3;" horiz-adv-x="610" 
d="M362 621q-52 0 -75 -19t-23 -69v-96h185q8 0 14 -5.5t6 -13.5v-75q0 -9 -5.5 -13.5t-13.5 -4.5h-186v-125q0 -46 -24 -89h291q9 0 14.5 -4t5.5 -13v-76q0 -9 -6 -13.5t-14 -4.5h-427q-18 0 -18 26v51q0 12 8 23q13 21 23.5 48t10.5 52v125h-50q-19 0 -19 18v75
q0 8 5.5 13.5t14.5 5.5h49v96q0 49 12 86.5t40 63t73 39t112 13.5q48 0 94 -12.5t71 -26.5q22 -12 22 -27v-63q0 -24 -25 -15q-19 7 -49 14t-60.5 11.5t-55.5 4.5z" />
    <glyph glyph-name="section" unicode="&#xa7;" horiz-adv-x="561" 
d="M257 -94q67 1 91.5 23t24.5 65q0 29 -16 48.5t-65 48.5l-125 74q-74 44 -101.5 88.5t-27.5 106.5q0 64 28 103q-28 42 -28 105q0 58 24 98.5t79 62.5t146 22q50 0 98.5 -12t73.5 -27q22 -12 22 -27v-72q0 -25 -25 -15q-27 10 -77.5 20t-90.5 10q-57 0 -81 -16.5
t-24 -50.5q0 -25 16 -43.5t64 -45.5l120 -67q54 -30 84.5 -60.5t43 -64.5t12.5 -75q0 -62 -26 -107q26 -40 26 -101q0 -57 -25 -105.5t-84 -78t-153 -29.5q-62 0 -113 14t-71 26q-14 9 -18 13.5t-4 13.5v71q0 22 25 15q97 -31 177 -31zM405 206q0 26 -8.5 44.5t-30 36.5
t-66.5 45l-79 47q-40 24 -54 37q-19 -22 -19 -60q0 -22 8.5 -39t27 -32.5t59.5 -40.5l77 -46q48 -28 73 -52q12 23 12 60z" />
    <glyph glyph-name="bullet" unicode="&#x2022;" horiz-adv-x="350" 
d="M287 358q0 -46 -30.5 -77t-77.5 -31t-77.5 31t-30.5 77q0 47 30.5 77.5t77.5 30.5t77.5 -30.5t30.5 -77.5z" />
    <glyph glyph-name="paragraph" unicode="&#xb6;" horiz-adv-x="629" 
d="M578 -176q0 -7 -5 -13t-12 -6h-35q-7 0 -12 6t-5 13v852h-61v-852q0 -7 -5 -13t-12 -6h-35q-7 0 -12 6t-5 13v426h-99q-106 0 -173.5 59t-67.5 164v47q0 70 31 120.5t86 76.5t124 26h282q16 0 16 -19v-900z" />
    <glyph glyph-name="germandbls" unicode="&#xdf;" horiz-adv-x="607" 
d="M561 221q0 -58 -19 -101t-52 -71.5t-76.5 -42.5t-93.5 -14q-21 0 -56 5q-20 3 -20 19v74q0 8 3.5 11.5t13.5 3.5q53 0 88 7t56.5 32.5t21.5 76.5v19q0 47 -31.5 75t-95.5 28h-32q-8 0 -14 5.5t-6 12.5v62q0 8 5.5 13t14.5 5h32q40 0 66 13t38 35t12 49v17
q0 45 -27.5 71.5t-83.5 26.5q-49 0 -75 -19t-35.5 -48.5t-9.5 -69.5v-495q0 -8 -5.5 -14.5t-13.5 -6.5h-95q-8 0 -14 6.5t-6 14.5v494q0 64 16.5 112t49 79t79.5 46.5t109 15.5q112 0 177.5 -51.5t65.5 -161.5v-17q0 -30 -12 -57t-33.5 -49.5t-47.5 -35.5q48 -20 77 -61
t29 -95v-19z" />
    <glyph glyph-name="registered" unicode="&#xae;" horiz-adv-x="368" 
d="M299 608q0 47 -33.5 81.5t-81.5 34.5t-81.5 -34.5t-33.5 -81.5q0 -32 15 -58.5t41 -42t59 -15.5q32 0 58 15t41.5 41.5t15.5 59.5zM159 587v-51q0 -10 -10 -10h-23q-9 0 -9 10v146q0 11 11 13q18 2 58 2q35 0 53 -14t18 -38q0 -36 -34 -51l35 -55q3 -4 2 -8.5t-6 -4.5
h-34q-6 0 -9 6l-30 55h-22zM158 621h27q30 0 30 22q0 21 -30 21h-27v-43zM29 608q0 41 20.5 77.5t57 57t77.5 20.5q42 0 78 -21t56.5 -57t20.5 -77q0 -42 -21 -77.5t-56.5 -56.5t-77.5 -21q-41 0 -77 20.5t-57 56.5t-21 78z" />
    <glyph glyph-name="copyright" unicode="&#xa9;" horiz-adv-x="368" 
d="M105 606v8q0 47 23 67t56 20q27 0 46 -10q7 -4 7 -12v-13q0 -14 -13 -9q-3 1 -9.5 3t-14.5 3t-16 1q-19 0 -26.5 -10.5t-7.5 -39.5v-8q0 -29 7.5 -39t26.5 -10q8 0 16 1.5t14.5 3t9.5 2.5q13 5 13 -9v-14q0 -8 -7 -12q-18 -10 -46 -10q-33 0 -56 20t-23 67zM299 608
q0 47 -33.5 81.5t-81.5 34.5t-81.5 -34.5t-33.5 -81.5q0 -32 15 -58.5t41 -42t59 -15.5q32 0 58 15t41.5 41.5t15.5 59.5zM29 608q0 41 20.5 77.5t57 57t77.5 20.5q42 0 78 -21t56.5 -57t20.5 -77q0 -42 -21 -77.5t-56.5 -56.5t-77.5 -21q-41 0 -77 20.5t-57 56.5t-21 78z
" />
    <glyph glyph-name="trademark" unicode="&#x2122;" horiz-adv-x="515" 
d="M211 708q0 -9 -11 -9h-57v-208q0 -4 -3 -7t-7 -3h-33q-3 0 -6.5 3t-3.5 7v208h-58q-10 0 -10 9v26q0 4 3 7t7 3h168q5 0 8 -2.5t3 -7.5v-26zM352 577q-14 0 -21.5 6.5t-15.5 22.5l-38 90h-1v-208q0 -7 -7 -7h-32q-7 0 -7 7v245q0 3 3 6.5t7 3.5h55q9 0 11 -6l42 -109
q2 -4 4 -4t4 4l44 109q2 6 11 6h53q4 0 7 -3t3 -7v-245q0 -7 -7 -7h-32q-7 0 -7 7v208h-1l-38 -90q-7 -14 -15 -21.5t-22 -7.5z" />
    <glyph glyph-name="acute" unicode="&#xb4;" horiz-adv-x="390" 
d="M362 772q0 -4 -4 -8l-118 -124q-6 -7 -10.5 -10t-13.5 -3h-86q-9 0 -9 7q0 6 4 10l95 120q8 9 12.5 12t13.5 3h105q11 0 11 -7z" />
    <glyph glyph-name="dieresis" unicode="&#xa8;" horiz-adv-x="401" 
d="M358 659q0 -9 -6.5 -14.5t-14.5 -5.5h-72q-8 0 -14.5 5.5t-6.5 14.5v88q0 8 6.5 14t14.5 6h72q8 0 14.5 -6t6.5 -14v-88zM158 659q0 -9 -6.5 -14.5t-14.5 -5.5h-72q-8 0 -14.5 5.5t-6.5 14.5v88q0 8 6.5 14t14.5 6h72q8 0 14.5 -6t6.5 -14v-88z" />
    <glyph glyph-name="old_notequal" horiz-adv-x="549" 
d="M564 314h-171l-40 -99h211v-129h-272l-43 -95h-133l42 95h-122v129h180l44 99h-224v129h282l43 96h133l-43 -96h113v-129z" />
    <glyph glyph-name="AE" unicode="&#xc6;" horiz-adv-x="869" 
d="M818 27q0 -10 -4.5 -14.5t-15.5 -6.5q-34 -7 -63 -10.5t-97 -3.5q-72 0 -122 17t-79.5 62t-29.5 126v10h-201l-46 -190q-1 -7 -7 -12t-12 -5h-106q-8 0 -13 4.5t-5 12.5q1 1 1 2v3l164 627q16 61 52.5 77.5t86.5 16.5h477q20 0 20 -21v-70q0 -8 -6 -14t-14 -6h-253v-194
h241q8 0 14 -6t6 -14v-72q0 -8 -6.5 -14t-13.5 -6h-241v-129q0 -49 17.5 -67.5t61.5 -18.5h174q9 0 14.5 -5.5t5.5 -14.5v-64zM407 321v313h-86q-7 0 -10 -3.5t-6 -12.5l-72 -297h174z" />
    <glyph glyph-name="Oslash" unicode="&#xd8;" horiz-adv-x="664" 
d="M648 737q0 -4 -3 -8l-72 -100q44 -76 44 -190v-135q0 -106 -36 -176t-100.5 -103t-148.5 -33q-33 0 -66.5 5.5t-61 17t-51.5 29.5l-29 -40q-9 -12 -20 -12h-76q-11 0 -11 11q0 3 3 8l72 100q-45 75 -45 193v135q0 106 36 176.5t100.5 103t148.5 32.5q111 0 182 -54l29 41
q7 10 19 10h75q11 0 11 -11zM436 590q-35 40 -104 40q-74 0 -109.5 -46t-35.5 -145v-135q0 -30 3 -56zM477 304v135q0 28 -3 52l-244 -340q35 -38 102 -38q74 0 109.5 46.5t35.5 144.5z" />
    <glyph glyph-name="infinity" unicode="&#x221e;" horiz-adv-x="624" 
d="M590 366q0 -44 -7 -82.5t-24.5 -71.5t-51 -54t-84.5 -21h-6q-69 0 -117 48q-36 -49 -97 -49h-7q-66 0 -101.5 34.5t-48 85.5t-12.5 109v24q0 95 36 162t131 67h6q31 0 61.5 -12t53.5 -37q19 27 42.5 38.5t57.5 11.5h6q95 0 128.5 -66t33.5 -163v-24zM488 366v24
q0 69 -11 105t-49 36h-5q-15 0 -25 -8.5t-16.5 -26t-12 -44.5t-12.5 -76q-10 -77 -19 -113q33 -39 80 -39h5q38 0 51.5 37.5t13.5 104.5zM284 488q-34 43 -77 43h-6q-38 0 -51.5 -39.5t-13.5 -102.5v-24q0 -42 4 -72t17 -50t40 -20h5q27 0 41 34.5t25 125.5q11 79 16 105z
" />
    <glyph glyph-name="plusminus" unicode="&#xb1;" horiz-adv-x="606" 
d="M536 356q0 -7 -6 -11.5t-14 -4.5h-162v-161q0 -20 -16 -20h-70q-16 0 -16 20v161h-161q-8 0 -14 4.5t-6 11.5v70q0 16 20 16h161v162q0 20 16 20h70q16 0 16 -20v-162h162q20 0 20 -16v-70zM536 1q0 -7 -6 -11.5t-14 -4.5h-425q-8 0 -14 4.5t-6 11.5v56q0 7 6 11.5
t14 4.5h425q8 0 14 -4.5t6 -11.5v-56z" />
    <glyph glyph-name="lessequal" unicode="&#x2264;" horiz-adv-x="606" 
d="M502 153q0 -6 -3.5 -10t-8.5 -4h-110q-6 0 -9 2t-13 9l-231 202q-14 13 -18.5 20.5t-4.5 18.5t5 19.5t18 19.5l231 202q7 6 11 8.5t11 2.5h110q6 0 9 -4t3 -10q0 -7 -6 -12l-260 -226l260 -226q6 -4 6 -12zM536 1q0 -7 -6 -11.5t-14 -4.5h-425q-8 0 -14 4.5t-6 11.5v56
q0 7 6 11.5t14 4.5h425q8 0 14 -4.5t6 -11.5v-56z" />
    <glyph glyph-name="greaterequal" unicode="&#x2265;" horiz-adv-x="606" 
d="M502 391q0 -12 -5 -20t-18 -19l-231 -202q-6 -5 -10.5 -8t-11.5 -3h-110q-5 0 -8.5 4.5t-3.5 9.5q0 8 6 12l260 226l-260 226q-6 5 -6 12q0 5 3 9.5t9 4.5h110q8 0 12.5 -3t9.5 -8l231 -202q12 -10 17.5 -18.5t5.5 -20.5zM536 1q0 -7 -6 -11.5t-14 -4.5h-425
q-8 0 -14 4.5t-6 11.5v56q0 7 6 11.5t14 4.5h425q8 0 14 -4.5t6 -11.5v-56z" />
    <glyph glyph-name="yen" unicode="&#xa5;" horiz-adv-x="622" 
d="M597 730q0 -4 -3 -10l-114 -227h93q8 0 14 -5t6 -13v-63q0 -9 -5 -13.5t-14 -4.5h-143l-50 -99v-12h192q8 0 14 -5t6 -13v-63q0 -9 -5 -13.5t-14 -4.5h-193v-164q0 -9 -5.5 -14.5t-13.5 -5.5h-103q-8 0 -13 6t-5 14v164h-194q-8 0 -13.5 4.5t-5.5 13.5v63q0 7 6 12.5
t14 5.5h193v12l-50 99h-144q-8 0 -13.5 4.5t-5.5 13.5v63q0 7 6 12.5t14 5.5h94l-114 227q-3 6 -3 10q0 6 5 9.5t11 3.5h114q10 0 18 -16l138 -294l138 294q9 16 19 16h113q6 0 11 -3.5t5 -9.5z" />
    <glyph glyph-name="mu" unicode="&#xb5;" horiz-adv-x="569" 
d="M518 42q0 -20 -27 -26q-20 -5 -55 -11t-69.5 -9.5t-78.5 -3.5q-64 0 -103 31v-195q0 -9 -5 -14.5t-13 -5.5h-97q-8 0 -13.5 5.5t-5.5 14.5v715q0 8 6 14.5t14 6.5h93q8 0 14 -6.5t6 -14.5v-346q0 -96 104 -96q55 0 96 11v431q0 8 6 14.5t14 6.5h93q8 0 14.5 -6.5
t6.5 -14.5v-501z" />
    <glyph glyph-name="old_partialdiff" horiz-adv-x="494" 
d="M253 86q50 0 86 39t36 103q0 47 -24.5 79.5t-76.5 32.5q-53 0 -87 -42t-34 -105q0 -51 30.5 -79t69.5 -28zM18 203q0 108 69 179.5t176 71.5q39 0 77 -18q44 -23 67 -58q1 15 2 28t1 22q0 80 -29 146t-88 66q-15 0 -28 -5.5t-26 -16.5l-68 92q26 13 52 21q37 12 72 12
q101 0 166 -81q79 -97 79 -285q0 -160 -85 -276q-89 -121 -222 -121q-96 0 -155.5 65t-59.5 158z" />
    <glyph glyph-name="old_summation" horiz-adv-x="713" 
d="M573 718v-132h-350l251 -295l-256 -306h364v-131h-586v107l284 330l-271 320v107h564z" />
    <glyph glyph-name="product" unicode="&#x220f;" horiz-adv-x="708" 
d="M27 743h654q14 0 14 -17v-89q0 -10 -3 -13t-11 -3h-46v-676q0 -8 -6 -14t-14 -6h-99q-8 0 -14 6t-6 14v676h-284v-676q0 -8 -6 -14t-14 -6h-99q-8 0 -14 6t-6 14v676h-46q-8 0 -11 3.5t-3 12.5v89q0 17 14 17z" />
    <glyph glyph-name="pi" horiz-adv-x="549" 
d="M81 416h-61v104h571v-104h-61v-416h-140v416h-169v-416h-140v416z" />
    <glyph glyph-name="old_integral" horiz-adv-x="274" 
d="M299 -121q-39 -90 -138 -90q-21 0 -49 5.5t-54 15.5l11 111q19 -10 30.5 -14.5t25.5 -4.5q36 0 48 39q8 25 11 105l18 449q5 121 28 173q38 87 140 87q30 0 69 -9q39 -10 34 -10l-10 -111q-18 8 -31 12.5t-28 4.5q-37 0 -51 -39q-9 -25 -12 -108l-17 -474
q-4 -93 -25 -142z" />
    <glyph glyph-name="ordfeminine" unicode="&#xaa;" horiz-adv-x="326" 
d="M294 431q0 -14 -9 -16q-55 -15 -116 -15q-73 0 -107 26t-34 80v7q0 35 17.5 56t51 30.5t83.5 9.5h26v13q0 29 -11 40.5t-36 11.5q-40 0 -93 -5h-1q-4 0 -9 4t-5 10v38q0 11 14 15q48 12 94 12q66 0 100.5 -29.5t34.5 -96.5v-191zM206 468v89q-3 1 -7 1h-12q-6 0 -7 -1
q-37 0 -52.5 -10t-15.5 -34v-7q0 -23 13 -32.5t44 -9.5q5 0 14 1t14 1.5t9 1.5z" />
    <glyph glyph-name="ordmasculine" unicode="&#xba;" horiz-adv-x="349" 
d="M321 557q0 -78 -37.5 -117.5t-108.5 -39.5t-108.5 40t-37.5 117v34q0 77 37.5 117t108.5 40t108.5 -40t37.5 -117v-34zM232 557v34q0 43 -13.5 62.5t-43.5 19.5q-29 0 -43.5 -19.5t-14.5 -62.5v-34q0 -43 14 -63t44 -20t43.5 20t13.5 63z" />
    <glyph glyph-name="Omega" horiz-adv-x="768" 
d="M598 123h155v-123h-299v136q63 48 93 98t30 150q0 116 -51 171.5t-137 55.5t-137 -55.5t-51 -171.5q0 -100 32.5 -150t90.5 -98v-136h-300v123h155q-72 69 -103 125t-31 141q0 138 67 231q91 122 277 122q185 0 277 -122q66 -93 66 -231q0 -85 -31 -141t-103 -125z" />
    <glyph glyph-name="ae" unicode="&#xe6;" horiz-adv-x="864" 
d="M690 330v4q0 61 -28.5 92t-76.5 31q-31 0 -55.5 -13.5t-38 -41t-13.5 -68.5v-4h212zM425 510q59 61 160 61q75 0 129 -32t81.5 -89.5t27.5 -132.5v-56q0 -25 -20 -25h-326v-3q0 -36 11 -64t40 -45.5t82 -17.5q42 0 91 8.5t80 18.5q21 6 21 -16v-59q0 -10 -5 -15t-16 -11
q-30 -16 -80 -28t-101 -12q-106 0 -172 53q-73 -53 -182 -53q-70 0 -116 18.5t-68.5 56t-22.5 93.5v5q0 44 12.5 75.5t40.5 53t72.5 32t110.5 10.5h70v44q0 47 -20.5 64t-67.5 17q-79 0 -160 -26q-21 -6 -21 16v61q0 9 4.5 15t16.5 11q31 13 76 23t99 10q101 0 153 -61z
M256 95q58 0 94 14v139h-75q-46 0 -67.5 -8t-28.5 -25t-7 -47v-6q0 -25 7.5 -39.5t26.5 -21t50 -6.5z" />
    <glyph glyph-name="oslash" unicode="&#xf8;" horiz-adv-x="560" 
d="M538 589q0 -6 -4 -11l-65 -90q25 -32 37.5 -74.5t12.5 -91.5v-81q0 -71 -27.5 -128t-81.5 -89t-130 -32q-82 0 -140 38l-40 -55q-8 -10 -16 -10h-56q-8 0 -8 8q0 6 4 11l66 92q-24 32 -36.5 73.5t-12.5 91.5v81q0 71 27.5 128t81.5 89t130 32q81 0 139 -38l39 54
q7 10 16 10h56q8 0 8 -8zM347 433q-27 24 -67 24q-52 0 -79.5 -36.5t-27.5 -98.5v-81q0 -25 4 -44zM387 241v81q0 28 -4 46l-171 -238q25 -24 68 -24q52 0 79.5 36.5t27.5 98.5z" />
    <glyph glyph-name="questiondown" unicode="&#xbf;" horiz-adv-x="429" 
d="M196 545q0 8 6 13.5t14 5.5h98q9 0 14.5 -5t5.5 -14v-113q0 -9 -6 -14.5t-14 -5.5h-98q-8 0 -14 6t-6 14v113zM233 -68q62 0 145 30q25 9 25 -15v-68q0 -15 -22 -27t-68.5 -25.5t-104.5 -13.5q-57 0 -97 14t-62.5 49.5t-22.5 98.5v6q0 38 13 71.5t58 86.5l61 72
q27 32 36.5 46.5t9.5 35.5v38q0 7 6 13t14 6h83q8 0 13.5 -5.5t5.5 -13.5v-38q0 -47 -12 -76t-47 -71l-64 -74q-19 -22 -24 -41t-5 -50v-4q0 -22 13 -33.5t46 -11.5z" />
    <glyph glyph-name="exclamdown" unicode="&#xa1;" horiz-adv-x="238" 
d="M172 327l15 -508q0 -8 -6 -13.5t-14 -5.5h-95q-8 0 -14.5 5.5t-6.5 13.5l15 508q0 8 6.5 14t14.5 6h65q8 0 14 -6t6 -14zM187 544v-113q0 -8 -5.5 -13.5t-13.5 -5.5h-98q-8 0 -13.5 5.5t-5.5 13.5v113q0 9 5.5 14.5t13.5 5.5h98q9 0 14 -5.5t5 -14.5z" />
    <glyph glyph-name="logicalnot" unicode="&#xac;" horiz-adv-x="604" 
d="M525 203q0 -9 -6 -14.5t-14 -5.5h-62q-7 0 -13.5 6t-6.5 14v259h-323q-20 0 -20 16v70q0 16 20 16h407q8 0 13 -4.5t5 -12.5v-344z" />
    <glyph glyph-name="old_radical" horiz-adv-x="549" 
d="M235 -19l-132 445l-86 -52l-38 67l190 108l121 -448l262 829h82l-295 -949h-104z" />
    <glyph glyph-name="florin" unicode="&#x192;" horiz-adv-x="618" 
d="M581 752v-3l-8 -58q-1 -7 -8 -12t-16 -5h-61q-36 0 -50.5 -12t-18.5 -45l-24 -173h138q8 0 12.5 -4.5t4.5 -11.5v-3l-9 -65q-1 -8 -8 -14t-15 -6h-137l-48 -337q-12 -86 -62.5 -122t-128.5 -36q-45 0 -87 7q-10 2 -14 5.5t-4 9.5v3l8 58q0 8 7 12.5t17 4.5h61
q37 0 51 12.5t18 44.5l48 338h-127q-8 0 -13 5t-5 12v3l9 65q1 8 7.5 13.5t15.5 5.5h127l24 173q8 59 34.5 93.5t66 49t90.5 14.5q45 0 87 -7q18 -4 18 -15z" />
    <glyph glyph-name="old_approxequal" horiz-adv-x="549" 
d="M172 252q49 0 132 -37.5t118 -37.5q54 0 101 33q24 18 41 40v-139q-23 -21 -51 -36q-43 -22 -86 -22q-50 0 -130.5 37t-125.5 37t-73 -16t-62 -56v136q32 30 62.5 45t73.5 16zM519 302q-46 -26 -92 -26q-49 0 -131.5 38t-124.5 38q-45 0 -73.5 -18t-61.5 -55v135
q30 27 62.5 44.5t73.5 17.5q48 0 131.5 -38t118.5 -38q42 0 78 19.5t64 53.5v-139q-17 -17 -45 -32z" />
    <glyph glyph-name="Delta" horiz-adv-x="612" 
d="M680 0h-683l267 720h149zM480 129l-142 437l-142 -437h284z" />
    <glyph glyph-name="guillemotleft" unicode="&#xab;" horiz-adv-x="678" 
d="M653 77q0 -11 -15 -11h-103q-11 0 -15.5 2t-14.5 11l-162 178q-8 8 -8 25t8 25l162 178q8 8 13.5 10.5t16.5 2.5h103q15 0 15 -11q0 -4 -3 -7l-181 -198l181 -198q3 -3 3 -7zM358 77q0 -11 -15 -11h-103q-11 0 -15.5 2t-14.5 11l-162 178q-8 8 -8 25t8 25l162 178
q8 8 13.5 10.5t16.5 2.5h103q15 0 15 -11q0 -4 -3 -7l-181 -198l181 -198q3 -3 3 -7z" />
    <glyph glyph-name="guillemotright" unicode="&#xbb;" horiz-adv-x="678" 
d="M651 282q0 -17 -8 -25l-162 -178q-8 -8 -13 -10.5t-17 -2.5h-103q-15 0 -15 11q0 4 3 7l181 198l-181 198q-3 3 -3 7q0 11 15 11h103q12 0 18 -3t12 -10l162 -178q8 -8 8 -25zM356 282q0 -17 -8 -25l-162 -178q-8 -8 -13.5 -10.5t-16.5 -2.5h-103q-15 0 -15 11q0 4 3 7
l181 198l-181 198q-3 3 -3 7q0 11 15 11h103q11 0 17.5 -3t12.5 -10l162 -178q8 -8 8 -25z" />
    <glyph glyph-name="ellipsis" unicode="&#x2026;" horiz-adv-x="691" 
d="M652 20q0 -9 -6 -14.5t-14 -5.5h-98q-8 0 -14 6t-6 14v113q0 8 5.5 13.5t14.5 5.5h98q9 0 14.5 -5t5.5 -14v-113zM415 20q0 -8 -6.5 -14t-13.5 -6h-98q-7 0 -13.5 6t-6.5 14v113q0 8 6 13.5t14 5.5h98q8 0 14 -5.5t6 -13.5v-113zM178 20q0 -8 -6 -14t-14 -6h-98
q-8 0 -14 6t-6 14v113q0 8 5.5 13.5t14.5 5.5h98q8 0 14 -5.5t6 -13.5v-113z" />
    <glyph glyph-name="nonbreakingspace" unicode="&#xa0;" horiz-adv-x="615" 
 />
    <glyph glyph-name="Agrave" unicode="&#xc0;" horiz-adv-x="642" 
d="M625 17q0 -8 -5 -12.5t-13 -4.5h-106q-6 0 -12 5t-7 12l-46 190h-230l-46 -190q-1 -7 -7 -12t-12 -5h-106q-8 0 -13 4.5t-5 12.5q1 1 1 2v3l164 627q26 102 139 102t139 -102l164 -627q1 -1 1 -2v-3zM409 321l-72 297q-3 9 -6 12.5t-10 3.5t-10 -3.5t-6 -12.5l-72 -297
h176zM432 801q0 -7 -9 -7h-86q-6 0 -9.5 1.5t-7 5l-6.5 6.5l-119 124q-4 4 -4 8q0 7 11 7h106q9 0 13.5 -3t12.5 -12l94 -120q4 -4 4 -10z" />
    <glyph glyph-name="Atilde" unicode="&#xc3;" horiz-adv-x="642" 
d="M625 17q0 -8 -5 -12.5t-13 -4.5h-106q-6 0 -12 5t-7 12l-46 190h-230l-46 -190q-1 -7 -7 -12t-12 -5h-106q-8 0 -13 4.5t-5 12.5q1 1 1 2v3l164 627q26 102 139 102t139 -102l164 -627q1 -1 1 -2v-3zM409 321l-72 297q-3 9 -6 12.5t-10 3.5t-10 -3.5t-6 -12.5l-72 -297
h176zM529 900q0 -112 -111 -112q-17 0 -35.5 6t-34.5 17l-44 33q-28 21 -42 21q-28 0 -28 -34v-21q0 -16 -14 -16h-57q-14 0 -14 16v21q0 112 112 112q39 0 69 -22l44 -33q26 -20 42 -20q28 0 28 33v21q0 16 14 16h57q14 0 14 -16v-22z" />
    <glyph glyph-name="Otilde" unicode="&#xd5;" horiz-adv-x="664" 
d="M617 304q0 -106 -36 -176t-100.5 -103t-148.5 -33t-148.5 33t-100.5 103t-36 176v135q0 106 36 176.5t100.5 103t148.5 32.5t148.5 -32.5t100.5 -103t36 -176.5v-135zM477 304v135q0 99 -35.5 145t-109.5 46t-109.5 -46t-35.5 -145v-135q0 -98 35.5 -144.5t109.5 -46.5
t109.5 46.5t35.5 144.5zM527 901q0 -112 -111 -112q-17 0 -35.5 6t-34.5 17l-44 33q-28 21 -42 21q-28 0 -28 -34v-21q0 -16 -14 -16h-57q-14 0 -14 16v21q0 112 112 112q39 0 69 -22l44 -33q26 -20 42 -20q28 0 28 33v21q0 16 14 16h57q14 0 14 -16v-22z" />
    <glyph glyph-name="OE" unicode="&#x152;" horiz-adv-x="972" 
d="M921 27q0 -19 -20 -21q-10 -1 -26 -4t-48 -5.5t-52 -3.5t-64 -1q-65 0 -111.5 13.5t-75.5 50.5q-37 -34 -83 -49t-105 -15q-84 0 -148.5 33t-100.5 103t-36 176v135q0 106 36 176.5t100.5 103t148.5 32.5q119 0 188 -64q25 35 73.5 49.5t113.5 14.5q106 0 190 -14
q12 -2 16 -6t4 -15v-64q0 -8 -6 -14t-14 -6h-204q-44 0 -61.5 -18.5t-17.5 -67.5v-108h271q8 0 14 -6t6 -14v-72q0 -8 -6.5 -14t-13.5 -6h-271v-129q0 -49 17.5 -67.5t61.5 -18.5h204q9 0 14.5 -5.5t5.5 -14.5v-64zM480 280v183q0 167 -144 167q-74 0 -109.5 -46t-35.5 -145
v-135q0 -98 35.5 -144.5t109.5 -46.5q144 0 144 167z" />
    <glyph glyph-name="oe" unicode="&#x153;" horiz-adv-x="906" 
d="M642 -8q-120 0 -188 77q-64 -77 -174 -77q-76 0 -130 32t-81.5 89t-27.5 128v81q0 71 27.5 128t81.5 89t130 32q109 0 173 -74q65 74 174 74q75 0 129 -32t81.5 -89.5t27.5 -132.5v-56q0 -25 -20 -25h-326v-3q0 -36 11 -64t40 -45.5t82 -17.5q42 0 91 8.5t80 18.5
q21 7 21 -16v-59q0 -10 -4.5 -14.5t-16.5 -11.5q-31 -16 -80.5 -28t-100.5 -12zM387 241v87q0 39 -12.5 68t-37.5 45t-57 16q-52 0 -79.5 -36.5t-27.5 -98.5v-81q0 -62 28 -98.5t79 -36.5q52 0 79.5 36.5t27.5 98.5zM732 330v4q0 61 -28.5 92t-76.5 31q-31 0 -55.5 -13.5
t-38 -41t-13.5 -68.5v-4h212z" />
    <glyph glyph-name="endash" unicode="&#x2013;" horiz-adv-x="444" 
d="M407 252q0 -7 -6 -12.5t-14 -5.5h-331q-8 0 -13.5 5t-5.5 13v71q0 9 5.5 14t13.5 5h331q8 0 14 -5t6 -14v-71z" />
    <glyph glyph-name="emdash" unicode="&#x2014;" horiz-adv-x="814" 
d="M777 252q0 -8 -6 -13t-14 -5h-701q-8 0 -13.5 5t-5.5 13v71q0 9 5.5 14t13.5 5h701q9 0 14.5 -5t5.5 -14v-71z" />
    <glyph glyph-name="quotedblleft" unicode="&#x201c;" horiz-adv-x="414" 
d="M404 751q0 -6 -1 -9l-51 -207q-4 -19 -20 -19h-102q-11 0 -11 11q0 5 1 8l68 207q5 19 19 19h88q9 0 9 -10zM195 751q0 -6 -1 -9l-51 -207q-4 -19 -20 -19h-102q-11 0 -11 11q0 5 1 8l68 207q5 19 19 19h88q9 0 9 -10z" />
    <glyph glyph-name="quotedblright" unicode="&#x201d;" horiz-adv-x="414" 
d="M404 750q0 -5 -1 -8l-68 -207q-5 -19 -19 -19h-88q-9 0 -9 10q0 6 1 9l51 207q4 19 20 19h102q11 0 11 -11zM195 750q0 -5 -1 -8l-68 -207q-5 -19 -19 -19h-88q-9 0 -9 10q0 6 1 9l51 207q4 19 20 19h102q11 0 11 -11z" />
    <glyph glyph-name="quoteleft" unicode="&#x2bb;" horiz-adv-x="278" 
d="M67 555q0 75 35.5 116.5t101.5 55.5v-51q-51 -15 -67 -55q-10 -21 -8 -40h77v-129h-139v103z" />
    <glyph glyph-name="quoteright" unicode="&#x2bc;" horiz-adv-x="278" 
d="M67 494q48 15 66 51q10 22 8 44h-77v128h140v-103q0 -73 -36 -115.5t-101 -55.5v51z" />
    <glyph glyph-name="divide" unicode="&#xf7;" horiz-adv-x="606" 
d="M372 542q0 -8 -6.5 -14t-13.5 -6h-98q-7 0 -13.5 6t-6.5 14v103q0 8 6 13.5t14 5.5h98q8 0 14 -5.5t6 -13.5v-103zM372 127q0 -8 -6 -13.5t-14 -5.5h-98q-8 0 -14 5.5t-6 13.5v103q0 8 6 14t14 6h98q8 0 14 -6t6 -14v-103zM536 352q0 -16 -20 -16h-425q-20 0 -20 16v78
q0 16 20 16h425q20 0 20 -16v-78z" />
    <glyph glyph-name="lozenge" unicode="&#x25ca;" horiz-adv-x="542" 
d="M508 363q0 -23 -18 -44l-184 -228q-19 -22 -35 -22t-34 22l-185 228q-18 21 -18 44q0 22 18 44l186 232q14 17 33 17t33 -17l186 -232q18 -22 18 -44zM387 362q0 9 -9 21l-88 113q-9 11 -19 11t-19 -11l-88 -113q-9 -12 -9 -21q0 -8 10 -23l86 -108q12 -15 20 -15
q9 0 20 15l86 108q10 13 10 23z" />
    <glyph glyph-name="ydieresis" unicode="&#xff;" horiz-adv-x="554" 
d="M532 547q0 -4 -1 -6l-167 -584q-17 -59 -38.5 -92t-60 -49t-105.5 -16q-25 0 -56 4t-50 9q-21 5 -21 17v64q0 7 6 12.5t14 5.5h2q13 0 56 -3t57 -3q22 0 37 5.5t25 19t17 39.5l8 30h-15q-17 0 -32.5 5.5t-30 23.5t-24.5 54l-131 458q-1 3 -1 7q0 16 19 16h101
q7 0 12.5 -5.5t6.5 -12.5l101 -407q5 -22 14 -22h1h5h3l108 430q4 17 20 17h102q7 0 12.5 -5t5.5 -12zM440 659q0 -9 -6.5 -14.5t-14.5 -5.5h-72q-8 0 -14.5 5.5t-6.5 14.5v88q0 8 6.5 14t14.5 6h72q8 0 14.5 -6t6.5 -14v-88zM240 659q0 -9 -6.5 -14.5t-14.5 -5.5h-72
q-8 0 -14.5 5.5t-6.5 14.5v88q0 8 6.5 14t14.5 6h72q8 0 14.5 -6t6.5 -14v-88z" />
    <glyph glyph-name="Ydieresis" unicode="&#x178;" horiz-adv-x="609" 
d="M587 728q0 -2 -2 -8l-152 -347q-25 -58 -61 -73v-280q0 -9 -5.5 -14.5t-13.5 -5.5h-100q-8 0 -13.5 5.5t-5.5 14.5v280q-36 15 -61 73l-151 347q-2 6 -2 8q0 7 4 11t12 4h111q13 0 19 -16l120 -298q8 -20 17 -20q10 0 18 20l120 298q6 16 19 16h110q7 0 12 -4t5 -11z
M466 819q0 -9 -6.5 -14.5t-14.5 -5.5h-72q-8 0 -14.5 5.5t-6.5 14.5v88q0 8 6.5 14t14.5 6h72q8 0 14.5 -6t6.5 -14v-88zM266 819q0 -9 -6.5 -14.5t-14.5 -5.5h-72q-8 0 -14.5 5.5t-6.5 14.5v88q0 8 6.5 14t14.5 6h72q8 0 14.5 -6t6.5 -14v-88z" />
    <glyph glyph-name="fraction" horiz-adv-x="329" 
d="M473 735q0 -6 -4 -12l-419 -709q-7 -11 -10.5 -14t-10.5 -3h-82q-10 0 -10 9q0 7 4 12l419 708q8 12 11 14.5t11 2.5h81q10 0 10 -8z" />
    <glyph glyph-name="Euro" unicode="&#x20ac;" horiz-adv-x="614" 
d="M376 751q54 0 100.5 -14t64.5 -25q22 -12 22 -27v-68q0 -24 -25 -15q-16 6 -45 13.5t-56 12t-52 4.5q-71 0 -103 -31.5t-39 -105.5h246q7 0 11.5 -4t4.5 -11q0 -1 -0.5 -2t-0.5 -3l-13 -48q-6 -20 -20 -20h-231v-68h206q7 0 11.5 -4t4.5 -11q0 -2 -0.5 -3t-0.5 -2
l-13 -48q-6 -20 -20 -20h-186q8 -50 24 -81t44.5 -45t74.5 -14q38 0 79 9t74 21q25 9 25 -15v-68q0 -15 -22 -27q-20 -11 -66.5 -25t-98.5 -14q-106 0 -184 60t-90 199h-38q-7 0 -13.5 6t-6.5 14v48q0 8 6 14t14 6h36v68h-36q-7 0 -13.5 6t-6.5 14v48q0 7 6.5 13.5t13.5 6.5
h38q10 96 49 153.5t96.5 80t128.5 22.5z" />
    <glyph glyph-name="guilsinglleft" unicode="&#x2039;" horiz-adv-x="391" 
d="M346 77q0 -11 -15 -11h-103q-11 0 -16.5 2.5t-13.5 10.5l-162 178q-8 8 -8 25t8 25l162 178q6 7 12.5 10t17.5 3h103q15 0 15 -11q0 -4 -3 -7l-181 -198l181 -198q3 -3 3 -7z" />
    <glyph glyph-name="guilsinglright" unicode="&#x203a;" horiz-adv-x="391" 
d="M363 282q0 -17 -8 -25l-162 -178q-8 -8 -13 -10.5t-17 -2.5h-103q-15 0 -15 11q0 4 3 7l181 198l-181 198q-3 3 -3 7q0 11 15 11h103q12 0 17.5 -3t12.5 -10l162 -178q8 -8 8 -25z" />
    <glyph glyph-name="fi" horiz-adv-x="611" 
d="M404 724h136v-127h-136v127zM404 530h138v-530h-138v530zM318 724v-113q-10 0 -19 0.5t-23 0.5q-32 0 -39.5 -18t-6.5 -57v-10h91v-98h-91v-429h-139v429h-77v98h76v35q0 84 37 126q34 39 138 39q12 0 25.5 -1t27.5 -2z" />
    <glyph glyph-name="fl" horiz-adv-x="611" 
d="M404 720h138v-720h-138v720zM318 724v-113q-10 0 -19 0.5t-23 0.5q-32 0 -39.5 -18t-6.5 -57v-10h91v-98h-91v-429h-139v429h-77v98h76v35q0 84 37 126q34 39 138 39q12 0 25.5 -1t27.5 -2z" />
    <glyph glyph-name="daggerdbl" unicode="&#x2021;" horiz-adv-x="417" 
d="M389 267q0 -16 -19 -16h-99v-237q0 -20 -16 -20h-102q-16 0 -16 20v237h-89q-19 0 -19 16v80q0 15 19 15h89v99h-89q-19 0 -19 16v80q0 15 19 15h89v170q0 19 17 19h101q7 0 11.5 -5.5t4.5 -13.5v-170h99q19 0 19 -15v-80q0 -16 -19 -16h-99v-99h99q19 0 19 -15v-80z" />
    <glyph glyph-name="periodcentered" unicode="&#xb7;" horiz-adv-x="241" 
d="M189 329q0 -9 -6 -14.5t-14 -5.5h-98q-8 0 -14 6t-6 14v113q0 8 6 13.5t14 5.5h98q9 0 14.5 -5t5.5 -14v-113z" />
    <glyph glyph-name="quotesinglbase.old" horiz-adv-x="278" 
d="M74 -111q41 13 57.5 36t16.5 75h-77v141h142v-116q-1 -56 -12 -88q-18 -48 -57 -73q-23 -15 -70 -29v54z" />
    <glyph glyph-name="quotedblbase.old" horiz-adv-x="500" 
d="M74 -111q41 13 57.5 36t16.5 75h-77v141h142v-116q-1 -56 -12 -88q-18 -48 -57 -73q-23 -15 -70 -29v54zM292 -111q49 13 65 51q10 21 10 60h-77v141h142v-116q-2 -60 -12 -90q-12 -34 -46 -61.5t-82 -38.5v54z" />
    <glyph glyph-name="perthousand" unicode="&#x2030;" horiz-adv-x="1155" 
d="M320 498q0 -170 -144 -170q-69 0 -106.5 42.5t-37.5 127.5v81q0 56 17 94t49 56.5t78 18.5q70 0 107 -41.5t37 -127.5v-81zM230 498v81q0 49 -13.5 69t-40.5 20t-40.5 -20.5t-13.5 -68.5v-81q0 -48 13.5 -69t40.5 -21t40.5 20.5t13.5 69.5zM667 735q0 -6 -4 -12
l-419 -709q-6 -11 -10 -14t-11 -3h-82q-10 0 -10 9q0 7 4 12l419 708q7 10 10.5 13.5t11.5 3.5h81q10 0 10 -8zM770 165q0 -85 -37 -127.5t-107 -42.5t-107 42.5t-37 127.5v81q0 85 37.5 127t106.5 42q70 0 107 -42t37 -127v-81zM680 165v81q0 49 -13.5 69t-40.5 20
t-40.5 -20.5t-13.5 -68.5v-81q0 -48 13.5 -69t40.5 -21t40.5 20.5t13.5 69.5zM1123 165q0 -85 -37 -127.5t-107 -42.5t-107 42.5t-37 127.5v81q0 85 37.5 127t106.5 42q70 0 107 -42t37 -127v-81zM1033 165v81q0 49 -13.5 69t-40.5 20t-40.5 -20.5t-13.5 -68.5v-81
q0 -48 13.5 -69t40.5 -21t40.5 20.5t13.5 69.5z" />
    <glyph glyph-name="Acircumflex" unicode="&#xc2;" horiz-adv-x="642" 
d="M625 17q0 -8 -5 -12.5t-13 -4.5h-106q-6 0 -12 5t-7 12l-46 190h-230l-46 -190q-1 -7 -7 -12t-12 -5h-106q-8 0 -13 4.5t-5 12.5q1 1 1 2v3l164 627q26 102 139 102t139 -102l164 -627q1 -1 1 -2v-3zM409 321l-72 297q-3 9 -6 12.5t-10 3.5t-10 -3.5t-6 -12.5l-72 -297
h176zM507 801q0 -7 -9 -7h-83q-6 0 -9.5 1.5t-7 5l-6.5 6.5l-71 81l-71 -81q-8 -8 -11.5 -10.5t-12.5 -2.5h-83q-9 0 -9 7q0 6 4 10l92 120q9 10 13 12.5t13 2.5h130q9 0 13.5 -3t12.5 -12l91 -120q4 -4 4 -10z" />
    <glyph glyph-name="Ecircumflex" unicode="&#xca;" horiz-adv-x="556" 
d="M505 27q0 -19 -20 -21q-10 -1 -26 -4t-48 -5.5t-52 -3.5t-64 -1q-71 0 -121.5 17t-80 62t-29.5 126v349q0 80 29.5 125.5t80 62.5t121.5 17q106 0 190 -14q12 -2 16 -6t4 -15v-64q0 -8 -6 -14t-14 -6h-204q-44 0 -61.5 -18.5t-17.5 -67.5v-108h271q8 0 14 -6t6 -14v-72
q0 -8 -6.5 -14t-13.5 -6h-271v-129q0 -49 17.5 -67.5t61.5 -18.5h204q9 0 14.5 -5.5t5.5 -14.5v-64zM473 802q0 -7 -9 -7h-83q-6 0 -9.5 1.5t-7 5l-6.5 6.5l-71 81l-71 -81q-8 -8 -11.5 -10.5t-12.5 -2.5h-83q-9 0 -9 7q0 6 4 10l92 120q9 10 13 12.5t13 2.5h130
q9 0 13.5 -3t12.5 -12l91 -120q4 -4 4 -10z" />
    <glyph glyph-name="Aacute" unicode="&#xc1;" horiz-adv-x="642" 
d="M625 17q0 -8 -5 -12.5t-13 -4.5h-106q-6 0 -12 5t-7 12l-46 190h-230l-46 -190q-1 -7 -7 -12t-12 -5h-106q-8 0 -13 4.5t-5 12.5q1 1 1 2v3l164 627q26 102 139 102t139 -102l164 -627q1 -1 1 -2v-3zM409 321l-72 297q-3 9 -6 12.5t-10 3.5t-10 -3.5t-6 -12.5l-72 -297
h176zM489 939q0 -4 -4 -8l-118 -124q-6 -7 -10.5 -10t-13.5 -3h-86q-9 0 -9 7q0 6 4 10l95 120q8 9 12.5 12t13.5 3h105q11 0 11 -7z" />
    <glyph glyph-name="Edieresis" unicode="&#xcb;" horiz-adv-x="556" 
d="M505 27q0 -19 -20 -21q-10 -1 -26 -4t-48 -5.5t-52 -3.5t-64 -1q-71 0 -121.5 17t-80 62t-29.5 126v349q0 80 29.5 125.5t80 62.5t121.5 17q106 0 190 -14q12 -2 16 -6t4 -15v-64q0 -8 -6 -14t-14 -6h-204q-44 0 -61.5 -18.5t-17.5 -67.5v-108h271q8 0 14 -6t6 -14v-72
q0 -8 -6.5 -14t-13.5 -6h-271v-129q0 -49 17.5 -67.5t61.5 -18.5h204q9 0 14.5 -5.5t5.5 -14.5v-64zM437 824q0 -9 -6.5 -14.5t-14.5 -5.5h-72q-8 0 -14.5 5.5t-6.5 14.5v88q0 8 6.5 14t14.5 6h72q8 0 14.5 -6t6.5 -14v-88zM237 824q0 -9 -6.5 -14.5t-14.5 -5.5h-72
q-8 0 -14.5 5.5t-6.5 14.5v88q0 8 6.5 14t14.5 6h72q8 0 14.5 -6t6.5 -14v-88z" />
    <glyph glyph-name="Egrave" unicode="&#xc8;" horiz-adv-x="556" 
d="M505 27q0 -19 -20 -21q-10 -1 -26 -4t-48 -5.5t-52 -3.5t-64 -1q-71 0 -121.5 17t-80 62t-29.5 126v349q0 80 29.5 125.5t80 62.5t121.5 17q106 0 190 -14q12 -2 16 -6t4 -15v-64q0 -8 -6 -14t-14 -6h-204q-44 0 -61.5 -18.5t-17.5 -67.5v-108h271q8 0 14 -6t6 -14v-72
q0 -8 -6.5 -14t-13.5 -6h-271v-129q0 -49 17.5 -67.5t61.5 -18.5h204q9 0 14.5 -5.5t5.5 -14.5v-64zM392 801q0 -7 -9 -7h-86q-6 0 -9.5 1.5t-7 5l-6.5 6.5l-119 124q-4 4 -4 8q0 7 11 7h106q9 0 13.5 -3t12.5 -12l94 -120q4 -4 4 -10z" />
    <glyph glyph-name="Iacute" unicode="&#xcd;" horiz-adv-x="267" 
d="M203 20q0 -8 -6.5 -14t-13.5 -6h-99q-7 0 -13.5 6t-6.5 14v704q0 8 6 13.5t14 5.5h99q8 0 14 -5.5t6 -13.5v-704zM294 939q0 -4 -4 -8l-118 -124q-6 -7 -10.5 -10t-13.5 -3h-86q-9 0 -9 7q0 6 4 10l95 120q8 9 12.5 12t13.5 3h105q11 0 11 -7z" />
    <glyph glyph-name="Icircumflex" unicode="&#xce;" horiz-adv-x="267" 
d="M203 20q0 -8 -6.5 -14t-13.5 -6h-99q-7 0 -13.5 6t-6.5 14v704q0 8 6 13.5t14 5.5h99q8 0 14 -5.5t6 -13.5v-704zM323 801q0 -7 -9 -7h-83q-6 0 -9.5 1.5t-7 5l-6.5 6.5l-71 81l-71 -81q-8 -8 -11.5 -10.5t-12.5 -2.5h-83q-9 0 -9 7q0 6 4 10l92 120q9 10 13 12.5t13 2.5
h130q9 0 13.5 -3t12.5 -12l91 -120q4 -4 4 -10z" />
    <glyph glyph-name="Idieresis" unicode="&#xcf;" horiz-adv-x="267" 
d="M203 20q0 -8 -6.5 -14t-13.5 -6h-99q-7 0 -13.5 6t-6.5 14v704q0 8 6 13.5t14 5.5h99q8 0 14 -5.5t6 -13.5v-704zM292 824q0 -9 -6.5 -14.5t-14.5 -5.5h-72q-8 0 -14.5 5.5t-6.5 14.5v88q0 8 6.5 14t14.5 6h72q8 0 14.5 -6t6.5 -14v-88zM92 824q0 -9 -6.5 -14.5
t-14.5 -5.5h-72q-8 0 -14.5 5.5t-6.5 14.5v88q0 8 6.5 14t14.5 6h72q8 0 14.5 -6t6.5 -14v-88z" />
    <glyph glyph-name="Igrave" unicode="&#xcc;" horiz-adv-x="267" 
d="M203 20q0 -8 -6.5 -14t-13.5 -6h-99q-7 0 -13.5 6t-6.5 14v704q0 8 6 13.5t14 5.5h99q8 0 14 -5.5t6 -13.5v-704zM222 801q0 -7 -9 -7h-86q-6 0 -9.5 1.5t-7 5l-6.5 6.5l-119 124q-4 4 -4 8q0 7 11 7h106q9 0 13.5 -3t12.5 -12l94 -120q4 -4 4 -10z" />
    <glyph glyph-name="Oacute" unicode="&#xd3;" horiz-adv-x="664" 
d="M617 304q0 -106 -36 -176t-100.5 -103t-148.5 -33t-148.5 33t-100.5 103t-36 176v135q0 106 36 176.5t100.5 103t148.5 32.5t148.5 -32.5t100.5 -103t36 -176.5v-135zM477 304v135q0 99 -35.5 145t-109.5 46t-109.5 -46t-35.5 -145v-135q0 -98 35.5 -144.5t109.5 -46.5
t109.5 46.5t35.5 144.5zM480 939q0 -4 -4 -8l-118 -124q-6 -7 -10.5 -10t-13.5 -3h-86q-9 0 -9 7q0 6 4 10l95 120q8 9 12.5 12t13.5 3h105q11 0 11 -7z" />
    <glyph glyph-name="Ocircumflex" unicode="&#xd4;" horiz-adv-x="664" 
d="M617 304q0 -106 -36 -176t-100.5 -103t-148.5 -33t-148.5 33t-100.5 103t-36 176v135q0 106 36 176.5t100.5 103t148.5 32.5t148.5 -32.5t100.5 -103t36 -176.5v-135zM477 304v135q0 99 -35.5 145t-109.5 46t-109.5 -46t-35.5 -145v-135q0 -98 35.5 -144.5t109.5 -46.5
t109.5 46.5t35.5 144.5zM516 802q0 -7 -9 -7h-83q-6 0 -9.5 1.5t-7 5l-6.5 6.5l-71 81l-71 -81q-8 -8 -11.5 -10.5t-12.5 -2.5h-83q-9 0 -9 7q0 6 4 10l92 120q9 10 13 12.5t13 2.5h130q9 0 13.5 -3t12.5 -12l91 -120q4 -4 4 -10z" />
    <glyph glyph-name="apple" unicode="&#xf8ff;" horiz-adv-x="790" 
d="M408 588q22 0 71.5 17t86.5 17q60 0 107 -32q26 -19 52 -50q-39 -34 -57 -60q-33 -46 -33 -103q0 -62 35 -112t79 -63q-19 -60 -62 -125q-64 -98 -128 -98q-26 0 -70.5 16t-75.5 16t-71.5 -17t-66.5 -17q-76 0 -150 130q-74 128 -74 252q0 115 56.5 187t142.5 72
q37 0 89 -15t69 -15zM561 790q0 -32 -15 -69t-46 -69q-28 -27 -55 -36q-17 -5 -51 -8q1 74 38.5 128.5t125.5 74.5q2 -7 2.5 -12t0.5 -9z" />
    <glyph glyph-name="Ograve" unicode="&#xd2;" horiz-adv-x="664" 
d="M617 304q0 -106 -36 -176t-100.5 -103t-148.5 -33t-148.5 33t-100.5 103t-36 176v135q0 106 36 176.5t100.5 103t148.5 32.5t148.5 -32.5t100.5 -103t36 -176.5v-135zM477 304v135q0 99 -35.5 145t-109.5 46t-109.5 -46t-35.5 -145v-135q0 -98 35.5 -144.5t109.5 -46.5
t109.5 46.5t35.5 144.5zM418 801q0 -7 -9 -7h-86q-6 0 -9.5 1.5t-7 5l-6.5 6.5l-119 124q-4 4 -4 8q0 7 11 7h106q9 0 13.5 -3t12.5 -12l94 -120q4 -4 4 -10z" />
    <glyph glyph-name="Uacute" unicode="&#xda;" horiz-adv-x="670" 
d="M610 275q0 -79 -19.5 -133t-55.5 -87t-87 -48t-113 -15q-63 0 -113 15t-86 47.5t-56 88t-20 132.5v449q0 8 5.5 13.5t14.5 5.5h99q8 0 14 -5.5t6 -13.5v-449q0 -60 12 -96t41.5 -54t82.5 -18t83 18t41.5 54t11.5 96v449q0 8 5.5 13.5t14.5 5.5h99q9 0 14.5 -5t5.5 -14
v-449zM502 939q0 -4 -4 -8l-118 -124q-6 -7 -10.5 -10t-13.5 -3h-86q-9 0 -9 7q0 6 4 10l95 120q8 9 12.5 12t13.5 3h105q11 0 11 -7z" />
    <glyph glyph-name="Ucircumflex" unicode="&#xdb;" horiz-adv-x="670" 
d="M610 275q0 -79 -19.5 -133t-55.5 -87t-87 -48t-113 -15q-63 0 -113 15t-86 47.5t-56 88t-20 132.5v449q0 8 5.5 13.5t14.5 5.5h99q8 0 14 -5.5t6 -13.5v-449q0 -60 12 -96t41.5 -54t82.5 -18t83 18t41.5 54t11.5 96v449q0 8 5.5 13.5t14.5 5.5h99q9 0 14.5 -5t5.5 -14
v-449zM521 801q0 -7 -9 -7h-83q-6 0 -9.5 1.5t-7 5l-6.5 6.5l-71 81l-71 -81q-8 -8 -11.5 -10.5t-12.5 -2.5h-83q-9 0 -9 7q0 6 4 10l92 120q9 10 13 12.5t13 2.5h130q9 0 13.5 -3t12.5 -12l91 -120q4 -4 4 -10z" />
    <glyph glyph-name="Ugrave" unicode="&#xd9;" horiz-adv-x="670" 
d="M610 275q0 -79 -19.5 -133t-55.5 -87t-87 -48t-113 -15q-63 0 -113 15t-86 47.5t-56 88t-20 132.5v449q0 8 5.5 13.5t14.5 5.5h99q8 0 14 -5.5t6 -13.5v-449q0 -60 12 -96t41.5 -54t82.5 -18t83 18t41.5 54t11.5 96v449q0 8 5.5 13.5t14.5 5.5h99q9 0 14.5 -5t5.5 -14
v-449zM414 801q0 -7 -9 -7h-86q-6 0 -9.5 1.5t-7 5l-6.5 6.5l-119 124q-4 4 -4 8q0 7 11 7h106q9 0 13.5 -3t12.5 -12l94 -120q4 -4 4 -10z" />
    <glyph glyph-name="dotlessi" unicode="&#x131;" horiz-adv-x="250" 
d="M191 21q0 -9 -5.5 -15t-14.5 -6h-92q-9 0 -14.5 6.5t-5.5 14.5v523q0 8 5.5 14t14.5 6h92q9 0 14.5 -5.5t5.5 -14.5v-523z" />
    <glyph glyph-name="circumflex" unicode="&#x2c6;" horiz-adv-x="409" 
d="M391 634q0 -7 -9 -7h-83q-6 0 -9.5 1.5t-7 5l-6.5 6.5l-71 81l-71 -81q-8 -8 -11.5 -10.5t-12.5 -2.5h-83q-9 0 -9 7q0 6 4 10l92 120q9 10 13 12.5t13 2.5h130q9 0 13.5 -3t12.5 -12l91 -120q4 -4 4 -10z" />
    <glyph glyph-name="tilde" unicode="&#x2dc;" horiz-adv-x="480" 
d="M426 739q0 -112 -111 -112q-17 0 -35.5 6t-34.5 17l-44 33q-28 21 -42 21q-28 0 -28 -34v-21q0 -16 -14 -16h-57q-14 0 -14 16v21q0 112 112 112q39 0 69 -22l44 -33q26 -20 42 -20q28 0 28 33v21q0 16 14 16h57q14 0 14 -16v-22z" />
    <glyph glyph-name="macron" unicode="&#xaf;" horiz-adv-x="407" 
d="M379 680q0 -9 -6 -13.5t-14 -4.5h-310q-8 0 -14 5t-6 13v57q0 8 5.5 13t14.5 5h310q9 0 14.5 -4.5t5.5 -13.5v-57z" />
    <glyph glyph-name="breve" unicode="&#x2d8;" horiz-adv-x="407" 
d="M382 772q0 -1 -0.5 -1.5t-0.5 -2.5q-14 -63 -58 -104t-119 -41t-118.5 40.5t-58.5 104.5q0 2 -0.5 2.5t-0.5 1.5q0 7 10 7h75q10 0 13 -12q18 -66 80 -66q63 0 80 66q3 12 13 12h75q10 0 10 -7z" />
    <glyph glyph-name="dotaccent" unicode="&#x2d9;" horiz-adv-x="373" 
d="M252 655q0 -9 -6 -14.5t-14 -5.5h-90q-8 0 -14 6t-6 14v95q0 8 5.5 13.5t14.5 5.5h90q9 0 14.5 -5t5.5 -14v-95z" />
    <glyph glyph-name="ring" unicode="&#x2da;" horiz-adv-x="387" 
d="M304 708q0 -30 -15 -55.5t-40.5 -40t-54.5 -14.5t-55 14.5t-41 40t-15 55.5q0 45 32 78t79 33q30 0 55 -14.5t40 -40.5t15 -56zM242 709q0 20 -14.5 33.5t-33.5 13.5t-32.5 -13.5t-13.5 -33.5t13 -34t33 -14q13 0 24 6.5t17.5 17.5t6.5 24z" />
    <glyph glyph-name="cedilla" unicode="&#xb8;" horiz-adv-x="379" 
d="M288 -41q0 -4 -4 -8l-119 -123q-8 -9 -11.5 -11.5t-11.5 -2.5h-86q-9 0 -9 7q0 6 4 10l94 120q7 9 12 12t14 3h106q11 0 11 -7z" />
    <glyph glyph-name="hungarumlaut" unicode="&#x2dd;" horiz-adv-x="421" 
d="M457 772q0 -4 -4 -8l-118 -124q-7 -8 -11 -10.5t-13 -2.5h-86q-9 0 -9 7q0 6 4 10l95 120q13 15 26 15h105q11 0 11 -7zM247 772q0 -4 -4 -8l-118 -124q-7 -8 -11.5 -10.5t-12.5 -2.5h-86q-9 0 -9 7q0 6 4 10l95 120q7 9 12 12t14 3h105q11 0 11 -7z" />
    <glyph glyph-name="ogonek" unicode="&#x2db;" horiz-adv-x="381" 
d="M317 -173q0 -9 -11 -11q-46 -12 -85 -12q-72 0 -113.5 34.5t-41.5 98.5q0 19 5 46.5t9 44.5q1 3 2 5.5t3.5 3t7.5 0.5h80q9 0 9 -7v-3t-1 -2q-7 -43 -7 -63q0 -71 71 -71q25 0 56 7q3 1 8 1q8 0 8 -8v-64z" />
    <glyph glyph-name="caron" unicode="&#x2c7;" horiz-adv-x="411" 
d="M395 772q0 -6 -4 -10l-94 -120q-8 -10 -12.5 -12.5t-13.5 -2.5h-130q-9 0 -13.5 3t-12.5 12l-95 120q-4 4 -4 10q0 7 9 7h86q9 0 12.5 -3t11.5 -11l71 -79l71 79q10 10 12.5 12t10.5 2h86q9 0 9 -7z" />
    <glyph glyph-name="Lslash" unicode="&#x141;" horiz-adv-x="512" 
d="M74 197v82l-51 -64q-4 -6 -10 -6q-7 0 -7 7v102q0 11 7 20l61 77v309q0 8 5.5 13.5t13.5 5.5h100q8 0 14 -6t6 -14v-176l61 73q5 7 11 7t6 -8v-101q0 -13 -8 -22l-70 -85v-214q0 -49 17.5 -67.5t60.5 -18.5h184q8 0 14 -6t6 -14v-64q0 -10 -4.5 -14.5t-15.5 -6.5
q-23 -6 -78.5 -10t-91.5 -4q-72 0 -122 17t-79.5 62t-29.5 126z" />
    <glyph glyph-name="lslash" unicode="&#x142;" horiz-adv-x="274" 
d="M280 491q0 -10 -7 -18l-69 -85v-367q0 -8 -5.5 -14.5t-13.5 -6.5h-95q-8 0 -14 6.5t-6 14.5v240l-61 -70q-6 -6 -10 -6q-5 0 -5 6v115q0 9 6 16l70 85v334q0 8 6.5 14t13.5 6h95q8 0 13.5 -6t5.5 -14v-207l61 72q5 5 8 5t5 -3t2 -7v-110z" />
    <glyph glyph-name="Scaron" unicode="&#x160;" horiz-adv-x="557" 
d="M254 111q64 0 91 22t27 68q0 29 -17 49t-66 49l-132 79q-45 27 -71 55.5t-36.5 60t-10.5 67.5q0 88 58 139t185 51q50 0 98 -12t74 -27q11 -6 16.5 -12t5.5 -15v-68q0 -24 -25 -15q-27 10 -77.5 20t-90.5 10q-105 0 -105 -70q0 -24 16.5 -41t65.5 -46l120 -71
q53 -31 82.5 -62.5t41 -64.5t11.5 -76q0 -55 -25 -102t-82.5 -77t-149.5 -30q-62 0 -113 14.5t-71 25.5q-14 9 -18 13.5t-4 13.5v68q0 23 25 15q97 -31 177 -31zM461 940q0 -6 -4 -10l-94 -120q-8 -10 -12.5 -12.5t-13.5 -2.5h-130q-9 0 -13.5 3t-12.5 12l-95 120
q-4 4 -4 10q0 7 9 7h86q9 0 12.5 -3t11.5 -11l71 -79l71 79q10 10 12.5 12t10.5 2h86q9 0 9 -7z" />
    <glyph glyph-name="scaron" unicode="&#x161;" horiz-adv-x="477" 
d="M228 100q46 0 61 12t15 32q0 17 -9.5 28.5t-34.5 26.5l-137 84q-39 24 -61.5 59.5t-22.5 78.5q0 150 190 150q99 0 175 -33q11 -4 16 -10t5 -16v-61q0 -22 -21 -16q-88 28 -161 28q-38 0 -55 -8.5t-17 -28.5q0 -11 4.5 -18.5t12.5 -13t23 -14.5l131 -80q57 -35 76.5 -70
t19.5 -75q0 -48 -22 -85t-66.5 -57.5t-107.5 -20.5q-99 0 -176 33q-13 6 -17 11.5t-4 14.5v61q0 22 21 16q88 -28 162 -28zM427 772q0 -6 -4 -10l-94 -120q-8 -10 -12.5 -12.5t-13.5 -2.5h-130q-9 0 -13.5 3t-12.5 12l-95 120q-4 4 -4 10q0 7 9 7h86q9 0 12.5 -3t11.5 -11
l71 -79l71 79q10 10 12.5 12t10.5 2h86q9 0 9 -7z" />
    <glyph glyph-name="Zcaron" unicode="&#x17d;" horiz-adv-x="611" 
d="M542 20q0 -9 -6 -14.5t-14 -5.5h-437q-51 0 -51 37v55q0 19 13 38l317 475q3 4 3 9q0 8 -10 8h-278q-19 0 -19 18v84q0 8 5.5 13.5t13.5 5.5h403q23 0 38 -9.5t15 -28.5v-58q0 -19 -14 -41l-312 -467q-4 -6 -4 -11q0 -6 9 -6h308q9 0 14.5 -4.5t5.5 -13.5v-84zM563 945
q0 -6 -4 -10l-94 -120q-8 -10 -12.5 -12.5t-13.5 -2.5h-130q-9 0 -13.5 3t-12.5 12l-95 120q-4 4 -4 10q0 7 9 7h86q9 0 12.5 -3t11.5 -11l71 -79l71 79q10 10 12.5 12t10.5 2h86q9 0 9 -7z" />
    <glyph glyph-name="zcaron" unicode="&#x17e;" horiz-adv-x="478" 
d="M444 20q0 -9 -6 -14.5t-14 -5.5h-350q-16 0 -28 11.5t-12 28.5v43q0 15 13 32l242 333q3 5 3 6q0 3 -6 3h-226q-8 0 -13 4t-5 12v71q0 8 5.5 14t14.5 6h340q16 0 28 -12t12 -29v-57q0 -5 -1.5 -12.5t-3.5 -10.5l-233 -319l-2 -3q0 -4 6 -4h218q8 0 13 -4.5t5 -11.5v-81z
M443 772q0 -6 -4 -10l-94 -120q-8 -10 -12.5 -12.5t-13.5 -2.5h-130q-9 0 -13.5 3t-12.5 12l-95 120q-4 4 -4 10q0 7 9 7h86q9 0 12.5 -3t11.5 -11l71 -79l71 79q10 10 12.5 12t10.5 2h86q9 0 9 -7z" />
    <glyph glyph-name="brokenbar" unicode="&#xa6;" horiz-adv-x="254" 
d="M194 363q0 -9 -5.5 -15t-13.5 -6h-95q-9 0 -14.5 6.5t-5.5 14.5v345q0 8 5.5 14t14.5 6h95q9 0 14 -5.5t5 -14.5v-345zM194 -190q0 -8 -5.5 -14.5t-13.5 -6.5h-95q-9 0 -14.5 6.5t-5.5 14.5v345q0 8 5.5 14t14.5 6h95q9 0 14 -5.5t5 -14.5v-345z" />
    <glyph glyph-name="Eth" unicode="&#xd0;" horiz-adv-x="659" 
d="M612 298q0 -75 -21 -131.5t-60.5 -95.5t-98.5 -59t-134 -20q-41 0 -107 4t-90 8q-26 4 -26 31v291h-58q-8 0 -13.5 5.5t-5.5 13.5v75q0 18 19 18h58v270q0 26 26 31q22 4 82 8t115 4q75 0 134 -20t98.5 -59t60.5 -95t21 -132v-147zM474 298v147q0 72 -22 113.5t-61 58.5
t-93 17q-23 0 -30.5 -0.5t-23.5 -1t-30 -1.5v-193h71q9 0 14 -4.5t5 -13.5v-75q0 -8 -5.5 -13.5t-13.5 -5.5h-71v-214q63 -3 84 -3q83 0 129.5 42t46.5 147z" />
    <glyph glyph-name="eth" unicode="&#xf0;" horiz-adv-x="560" 
d="M519 253q0 -64 -15.5 -113t-45.5 -81.5t-75.5 -49.5t-101.5 -17q-122 0 -181 68.5t-59 192.5v40q0 127 61.5 193.5t177.5 66.5q47 0 73 -14q-32 49 -125 97l-76 -58q-8 -6 -13 -6t-11 6l-29 32q-3 3 -3 8q0 9 10 16l45 34q-31 11 -51 15q-16 4 -16 15q0 3 1 5l21 58
q3 11 14 11q5 0 8 -1q63 -16 112 -35l85 65q5 4 13 4q9 0 12 -5l29 -31q4 -4 4 -8q0 -6 -10 -14l-59 -45q73 -40 118.5 -96t66 -132.5t20.5 -180.5v-40zM386 253v40q0 77 -25 113t-81 36q-37 0 -60.5 -16t-34.5 -49t-11 -84v-40q0 -76 25.5 -112.5t81.5 -36.5q55 0 80 35.5
t25 113.5z" />
    <glyph glyph-name="Yacute" unicode="&#xdd;" horiz-adv-x="609" 
d="M587 728q0 -2 -2 -8l-152 -347q-25 -58 -61 -73v-280q0 -9 -5.5 -14.5t-13.5 -5.5h-100q-8 0 -13.5 5.5t-5.5 14.5v280q-36 15 -61 73l-151 347q-2 6 -2 8q0 7 4 11t12 4h111q13 0 19 -16l120 -298q8 -20 17 -20q10 0 18 20l120 298q6 16 19 16h110q7 0 12 -4t5 -11z
M478 939q0 -4 -4 -8l-118 -124q-6 -7 -10.5 -10t-13.5 -3h-86q-9 0 -9 7q0 6 4 10l95 120q8 9 12.5 12t13.5 3h105q11 0 11 -7z" />
    <glyph glyph-name="yacute" unicode="&#xfd;" horiz-adv-x="554" 
d="M532 547q0 -4 -1 -6l-167 -584q-17 -59 -38.5 -92t-60 -49t-105.5 -16q-25 0 -56 4t-50 9q-21 5 -21 17v64q0 7 6 12.5t14 5.5h2q13 0 56 -3t57 -3q22 0 37 5.5t25 19t17 39.5l8 30h-15q-17 0 -32.5 5.5t-30 23.5t-24.5 54l-131 458q-1 3 -1 7q0 16 19 16h101
q7 0 12.5 -5.5t6.5 -12.5l101 -407q5 -22 14 -22h1h5h3l108 430q4 17 20 17h102q7 0 12.5 -5t5.5 -12zM468 772q0 -4 -4 -8l-118 -124q-6 -7 -10.5 -10t-13.5 -3h-86q-9 0 -9 7q0 6 4 10l95 120q8 9 12.5 12t13.5 3h105q11 0 11 -7z" />
    <glyph glyph-name="Thorn" unicode="&#xde;" horiz-adv-x="610" 
d="M580 419q0 -67 -22.5 -112.5t-63 -73t-92 -40t-114.5 -12.5q-16 0 -37.5 1t-48.5 2v-164q0 -8 -5.5 -14t-12.5 -6h-101q-8 0 -13.5 5.5t-5.5 14.5v704q0 8 5.5 13.5t13.5 5.5h101q8 0 13 -5.5t5 -13.5v-63q34 2 83 2q63 0 115 -11.5t93 -38.5t64 -71.5t23 -110.5v-12z
M441 419v12q0 31 -9.5 53.5t-29 35.5t-48 19t-66.5 6q-57 0 -86 -2v-242q29 -2 86 -2q52 0 86 12.5t50.5 39t16.5 68.5z" />
    <glyph glyph-name="thorn" unicode="&#xfe;" horiz-adv-x="562" 
d="M523 245q0 -58 -14.5 -105t-44 -80t-74 -50.5t-102.5 -17.5q-64 0 -100 8v-178q0 -9 -5 -14.5t-13 -5.5h-94q-8 0 -14 6t-6 14v919q0 8 5.5 14t13.5 6h95q8 0 13 -5.5t5 -14.5v-177q29 4 50.5 5.5t49.5 1.5q113 0 174 -66.5t61 -187.5v-72zM391 245v72q0 56 -13.5 88
t-40 45t-64.5 13q-23 0 -85 -8v-347q48 -8 88 -8q58 0 86.5 31.5t28.5 113.5z" />
    <glyph glyph-name="minus" unicode="&#x2212;" horiz-adv-x="606" 
d="M536 352q0 -16 -20 -16h-425q-20 0 -20 16v78q0 16 20 16h425q20 0 20 -16v-78z" />
    <glyph glyph-name="multiply" unicode="&#xd7;" horiz-adv-x="598" 
d="M501 538q5 -5 5 -10q0 -6 -7 -15l-122 -122l121 -121q7 -7 7 -15q0 -6 -4 -10l-56 -56q-4 -4 -10 -4q-8 0 -15 7l-121 121l-121 -121q-7 -7 -15 -7q-6 0 -10 4l-56 56q-4 5 -4 10q0 8 7 15l121 121l-122 122q-7 9 -7 15q0 5 5 10l55 55q4 5 11 5q5 0 14 -7l122 -122
l122 122q8 7 15 7q5 0 10 -5z" />
    <glyph glyph-name="onesuperior" unicode="&#xb9;" horiz-adv-x="280" 
d="M205 345q0 -14 -13 -14h-68q-13 0 -13 14v304l-64 -27q-2 -1 -6 -1q-8 0 -8 9v60q0 9 10 13l82 36q9 4 22 4h44q14 0 14 -13v-385z" />
    <glyph glyph-name="twosuperior" unicode="&#xb2;" horiz-adv-x="335" 
d="M302 643q0 -33 -15.5 -58.5t-51.5 -49.5l-49 -32q-40 -27 -53 -44.5t-14 -40.5h162q17 0 17 -15v-52q0 -15 -17 -15h-234q-6 0 -11.5 4.5t-5.5 11.5v45q0 54 22 90t71 70l55 37q17 11 24 21.5t7 24.5q0 18 -12 25t-42 7q-46 0 -104 -19q-9 -2 -12 2.5t-3 12.5v34
q0 10 3.5 14t11.5 8q23 12 55 19.5t63 7.5q66 0 99.5 -26t33.5 -82z" />
    <glyph glyph-name="threesuperior" unicode="&#xb3;" horiz-adv-x="334" 
d="M147 412q64 0 64 41v10q0 19 -10 33t-35 14h-97q-6 0 -11 5t-5 10v43q0 6 4.5 11t11.5 5h93q49 0 49 43v5q0 38 -65 38q-44 0 -96 -17q-9 -2 -12 2.5t-3 12.5v34q0 10 3.5 14t11.5 8q54 27 113 27q42 0 74 -11t49 -35t17 -63v-6q0 -31 -10 -52t-34 -37q43 -28 43 -84v-10
q0 -57 -39 -89.5t-104 -32.5q-55 0 -109 27q-8 4 -11.5 7.5t-3.5 14.5v34q0 8 3 12.5t12 2.5q52 -17 97 -17z" />
    <glyph glyph-name="onehalf" unicode="&#xbd;" horiz-adv-x="785" 
d="M751 307q0 -64 -67 -108l-49 -32q-41 -26 -53.5 -44t-13.5 -41h162q7 0 12 -4t5 -11v-52q0 -7 -5 -11t-12 -4h-234q-6 0 -11.5 4.5t-5.5 11.5v45q0 54 22.5 91t70.5 69l55 37q19 13 25 22.5t6 23.5q0 18 -12 25t-42 7q-24 0 -53.5 -6t-50.5 -13q-9 -2 -12 2.5t-3 12.5v34
q0 10 3.5 14t11.5 8q24 12 55 19.5t63 7.5q66 0 99.5 -26t33.5 -82zM626 735q0 -6 -4 -12l-419 -709q-6 -11 -10 -14t-11 -3h-82q-10 0 -10 9q0 7 4 12l419 708q7 10 10.5 13.5t11.5 3.5h81q10 0 10 -8zM205 345q0 -14 -13 -14h-68q-13 0 -13 14v304l-64 -27q-2 -1 -6 -1
q-8 0 -8 9v60q0 9 10 13l82 36q9 4 22 4h44q14 0 14 -13v-385z" />
    <glyph glyph-name="onequarter" unicode="&#xbc;" horiz-adv-x="757" 
d="M723 109q0 -7 -5 -11.5t-12 -4.5h-30v-76q0 -7 -4 -12t-11 -5h-63q-15 0 -15 17v76h-150q-14 0 -14 12v51q0 13 7 23l166 228q7 6 14 6h46q24 0 24 -24v-220h30q7 0 12 -4t5 -11v-45zM586 169v123l-83 -114q-3 -3 -3 -6t4 -3h82zM626 735q0 -6 -4 -12l-419 -709
q-6 -11 -10 -14t-11 -3h-82q-10 0 -10 9q0 7 4 12l419 708q7 10 10.5 13.5t11.5 3.5h81q10 0 10 -8zM205 345q0 -14 -13 -14h-68q-13 0 -13 14v304l-64 -27q-2 -1 -6 -1q-8 0 -8 9v60q0 9 10 13l82 36q9 4 22 4h44q14 0 14 -13v-385z" />
    <glyph glyph-name="threequarters" unicode="&#xbe;" horiz-adv-x="841" 
d="M147 412q64 0 64 41v10q0 19 -10 33t-35 14h-97q-6 0 -11 5t-5 10v43q0 6 4.5 11t11.5 5h93q49 0 49 43v5q0 38 -65 38q-44 0 -96 -17q-9 -2 -12 2.5t-3 12.5v34q0 10 3.5 14t11.5 8q54 27 113 27q42 0 74 -11t49 -35t17 -63v-6q0 -31 -10 -52t-34 -37q43 -28 43 -84v-10
q0 -57 -39 -89.5t-104 -32.5q-55 0 -109 27q-8 4 -11.5 7.5t-3.5 14.5v34q0 8 3 12.5t12 2.5q52 -17 97 -17zM688 735q0 -6 -4 -12l-419 -709q-6 -11 -10 -14t-11 -3h-82q-10 0 -10 9q0 7 4 12l419 708q7 10 10.5 13.5t11.5 3.5h81q10 0 10 -8zM790 109q0 -6 -5.5 -11
t-11.5 -5h-30v-76q0 -7 -4 -12t-11 -5h-63q-15 0 -15 17v76h-150q-14 0 -14 12v51q0 13 7 23l166 228q6 6 14 6h46q24 0 24 -24v-220h30q17 0 17 -15v-45zM653 169v123l-83 -114q-3 -3 -3 -6t4 -3h82z" />
    <glyph glyph-name="franc" unicode="&#x20a3;" horiz-adv-x="556" 
d="M546 574h-327v-139h281v-123h-281v-105h151v-109h-151v-98h-137v98h-82v109h82v492h464v-125z" />
    <glyph glyph-name="Gbreve" unicode="&#x11e;" horiz-adv-x="616" 
d="M187 445v-146q0 -98 38 -143t90 -45t99 3v255q0 8 5.5 14t13.5 6h99q8 0 14 -6t6 -14v-336q0 -19 -19 -24q-25 -5 -56 -9t-77.5 -6t-84.5 -2q-44 0 -89.5 15.5t-87 52t-66.5 96.5t-25 143v144q0 91 25.5 152.5t68.5 95.5t90.5 47t101.5 13q44 0 83 -9.5t69 -21.5t45 -22
q22 -12 22 -27v-67q0 -24 -25 -15q-37 15 -85.5 29t-98.5 14q-81 0 -118.5 -42.5t-37.5 -144.5z" />
    <glyph glyph-name="gbreve" unicode="&#x11f;" horiz-adv-x="562" 
d="M279 -94q40 0 60.5 7.5t27.5 26t7 55.5v8q-11 -2 -47.5 -6.5t-48.5 -4.5q-80 0 -133 30t-79.5 86.5t-26.5 134.5v77q0 78 26.5 134.5t79.5 86.5t133 30q27 0 52.5 -2t45.5 -4.5t54 -9t49 -10.5q16 -4 21.5 -9.5t5.5 -17.5v-516q0 -70 -24.5 -115t-75.5 -66t-127 -21
q-51 0 -101 12.5t-83 27.5q-6 3 -11.5 7t-7.5 8t-2 11v51q0 22 21 16q40 -10 91 -18.5t93 -8.5zM374 108v346q-19 4 -43 6.5t-53 2.5q-61 0 -84 -37.5t-23 -105.5v-77q0 -31 5 -57t17 -45.5t33 -30t52 -10.5q17 0 46 2.5t50 5.5z" />
    <glyph glyph-name="Idotaccent" horiz-adv-x="278" 
d="M203 20q0 -8 -6.5 -14t-13.5 -6h-99q-7 0 -13.5 6t-6.5 14v704q0 8 6 13.5t14 5.5h99q8 0 14 -5.5t6 -13.5v-704zM252 842q0 -9 -6 -14.5t-14 -5.5h-90q-8 0 -14 6t-6 14v95q0 8 5.5 13.5t14.5 5.5h90q9 0 14.5 -5t5.5 -14v-95z" />
    <glyph glyph-name="Scedilla" unicode="&#x15e;" horiz-adv-x="557" 
d="M254 111q33 0 56 6t36.5 17.5t19.5 28t6 38.5q0 15 -3.5 26.5t-13 22.5t-25.5 22.5t-41 26.5l-132 79q-35 20 -57.5 41.5t-36 44.5t-19 47t-5.5 50q0 41 12.5 76t41.5 60.5t75.5 39.5t113.5 14q28 0 54 -4t48.5 -10t40.5 -12.5t29 -12.5q10 -6 16 -11.5t6 -15.5v-68
q0 -11 -6.5 -15t-18.5 0t-32.5 9.5t-43.5 10t-47.5 7.5t-44.5 3q-55 0 -80 -18t-25 -52q0 -13 4 -22.5t13 -19t25 -20.5t40 -25l120 -71q40 -24 66.5 -47.5t41.5 -48.5t21 -51.5t6 -55.5q0 -25 -5.5 -50.5t-18 -48.5t-32.5 -43t-48.5 -35t-66.5 -23.5t-86 -8.5q-35 0 -66 5
t-55.5 12t-41 13.5t-21.5 9.5q-12 8 -17 12.5t-5 14.5v68q0 23 25 15q17 -5 37 -11t42.5 -10t47 -7t50.5 -3zM350 -59q0 -4 -4 -8l-119 -123q-6 -7 -10 -10.5t-13 -3.5h-86q-9 0 -9 7q0 3 0.5 5.5t3.5 4.5l94 120q7 8 11.5 11.5t14.5 3.5h106q5 0 8 -2t3 -5z" />
    <glyph glyph-name="scedilla" unicode="&#x15f;" horiz-adv-x="477" 
d="M228 100q25 0 40 3.5t23 10t10.5 14t2.5 16.5t-2.5 16t-7.5 13t-13.5 12.5t-20.5 13.5l-137 84q-19 11 -34 26t-26 32.5t-17.5 37.5t-6.5 42q0 150 190 150q58 0 102 -10.5t73 -22.5q12 -5 16.5 -10.5t4.5 -15.5v-61q0 -22 -21 -16q-13 4 -31.5 9t-39.5 9t-44 7t-46 3
q-36 0 -54 -8t-18 -29q0 -9 2.5 -15t8 -11t13 -9.5t16.5 -10.5l131 -80q31 -19 50 -38t29.5 -37t13.5 -36t3 -34q0 -35 -12 -65t-36.5 -51.5t-61.5 -34t-86 -12.5q-57 0 -102 10.5t-74 22.5q-12 5 -16.5 10.5t-4.5 15.5v61q0 22 21 16q13 -4 31.5 -9t40 -9t45 -7t45.5 -3z
M326 -41q0 -4 -4 -8l-119 -123q-6 -7 -10 -10.5t-13 -3.5h-86q-9 0 -9 7q0 6 4 10l94 120q6 8 11 11.5t15 3.5h106q11 0 11 -7z" />
    <glyph glyph-name="Cacute" unicode="&#x106;" horiz-adv-x="549" 
d="M323 -8q-49 0 -96.5 14.5t-88.5 48.5t-66 94t-25 149v147q0 119 40.5 187t101.5 93.5t134 25.5q38 0 73 -7.5t60 -17.5t32 -14q22 -12 22 -27v-68q0 -24 -25 -15q-17 6 -45 13.5t-55.5 12t-52.5 4.5q-50 0 -81.5 -17.5t-47.5 -58.5t-16 -111v-147q0 -68 16 -109.5
t48 -59.5t81 -18q39 0 80.5 9t72.5 21q25 9 25 -15v-68q0 -15 -22 -27q-21 -12 -67 -25.5t-98 -13.5zM478 940q0 -4 -4 -8l-118 -124q-6 -7 -10.5 -10t-13.5 -3h-86q-9 0 -9 7q0 6 4 10l95 120q8 9 12.5 12t13.5 3h105q11 0 11 -7z" />
    <glyph glyph-name="cacute" unicode="&#x107;" horiz-adv-x="456" 
d="M267 104q56 0 129 23q21 6 21 -16v-64q0 -9 -5 -15t-16 -11q-52 -29 -129 -29q-67 0 -118 25t-80.5 79.5t-29.5 138.5v93q0 82 29 136.5t80.5 80.5t118.5 26q77 0 129 -29q11 -5 16 -11t5 -15v-64q0 -22 -21 -16q-33 11 -59.5 17t-64.5 6q-101 0 -101 -131v-93
q0 -71 27.5 -101t68.5 -30zM436 772q0 -4 -4 -8l-118 -124q-6 -7 -10.5 -10t-13.5 -3h-86q-9 0 -9 7q0 6 4 10l95 120q8 9 12.5 12t13.5 3h105q11 0 11 -7z" />
    <glyph glyph-name="Ccaron" unicode="&#x10c;" horiz-adv-x="549" 
d="M323 -8q-49 0 -96.5 14.5t-88.5 48.5t-66 94t-25 149v147q0 119 40.5 187t101.5 93.5t134 25.5q38 0 73 -7.5t60 -17.5t32 -14q22 -12 22 -27v-68q0 -24 -25 -15q-17 6 -45 13.5t-55.5 12t-52.5 4.5q-50 0 -81.5 -17.5t-47.5 -58.5t-16 -111v-147q0 -68 16 -109.5
t48 -59.5t81 -18q39 0 80.5 9t72.5 21q25 9 25 -15v-68q0 -15 -22 -27q-21 -12 -67 -25.5t-98 -13.5z" />
    <glyph glyph-name="ccaron" unicode="&#x10d;" horiz-adv-x="456" 
d="M267 104q56 0 129 23q21 6 21 -16v-64q0 -9 -5 -15t-16 -11q-52 -29 -129 -29q-67 0 -118 25t-80.5 79.5t-29.5 138.5v93q0 82 29 136.5t80.5 80.5t118.5 26q77 0 129 -29q11 -5 16 -11t5 -15v-64q0 -22 -21 -16q-33 11 -59.5 17t-64.5 6q-101 0 -101 -131v-93
q0 -71 27.5 -101t68.5 -30z" />
    <glyph glyph-name="dcroat" unicode="&#x111;" horiz-adv-x="577" 
d="M512 45q0 -11 -5 -17t-22 -10q-47 -12 -99.5 -19t-101.5 -7q-60 0 -105 17.5t-75 49.5t-44.5 79t-14.5 105v77q0 58 14.5 105t44.5 79t75 49.5t105 17.5q18 0 43 -1.5t53 -5.5v63h-150q-8 0 -13.5 5.5t-5.5 13.5v55q0 8 5.5 13t13.5 5h150v22q0 9 6 14.5t14 5.5h92
q8 0 14 -5.5t6 -14.5v-22h46q8 0 13.5 -5t5.5 -13v-55q0 -8 -5.5 -13.5t-13.5 -5.5h-46v-582zM380 456q-10 2 -23 3t-26.5 2t-25.5 1.5t-21 0.5q-32 0 -53 -11t-33 -30t-16.5 -45t-4.5 -57v-77q0 -31 4.5 -57t16.5 -45t33 -30t53 -11q13 0 27 0.5t27 1.5t24 2t18 3v349z" />
    <glyph glyph-name="Amacron" unicode="&#x100;" horiz-adv-x="642" 
d="M625 17q0 -8 -5 -12.5t-13 -4.5h-106q-6 0 -12 5t-7 12l-46 190h-230l-46 -190q-1 -7 -7 -12t-12 -5h-106q-8 0 -13 4.5t-5 12.5q1 1 1 2v3l164 627q26 102 139 102t139 -102l164 -627q1 -1 1 -2v-3zM409 321l-72 297q-3 9 -6 12.5t-10 3.5t-10 -3.5t-6 -12.5l-72 -297
h176z" />
    <glyph glyph-name="amacron" unicode="&#x101;" horiz-adv-x="533" 
d="M257 461q-79 0 -160 -26q-21 -6 -21 16v61q0 9 4.5 15t16.5 11q31 13 76 23t99 10q64 0 110 -21t70.5 -64.5t24.5 -105.5v-341q0 -11 -2.5 -15t-11.5 -7q-45 -12 -86.5 -18.5t-101.5 -6.5q-82 0 -134 17t-77 54t-25 97v5q0 44 12.5 75.5t40.5 53t72.5 32t110.5 10.5h70
v44q0 47 -20.5 64t-67.5 17zM345 100v148h-70q-46 0 -67.5 -8t-28.5 -25t-7 -47v-6q0 -28 9 -43t30.5 -21t63.5 -6t70 8z" />
    <glyph glyph-name="Abreve" unicode="&#x102;" horiz-adv-x="642" 
d="M625 17q0 -8 -5 -12.5t-13 -4.5h-106q-6 0 -12 5t-7 12l-46 190h-230l-46 -190q-1 -7 -7 -12t-12 -5h-106q-8 0 -13 4.5t-5 12.5q1 1 1 2v3l164 627q26 102 139 102t139 -102l164 -627q1 -1 1 -2v-3zM409 321l-72 297q-3 9 -6 12.5t-10 3.5t-10 -3.5t-6 -12.5l-72 -297
h176z" />
    <glyph glyph-name="abreve" unicode="&#x103;" horiz-adv-x="533" 
d="M257 461q-79 0 -160 -26q-21 -6 -21 16v61q0 9 4.5 15t16.5 11q31 13 76 23t99 10q64 0 110 -21t70.5 -64.5t24.5 -105.5v-341q0 -11 -2.5 -15t-11.5 -7q-45 -12 -86.5 -18.5t-101.5 -6.5q-82 0 -134 17t-77 54t-25 97v5q0 44 12.5 75.5t40.5 53t72.5 32t110.5 10.5h70
v44q0 47 -20.5 64t-67.5 17zM345 100v148h-70q-46 0 -67.5 -8t-28.5 -25t-7 -47v-6q0 -28 9 -43t30.5 -21t63.5 -6t70 8z" />
    <glyph glyph-name="Aogonek" unicode="&#x104;" horiz-adv-x="642" 
d="M436 207h-230l-46 -190q-1 -7 -6.5 -12t-12.5 -5h-106q-8 0 -13 4.5t-5 12.5q0 1 0.5 2.5t0.5 2.5l164 627q9 35 26 55.5t36.5 30.5t40 13t36.5 3t36.5 -3t40 -13t36.5 -30.5t26 -55.5l164 -627q1 -2 1 -4v-4t-1 -5.5t-7 -6.5q-36 -21 -57 -34.5t-31.5 -23.5t-13.5 -17
t-3 -13q0 -9 7 -14t18 -5q14 0 28 1.5t25 3t18.5 3t10.5 1.5q7 0 8.5 -2.5t1.5 -9.5v-58q0 -5 -2 -8t-9 -7q-5 -3 -14 -6t-22 -6.5t-29.5 -5.5t-37.5 -2q-24 0 -47 6t-40.5 17t-28.5 28.5t-11 40.5t5 38.5t16.5 28t30 25.5t44.5 29zM337 618q-3 9 -5.5 12.5t-10.5 3.5
t-10.5 -3.5t-5.5 -12.5l-72 -297h176z" />
    <glyph glyph-name="aogonek" unicode="&#x105;" horiz-adv-x="533" 
d="M417 -30q-19 -12 -30.5 -20.5t-17.5 -14t-7.5 -10.5t-1.5 -11q0 -9 7 -14t18 -5q14 0 27.5 1.5t25 3t19 3t10.5 1.5q7 0 8.5 -2.5t1.5 -9.5v-58q0 -5 -1.5 -8t-9.5 -7q-6 -3 -14.5 -6t-21.5 -6.5t-30 -5.5t-37 -2q-25 0 -48 6t-40.5 17t-28 28.5t-10.5 40.5q0 18 4.5 32
t13 26t22 22.5t30.5 21.5q-8 -1 -15.5 -1h-15.5q-61 0 -105.5 9.5t-73.5 30t-43 52t-14 76.5v5q0 43 12.5 75t40.5 53t72.5 32t110.5 11h70v44q0 24 -5.5 40t-16.5 25t-27.5 12.5t-38.5 3.5q-23 0 -46 -2.5t-44 -6.5t-39 -8.5t-31 -8.5q-21 -6 -21 16v61q0 10 4.5 15.5
t16.5 10.5q28 12 72.5 22.5t102.5 10.5q47 0 85.5 -12t65 -35.5t40.5 -59.5t14 -84v-348q0 -14 -2 -19t-7 -9zM345 248h-70q-34 0 -54.5 -4.5t-31 -14.5t-14 -25t-3.5 -36v-6q0 -20 5 -34t16.5 -22t31.5 -11t50 -3q9 0 19.5 0.5t20 2t17.5 3t13 2.5v148z" />
    <glyph glyph-name="Ccircumflex" unicode="&#x108;" 
d="M323 -8q-49 0 -96.5 14.5t-88.5 48.5t-66 94t-25 149v147q0 119 40.5 187t101.5 93.5t134 25.5q38 0 73 -7.5t60 -17.5t32 -14q22 -12 22 -27v-68q0 -24 -25 -15q-17 6 -45 13.5t-55.5 12t-52.5 4.5q-50 0 -81.5 -17.5t-47.5 -58.5t-16 -111v-147q0 -68 16 -109.5
t48 -59.5t81 -18q39 0 80.5 9t72.5 21q25 9 25 -15v-68q0 -15 -22 -27q-21 -12 -67 -25.5t-98 -13.5zM627 821q0 -7 -9 -7h-83q-6 0 -9.5 1.5t-7 5l-6.5 6.5l-71 81l-71 -81q-8 -8 -11.5 -10.5t-12.5 -2.5h-83q-9 0 -9 7q0 6 4 10l92 120q9 10 13 12.5t13 2.5h130
q9 0 13.5 -3t12.5 -12l91 -120q4 -4 4 -10z" />
    <glyph glyph-name="ccircumflex" unicode="&#x109;" horiz-adv-x="556" 
d="M267 104q56 0 129 23q21 6 21 -16v-64q0 -9 -5 -15t-16 -11q-52 -29 -129 -29q-67 0 -118 25t-80.5 79.5t-29.5 138.5v93q0 82 29 136.5t80.5 80.5t118.5 26q77 0 129 -29q11 -5 16 -11t5 -15v-64q0 -22 -21 -16q-33 11 -59.5 17t-64.5 6q-101 0 -101 -131v-93
q0 -71 27.5 -101t68.5 -30zM540 644q0 -7 -9 -7h-83q-6 0 -9.5 1.5t-7 5l-6.5 6.5l-71 81l-71 -81q-8 -8 -11.5 -10.5t-12.5 -2.5h-83q-9 0 -9 7q0 6 4 10l92 120q9 10 13 12.5t13 2.5h130q9 0 13.5 -3t12.5 -12l91 -120q4 -4 4 -10z" />
    <glyph glyph-name="Cdotaccent" unicode="&#x10a;" 
d="M323 -8q-49 0 -96.5 14.5t-88.5 48.5t-66 94t-25 149v147q0 119 40.5 187t101.5 93.5t134 25.5q38 0 73 -7.5t60 -17.5t32 -14q22 -12 22 -27v-68q0 -24 -25 -15q-17 6 -45 13.5t-55.5 12t-52.5 4.5q-50 0 -81.5 -17.5t-47.5 -58.5t-16 -111v-147q0 -68 16 -109.5
t48 -59.5t81 -18q39 0 80.5 9t72.5 21q25 9 25 -15v-68q0 -15 -22 -27q-21 -12 -67 -25.5t-98 -13.5zM487 837q0 -9 -6 -14.5t-14 -5.5h-90q-8 0 -14 6t-6 14v95q0 8 5.5 13.5t14.5 5.5h90q9 0 14.5 -5t5.5 -14v-95z" />
    <glyph glyph-name="cdotaccent" unicode="&#x10b;" horiz-adv-x="556" 
d="M267 104q56 0 129 23q21 6 21 -16v-64q0 -9 -5 -15t-16 -11q-52 -29 -129 -29q-67 0 -118 25t-80.5 79.5t-29.5 138.5v93q0 82 29 136.5t80.5 80.5t118.5 26q77 0 129 -29q11 -5 16 -11t5 -15v-64q0 -22 -21 -16q-33 11 -59.5 17t-64.5 6q-101 0 -101 -131v-93
q0 -71 27.5 -101t68.5 -30zM396 648q0 -9 -6 -14.5t-14 -5.5h-90q-8 0 -14 6t-6 14v95q0 8 5.5 13.5t14.5 5.5h90q9 0 14.5 -5t5.5 -14v-95z" />
    <glyph glyph-name="Dcaron" unicode="&#x10e;" horiz-adv-x="648" 
d="M601 298q0 -98 -37 -167t-107 -104t-170 -35q-24 0 -72 2t-78 4.5t-47 5.5q-26 4 -26 31v673q0 26 26 31q16 3 48.5 5.5t78.5 4.5t70 2q100 0 170 -35t107 -104.5t37 -166.5v-147zM463 298v147q0 71 -22 113t-61 59t-93 17q-23 0 -30.5 -0.5t-23.5 -1t-30 -1.5v-519
q25 -1 44.5 -2t39.5 -1q54 0 92.5 17t61 58.5t22.5 113.5z" />
    <glyph glyph-name="dcaron" unicode="&#x10f;" horiz-adv-x="707" 
d="M506 45q0 -11 -5 -17t-22 -10q-47 -12 -100 -19t-101 -7q-60 0 -105 17.5t-75 49.5t-44.5 79t-14.5 105v77q0 58 14.5 105t44.5 79t75 49.5t105 17.5q18 0 43 -1.5t53 -5.5v177q0 9 6 14.5t14 5.5h92q8 0 14 -5.5t6 -14.5v-696zM374 456q-10 2 -23.5 3t-26.5 2t-25 1.5
t-21 0.5q-32 0 -53 -11t-33 -30t-16.5 -45t-4.5 -57v-77q0 -31 4.5 -57t16.5 -45t33 -30t53 -11q14 0 27.5 0.5t26.5 1.5t24 2t18 3v349zM727 750v-3t-1 -5l-68 -207q-3 -11 -7.5 -15t-11.5 -4h-88q-6 0 -7.5 2.5t-1.5 7.5v4.5t1 4.5l51 207q3 10 7.5 14.5t12.5 4.5h102
q11 0 11 -11z" />
    <glyph glyph-name="Emacron" unicode="&#x112;" horiz-adv-x="556" 
d="M505 27q0 -19 -20 -21q-10 -1 -26 -4t-48 -5.5t-52 -3.5t-64 -1q-71 0 -121.5 17t-80 62t-29.5 126v349q0 80 29.5 125.5t80 62.5t121.5 17q106 0 190 -14q12 -2 16 -6t4 -15v-64q0 -8 -6 -14t-14 -6h-204q-44 0 -61.5 -18.5t-17.5 -67.5v-108h271q8 0 14 -6t6 -14v-72
q0 -8 -6.5 -14t-13.5 -6h-271v-129q0 -49 17.5 -67.5t61.5 -18.5h204q9 0 14.5 -5.5t5.5 -14.5v-64z" />
    <glyph glyph-name="emacron" unicode="&#x113;" horiz-adv-x="560" 
d="M386 330v4q0 61 -28 92t-77 31q-31 0 -55.5 -13.5t-38 -41t-13.5 -68.5v-4h212zM296 -8q-63 0 -120.5 23.5t-96 79.5t-38.5 148v74q0 77 28 135t82.5 88.5t129.5 30.5t129 -32.5t81.5 -89.5t27.5 -132v-56q0 -25 -20 -25h-326v-3q0 -57 28 -92t105 -35q42 0 91 8.5
t80 18.5q21 6 21 -16v-59q0 -10 -5 -15t-16 -11q-31 -16 -80 -28t-101 -12z" />
    <glyph glyph-name="Ebreve" unicode="&#x114;" horiz-adv-x="667" 
d="M505 27q0 -19 -20 -21q-10 -1 -26 -4t-48 -5.5t-52 -3.5t-64 -1q-71 0 -121.5 17t-80 62t-29.5 126v349q0 80 29.5 125.5t80 62.5t121.5 17q106 0 190 -14q12 -2 16 -6t4 -15v-64q0 -8 -6 -14t-14 -6h-204q-44 0 -61.5 -18.5t-17.5 -67.5v-108h271q8 0 14 -6t6 -14v-72
q0 -8 -6.5 -14t-13.5 -6h-271v-129q0 -49 17.5 -67.5t61.5 -18.5h204q9 0 14.5 -5.5t5.5 -14.5v-64zM587 958q0 -1 -0.5 -1.5t-0.5 -2.5q-14 -63 -58 -104t-119 -41t-118.5 40.5t-58.5 104.5q0 2 -0.5 2.5t-0.5 1.5q0 7 10 7h75q10 0 13 -12q18 -66 80 -66q63 0 80 66
q3 12 13 12h75q10 0 10 -7z" />
    <glyph glyph-name="ebreve" unicode="&#x115;" horiz-adv-x="556" 
d="M386 330v4q0 61 -28 92t-77 31q-31 0 -55.5 -13.5t-38 -41t-13.5 -68.5v-4h212zM296 -8q-63 0 -120.5 23.5t-96 79.5t-38.5 148v74q0 77 28 135t82.5 88.5t129.5 30.5t129 -32.5t81.5 -89.5t27.5 -132v-56q0 -25 -20 -25h-326v-3q0 -57 28 -92t105 -35q42 0 91 8.5
t80 18.5q21 6 21 -16v-59q0 -10 -5 -15t-16 -11q-31 -16 -80 -28t-101 -12zM527 791q0 -1 -0.5 -1.5t-0.5 -2.5q-14 -63 -58 -104t-119 -41t-118.5 40.5t-58.5 104.5q0 2 -0.5 2.5t-0.5 1.5q0 7 10 7h75q10 0 13 -12q18 -66 80 -66q63 0 80 66q3 12 13 12h75q10 0 10 -7z
" />
    <glyph glyph-name="Edotaccent" unicode="&#x116;" horiz-adv-x="556" 
d="M505 27q0 -19 -20 -21q-10 -1 -26 -4t-48 -5.5t-52 -3.5t-64 -1q-71 0 -121.5 17t-80 62t-29.5 126v349q0 80 29.5 125.5t80 62.5t121.5 17q106 0 190 -14q12 -2 16 -6t4 -15v-64q0 -8 -6 -14t-14 -6h-204q-44 0 -61.5 -18.5t-17.5 -67.5v-108h271q8 0 14 -6t6 -14v-72
q0 -8 -6.5 -14t-13.5 -6h-271v-129q0 -49 17.5 -67.5t61.5 -18.5h204q9 0 14.5 -5.5t5.5 -14.5v-64z" />
    <glyph glyph-name="edotaccent" unicode="&#x117;" horiz-adv-x="560" 
d="M386 330v4q0 61 -28 92t-77 31q-31 0 -55.5 -13.5t-38 -41t-13.5 -68.5v-4h212zM296 -8q-63 0 -120.5 23.5t-96 79.5t-38.5 148v74q0 77 28 135t82.5 88.5t129.5 30.5t129 -32.5t81.5 -89.5t27.5 -132v-56q0 -25 -20 -25h-326v-3q0 -57 28 -92t105 -35q42 0 91 8.5
t80 18.5q21 6 21 -16v-59q0 -10 -5 -15t-16 -11q-31 -16 -80 -28t-101 -12z" />
    <glyph glyph-name="Eogonek" unicode="&#x118;" horiz-adv-x="556" 
d="M505 27q0 -11 -1 -15.5t-5 -7.5l-51 -34q-19 -12 -30.5 -20.5t-17 -14t-7.5 -10.5t-2 -11q0 -9 7 -14t18 -5q14 0 28 1.5t25 3t19 3t10 1.5q7 0 8.5 -2.5t1.5 -9.5v-58q0 -5 -2 -8t-9 -7q-5 -3 -14 -6t-22 -6.5t-29.5 -5.5t-37.5 -2q-24 0 -47 6t-40.5 17t-28.5 28.5
t-11 40.5q0 19 3.5 32.5t11.5 25t20 21.5t30 22h-37q-49 0 -91 8t-73 30.5t-49 62.5t-18 104v349q0 42 8 74t23 54.5t36 37.5t46.5 23.5t55 12t62.5 3.5q44 0 75 -1.5t52.5 -3.5t36 -4.5t26.5 -4.5q11 -2 15.5 -6t4.5 -15v-64q0 -8 -6 -14t-14 -6h-204q-22 0 -37 -4
t-24.5 -14t-13.5 -26.5t-4 -41.5v-108h271q8 0 14 -6t6 -14v-72q0 -8 -6 -14t-14 -6h-271v-129q0 -25 4 -41.5t13.5 -26.5t24.5 -14t37 -4h204q8 0 14 -6t6 -14v-64z" />
    <glyph glyph-name="eogonek" unicode="&#x119;" horiz-adv-x="560" 
d="M296 -8q-28 0 -58 5t-58 16.5t-53.5 30t-44.5 46.5t-30 66t-11 87v74q0 58 16 105t46.5 80t75.5 51t102 18t102 -19t75 -52.5t45.5 -80t15.5 -102.5v-56q0 -25 -20 -25h-326v-3q0 -24 5 -47t19.5 -41t40.5 -28.5t68 -10.5q23 0 47.5 2.5t47.5 6.5t43 9t33 9q21 6 21 -16
v-68q0 -6 -4 -8q-35 -22 -57 -39t-34.5 -30.5t-17 -24.5t-4.5 -21q0 -18 9 -24.5t26 -6.5q10 0 22 1.5t22 3t17.5 3t10.5 1.5q7 0 8.5 -2.5t1.5 -9.5v-58q0 -5 -1.5 -8t-9.5 -7q-6 -3 -15 -6t-23 -6.5t-34.5 -5.5t-47.5 -2q-18 0 -37.5 4t-35.5 15t-26.5 28.5t-10.5 44.5
q0 30 10.5 54.5t29.5 46.5h-1zM386 334q0 31 -7.5 54t-21.5 38.5t-33.5 23t-42.5 7.5t-43 -7.5t-34 -22.5t-22 -38.5t-8 -54.5v-4h212v4z" />
    <glyph glyph-name="Ecaron" unicode="&#x11a;" horiz-adv-x="556" 
d="M505 27q0 -19 -20 -21q-10 -1 -26 -4t-48 -5.5t-52 -3.5t-64 -1q-71 0 -121.5 17t-80 62t-29.5 126v349q0 80 29.5 125.5t80 62.5t121.5 17q106 0 190 -14q12 -2 16 -6t4 -15v-64q0 -8 -6 -14t-14 -6h-204q-44 0 -61.5 -18.5t-17.5 -67.5v-108h271q8 0 14 -6t6 -14v-72
q0 -8 -6.5 -14t-13.5 -6h-271v-129q0 -49 17.5 -67.5t61.5 -18.5h204q9 0 14.5 -5.5t5.5 -14.5v-64z" />
    <glyph glyph-name="ecaron" unicode="&#x11b;" horiz-adv-x="560" 
d="M386 330v4q0 61 -28 92t-77 31q-31 0 -55.5 -13.5t-38 -41t-13.5 -68.5v-4h212zM296 -8q-63 0 -120.5 23.5t-96 79.5t-38.5 148v74q0 77 28 135t82.5 88.5t129.5 30.5t129 -32.5t81.5 -89.5t27.5 -132v-56q0 -25 -20 -25h-326v-3q0 -57 28 -92t105 -35q42 0 91 8.5
t80 18.5q21 6 21 -16v-59q0 -10 -5 -15t-16 -11q-31 -16 -80 -28t-101 -12z" />
    <glyph glyph-name="Gcircumflex" unicode="&#x11c;" horiz-adv-x="778" 
d="M187 445v-146q0 -98 38 -143t90 -45t99 3v255q0 8 5.5 14t13.5 6h99q8 0 14 -6t6 -14v-336q0 -19 -19 -24q-25 -5 -56 -9t-77.5 -6t-84.5 -2q-44 0 -89.5 15.5t-87 52t-66.5 96.5t-25 143v144q0 91 25.5 152.5t68.5 95.5t90.5 47t101.5 13q44 0 83 -9.5t69 -21.5t45 -22
q22 -12 22 -27v-67q0 -24 -25 -15q-37 15 -85.5 29t-98.5 14q-81 0 -118.5 -42.5t-37.5 -144.5zM627 830q0 -7 -9 -7h-83q-6 0 -9.5 1.5t-7 5l-6.5 6.5l-71 81l-71 -81q-8 -8 -11.5 -10.5t-12.5 -2.5h-83q-9 0 -9 7q0 6 4 10l92 120q9 10 13 12.5t13 2.5h130q9 0 13.5 -3
t12.5 -12l91 -120q4 -4 4 -10z" />
    <glyph glyph-name="gcircumflex" unicode="&#x11d;" horiz-adv-x="611" 
d="M279 -94q40 0 60.5 7.5t27.5 26t7 55.5v8q-11 -2 -47.5 -6.5t-48.5 -4.5q-80 0 -133 30t-79.5 86.5t-26.5 134.5v77q0 78 26.5 134.5t79.5 86.5t133 30q27 0 52.5 -2t45.5 -4.5t54 -9t49 -10.5q16 -4 21.5 -9.5t5.5 -17.5v-516q0 -70 -24.5 -115t-75.5 -66t-127 -21
q-51 0 -101 12.5t-83 27.5q-6 3 -11.5 7t-7.5 8t-2 11v51q0 22 21 16q40 -10 91 -18.5t93 -8.5zM374 108v346q-19 4 -43 6.5t-53 2.5q-61 0 -84 -37.5t-23 -105.5v-77q0 -31 5 -57t17 -45.5t33 -30t52 -10.5q17 0 46 2.5t50 5.5zM556 658q0 -7 -9 -7h-83q-6 0 -9.5 1.5t-7 5
l-6.5 6.5l-71 81l-71 -81q-8 -8 -11.5 -10.5t-12.5 -2.5h-83q-9 0 -9 7q0 6 4 10l92 120q9 10 13 12.5t13 2.5h130q9 0 13.5 -3t12.5 -12l91 -120q4 -4 4 -10z" />
    <glyph glyph-name="Gdotaccent" unicode="&#x120;" horiz-adv-x="778" 
d="M187 445v-146q0 -98 38 -143t90 -45t99 3v255q0 8 5.5 14t13.5 6h99q8 0 14 -6t6 -14v-336q0 -19 -19 -24q-25 -5 -56 -9t-77.5 -6t-84.5 -2q-44 0 -89.5 15.5t-87 52t-66.5 96.5t-25 143v144q0 91 25.5 152.5t68.5 95.5t90.5 47t101.5 13q44 0 83 -9.5t69 -21.5t45 -22
q22 -12 22 -27v-67q0 -24 -25 -15q-37 15 -85.5 29t-98.5 14q-81 0 -118.5 -42.5t-37.5 -144.5zM500 864q0 -9 -6 -14.5t-14 -5.5h-90q-8 0 -14 6t-6 14v95q0 8 5.5 13.5t14.5 5.5h90q9 0 14.5 -5t5.5 -14v-95z" />
    <glyph glyph-name="gdotaccent" unicode="&#x121;" horiz-adv-x="611" 
d="M279 -94q40 0 60.5 7.5t27.5 26t7 55.5v8q-11 -2 -47.5 -6.5t-48.5 -4.5q-80 0 -133 30t-79.5 86.5t-26.5 134.5v77q0 78 26.5 134.5t79.5 86.5t133 30q27 0 52.5 -2t45.5 -4.5t54 -9t49 -10.5q16 -4 21.5 -9.5t5.5 -17.5v-516q0 -70 -24.5 -115t-75.5 -66t-127 -21
q-51 0 -101 12.5t-83 27.5q-6 3 -11.5 7t-7.5 8t-2 11v51q0 22 21 16q40 -10 91 -18.5t93 -8.5zM374 108v346q-19 4 -43 6.5t-53 2.5q-61 0 -84 -37.5t-23 -105.5v-77q0 -31 5 -57t17 -45.5t33 -30t52 -10.5q17 0 46 2.5t50 5.5zM400 677q0 -9 -6 -14.5t-14 -5.5h-90
q-8 0 -14 6t-6 14v95q0 8 5.5 13.5t14.5 5.5h90q9 0 14.5 -5t5.5 -14v-95z" />
    <glyph glyph-name="Gcedilla" horiz-adv-x="778" 
d="M187 445v-146q0 -98 38 -143t90 -45t99 3v255q0 8 5.5 14t13.5 6h99q8 0 14 -6t6 -14v-336q0 -19 -19 -24q-25 -5 -56 -9t-77.5 -6t-84.5 -2q-44 0 -89.5 15.5t-87 52t-66.5 96.5t-25 143v144q0 91 25.5 152.5t68.5 95.5t90.5 47t101.5 13q44 0 83 -9.5t69 -21.5t45 -22
q22 -12 22 -27v-67q0 -24 -25 -15q-37 15 -85.5 29t-98.5 14q-81 0 -118.5 -42.5t-37.5 -144.5zM537 -49q0 -4 -4 -8l-119 -123q-8 -9 -11.5 -11.5t-11.5 -2.5h-86q-9 0 -9 7q0 6 4 10l94 120q7 9 12 12t14 3h106q11 0 11 -7z" />
    <glyph glyph-name="gcedilla" horiz-adv-x="611" 
d="M279 -94q40 0 60.5 7.5t27.5 26t7 55.5v8q-11 -2 -47.5 -6.5t-48.5 -4.5q-80 0 -133 30t-79.5 86.5t-26.5 134.5v77q0 78 26.5 134.5t79.5 86.5t133 30q27 0 52.5 -2t45.5 -4.5t54 -9t49 -10.5q16 -4 21.5 -9.5t5.5 -17.5v-516q0 -70 -24.5 -115t-75.5 -66t-127 -21
q-51 0 -101 12.5t-83 27.5q-6 3 -11.5 7t-7.5 8t-2 11v51q0 22 21 16q40 -10 91 -18.5t93 -8.5zM374 108v346q-19 4 -43 6.5t-53 2.5q-61 0 -84 -37.5t-23 -105.5v-77q0 -31 5 -57t17 -45.5t33 -30t52 -10.5q17 0 46 2.5t50 5.5zM450 -248q0 -4 -4 -8l-119 -123
q-8 -9 -11.5 -11.5t-11.5 -2.5h-86q-9 0 -9 7q0 6 4 10l94 120q7 9 12 12t14 3h106q11 0 11 -7z" />
    <glyph glyph-name="gacute" unicode="&#x1f5;" horiz-adv-x="611" 
d="M279 -94q40 0 60.5 7.5t27.5 26t7 55.5v8q-11 -2 -47.5 -6.5t-48.5 -4.5q-80 0 -133 30t-79.5 86.5t-26.5 134.5v77q0 78 26.5 134.5t79.5 86.5t133 30q27 0 52.5 -2t45.5 -4.5t54 -9t49 -10.5q16 -4 21.5 -9.5t5.5 -17.5v-516q0 -70 -24.5 -115t-75.5 -66t-127 -21
q-51 0 -101 12.5t-83 27.5q-6 3 -11.5 7t-7.5 8t-2 11v51q0 22 21 16q40 -10 91 -18.5t93 -8.5zM374 108v346q-19 4 -43 6.5t-53 2.5q-61 0 -84 -37.5t-23 -105.5v-77q0 -31 5 -57t17 -45.5t33 -30t52 -10.5q17 0 46 2.5t50 5.5zM502 794q0 -4 -4 -8l-118 -124
q-6 -7 -10.5 -10t-13.5 -3h-86q-9 0 -9 7q0 6 4 10l95 120q8 9 12.5 12t13.5 3h105q11 0 11 -7z" />
    <glyph glyph-name="Hcircumflex" unicode="&#x124;" 
d="M626 20q0 -9 -6 -14.5t-14 -5.5h-99q-7 0 -13.5 6t-6.5 14v306h-284v-306q0 -8 -6.5 -14t-13.5 -6h-99q-7 0 -13.5 6t-6.5 14v704q0 8 6 13.5t14 5.5h99q8 0 14 -5.5t6 -13.5v-276h284v276q0 8 6 13.5t14 5.5h99q9 0 14.5 -5t5.5 -14v-704zM612 822q0 -7 -9 -7h-83
q-6 0 -9.5 1.5t-7 5l-6.5 6.5l-71 81l-71 -81q-8 -8 -11.5 -10.5t-12.5 -2.5h-83q-9 0 -9 7q0 6 4 10l92 120q9 10 13 12.5t13 2.5h130q9 0 13.5 -3t12.5 -12l91 -120q4 -4 4 -10z" />
    <glyph glyph-name="hcircumflex" unicode="&#x125;" horiz-adv-x="611" 
d="M518 21q0 -8 -6 -14.5t-14 -6.5h-92q-9 0 -14.5 6.5t-5.5 14.5v329q0 46 -6.5 68t-24 31.5t-51.5 9.5q-51 0 -116 -34v-404q0 -9 -5.5 -15t-14.5 -6h-92q-9 0 -14.5 6.5t-5.5 14.5v720q0 8 6 14t14 6h92q8 0 14 -5.5t6 -14.5v-207q61 37 151 37q179 0 179 -221v-329z
M530 809q0 -7 -9 -7h-83q-6 0 -9.5 1.5t-7 5l-6.5 6.5l-71 81l-71 -81q-8 -8 -11.5 -10.5t-12.5 -2.5h-83q-9 0 -9 7q0 6 4 10l92 120q9 10 13 12.5t13 2.5h130q9 0 13.5 -3t12.5 -12l91 -120q4 -4 4 -10z" />
    <glyph glyph-name="Hbar" unicode="&#x126;" 
d="M626 20q0 -9 -6 -14.5t-14 -5.5h-99q-7 0 -13.5 6t-6.5 14v306h-284v-306q0 -8 -6.5 -14t-13.5 -6h-99q-7 0 -13.5 6t-6.5 14v704q0 8 6 13.5t14 5.5h99q8 0 14 -5.5t6 -13.5v-276h284v276q0 8 6 13.5t14 5.5h99q9 0 14.5 -5t5.5 -14v-704zM494 538q0 -7 -6 -12.5
t-14 -5.5h-331q-8 0 -13.5 5t-5.5 13v71q0 9 5.5 14t13.5 5h331q8 0 14 -5t6 -14v-71z" />
    <glyph glyph-name="hbar" unicode="&#x127;" horiz-adv-x="611" 
d="M518 21q0 -8 -6 -14.5t-14 -6.5h-92q-9 0 -14.5 6.5t-5.5 14.5v329q0 46 -6.5 68t-24 31.5t-51.5 9.5q-51 0 -116 -34v-404q0 -9 -5.5 -15t-14.5 -6h-92q-9 0 -14.5 6.5t-5.5 14.5v720q0 8 6 14t14 6h92q8 0 14 -5.5t6 -14.5v-207q61 37 151 37q179 0 179 -221v-329z
M404 635q0 -9 -6 -13.5t-14 -4.5h-310q-8 0 -14 5t-6 13v57q0 8 5.5 13t14.5 5h310q9 0 14.5 -4.5t5.5 -13.5v-57z" />
    <glyph glyph-name="Itilde" unicode="&#x128;" horiz-adv-x="420" 
d="M242 20q0 -8 -6.5 -14t-13.5 -6h-99q-7 0 -13.5 6t-6.5 14v704q0 8 6 13.5t14 5.5h99q8 0 14 -5.5t6 -13.5v-704zM467 923q0 -112 -111 -112q-17 0 -35.5 6t-34.5 17l-44 33q-28 21 -42 21q-28 0 -28 -34v-21q0 -16 -14 -16h-57q-14 0 -14 16v21q0 112 112 112
q39 0 69 -22l44 -33q26 -20 42 -20q28 0 28 33v21q0 16 14 16h57q14 0 14 -16v-22z" />
    <glyph glyph-name="itilde" unicode="&#x129;" horiz-adv-x="430" 
d="M236 21q0 -9 -5.5 -15t-14.5 -6h-92q-9 0 -14.5 6.5t-5.5 14.5v523q0 8 5.5 14t14.5 6h92q9 0 14.5 -5.5t5.5 -14.5v-523zM469 789q0 -112 -111 -112q-17 0 -35.5 6t-34.5 17l-44 33q-28 21 -42 21q-28 0 -28 -34v-21q0 -16 -14 -16h-57q-14 0 -14 16v21q0 112 112 112
q39 0 69 -22l44 -33q26 -20 42 -20q28 0 28 33v21q0 16 14 16h57q14 0 14 -16v-22z" />
    <glyph glyph-name="Imacron" unicode="&#x12a;" horiz-adv-x="267" 
d="M203 20q0 -8 -6.5 -14t-13.5 -6h-99q-7 0 -13.5 6t-6.5 14v704q0 8 6 13.5t14 5.5h99q8 0 14 -5.5t6 -13.5v-704z" />
    <glyph glyph-name="imacron" unicode="&#x12b;" horiz-adv-x="250" 
 />
    <glyph glyph-name="Iogonek" unicode="&#x12e;" horiz-adv-x="267" 
d="M203 20q0 -7 -0.5 -10.5t-3.5 -5.5q-30 -25 -47.5 -40t-26.5 -24t-11 -14.5t-2 -11.5q0 -9 7 -14t18 -5q14 0 27.5 1.5t25 3t19 3t10.5 1.5q7 0 8.5 -2.5t1.5 -9.5v-58q0 -5 -1.5 -8t-9.5 -7q-6 -3 -14.5 -6t-21.5 -6.5t-29.5 -5.5t-37.5 -2q-24 0 -47 6t-41 17
t-28.5 28.5t-10.5 40.5q0 20 4 34.5t13 26.5t23.5 23.5t35.5 24.5v724q0 8 6 13.5t14 5.5h99q8 0 14 -5.5t6 -13.5v-704z" />
    <glyph glyph-name="iogonek" unicode="&#x12f;" horiz-adv-x="268" 
d="M203 659q0 -8 -6 -14t-14 -6h-97q-8 0 -14.5 6t-6.5 14v88q0 8 6.5 14t14.5 6h97q8 0 14 -6t6 -14v-88zM184 -11q-16 -10 -26 -19t-16 -16.5t-8.5 -15t-2.5 -16.5q0 -17 8 -22t29 -5q11 0 22 1.5t21 3t17 3t10 1.5q7 0 8.5 -2.5t1.5 -9.5v-58q0 -5 -1.5 -8t-9.5 -7
q-6 -3 -14.5 -6t-21.5 -6.5t-30 -5.5t-37 -2q-25 0 -48 4t-40.5 15.5t-28 31t-10.5 51.5q0 18 3 32.5t10 27.5t19 25t29 24v534q0 8 6 14t14 6h92q8 0 14 -6t6 -14v-529q0 -8 -2.5 -13t-13.5 -13z" />
    <glyph glyph-name="IJ" unicode="&#x132;" horiz-adv-x="834" 
d="M203 20q0 -8 -6.5 -14t-13.5 -6h-99q-7 0 -13.5 6t-6.5 14v704q0 8 6 13.5t14 5.5h99q8 0 14 -5.5t6 -13.5v-704zM497 -21q0 -52 -17.5 -84.5t-52.5 -47t-90 -14.5q-21 0 -47 3t-33 5q-10 3 -10 14v71q0 8 5.5 13t14.5 5h66q14 0 19.5 7t5.5 28v745q0 8 5.5 13.5
t14.5 5.5h99q8 0 14 -5.5t6 -13.5v-745z" />
    <glyph glyph-name="ij" unicode="&#x133;" horiz-adv-x="556" 
d="M194 659q0 -9 -6 -14.5t-14 -5.5h-97q-8 0 -14.5 5.5t-6.5 14.5v88q0 8 6.5 14t14.5 6h97q8 0 14 -6t6 -14v-88zM191 21q0 -9 -5.5 -15t-14.5 -6h-92q-9 0 -14.5 6.5t-5.5 14.5v523q0 8 5.5 14t14.5 6h92q9 0 14.5 -5.5t5.5 -14.5v-523zM485 659q0 -9 -6.5 -14.5
t-14.5 -5.5h-96q-7 0 -13.5 6t-6.5 14v88q0 7 6.5 13.5t13.5 6.5h96q8 0 14.5 -6t6.5 -14v-88zM482 -42q0 -87 -37 -122.5t-111 -35.5q-31 0 -66 6q-19 3 -19 18v65q0 16 21 16h45q16 0 23.5 5t9.5 16t2 32v586q0 8 5.5 14t14.5 6h92q8 0 14 -6t6 -14v-586z" />
    <glyph glyph-name="Jcircumflex" unicode="&#x134;" horiz-adv-x="556" 
d="M219 -21q0 -52 -17.5 -84.5t-52.5 -47t-90 -14.5q-21 0 -47 3t-33 5q-10 3 -10 14v71q0 8 5.5 13t14.5 5h66q14 0 19.5 7t5.5 28v745q0 8 5.5 13.5t14.5 5.5h99q8 0 14 -5.5t6 -13.5v-745zM654 816q0 -7 -9 -7h-83q-6 0 -9.5 1.5t-7 5l-6.5 6.5l-71 81l-71 -81
q-8 -8 -11.5 -10.5t-12.5 -2.5h-83q-9 0 -9 7q0 6 4 10l92 120q9 10 13 12.5t13 2.5h130q9 0 13.5 -3t12.5 -12l91 -120q4 -4 4 -10z" />
    <glyph glyph-name="jcircumflex" unicode="&#x135;" horiz-adv-x="310" 
d="M4 -102q12 -1 17 -1.5t9 -0.5q20 0 30.5 10.5t10.5 38.5v585h139v-587q0 -81 -31.5 -119.5t-124.5 -38.5q-6 0 -18.5 0.5t-31.5 1.5v111zM400 634q0 -7 -9 -7h-83q-6 0 -9.5 1.5t-7 5l-6.5 6.5l-71 81l-71 -81q-8 -8 -11.5 -10.5t-12.5 -2.5h-83q-9 0 -9 7q0 6 4 10
l92 120q9 10 13 12.5t13 2.5h130q9 0 13.5 -3t12.5 -12l91 -120q4 -4 4 -10z" />
    <glyph glyph-name="Kcedilla" 
d="M604 9q0 -9 -15 -9h-134q-16 0 -23 11l-229 341v-332q0 -8 -6.5 -14t-13.5 -6h-99q-7 0 -13.5 6t-6.5 14v703q0 8 6 13.5t14 5.5h99q8 0 14 -5.5t6 -13.5v-318l245 329q6 8 23 8h114q19 0 19 -12q0 -7 -7 -16l-256 -331l258 -362q5 -8 5 -12zM349 -41q0 -4 -4 -8
l-119 -123q-8 -9 -11.5 -11.5t-11.5 -2.5h-86q-9 0 -9 7q0 6 4 10l94 120q7 9 12 12t14 3h106q11 0 11 -7z" />
    <glyph glyph-name="kcedilla" horiz-adv-x="556" 
d="M510 12q0 -5 -4 -8.5t-10 -3.5h-122q-7 0 -15.5 6.5t-13.5 13.5l-157 228v-227q0 -9 -5.5 -15t-14.5 -6h-92q-9 0 -14.5 6.5t-5.5 14.5v720q0 8 6 14t14 6h92q8 0 14 -5.5t6 -14.5v-417l171 228q10 12 23 12h112q15 0 15 -11q0 -5 -4 -10l-201 -247l203 -276q3 -4 3 -8z
M322 -41q0 -4 -4 -8l-119 -123q-8 -9 -11.5 -11.5t-11.5 -2.5h-86q-9 0 -9 7q0 6 4 10l94 120q7 9 12 12t14 3h106q11 0 11 -7z" />
    <glyph glyph-name="Lacute" unicode="&#x139;" horiz-adv-x="502" 
d="M485 27q0 -10 -4.5 -14.5t-15.5 -6.5q-23 -6 -78.5 -10t-91.5 -4q-71 0 -121.5 17t-80 62t-29.5 126v526q0 7 6.5 13.5t13.5 6.5h99q7 0 13.5 -6.5t6.5 -13.5v-526q0 -49 17 -67.5t61 -18.5h184q9 0 14.5 -5.5t5.5 -14.5v-64zM433 940q0 -4 -4 -8l-118 -124
q-6 -7 -10.5 -10t-13.5 -3h-86q-9 0 -9 7q0 6 4 10l95 120q8 9 12.5 12t13.5 3h105q11 0 11 -7z" />
    <glyph glyph-name="lacute" unicode="&#x13a;" horiz-adv-x="252" 
d="M192 21q0 -8 -5.5 -14.5t-13.5 -6.5h-93q-9 0 -14.5 6.5t-5.5 14.5v720q0 8 6 14t14 6h93q8 0 13.5 -6t5.5 -14v-720zM307 941q0 -4 -4 -8l-118 -124q-6 -7 -10.5 -10t-13.5 -3h-86q-9 0 -9 7q0 6 4 10l95 120q8 9 12.5 12t13.5 3h105q11 0 11 -7z" />
    <glyph glyph-name="Lcedilla" horiz-adv-x="611" 
d="M485 27q0 -10 -4.5 -14.5t-15.5 -6.5q-23 -6 -78.5 -10t-91.5 -4q-71 0 -121.5 17t-80 62t-29.5 126v526q0 7 6.5 13.5t13.5 6.5h99q7 0 13.5 -6.5t6.5 -13.5v-526q0 -49 17 -67.5t61 -18.5h184q9 0 14.5 -5.5t5.5 -14.5v-64zM491 -41q0 -4 -4 -8l-119 -123
q-8 -9 -11.5 -11.5t-11.5 -2.5h-86q-9 0 -9 7q0 6 4 10l94 120q7 9 12 12t14 3h106q11 0 11 -7z" />
    <glyph glyph-name="lcedilla" horiz-adv-x="278" 
d="M192 21q0 -8 -5.5 -14.5t-13.5 -6.5h-93q-9 0 -14.5 6.5t-5.5 14.5v720q0 8 6 14t14 6h93q8 0 13.5 -6t5.5 -14v-720zM298 -41q0 -4 -4 -8l-119 -123q-8 -9 -11.5 -11.5t-11.5 -2.5h-86q-9 0 -9 7q0 6 4 10l94 120q7 9 12 12t14 3h106q11 0 11 -7z" />
    <glyph glyph-name="Lcaron" unicode="&#x13d;" horiz-adv-x="502" 
d="M485 27q0 -10 -4.5 -14.5t-15.5 -6.5q-11 -3 -31.5 -5t-44.5 -4t-49 -3.5t-45 -1.5q-49 0 -91 8t-73 30.5t-49 62.5t-18 104v526q0 8 6 14t14 6h99q8 0 14 -6t6 -14v-526q0 -25 4 -41.5t13 -26.5t24 -14t37 -4h184q8 0 14 -6t6 -14v-64zM481 750v-3t-1 -5l-68 -207
q-3 -11 -7.5 -15t-11.5 -4h-88q-5 0 -7 2.5t-2 7.5v4.5t1 4.5l51 207q3 10 7.5 14.5t12.5 4.5h102q11 0 11 -11z" />
    <glyph glyph-name="lcaron" unicode="&#x13e;" horiz-adv-x="394" 
d="M192 21q0 -8 -5.5 -14.5t-13.5 -6.5h-93q-8 0 -14 6.5t-6 14.5v720q0 9 6 14.5t14 5.5h93q8 0 13.5 -5.5t5.5 -14.5v-720zM414 750v-3t-1 -5l-68 -207q-3 -11 -7.5 -15t-11.5 -4h-88q-6 0 -7.5 2.5t-1.5 7.5v4.5t1 4.5l51 207q2 10 7 14.5t13 4.5h102q11 0 11 -11z" />
    <glyph glyph-name="Ldotaccent" unicode="&#x13f;" horiz-adv-x="611" 
d="M485 27q0 -10 -4.5 -14.5t-15.5 -6.5q-23 -6 -78.5 -10t-91.5 -4q-71 0 -121.5 17t-80 62t-29.5 126v526q0 7 6.5 13.5t13.5 6.5h99q7 0 13.5 -6.5t6.5 -13.5v-526q0 -49 17 -67.5t61 -18.5h184q9 0 14.5 -5.5t5.5 -14.5v-64zM499 387q0 -9 -6 -14.5t-14 -5.5h-90
q-8 0 -14 6t-6 14v95q0 8 5.5 13.5t14.5 5.5h90q9 0 14.5 -5t5.5 -14v-95z" />
    <glyph glyph-name="ldotaccent" unicode="&#x140;" horiz-adv-x="395" 
d="M192 21q0 -8 -5.5 -14.5t-13.5 -6.5h-93q-9 0 -14.5 6.5t-5.5 14.5v720q0 8 6 14t14 6h93q8 0 13.5 -6t5.5 -14v-720zM434 388q0 -9 -6 -14.5t-14 -5.5h-90q-8 0 -14 6t-6 14v95q0 8 5.5 13.5t14.5 5.5h90q9 0 14.5 -5t5.5 -14v-95z" />
    <glyph glyph-name="Nacute" unicode="&#x143;" horiz-adv-x="690" 
d="M626 40q0 -17 -11.5 -28.5t-28.5 -11.5h-101q-23 0 -36.5 6.5t-24.5 29.5l-222 487q-4 8 -9 8t-5 -8v-503q0 -9 -5.5 -14.5t-13.5 -5.5h-85q-7 0 -13.5 6t-6.5 14v683q0 17 11.5 28.5t28.5 11.5h108q17 0 26.5 -7t17.5 -25l233 -514q4 -8 8 -8q5 0 5 9v526q0 8 5.5 13.5
t13.5 5.5h86q8 0 13.5 -5.5t5.5 -13.5v-684zM525 938q0 -4 -4 -8l-118 -124q-6 -7 -10.5 -10t-13.5 -3h-86q-9 0 -9 7q0 6 4 10l95 120q8 9 12.5 12t13.5 3h105q11 0 11 -7z" />
    <glyph glyph-name="nacute" unicode="&#x144;" horiz-adv-x="574" 
d="M518 21q0 -8 -6 -14.5t-14 -6.5h-92q-9 0 -14.5 6.5t-5.5 14.5v330q0 40 -9 63t-31 34t-60 11q-46 0 -98 -11v-427q0 -9 -5.5 -15t-14.5 -6h-92q-9 0 -14.5 6.5t-5.5 14.5v500q0 15 20 20q50 14 107.5 22t106.5 8q118 0 173 -52t55 -167v-331zM470 772q0 -4 -4 -8
l-118 -124q-6 -7 -10.5 -10t-13.5 -3h-86q-9 0 -9 7q0 6 4 10l95 120q8 9 12.5 12t13.5 3h105q11 0 11 -7z" />
    <glyph glyph-name="Ncedilla" 
d="M626 40q0 -17 -11.5 -28.5t-28.5 -11.5h-101q-23 0 -36.5 6.5t-24.5 29.5l-222 487q-4 8 -9 8t-5 -8v-503q0 -9 -5.5 -14.5t-13.5 -5.5h-85q-7 0 -13.5 6t-6.5 14v683q0 17 11.5 28.5t28.5 11.5h108q17 0 26.5 -7t17.5 -25l233 -514q4 -8 8 -8q5 0 5 9v526q0 8 5.5 13.5
t13.5 5.5h86q8 0 13.5 -5.5t5.5 -13.5v-684zM336 -41q0 -4 -4 -8l-119 -123q-8 -9 -11.5 -11.5t-11.5 -2.5h-86q-9 0 -9 7q0 6 4 10l94 120q7 9 12 12t14 3h106q11 0 11 -7z" />
    <glyph glyph-name="ncedilla" horiz-adv-x="611" 
d="M518 21q0 -8 -6 -14.5t-14 -6.5h-92q-9 0 -14.5 6.5t-5.5 14.5v330q0 40 -9 63t-31 34t-60 11q-46 0 -98 -11v-427q0 -9 -5.5 -15t-14.5 -6h-92q-9 0 -14.5 6.5t-5.5 14.5v500q0 15 20 20q50 14 107.5 22t106.5 8q118 0 173 -52t55 -167v-331zM324 -41q0 -4 -4 -8
l-119 -123q-8 -9 -11.5 -11.5t-11.5 -2.5h-86q-9 0 -9 7q0 6 4 10l94 120q7 9 12 12t14 3h106q11 0 11 -7z" />
    <glyph glyph-name="Ncaron" unicode="&#x147;" horiz-adv-x="690" 
d="M626 40q0 -17 -11.5 -28.5t-28.5 -11.5h-101q-23 0 -36.5 6.5t-24.5 29.5l-222 487q-4 8 -9 8t-5 -8v-503q0 -9 -5.5 -14.5t-13.5 -5.5h-85q-7 0 -13.5 6t-6.5 14v683q0 17 11.5 28.5t28.5 11.5h108q17 0 26.5 -7t17.5 -25l233 -514q4 -8 8 -8q5 0 5 9v526q0 8 5.5 13.5
t13.5 5.5h86q8 0 13.5 -5.5t5.5 -13.5v-684z" />
    <glyph glyph-name="ncaron" unicode="&#x148;" horiz-adv-x="574" 
d="M518 21q0 -8 -6 -14.5t-14 -6.5h-92q-9 0 -14.5 6.5t-5.5 14.5v330q0 40 -9 63t-31 34t-60 11q-46 0 -98 -11v-427q0 -9 -5.5 -15t-14.5 -6h-92q-9 0 -14.5 6.5t-5.5 14.5v500q0 15 20 20q50 14 107.5 22t106.5 8q118 0 173 -52t55 -167v-331z" />
    <glyph glyph-name="napostrophe" unicode="&#x149;" horiz-adv-x="611" 
d="M518 21q0 -8 -6 -14.5t-14 -6.5h-92q-9 0 -14.5 6.5t-5.5 14.5v330q0 40 -9 63t-31 34t-60 11q-46 0 -98 -11v-427q0 -9 -5.5 -15t-14.5 -6h-92q-9 0 -14.5 6.5t-5.5 14.5v500q0 15 20 20q50 14 107.5 22t106.5 8q118 0 173 -52t55 -167v-331zM218 906l-2 -7l-87 -210
q-8 -20 -19 -20h-77q-7 0 -11 4t-4 10q0 4 1 6l61 210q7 19 20 19h104q14 0 14 -12z" />
    <glyph glyph-name="Omacron" unicode="&#x14c;" horiz-adv-x="664" 
d="M617 304q0 -106 -36 -176t-100.5 -103t-148.5 -33t-148.5 33t-100.5 103t-36 176v135q0 106 36 176.5t100.5 103t148.5 32.5t148.5 -32.5t100.5 -103t36 -176.5v-135zM477 304v135q0 99 -35.5 145t-109.5 46t-109.5 -46t-35.5 -145v-135q0 -98 35.5 -144.5t109.5 -46.5
t109.5 46.5t35.5 144.5z" />
    <glyph glyph-name="omacron" unicode="&#x14d;" horiz-adv-x="560" 
d="M519 241q0 -71 -27.5 -128t-81.5 -89t-130 -32t-130 32t-81.5 89t-27.5 128v81q0 71 27.5 128t81.5 89t130 32t130 -32t81.5 -89t27.5 -128v-81zM387 241v81q0 62 -27.5 98.5t-79.5 36.5t-79.5 -36.5t-27.5 -98.5v-81q0 -62 28 -98.5t79 -36.5q52 0 79.5 36.5t27.5 98.5z
" />
    <glyph glyph-name="Obreve" unicode="&#x14e;" horiz-adv-x="778" 
d="M617 304q0 -106 -36 -176t-100.5 -103t-148.5 -33t-148.5 33t-100.5 103t-36 176v135q0 106 36 176.5t100.5 103t148.5 32.5t148.5 -32.5t100.5 -103t36 -176.5v-135zM477 304v135q0 99 -35.5 145t-109.5 46t-109.5 -46t-35.5 -145v-135q0 -98 35.5 -144.5t109.5 -46.5
t109.5 46.5t35.5 144.5zM622 982q0 -1 -0.5 -1.5t-0.5 -2.5q-14 -63 -58 -104t-119 -41t-118.5 40.5t-58.5 104.5q0 2 -0.5 2.5t-0.5 1.5q0 7 10 7h75q10 0 13 -12q18 -66 80 -66q63 0 80 66q3 12 13 12h75q10 0 10 -7z" />
    <glyph glyph-name="obreve" unicode="&#x14f;" horiz-adv-x="611" 
d="M519 241q0 -71 -27.5 -128t-81.5 -89t-130 -32t-130 32t-81.5 89t-27.5 128v81q0 71 27.5 128t81.5 89t130 32t130 -32t81.5 -89t27.5 -128v-81zM387 241v81q0 62 -27.5 98.5t-79.5 36.5t-79.5 -36.5t-27.5 -98.5v-81q0 -62 28 -98.5t79 -36.5q52 0 79.5 36.5t27.5 98.5z
M536 795q0 -1 -0.5 -1.5t-0.5 -2.5q-14 -63 -58 -104t-119 -41t-118.5 40.5t-58.5 104.5q0 2 -0.5 2.5t-0.5 1.5q0 7 10 7h75q10 0 13 -12q18 -66 80 -66q63 0 80 66q3 12 13 12h75q10 0 10 -7z" />
    <glyph glyph-name="Ohungarumlaut" unicode="&#x150;" horiz-adv-x="664" 
d="M617 304q0 -106 -36 -176t-100.5 -103t-148.5 -33t-148.5 33t-100.5 103t-36 176v135q0 106 36 176.5t100.5 103t148.5 32.5t148.5 -32.5t100.5 -103t36 -176.5v-135zM477 304v135q0 99 -35.5 145t-109.5 46t-109.5 -46t-35.5 -145v-135q0 -98 35.5 -144.5t109.5 -46.5
t109.5 46.5t35.5 144.5z" />
    <glyph glyph-name="ohungarumlaut" unicode="&#x151;" horiz-adv-x="560" 
d="M519 241q0 -71 -27.5 -128t-81.5 -89t-130 -32t-130 32t-81.5 89t-27.5 128v81q0 71 27.5 128t81.5 89t130 32t130 -32t81.5 -89t27.5 -128v-81zM387 241v81q0 62 -27.5 98.5t-79.5 36.5t-79.5 -36.5t-27.5 -98.5v-81q0 -62 28 -98.5t79 -36.5q52 0 79.5 36.5t27.5 98.5z
" />
    <glyph glyph-name="Racute" unicode="&#x154;" horiz-adv-x="637" 
d="M604 12q0 -12 -12 -12h-122q-7 0 -10.5 4.5t-9.5 15.5l-144 267h-14q-8 0 -35 1.5t-35 2t-19 0.5v-271q0 -9 -5.5 -14.5t-13.5 -5.5h-100q-7 0 -13.5 6t-6.5 14v688q0 14 8 20.5t24 9.5q82 13 196 13q128 0 208 -53t80 -173v-9q0 -77 -35.5 -128t-99.5 -76l157 -292
q2 -3 2 -8zM442 516v9q0 56 -37 81.5t-113 25.5q-11 0 -45 -1.5t-44 -2.5v-225q48 -3 89 -3q79 0 114.5 26t35.5 90zM486 940q0 -4 -4 -8l-118 -124q-6 -7 -10.5 -10t-13.5 -3h-86q-9 0 -9 7q0 6 4 10l95 120q8 9 12.5 12t13.5 3h105q11 0 11 -7z" />
    <glyph glyph-name="racute" unicode="&#x155;" horiz-adv-x="364" 
d="M331 458q-10 0 -19 0.5t-26 0.5q-46 0 -98 -11v-427q0 -9 -5.5 -15t-14.5 -6h-92q-9 0 -14.5 6.5t-5.5 14.5v500q0 15 20 20q50 14 107.5 22t106.5 8q25 0 41 -2q20 -2 20 -19v-72q0 -20 -20 -20zM386 772q0 -4 -4 -8l-118 -124q-6 -7 -10.5 -10t-13.5 -3h-86q-9 0 -9 7
q0 6 4 10l95 120q8 9 12.5 12t13.5 3h105q11 0 11 -7z" />
    <glyph glyph-name="Rcedilla" 
d="M604 12q0 -12 -12 -12h-122q-7 0 -10.5 4.5t-9.5 15.5l-144 267h-14q-8 0 -35 1.5t-35 2t-19 0.5v-271q0 -9 -5.5 -14.5t-13.5 -5.5h-100q-7 0 -13.5 6t-6.5 14v688q0 14 8 20.5t24 9.5q82 13 196 13q128 0 208 -53t80 -173v-9q0 -77 -35.5 -128t-99.5 -76l157 -292
q2 -3 2 -8zM442 516v9q0 56 -37 81.5t-113 25.5q-11 0 -45 -1.5t-44 -2.5v-225q48 -3 89 -3q79 0 114.5 26t35.5 90zM350 -41q0 -4 -4 -8l-119 -123q-8 -9 -11.5 -11.5t-11.5 -2.5h-86q-9 0 -9 7q0 6 4 10l94 120q7 9 12 12t14 3h106q11 0 11 -7z" />
    <glyph glyph-name="rcedilla" horiz-adv-x="389" 
d="M331 458q-10 0 -19 0.5t-26 0.5q-46 0 -98 -11v-427q0 -9 -5.5 -15t-14.5 -6h-92q-9 0 -14.5 6.5t-5.5 14.5v500q0 15 20 20q50 14 107.5 22t106.5 8q25 0 41 -2q20 -2 20 -19v-72q0 -20 -20 -20zM330 -41q0 -4 -4 -8l-119 -123q-8 -9 -11.5 -11.5t-11.5 -2.5h-86
q-9 0 -9 7q0 6 4 10l94 120q7 9 12 12t14 3h106q11 0 11 -7z" />
    <glyph glyph-name="Rcaron" unicode="&#x158;" horiz-adv-x="637" 
d="M604 12q0 -12 -12 -12h-122q-7 0 -10.5 4.5t-9.5 15.5l-144 267h-14q-8 0 -35 1.5t-35 2t-19 0.5v-271q0 -9 -5.5 -14.5t-13.5 -5.5h-100q-7 0 -13.5 6t-6.5 14v688q0 14 8 20.5t24 9.5q82 13 196 13q128 0 208 -53t80 -173v-9q0 -77 -35.5 -128t-99.5 -76l157 -292
q2 -3 2 -8zM442 516v9q0 56 -37 81.5t-113 25.5q-11 0 -45 -1.5t-44 -2.5v-225q48 -3 89 -3q79 0 114.5 26t35.5 90z" />
    <glyph glyph-name="rcaron" unicode="&#x159;" horiz-adv-x="364" 
d="M331 458q-10 0 -19 0.5t-26 0.5q-46 0 -98 -11v-427q0 -9 -5.5 -15t-14.5 -6h-92q-9 0 -14.5 6.5t-5.5 14.5v500q0 15 20 20q50 14 107.5 22t106.5 8q25 0 41 -2q20 -2 20 -19v-72q0 -20 -20 -20z" />
    <glyph glyph-name="Sacute" unicode="&#x15a;" horiz-adv-x="557" 
d="M254 111q64 0 91 22t27 68q0 29 -17 49t-66 49l-132 79q-45 27 -71 55.5t-36.5 60t-10.5 67.5q0 88 58 139t185 51q50 0 98 -12t74 -27q11 -6 16.5 -12t5.5 -15v-68q0 -24 -25 -15q-27 10 -77.5 20t-90.5 10q-105 0 -105 -70q0 -24 16.5 -41t65.5 -46l120 -71
q53 -31 82.5 -62.5t41 -64.5t11.5 -76q0 -55 -25 -102t-82.5 -77t-149.5 -30q-62 0 -113 14.5t-71 25.5q-14 9 -18 13.5t-4 13.5v68q0 23 25 15q97 -31 177 -31zM439 940q0 -4 -4 -8l-118 -124q-6 -7 -10.5 -10t-13.5 -3h-86q-9 0 -9 7q0 6 4 10l95 120q8 9 12.5 12t13.5 3
h105q11 0 11 -7z" />
    <glyph glyph-name="sacute" unicode="&#x15b;" horiz-adv-x="477" 
d="M228 100q46 0 61 12t15 32q0 17 -9.5 28.5t-34.5 26.5l-137 84q-39 24 -61.5 59.5t-22.5 78.5q0 150 190 150q99 0 175 -33q11 -4 16 -10t5 -16v-61q0 -22 -21 -16q-88 28 -161 28q-38 0 -55 -8.5t-17 -28.5q0 -11 4.5 -18.5t12.5 -13t23 -14.5l131 -80q57 -35 76.5 -70
t19.5 -75q0 -48 -22 -85t-66.5 -57.5t-107.5 -20.5q-99 0 -176 33q-13 6 -17 11.5t-4 14.5v61q0 22 21 16q88 -28 162 -28zM417 772q0 -4 -4 -8l-118 -124q-6 -7 -10.5 -10t-13.5 -3h-86q-9 0 -9 7q0 6 4 10l95 120q8 9 12.5 12t13.5 3h105q11 0 11 -7z" />
    <glyph glyph-name="Scircumflex" unicode="&#x15c;" horiz-adv-x="667" 
d="M254 111q64 0 91 22t27 68q0 29 -17 49t-66 49l-132 79q-45 27 -71 55.5t-36.5 60t-10.5 67.5q0 88 58 139t185 51q50 0 98 -12t74 -27q11 -6 16.5 -12t5.5 -15v-68q0 -24 -25 -15q-27 10 -77.5 20t-90.5 10q-105 0 -105 -70q0 -24 16.5 -41t65.5 -46l120 -71
q53 -31 82.5 -62.5t41 -64.5t11.5 -76q0 -55 -25 -102t-82.5 -77t-149.5 -30q-62 0 -113 14.5t-71 25.5q-14 9 -18 13.5t-4 13.5v68q0 23 25 15q97 -31 177 -31zM595 839q0 -7 -9 -7h-83q-6 0 -9.5 1.5t-7 5l-6.5 6.5l-71 81l-71 -81q-8 -8 -11.5 -10.5t-12.5 -2.5h-83
q-9 0 -9 7q0 6 4 10l92 120q9 10 13 12.5t13 2.5h130q9 0 13.5 -3t12.5 -12l91 -120q4 -4 4 -10z" />
    <glyph glyph-name="scircumflex" unicode="&#x15d;" horiz-adv-x="556" 
d="M228 100q46 0 61 12t15 32q0 17 -9.5 28.5t-34.5 26.5l-137 84q-39 24 -61.5 59.5t-22.5 78.5q0 150 190 150q99 0 175 -33q11 -4 16 -10t5 -16v-61q0 -22 -21 -16q-88 28 -161 28q-38 0 -55 -8.5t-17 -28.5q0 -11 4.5 -18.5t12.5 -13t23 -14.5l131 -80q57 -35 76.5 -70
t19.5 -75q0 -48 -22 -85t-66.5 -57.5t-107.5 -20.5q-99 0 -176 33q-13 6 -17 11.5t-4 14.5v61q0 22 21 16q88 -28 162 -28zM528 655q0 -7 -9 -7h-83q-6 0 -9.5 1.5t-7 5l-6.5 6.5l-71 81l-71 -81q-8 -8 -11.5 -10.5t-12.5 -2.5h-83q-9 0 -9 7q0 6 4 10l92 120q9 10 13 12.5
t13 2.5h130q9 0 13.5 -3t12.5 -12l91 -120q4 -4 4 -10z" />
    <glyph glyph-name="Tcedilla" unicode="&#x162;" horiz-adv-x="573" 
d="M551 645q0 -8 -6 -13t-14 -5h-175v-607q0 -8 -6 -14t-14 -6h-99q-8 0 -14 6t-6 14v607h-175q-8 0 -14 5t-6 13v79q0 8 6 13.5t14 5.5h489q8 0 14 -5.5t6 -13.5v-79zM354 -63q0 -1 -0.5 -2.5l-1.5 -4.5l-53 -108q-4 -9 -9 -14.5t-13 -5.5h-66q-7 0 -11 2.5t-4 9.5v3t1 5
l27 108q3 9 7.5 14t12.5 5h96q8 0 11 -3.5t3 -8.5z" />
    <glyph glyph-name="tcedilla" unicode="&#x163;" horiz-adv-x="399" 
d="M382 17q0 -15 -19 -18q-18 -3 -40 -5t-39 -2q-42 0 -72.5 6t-49.5 23.5t-28 48.5t-9 81v314l-83 14q-8 1 -14 6.5t-6 13.5v45q0 8 6 14t14 6h83v82q0 8 6 13.5t14 6.5l93 16h4q7 0 11.5 -4t4.5 -11v-103h101q8 0 14 -6t6 -14v-59q0 -8 -6 -14t-14 -6h-101v-314
q0 -19 1 -30t5 -16.5t12 -7.5t21 -2h64q21 0 21 -15v-63zM279 -63q0 -1 -0.5 -2.5l-1.5 -4.5l-53 -108q-4 -9 -9 -14.5t-13 -5.5h-66q-15 0 -15 12v3t1 5l27 108q2 9 7 14t13 5h96q7 0 10.5 -3.5t3.5 -8.5z" />
    <glyph glyph-name="Tcaron" unicode="&#x164;" horiz-adv-x="573" 
d="M551 645q0 -9 -6 -13.5t-14 -4.5h-175v-607q0 -9 -6 -14.5t-14 -5.5h-99q-8 0 -14 6t-6 14v607h-175q-8 0 -14 5t-6 13v79q0 8 5.5 13.5t14.5 5.5h489q9 0 14.5 -5t5.5 -14v-79z" />
    <glyph glyph-name="tcaron" unicode="&#x165;" horiz-adv-x="399" 
d="M423 750v-3t-1 -5l-47 -126q-3 -11 -7 -15t-12 -4h-64q-5 0 -7 3t-2 7v4.5t1 4.5l30 126q2 10 7.5 14.5t12.5 4.5h78q11 0 11 -11zM382 17q0 -15 -19 -18q-18 -3 -40 -5t-39 -2q-42 0 -72.5 6t-49.5 23.5t-28 48.5t-9 81v314l-83 14q-8 1 -14 6.5t-6 13.5v45q0 8 6 14
t14 6h83v82q0 8 6 13.5t14 6.5l93 16h4q7 0 11.5 -4t4.5 -11v-103h101q8 0 14 -6t6 -14v-59q0 -8 -6 -14t-14 -6h-101v-314q0 -19 1 -30t5 -16.5t12 -7.5t21 -2h64q21 0 21 -15v-63z" />
    <glyph glyph-name="Tbar" unicode="&#x166;" horiz-adv-x="611" 
d="M551 645q0 -9 -6 -13.5t-14 -4.5h-175v-607q0 -9 -6 -14.5t-14 -5.5h-99q-8 0 -14 6t-6 14v607h-175q-8 0 -14 5t-6 13v79q0 8 5.5 13.5t14.5 5.5h489q9 0 14.5 -5t5.5 -14v-79zM546 378q0 -9 -6 -13.5t-14 -4.5h-310q-8 0 -14 5t-6 13v57q0 8 5.5 13t14.5 5h310
q9 0 14.5 -4.5t5.5 -13.5v-57z" />
    <glyph glyph-name="tbar" unicode="&#x167;" horiz-adv-x="333" 
d="M382 17q0 -15 -19 -18q-42 -7 -79 -7q-59 0 -93 12t-50 46t-16 101v314l-83 14q-20 3 -20 20v45q0 8 5.5 14t14.5 6h83v82q0 17 20 20l93 16h4q16 0 16 -15v-103h101q9 0 14.5 -5.5t5.5 -14.5v-59q0 -8 -6 -14t-14 -6h-101v-314q0 -37 6.5 -46.5t32.5 -9.5h64
q21 0 21 -15v-63zM398 351q0 -9 -6 -13.5t-14 -4.5h-310q-8 0 -14 5t-6 13v57q0 8 5.5 13t14.5 5h310q9 0 14.5 -4.5t5.5 -13.5v-57z" />
    <glyph glyph-name="Utilde" unicode="&#x168;" 
d="M610 275q0 -79 -19.5 -133t-55.5 -87t-87 -48t-113 -15q-63 0 -113 15t-86 47.5t-56 88t-20 132.5v449q0 8 5.5 13.5t14.5 5.5h99q8 0 14 -5.5t6 -13.5v-449q0 -60 12 -96t41.5 -54t82.5 -18t83 18t41.5 54t11.5 96v449q0 8 5.5 13.5t14.5 5.5h99q9 0 14.5 -5t5.5 -14
v-449zM669 943q0 -112 -111 -112q-17 0 -35.5 6t-34.5 17l-44 33q-28 21 -42 21q-28 0 -28 -34v-21q0 -16 -14 -16h-57q-14 0 -14 16v21q0 112 112 112q39 0 69 -22l44 -33q26 -20 42 -20q28 0 28 33v21q0 16 14 16h57q14 0 14 -16v-22z" />
    <glyph glyph-name="utilde" unicode="&#x169;" horiz-adv-x="611" 
d="M56 543q0 8 5.5 14.5t14.5 6.5h92q9 0 14.5 -6t5.5 -15v-330q0 -29 5 -49t16.5 -33.5t30.5 -19.5t48 -6q49 0 98 11v427q0 8 5.5 14.5t14.5 6.5h92q8 0 14 -6.5t6 -14.5v-500q0 -15 -20 -20q-54 -15 -109.5 -22.5t-104.5 -7.5q-60 0 -101.5 12.5t-70.5 39.5t-42.5 68
t-13.5 99v331zM602 758q0 -112 -111 -112q-17 0 -35.5 6t-34.5 17l-44 33q-28 21 -42 21q-28 0 -28 -34v-21q0 -16 -14 -16h-57q-14 0 -14 16v21q0 112 112 112q39 0 69 -22l44 -33q26 -20 42 -20q28 0 28 33v21q0 16 14 16h57q14 0 14 -16v-22z" />
    <glyph glyph-name="Umacron" unicode="&#x16a;" horiz-adv-x="670" 
d="M610 275q0 -79 -19.5 -133t-55.5 -87t-87 -48t-113 -15q-63 0 -113 15t-86 47.5t-56 88t-20 132.5v449q0 8 5.5 13.5t14.5 5.5h99q8 0 14 -5.5t6 -13.5v-449q0 -60 12 -96t41.5 -54t82.5 -18t83 18t41.5 54t11.5 96v449q0 8 5.5 13.5t14.5 5.5h99q9 0 14.5 -5t5.5 -14
v-449z" />
    <glyph glyph-name="umacron" unicode="&#x16b;" horiz-adv-x="574" 
d="M56 543q0 8 5.5 14.5t14.5 6.5h92q9 0 14.5 -6t5.5 -15v-330q0 -29 5 -49t16.5 -33.5t30.5 -19.5t48 -6q49 0 98 11v427q0 8 5.5 14.5t14.5 6.5h92q8 0 14 -6.5t6 -14.5v-500q0 -15 -20 -20q-54 -15 -109.5 -22.5t-104.5 -7.5q-60 0 -101.5 12.5t-70.5 39.5t-42.5 68
t-13.5 99v331z" />
    <glyph glyph-name="Ubreve" unicode="&#x16c;" 
d="M610 275q0 -79 -19.5 -133t-55.5 -87t-87 -48t-113 -15q-63 0 -113 15t-86 47.5t-56 88t-20 132.5v449q0 8 5.5 13.5t14.5 5.5h99q8 0 14 -5.5t6 -13.5v-449q0 -60 12 -96t41.5 -54t82.5 -18t83 18t41.5 54t11.5 96v449q0 8 5.5 13.5t14.5 5.5h99q9 0 14.5 -5t5.5 -14
v-449zM608 951q0 -1 -0.5 -1.5t-0.5 -2.5q-14 -63 -58 -104t-119 -41t-118.5 40.5t-58.5 104.5q0 2 -0.5 2.5t-0.5 1.5q0 7 10 7h75q10 0 13 -12q18 -66 80 -66q63 0 80 66q3 12 13 12h75q10 0 10 -7z" />
    <glyph glyph-name="ubreve" unicode="&#x16d;" horiz-adv-x="611" 
d="M56 543q0 8 5.5 14.5t14.5 6.5h92q9 0 14.5 -6t5.5 -15v-330q0 -29 5 -49t16.5 -33.5t30.5 -19.5t48 -6q49 0 98 11v427q0 8 5.5 14.5t14.5 6.5h92q8 0 14 -6.5t6 -14.5v-500q0 -15 -20 -20q-54 -15 -109.5 -22.5t-104.5 -7.5q-60 0 -101.5 12.5t-70.5 39.5t-42.5 68
t-13.5 99v331zM556 776q0 -1 -0.5 -1.5t-0.5 -2.5q-14 -63 -58 -104t-119 -41t-118.5 40.5t-58.5 104.5q0 2 -0.5 2.5t-0.5 1.5q0 7 10 7h75q10 0 13 -12q18 -66 80 -66q63 0 80 66q3 12 13 12h75q10 0 10 -7z" />
    <glyph glyph-name="Uring" unicode="&#x16e;" horiz-adv-x="670" 
d="M610 275q0 -79 -19.5 -133t-55.5 -87t-87 -48t-113 -15q-63 0 -113 15t-86 47.5t-56 88t-20 132.5v449q0 8 5.5 13.5t14.5 5.5h99q8 0 14 -5.5t6 -13.5v-449q0 -60 12 -96t41.5 -54t82.5 -18t83 18t41.5 54t11.5 96v449q0 8 5.5 13.5t14.5 5.5h99q9 0 14.5 -5t5.5 -14
v-449z" />
    <glyph glyph-name="uring" unicode="&#x16f;" horiz-adv-x="574" 
d="M56 543q0 8 5.5 14.5t14.5 6.5h92q9 0 14.5 -6t5.5 -15v-330q0 -29 5 -49t16.5 -33.5t30.5 -19.5t48 -6q49 0 98 11v427q0 8 5.5 14.5t14.5 6.5h92q8 0 14 -6.5t6 -14.5v-500q0 -15 -20 -20q-54 -15 -109.5 -22.5t-104.5 -7.5q-60 0 -101.5 12.5t-70.5 39.5t-42.5 68
t-13.5 99v331z" />
    <glyph glyph-name="Uhungarumlaut" unicode="&#x170;" horiz-adv-x="670" 
d="M610 275q0 -79 -19.5 -133t-55.5 -87t-87 -48t-113 -15q-63 0 -113 15t-86 47.5t-56 88t-20 132.5v449q0 8 5.5 13.5t14.5 5.5h99q8 0 14 -5.5t6 -13.5v-449q0 -60 12 -96t41.5 -54t82.5 -18t83 18t41.5 54t11.5 96v449q0 8 5.5 13.5t14.5 5.5h99q9 0 14.5 -5t5.5 -14
v-449z" />
    <glyph glyph-name="uhungarumlaut" unicode="&#x171;" horiz-adv-x="574" 
d="M56 543q0 8 5.5 14.5t14.5 6.5h92q9 0 14.5 -6t5.5 -15v-330q0 -29 5 -49t16.5 -33.5t30.5 -19.5t48 -6q49 0 98 11v427q0 8 5.5 14.5t14.5 6.5h92q8 0 14 -6.5t6 -14.5v-500q0 -15 -20 -20q-54 -15 -109.5 -22.5t-104.5 -7.5q-60 0 -101.5 12.5t-70.5 39.5t-42.5 68
t-13.5 99v331z" />
    <glyph glyph-name="Uogonek" unicode="&#x172;" horiz-adv-x="670" 
d="M390 -30q-19 -12 -30.5 -20.5t-17.5 -14t-7.5 -10.5t-1.5 -11q0 -9 7 -14t18 -5q14 0 27.5 1.5t25 3t19 3t10.5 1.5q7 0 8.5 -2.5t1.5 -9.5v-58q0 -5 -1.5 -8t-9.5 -7q-5 -3 -14 -6t-22 -6.5t-30 -5.5t-37 -2q-24 0 -47 6t-41 17t-28.5 28.5t-10.5 40.5q0 20 3.5 34
t12 25.5t21.5 22t32 23.5q-49 6 -89 24t-68.5 51t-44.5 83.5t-16 120.5v449q0 8 6 13.5t14 5.5h99q8 0 14 -5.5t6 -13.5v-449q0 -43 6 -74.5t21.5 -52.5t41.5 -31t67 -10q40 0 66.5 10t42 31t21.5 52.5t6 74.5v449q0 8 6 13.5t14 5.5h99q8 0 14 -5.5t6 -13.5v-449
q0 -61 -12 -106.5t-34 -78t-52.5 -53.5t-68.5 -32z" />
    <glyph glyph-name="uogonek" unicode="&#x173;" horiz-adv-x="574" 
d="M56 543q0 8 6 14.5t14 6.5h92q8 0 14 -6.5t6 -14.5v-330q0 -29 5 -49.5t16.5 -33.5t30.5 -19t48 -6q12 0 26.5 1t28 3t25 4t18.5 3v427q0 8 5.5 14.5t14.5 6.5h92q8 0 14 -6.5t6 -14.5v-511q0 -6 -4 -8q-38 -25 -60.5 -43.5t-34 -31t-15 -21t-3.5 -14.5q0 -9 7 -14t18 -5
q14 0 27.5 1.5t25 3t19 3t10.5 1.5q7 0 8.5 -2.5t1.5 -9.5v-58q0 -5 -1.5 -8t-9.5 -7q-6 -3 -14.5 -6t-21.5 -6.5t-30 -5.5t-37 -2q-25 0 -48 3.5t-40.5 13.5t-28 29t-10.5 50q0 30 15 53.5t43 46.5q-14 -1 -26.5 -1.5t-24.5 -0.5q-58 0 -101 12.5t-71.5 39t-42 68
t-13.5 99.5v331z" />
    <glyph glyph-name="Wcircumflex" unicode="&#x174;" horiz-adv-x="944" 
d="M835 729v-3l-94 -653q-6 -45 -27.5 -63t-62.5 -18h-54q-35 0 -54 18t-29 62l-79 330q-2 11 -6 11q-5 0 -7 -11l-79 -330q-10 -44 -29.5 -62t-53.5 -18h-54q-21 0 -35.5 4t-25.5 13.5t-18 25t-11 38.5l-94 653v3q0 14 17 14h106q5 0 11 -5.5t6 -12.5l72 -597q1 -15 5 -15
q3 0 3.5 2.5l2.5 12.5l86 351q11 45 63 45h69q52 0 63 -45l86 -351l2.5 -12.5t3.5 -2.5q4 0 5 15l72 597q0 7 6 12.5t11 5.5h106q7 0 12 -4t5 -10zM731 833q0 -7 -9 -7h-83q-6 0 -9.5 1.5t-7 5l-6.5 6.5l-71 81l-71 -81q-8 -8 -11.5 -10.5t-12.5 -2.5h-83q-9 0 -9 7
q0 6 4 10l92 120q9 10 13 12.5t13 2.5h130q9 0 13.5 -3t12.5 -12l91 -120q4 -4 4 -10z" />
    <glyph glyph-name="wcircumflex" unicode="&#x175;" horiz-adv-x="778" 
d="M316 532h141l81 -383l83 383h145l-154 -532h-143l-84 388l-84 -388h-145l-149 532h149l83 -382zM573 641h-114l-63 82l-64 -82h-113l114 146h125z" />
    <glyph glyph-name="Ycircumflex" unicode="&#x176;" horiz-adv-x="667" 
d="M587 728q0 -2 -2 -8l-152 -347q-25 -58 -61 -73v-280q0 -9 -5.5 -14.5t-13.5 -5.5h-100q-8 0 -13.5 5.5t-5.5 14.5v280q-36 15 -61 73l-151 347q-2 6 -2 8q0 7 4 11t12 4h111q13 0 19 -16l120 -298q8 -20 17 -20q10 0 18 20l120 298q6 16 19 16h110q7 0 12 -4t5 -11z
M593 836q0 -7 -9 -7h-83q-6 0 -9.5 1.5t-7 5l-6.5 6.5l-71 81l-71 -81q-8 -8 -11.5 -10.5t-12.5 -2.5h-83q-9 0 -9 7q0 6 4 10l92 120q9 10 13 12.5t13 2.5h130q9 0 13.5 -3t12.5 -12l91 -120q4 -4 4 -10z" />
    <glyph glyph-name="ycircumflex" unicode="&#x177;" horiz-adv-x="556" 
d="M532 547q0 -4 -1 -6l-167 -584q-17 -59 -38.5 -92t-60 -49t-105.5 -16q-25 0 -56 4t-50 9q-21 5 -21 17v64q0 7 6 12.5t14 5.5h2q13 0 56 -3t57 -3q22 0 37 5.5t25 19t17 39.5l8 30h-15q-17 0 -32.5 5.5t-30 23.5t-24.5 54l-131 458q-1 3 -1 7q0 16 19 16h101
q7 0 12.5 -5.5t6.5 -12.5l101 -407q5 -22 14 -22h1h5h3l108 430q4 17 20 17h102q7 0 12.5 -5t5.5 -12zM538 675q0 -7 -9 -7h-83q-6 0 -9.5 1.5t-7 5l-6.5 6.5l-71 81l-71 -81q-8 -8 -11.5 -10.5t-12.5 -2.5h-83q-9 0 -9 7q0 6 4 10l92 120q9 10 13 12.5t13 2.5h130
q9 0 13.5 -3t12.5 -12l91 -120q4 -4 4 -10z" />
    <glyph glyph-name="Zacute" unicode="&#x179;" horiz-adv-x="576" 
d="M542 20q0 -9 -6 -14.5t-14 -5.5h-437q-51 0 -51 37v55q0 19 13 38l317 475q3 4 3 9q0 8 -10 8h-278q-19 0 -19 18v84q0 8 5.5 13.5t13.5 5.5h403q23 0 38 -9.5t15 -28.5v-58q0 -19 -14 -41l-312 -467q-4 -6 -4 -11q0 -6 9 -6h308q9 0 14.5 -4.5t5.5 -13.5v-84zM475 941
q0 -4 -4 -8l-118 -124q-6 -7 -10.5 -10t-13.5 -3h-86q-9 0 -9 7q0 6 4 10l95 120q8 9 12.5 12t13.5 3h105q11 0 11 -7z" />
    <glyph glyph-name="zacute" unicode="&#x17a;" horiz-adv-x="478" 
d="M444 20q0 -9 -6 -14.5t-14 -5.5h-350q-16 0 -28 11.5t-12 28.5v43q0 15 13 32l242 333q3 5 3 6q0 3 -6 3h-226q-8 0 -13 4t-5 12v71q0 8 5.5 14t14.5 6h340q16 0 28 -12t12 -29v-57q0 -5 -1.5 -12.5t-3.5 -10.5l-233 -319l-2 -3q0 -4 6 -4h218q8 0 13 -4.5t5 -11.5v-81z
M427 772q0 -4 -4 -8l-118 -124q-6 -7 -10.5 -10t-13.5 -3h-86q-9 0 -9 7q0 6 4 10l95 120q8 9 12.5 12t13.5 3h105q11 0 11 -7z" />
    <glyph glyph-name="Zdotaccent" unicode="&#x17b;" horiz-adv-x="576" 
d="M542 20q0 -9 -6 -14.5t-14 -5.5h-437q-51 0 -51 37v55q0 19 13 38l317 475q3 4 3 9q0 8 -10 8h-278q-19 0 -19 18v84q0 8 5.5 13.5t13.5 5.5h403q23 0 38 -9.5t15 -28.5v-58q0 -19 -14 -41l-312 -467q-4 -6 -4 -11q0 -6 9 -6h308q9 0 14.5 -4.5t5.5 -13.5v-84z" />
    <glyph glyph-name="zdotaccent" unicode="&#x17c;" horiz-adv-x="478" 
d="M444 20q0 -9 -6 -14.5t-14 -5.5h-350q-16 0 -28 11.5t-12 28.5v43q0 15 13 32l242 333q3 5 3 6q0 3 -6 3h-226q-8 0 -13 4t-5 12v71q0 8 5.5 14t14.5 6h340q16 0 28 -12t12 -29v-57q0 -5 -1.5 -12.5t-3.5 -10.5l-233 -319l-2 -3q0 -4 6 -4h218q8 0 13 -4.5t5 -11.5v-81z
" />
    <glyph glyph-name="Scommaaccent" unicode="&#x218;" horiz-adv-x="557" 
d="M254 111q64 0 91 22t27 68q0 29 -17 49t-66 49l-132 79q-45 27 -71 55.5t-36.5 60t-10.5 67.5q0 88 58 139t185 51q50 0 98 -12t74 -27q11 -6 16.5 -12t5.5 -15v-68q0 -24 -25 -15q-27 10 -77.5 20t-90.5 10q-105 0 -105 -70q0 -24 16.5 -41t65.5 -46l120 -71
q53 -31 82.5 -62.5t41 -64.5t11.5 -76q0 -55 -25 -102t-82.5 -77t-149.5 -30q-62 0 -113 14.5t-71 25.5q-14 9 -18 13.5t-4 13.5v68q0 23 25 15q97 -31 177 -31z" />
    <glyph glyph-name="scommaaccent" unicode="&#x219;" horiz-adv-x="477" 
d="M228 100q46 0 61 12t15 32q0 17 -9.5 28.5t-34.5 26.5l-137 84q-39 24 -61.5 59.5t-22.5 78.5q0 150 190 150q99 0 175 -33q11 -4 16 -10t5 -16v-61q0 -22 -21 -16q-88 28 -161 28q-38 0 -55 -8.5t-17 -28.5q0 -11 4.5 -18.5t12.5 -13t23 -14.5l131 -80q57 -35 76.5 -70
t19.5 -75q0 -48 -22 -85t-66.5 -57.5t-107.5 -20.5q-99 0 -176 33q-13 6 -17 11.5t-4 14.5v61q0 22 21 16q88 -28 162 -28z" />
    <glyph glyph-name="Tcommaaccent" unicode="&#x21a;" horiz-adv-x="573" 
d="M551 645q0 -9 -6 -13.5t-14 -4.5h-175v-607q0 -9 -6 -14.5t-14 -5.5h-99q-8 0 -14 6t-6 14v607h-175q-8 0 -14 5t-6 13v79q0 8 5.5 13.5t14.5 5.5h489q9 0 14.5 -5t5.5 -14v-79z" />
    <glyph glyph-name="tcommaaccent" unicode="&#x21b;" horiz-adv-x="399" 
d="M382 17q0 -15 -19 -18q-42 -7 -79 -7q-59 0 -93 12t-50 46t-16 101v314l-83 14q-20 3 -20 20v45q0 8 5.5 14t14.5 6h83v82q0 17 20 20l93 16h4q16 0 16 -15v-103h101q9 0 14.5 -5.5t5.5 -14.5v-59q0 -8 -6 -14t-14 -6h-101v-314q0 -37 6.5 -46.5t32.5 -9.5h64
q21 0 21 -15v-63z" />
    <glyph glyph-name="currency" unicode="&#xa4;" horiz-adv-x="614" 
d="M563 562q0 -8 -7 -15l-85 -84q26 -44 26 -91q0 -50 -27 -95l83 -84q7 -7 7 -15q0 -6 -5 -11l-47 -48q-6 -5 -11 -5q-8 0 -15 7l-86 86q-40 -24 -88 -24q-50 0 -91 25l-85 -84q-10 -8 -16 -8q-5 0 -10 5l-47 48q-5 6 -5 12q0 8 7 15l84 83q-27 44 -27 93q0 48 24 88
l-84 84q-7 7 -7 15q0 6 5 12l48 48q5 5 10 5q8 0 16 -8l82 -82q45 27 96 27q48 0 92 -26l84 84q7 7 15 7q6 0 11 -5l48 -48q5 -6 5 -11zM401 374q0 25 -12.5 46t-33.5 33t-46 12t-46.5 -12t-34 -32.5t-12.5 -46.5q0 -38 27.5 -65.5t65.5 -27.5t65 27.5t27 65.5z" />
    <glyph glyph-name="gravecmb" unicode="&#x300;" horiz-adv-x="0" 
d="M-181 604h-100l-148 146h155z" />
    <glyph glyph-name="acutecmb" unicode="&#x301;" horiz-adv-x="0" 
d="M-181 750l-148 -146h-101l94 146h155z" />
    <glyph glyph-name="circumflexcmb" unicode="&#x302;" horiz-adv-x="0" 
d="M-128 604h-113l-64 82l-64 -82h-113l115 146h125z" />
    <glyph glyph-name="tildecmb" unicode="&#x303;" horiz-adv-x="0" 
d="M-320 724l46 -17q20 -7 26.5 -9t14.5 -2q23 0 32.5 12.5t13.5 29.5h65q-8 -51 -34.5 -85.5t-76.5 -34.5q-15 0 -43 7q-16 4 -31 9l-39 13q-8 3 -16 4t-16 1q-18 0 -30 -10q-12 -12 -17 -31h-63q10 50 28 76q31 46 92 46q14 0 26.5 -2.5t21.5 -6.5z" />
    <glyph glyph-name="macroncmb" unicode="&#x304;" horiz-adv-x="0" 
d="M-479 709h348v-74h-348v74z" />
    <glyph glyph-name="brevecmb" unicode="&#x306;" horiz-adv-x="0" 
d="M-305 604q-75 0 -118.5 35.5t-50.5 110.5h66q7 -45 47 -61q23 -9 56 -9t55 9q41 16 47 61h66q-6 -75 -49.5 -110.5t-118.5 -35.5z" />
    <glyph glyph-name="dotaccentcmb" unicode="&#x307;" horiz-adv-x="0" 
d="M-369 729h127v-116h-127v116z" />
    <glyph glyph-name="dieresiscmb" unicode="&#x308;" horiz-adv-x="0" 
d="M-271 729h127v-116h-127v116zM-466 729h127v-116h-127v116z" />
    <glyph glyph-name="ringcmb" unicode="&#x30a;" horiz-adv-x="0" 
d="M-305 647q24 0 40.5 17t16.5 41t-16.5 41t-40.5 17t-41 -17t-17 -41t17 -41t41 -17zM-305 811q44 0 75 -31t31 -75t-31 -75.5t-75 -31.5t-75.5 31.5t-31.5 75.5t31.5 75t75.5 31z" />
    <glyph glyph-name="hungarumlautcmb" unicode="&#x30b;" horiz-adv-x="0" 
d="M-232 750h142l-119 -143h-96zM-305 750l-119 -143h-96l73 143h142z" />
    <glyph glyph-name="caroncmb" unicode="&#x30c;" horiz-adv-x="0" 
d="M-367 604l-115 146h113l64 -83l64 83h113l-114 -146h-125z" />
    <glyph glyph-name="commaaccent" unicode="&#x326;" horiz-adv-x="415" 
d="M286 -63q0 -1 -0.5 -2.5l-1.5 -4.5l-53 -108q-4 -9 -9 -14.5t-13 -5.5h-66q-15 0 -15 12v3t1 5l27 108q2 9 6.5 14t13.5 5h96q8 0 11 -3.5t3 -8.5z" />
    <glyph glyph-name="cedillacmb" unicode="&#x327;" horiz-adv-x="0" 
d="M-187 -133q0 -45 -36.5 -71t-94.5 -26q-25 0 -60 10q-16 5 -45 16l18 42q28 -8 38 -11q24 -6 38 -6q30 0 42.5 12.5t12.5 26.5q0 20 -14 28.5t-30 8.5q-10 0 -19.5 -2t-21.5 -6l-63 57l101 54h53l-43 -64q16 3 23 4.5t15 1.5q39 0 62.5 -19.5t23.5 -55.5z" />
    <glyph glyph-name="ogonekcmb" unicode="&#x328;" horiz-adv-x="0" 
d="M-206 0l-32 -23q-34 -25 -50 -42.5t-16 -38.5q0 -23 16 -36t40 -13q11 0 22.5 3t26.5 8v-70q-22 -8 -36 -12q-27 -6 -60 -6q-51 0 -84 28.5t-33 68.5q0 44 41 82q24 22 78 51h87z" />
    <glyph glyph-name="soliduslongoverlaycmb" unicode="&#x338;" horiz-adv-x="0" 
d="M-224 742h116l-280 -742h-114z" />
    <glyph glyph-name="Dcroat" unicode="&#x110;" horiz-adv-x="659" 
d="M612 298q0 -74 -21 -131t-61 -96t-98.5 -59t-133.5 -20q-27 0 -57 1.5t-57 3t-49.5 3.5t-33.5 4q-13 2 -19.5 9t-6.5 22v291h-58q-8 0 -13.5 5.5t-5.5 13.5v75q0 8 5.5 13t13.5 5h58v270q0 15 6.5 21.5t19.5 9.5q11 2 33.5 4t49.5 4t57 3t57 1q75 0 133.5 -20t98.5 -59
t61 -96t21 -131v-147zM474 445q0 56 -13.5 92.5t-37 58t-56 30t-69.5 8.5q-28 0 -48.5 -1t-35.5 -2v-193h71q8 0 13.5 -5t5.5 -13v-75q0 -8 -5.5 -13.5t-13.5 -5.5h-71v-214q15 -1 35.5 -2t48.5 -1q37 0 69.5 8.5t56 29.5t37 58t13.5 93v147z" />
    <glyph glyph-name="Gcommaaccent" unicode="&#x122;" horiz-adv-x="616" 
d="M187 445v-146q0 -98 38 -143t90 -45t99 3v255q0 8 5.5 14t13.5 6h99q8 0 14 -6t6 -14v-336q0 -19 -19 -24q-25 -5 -56 -9t-77.5 -6t-84.5 -2q-44 0 -89.5 15.5t-87 52t-66.5 96.5t-25 143v144q0 91 25.5 152.5t68.5 95.5t90.5 47t101.5 13q44 0 83 -9.5t69 -21.5t45 -22
q22 -12 22 -27v-67q0 -24 -25 -15q-37 15 -85.5 29t-98.5 14q-81 0 -118.5 -42.5t-37.5 -144.5z" />
    <glyph glyph-name="gcommaaccent" unicode="&#x123;" horiz-adv-x="562" 
d="M239 640q0 2 0.5 3.5t1.5 3.5l53 108q3 6 5.5 10t5.5 6t7 3t11 1h59q7 0 11 -2.5t4 -9.5v-3.5t-1 -4.5l-27 -108q-4 -19 -20 -19h-96q-14 0 -14 12zM279 -94q30 0 49 4t29 14.5t13.5 27.5t3.5 43v8q-8 -2 -20.5 -3.5t-26.5 -3t-27 -3t-22 -1.5q-60 0 -105 17.5t-75 49.5
t-44.5 79t-14.5 105v77q0 58 14.5 105t44.5 79t75 49.5t105 17.5q48 0 101 -7t100 -19q17 -4 22 -10t5 -17v-516q0 -53 -14 -91.5t-42.5 -63t-71 -36t-99.5 -11.5q-29 0 -56 4t-51 9.5t-43.5 12.5t-33.5 14q-11 5 -16 10.5t-5 15.5v51q0 22 21 16q13 -3 35 -8t48 -9t52 -7
t49 -3zM374 454q-7 2 -18 3t-24 2.5t-26.5 2.5t-27.5 1q-32 0 -53 -11t-33 -30t-16.5 -45t-4.5 -57v-77q0 -31 4.5 -57t16.5 -45t33 -30t53 -11q9 0 21 1t25 2t26.5 2t23.5 3v346z" />
    <glyph glyph-name="Lcommaaccent" unicode="&#x13b;" horiz-adv-x="502" 
d="M485 27q0 -10 -4.5 -14.5t-15.5 -6.5q-23 -6 -78.5 -10t-91.5 -4q-71 0 -121.5 17t-80 62t-29.5 126v526q0 7 6.5 13.5t13.5 6.5h99q7 0 13.5 -6.5t6.5 -13.5v-526q0 -49 17 -67.5t61 -18.5h184q9 0 14.5 -5.5t5.5 -14.5v-64z" />
    <glyph glyph-name="lcommaaccent" unicode="&#x13c;" horiz-adv-x="252" 
d="M192 21q0 -8 -5.5 -14.5t-13.5 -6.5h-93q-9 0 -14.5 6.5t-5.5 14.5v720q0 8 6 14t14 6h93q8 0 13.5 -6t5.5 -14v-720z" />
    <glyph glyph-name="Kcommaaccent" unicode="&#x136;" horiz-adv-x="628" 
d="M604 9q0 -9 -15 -9h-134q-16 0 -23 11l-229 341v-332q0 -8 -6.5 -14t-13.5 -6h-99q-7 0 -13.5 6t-6.5 14v703q0 8 6 13.5t14 5.5h99q8 0 14 -5.5t6 -13.5v-318l245 329q6 8 23 8h114q19 0 19 -12q0 -7 -7 -16l-256 -331l258 -362q5 -8 5 -12z" />
    <glyph glyph-name="kcommaaccent" unicode="&#x137;" horiz-adv-x="536" 
d="M510 12q0 -5 -4 -8.5t-10 -3.5h-122q-7 0 -15.5 6.5t-13.5 13.5l-157 228v-227q0 -9 -5.5 -15t-14.5 -6h-92q-9 0 -14.5 6.5t-5.5 14.5v720q0 8 6 14t14 6h92q8 0 14 -5.5t6 -14.5v-417l171 228q10 12 23 12h112q15 0 15 -11q0 -5 -4 -10l-201 -247l203 -276q3 -4 3 -8z
" />
    <glyph glyph-name="Ncommaaccent" unicode="&#x145;" horiz-adv-x="690" 
d="M626 40q0 -17 -11.5 -28.5t-28.5 -11.5h-101q-23 0 -36.5 6.5t-24.5 29.5l-222 487q-4 8 -9 8t-5 -8v-503q0 -9 -5.5 -14.5t-13.5 -5.5h-85q-7 0 -13.5 6t-6.5 14v683q0 17 11.5 28.5t28.5 11.5h108q17 0 26.5 -7t17.5 -25l233 -514q4 -8 8 -8q5 0 5 9v526q0 8 5.5 13.5
t13.5 5.5h86q8 0 13.5 -5.5t5.5 -13.5v-684z" />
    <glyph glyph-name="ncommaaccent" unicode="&#x146;" horiz-adv-x="574" 
d="M518 21q0 -8 -6 -14.5t-14 -6.5h-92q-9 0 -14.5 6.5t-5.5 14.5v330q0 40 -9 63t-31 34t-60 11q-46 0 -98 -11v-427q0 -9 -5.5 -15t-14.5 -6h-92q-9 0 -14.5 6.5t-5.5 14.5v500q0 15 20 20q50 14 107.5 22t106.5 8q118 0 173 -52t55 -167v-331z" />
    <glyph glyph-name="Rcommaaccent" unicode="&#x156;" horiz-adv-x="637" 
d="M604 12q0 -12 -12 -12h-122q-7 0 -10.5 4.5t-9.5 15.5l-144 267h-14q-8 0 -35 1.5t-35 2t-19 0.5v-271q0 -9 -5.5 -14.5t-13.5 -5.5h-100q-7 0 -13.5 6t-6.5 14v688q0 14 8 20.5t24 9.5q82 13 196 13q128 0 208 -53t80 -173v-9q0 -77 -35.5 -128t-99.5 -76l157 -292
q2 -3 2 -8zM442 516v9q0 56 -37 81.5t-113 25.5q-11 0 -45 -1.5t-44 -2.5v-225q48 -3 89 -3q79 0 114.5 26t35.5 90z" />
    <glyph glyph-name="rcommaaccent" unicode="&#x157;" horiz-adv-x="364" 
d="M331 458q-10 0 -19 0.5t-26 0.5q-46 0 -98 -11v-427q0 -9 -5.5 -15t-14.5 -6h-92q-9 0 -14.5 6.5t-5.5 14.5v500q0 15 20 20q50 14 107.5 22t106.5 8q25 0 41 -2q20 -2 20 -19v-72q0 -20 -20 -20z" />
    <glyph glyph-name="yotgreek" unicode="&#x3f3;" horiz-adv-x="257" 
d="M189 715v-125h-140v125h140zM49 15v510h140v-489v-26.5t1 -24.5q0 -41 -6 -63t-27 -39.5t-56 -23.5t-72 -6h-15t-10 1v102q22 -3 31.5 6.5t11.5 16.5t2 16v20z" />
    <glyph glyph-name="questiongreek" unicode="&#x37e;" horiz-adv-x="333" 
d="M263 521v-146h-150v146h150zM113 146h150v-142q0 -30 -6.5 -73t-53.5 -71q-19 -15 -40.5 -22t-49.5 -12v56q19 0 40 14.5t33.5 41.5t12.5 44q0 9 -3 18h-83v146z" />
    <glyph glyph-name="softhyphen" unicode="&#xad;" horiz-adv-x="309" 
d="M272 272q0 -8 -5.5 -13t-13.5 -5h-196q-8 0 -14 5.5t-6 12.5v71q0 8 5.5 13.5t14.5 5.5h196q8 0 13.5 -5.5t5.5 -13.5v-71z" />
    <glyph glyph-name="dotlessj" unicode="&#x237;" horiz-adv-x="278" 
d="M4 -102q12 -1 17 -1.5t9 -0.5q20 0 30.5 10.5t10.5 38.5v585h139v-587q0 -81 -31.5 -119.5t-124.5 -38.5q-6 0 -18.5 0.5t-31.5 1.5v111z" />
    <glyph glyph-name="kgreenlandic" unicode="&#x138;" horiz-adv-x="556" 
d="M63 530h137v-200l174 200h172l-186 -204l193 -326h-168l-127 228l-58 -61v-167h-137v530z" />
    <glyph glyph-name="slong" unicode="&#x17f;" horiz-adv-x="333" 
d="M227 429v-429h-139v429h-78v98h76v35q0 85 29 117q31 48 146 48q13 0 24 -0.5t29 -2.5v-113q-11 1 -38.5 2t-38 -12t-10.5 -29v-143z" />
    <glyph glyph-name="ereversed" unicode="&#x258;" horiz-adv-x="556" 
d="M385 319q-7 52 -33.5 82.5t-74.5 30.5q-45 0 -75 -28.5t-33 -84.5h216zM69 443q35 54 88 78.5t120 24.5q112 0 182 -73.5t70 -211.5q0 -148 -77.5 -213.5t-179.5 -65.5q-123 0 -191 78q-44 49 -50 96h142q12 -23 26 -36q27 -25 70 -25q41 0 69 20q48 32 51 113h-365
q-1 68 5 105q9 63 40 110z" />
    <glyph glyph-name="schwa" unicode="&#x259;" horiz-adv-x="556" 
d="M384 209h-216q3 -55 33 -83.5t75 -28.5q48 0 74.5 30t33.5 82zM68 85q-31 48 -40 110q-6 37 -5 106h365q-3 80 -51 112q-28 20 -69 20q-43 0 -70 -24q-14 -13 -26 -37h-142q6 47 50 96q68 78 191 78q102 0 179.5 -65.5t77.5 -212.5q0 -139 -70 -212.5t-182 -73.5
q-67 0 -120 25t-88 78z" />
    <glyph glyph-name="oopen" unicode="&#x254;" horiz-adv-x="556" 
d="M177 185q4 -30 20 -54q23 -32 73 -32q70 0 96 70q13 37 13 99q0 58 -13 94q-25 66 -94 66q-49 0 -69.5 -26.5t-24.5 -68.5h-142q5 64 46 121q65 91 193 91q129 0 189.5 -76t60.5 -198q0 -137 -67 -213.5t-185 -76.5q-100 0 -163.5 45t-75.5 159h143z" />
    <glyph glyph-name="aturned" unicode="&#x250;" horiz-adv-x="556" 
d="M197 270q13 8 26.5 13t37.5 9l31 6q44 8 63 19q32 19 32 59q0 36 -19.5 52t-48.5 16q-45 0 -82.5 -26.5t-39.5 -96.5v-51zM282 205q-39 -5 -55 -13q-30 -12 -30 -39q0 -33 22.5 -45.5t66.5 -12.5q49 0 70 25q15 18 19 48h135q-5 -69 -39 -114q-55 -71 -190 -71
q-87 0 -155 35t-68 131v244q0 25 -1 62q-1 27 -8 36.5t-21 16.5v20h152q6 -16 8.5 -30t3.5 -32q29 31 67 53q45 26 101 26q73 0 120 -41.5t47 -116.5q0 -98 -76 -142q-41 -24 -122 -35z" />
    <glyph glyph-name="hookcmb" unicode="&#x309;" horiz-adv-x="0" 
d="M-318 739q-5 5 -10.5 7t-21.5 3h-25l-2 39q10 1 23 2t23 1q25 0 48.5 -8t39.5 -31q4 -6 7.5 -16.5t3.5 -22.5q0 -9 -3 -19.5t-10.5 -19.5t-20 -16t-30.5 -11l-7 -21h-68l4 37q40 3 51.5 16.5t11.5 29.5q0 9 -3.5 16.5t-10.5 13.5z" />
    <glyph glyph-name="overlinecmb" unicode="&#x305;" horiz-adv-x="0" 
d="M-479 709h348v-74h-348v74z" />
    <glyph glyph-name="breveinvertedcmb" unicode="&#x311;" horiz-adv-x="0" 
d="M-305 750q75 0 118.5 -35.5t49.5 -110.5h-66q-6 45 -47 62q-22 9 -55 9t-56 -9q-40 -17 -47 -62h-66q7 75 50.5 110.5t118.5 35.5z" />
    <glyph glyph-name="Ibreve" unicode="&#x12c;" horiz-adv-x="278" 
d="M203 20q0 -8 -6.5 -14t-13.5 -6h-99q-7 0 -13.5 6t-6.5 14v704q0 8 6 13.5t14 5.5h99q8 0 14 -5.5t6 -13.5v-704zM383 923q0 -1 -0.5 -1.5t-0.5 -2.5q-14 -63 -58 -104t-119 -41t-118.5 40.5t-58.5 104.5q0 2 -0.5 2.5t-0.5 1.5q0 7 10 7h75q10 0 13 -12q18 -66 80 -66
q63 0 80 66q3 12 13 12h75q10 0 10 -7z" />
    <glyph glyph-name="ibreve" unicode="&#x12d;" horiz-adv-x="278" 
d="M191 21q0 -9 -5.5 -15t-14.5 -6h-92q-9 0 -14.5 6.5t-5.5 14.5v523q0 8 5.5 14t14.5 6h92q9 0 14.5 -5.5t5.5 -14.5v-523zM382 787q0 -1 -0.5 -1.5t-0.5 -2.5q-14 -63 -58 -104t-119 -41t-118.5 40.5t-58.5 104.5q0 2 -0.5 2.5t-0.5 1.5q0 7 10 7h75q10 0 13 -12
q18 -66 80 -66q63 0 80 66q3 12 13 12h75q10 0 10 -7z" />
    <glyph glyph-name="Eng" unicode="&#x14a;" 
d="M452 -102q12 -1 17 -1.5t9 -0.5q20 0 30.5 10.5t10.5 38.5v55h-11l-294 511v-511h-140v720h157l287 -503v503h140v-777q0 -81 -31.5 -119.5t-124.5 -38.5q-6 0 -18.5 0.5t-31.5 1.5v111z" />
    <glyph glyph-name="eng" unicode="&#x14b;" horiz-adv-x="611" 
d="M341 -102q12 -1 17 -1.5t9 -0.5q20 0 30.5 10.5t10.5 38.5v55h-3v324q0 42 -11 64q-21 41 -79 41q-70 0 -97 -60q-13 -32 -13 -81v-288h-139v531h134v-77q27 41 51 59q43 32 109 32q82 0 134.5 -43.5t52.5 -143.5v-415q0 -81 -31.5 -119.5t-124.5 -38.5q-6 0 -18.5 0.5
t-31.5 1.5v111z" />
    <glyph glyph-name="horncmb" unicode="&#x31b;" horiz-adv-x="0" 
d="M-432 470q31 9 64.5 5.5t77.5 18.5l-42 73l126 73l75 -131l-109 -63q-29 -16 -64.5 -26.5t-70.5 -2.5q-37 8 -67 11.5t-37 14.5z" />
    <glyph glyph-name="Acyrillic" 
d="M277 718h171l254 -718h-163l-46 148h-265l-50 -148h-158zM268 272h183l-89 284h-2z" />
    <glyph glyph-name="Becyrillic" 
d="M82 718h498v-124h-348v-159h188q16 0 41.5 -1t54 -7t57.5 -19t52.5 -37.5t38 -62t14.5 -91.5t-14.5 -91.5t-37 -61.5t-50.5 -37t-54 -19t-47.5 -7t-32.5 -1h-360v718zM232 124h172q20 0 42 3t40 12.5t30 29t12 51.5q0 34 -11.5 53t-30 29t-42 12.5t-46.5 2.5h-166v-193z
" />
    <glyph glyph-name="Vecyrillic" 
d="M82 718h352q44 0 77.5 -8.5t58 -22.5t41 -32.5t26 -39t14 -41.5t4.5 -40q0 -27 -5 -49t-15.5 -39.5t-27.5 -32t-40 -26.5q36 -13 58 -33.5t33.5 -43.5t15.5 -47.5t4 -47.5q0 -52 -19 -92t-53.5 -67.5t-84 -41.5t-110.5 -14h-329v718zM226 124h187q25 0 46 6t36.5 18
t24 30t8.5 43q0 31 -10.5 50t-27 29.5t-38 13.5t-43.5 3h-183v-193zM226 435h185q20 0 38 4.5t32 14.5t22 25.5t8 37.5q0 23 -7.5 38t-20.5 23.5t-30.5 12t-37.5 3.5h-189v-159z" />
    <glyph glyph-name="Gecyrillic" horiz-adv-x="578" 
d="M82 718h483v-124h-333v-594h-150v718z" />
    <glyph glyph-name="Decyrillic" 
d="M12 124h63q12 30 22.5 62t20.5 69t18 81.5t14.5 100.5t10.5 125t5 156h489v-594h55v-278h-130v154h-438v-154h-130v278zM505 594h-207q-1 -19 -1.5 -49.5t-3 -68t-7 -80.5t-12.5 -88.5t-20 -92.5t-29 -91h280v470z" />
    <glyph glyph-name="Iecyrillic" horiz-adv-x="667" 
d="M82 718h527v-124h-383v-159h352v-124h-352v-181h400v-130h-544v718z" />
    <glyph glyph-name="Zhecyrillic" horiz-adv-x="1000" 
d="M574 430h29l214 288h171l-259 -328l259 -390h-179l-206 310h-29v-310h-145v310h-30l-208 -310h-179l263 390l-257 328h167l214 -288h30v288h145v-288z" />
    <glyph glyph-name="Zecyrillic" horiz-adv-x="611" 
d="M279 427q8 -1 15.5 -2t15.5 -1q21 0 40 6t32.5 17.5t22 29.5t8.5 41q0 30 -11 49.5t-27 30.5t-34.5 15.5t-32.5 4.5q-26 0 -45 -6.5t-32 -16.5t-21 -22t-12.5 -24t-6 -22t-2.5 -16h-138q1 14 5 36.5t13.5 47.5t27 50t46.5 45t72.5 33t104.5 13q46 0 81.5 -8.5t61.5 -23
t44 -34t29 -41.5t16 -45t5 -46q0 -19 -4.5 -40t-17 -41t-34 -37t-54.5 -28v-2q11 -3 25 -7.5t29 -12.5t29 -20.5t25.5 -31.5t18.5 -45.5t7 -62.5q0 -47 -16 -88.5t-50 -72.5t-86.5 -49t-125.5 -18q-27 0 -56 4.5t-56.5 14.5t-53.5 27t-47.5 42.5t-36.5 59.5t-23 79h138
q5 -14 13.5 -33t23.5 -35.5t39 -28.5t60 -12q33 0 57 9.5t39.5 25.5t23 36t7.5 42q0 34 -11.5 55t-29 32.5t-38 15.5t-38.5 4h-35v107z" />
    <glyph glyph-name="Iicyrillic" 
d="M70 718h144v-489h2l284 489h152v-718h-144v486h-2l-284 -486h-152v718z" />
    <glyph glyph-name="Iishortcyrillic" 
d="M70 718h144v-489h2l284 489h152v-718h-144v486h-2l-284 -486h-152v718zM524 924q0 -39 -12 -66t-33 -44.5t-51.5 -25.5t-66.5 -8t-66 8t-51.5 25.5t-33.5 44.5t-12 66h56q3 -17 12.5 -29.5t24 -20.5t32.5 -12t38 -4t38 4t32 12t23.5 20.5t13.5 29.5h56z" />
    <glyph glyph-name="Kacyrillic" 
d="M87 718h150v-292l274 292h194l-293 -294l310 -424h-190l-222 318l-73 -75v-243h-150v718z" />
    <glyph glyph-name="Elcyrillic" horiz-adv-x="740" 
d="M532 594h-210l-6 -198q-3 -72 -5 -125t-6.5 -92.5t-11.5 -67.5t-19 -52q-13 -24 -30.5 -39.5t-37 -23.5t-38.5 -11t-34 -3q-27 0 -49 5.5t-47 12.5v125q21 -12 36.5 -15.5t22.5 -3.5q20 0 32.5 9.5t19 23t9.5 28.5t3 26q2 28 4 71t4 93t4 103.5t3.5 102.5t3 89.5
t1.5 65.5h501v-718h-150v594z" />
    <glyph glyph-name="Emcyrillic" horiz-adv-x="833" 
d="M70 718h219l126 -559h2l126 559h220v-718h-138v600h-2l-136 -600h-146l-131 600h-2v-600h-138v718z" />
    <glyph glyph-name="Encyrillic" 
d="M70 718h150v-273h282v273h150v-718h-150v321h-282v-321h-150v718z" />
    <glyph glyph-name="Ocyrillic" horiz-adv-x="778" 
d="M44 359q0 80 21.5 149t64.5 119.5t108 79.5t151 29q80 0 144 -29t108.5 -79.5t68.5 -119.5t24 -149t-24 -149t-68.5 -119.5t-108.5 -79.5t-144 -29q-86 0 -151 29t-108 79.5t-64.5 119.5t-21.5 149zM389 112q46 0 82 18.5t61.5 51.5t38.5 78t13 99t-13 99t-38.5 78
t-61.5 51.5t-82 18.5t-82 -18.5t-61 -51.5t-38.5 -78t-13.5 -99t13.5 -99t38.5 -78t61 -51.5t82 -18.5z" />
    <glyph glyph-name="Pecyrillic" 
d="M70 718h582v-718h-150v594h-282v-594h-150v718z" />
    <glyph glyph-name="Ercyrillic" horiz-adv-x="667" 
d="M82 718h326q57 0 99.5 -15.5t70 -45.5t41.5 -72.5t14 -96.5q0 -51 -16 -93t-46.5 -72.5t-74.5 -47.5t-100 -17h-164v-258h-150v718zM232 382h142q51 0 80 25t29 81q0 28 -7.5 48t-21.5 33t-34.5 19t-45.5 6h-142v-212z" />
    <glyph glyph-name="Escyrillic" 
d="M534 482q-3 10 -7.5 23.5t-12 27t-19 27t-28.5 23.5t-41 16.5t-56 6.5q-14 0 -32.5 -3.5t-38 -13t-38.5 -26.5t-34 -44.5t-24 -66.5t-9 -93q0 -58 12 -104t35 -77.5t55.5 -48.5t73.5 -17q32 0 55.5 6.5t40.5 18t29 25.5t19.5 29t12.5 29.5t8 25.5h149
q-12 -67 -40.5 -116.5t-69 -82.5t-91 -49t-107.5 -16q-80 0 -142 26.5t-104 76t-64 119t-22 155.5q0 66 12.5 120t35.5 95.5t53.5 72t67 50.5t76.5 29.5t81 9.5q59 0 104.5 -12.5t79.5 -33t58 -46.5t39.5 -54t23 -56.5t9.5 -51.5h-150z" />
    <glyph glyph-name="Tecyrillic" horiz-adv-x="612" 
d="M12 718h588v-124h-219v-594h-150v594h-219v124z" />
    <glyph glyph-name="Ucyrillic" horiz-adv-x="667" 
d="M116 146q14 -6 33.5 -13t41.5 -7q18 0 31.5 4.5t22.5 12.5t13.5 19t4.5 23q0 23 -8 44t-19 43l-212 446h168l163 -386l143 386h162l-229 -530q-22 -53 -44.5 -91.5t-48.5 -64t-59 -38t-76 -12.5q-29 0 -51 7t-36 11v146z" />
    <glyph glyph-name="Efcyrillic" horiz-adv-x="834" 
d="M345 78q-72 4 -130.5 26t-99.5 59t-63 87t-22 109q0 27 6 58t20 62t37.5 59t58.5 50t83 36t110 16v78h144v-78q63 -2 110.5 -16t82.5 -36t58.5 -50t37.5 -59t20 -61.5t6 -58.5q0 -59 -22 -109t-63 -87t-99.5 -59t-130.5 -26v-78h-144v78zM345 536q-51 -1 -84.5 -18
t-53 -41.5t-27 -54.5t-6.5 -58q0 -49 16 -83.5t40.5 -56.5t55 -32t59.5 -10v354zM489 183q29 0 59.5 10t55 32t40.5 56.5t16 83.5q0 28 -7.5 57.5t-27 54t-52.5 41.5t-84 18v-353z" />
    <glyph glyph-name="Khacyrillic" horiz-adv-x="667" 
d="M246 367l-220 351h179l129 -232l132 232h173l-220 -345l235 -373h-184l-136 245l-145 -245h-176z" />
    <glyph glyph-name="Tsecyrillic" 
d="M70 718h150v-594h282v594h150v-594h60v-278h-130v154h-512v718z" />
    <glyph glyph-name="Checyrillic" horiz-adv-x="667" 
d="M453 287q-37 -8 -69 -12.5t-56 -6.5t-40.5 -3t-23.5 -1q-53 0 -90 9t-61.5 23.5t-38 34t-20.5 40.5t-8.5 42.5t-1.5 40.5v264h144v-228q0 -35 7 -57t22 -35t39 -17.5t59 -4.5q14 0 32.5 1t37 3.5t36.5 6.5t32 8v323h150v-718h-150v287z" />
    <glyph glyph-name="Shacyrillic" horiz-adv-x="944" 
d="M70 718h138v-594h195v594h138v-594h195v594h138v-718h-804v718z" />
    <glyph glyph-name="Shchacyrillic" horiz-adv-x="944" 
d="M70 718h138v-594h195v594h138v-594h195v594h138v-594h60v-278h-130v154h-734v718z" />
    <glyph glyph-name="Hardsigncyrillic" horiz-adv-x="833" 
d="M387 124h128q20 0 42 3t40.5 12.5t30 29t11.5 51.5q0 34 -11.5 53t-30 29t-42 12.5t-46.5 2.5h-122v-193zM23 718h364v-283h144q16 0 41.5 -1t54 -7t57.5 -19t52.5 -37.5t38 -62t14.5 -91.5t-14.5 -91.5t-37.5 -61.5t-50.5 -37t-53.5 -19t-47.5 -7t-32.5 -1h-316v594
h-214v124z" />
    <glyph glyph-name="Yericyrillic" horiz-adv-x="944" 
d="M730 718h150v-718h-150v718zM232 124h127q20 0 42 3t40 12.5t30 29t12 51.5q0 34 -11.5 53t-30 29t-42 12.5t-46.5 2.5h-121v-193zM82 718h150v-283h143q16 0 41 -1t54 -7t58 -19t52.5 -37.5t38 -62t14.5 -91.5t-14.5 -91.5t-37.5 -61.5t-50.5 -37t-53.5 -19t-47.5 -7
t-32.5 -1h-315v718z" />
    <glyph glyph-name="Softsigncyrillic" horiz-adv-x="667" 
d="M232 124h127q20 0 42 3t40 12.5t30 29t12 51.5q0 34 -11.5 53t-30 29t-42 12.5t-46.5 2.5h-121v-193zM82 718h150v-283h143q16 0 41 -1t54 -7t58 -19t52.5 -37.5t38 -62t14.5 -91.5t-14.5 -91.5t-37.5 -61.5t-50.5 -37t-53.5 -19t-47.5 -7t-32.5 -1h-315v718z" />
    <glyph glyph-name="Ereversedcyrillic" 
d="M306 418h214q0 17 -4 37.5t-13 41.5t-23.5 40.5t-35 34.5t-47 24.5t-60.5 9.5q-35 0 -60 -11.5t-42 -28t-26.5 -35.5t-14.5 -36h-150q8 56 32.5 101t63.5 76t92 47.5t117 16.5q55 0 100.5 -14t82 -39t64 -59.5t46 -76t27.5 -88t9 -95.5q0 -79 -16 -138t-42 -101.5
t-60 -70t-70 -43.5t-72 -22.5t-67 -6.5q-66 0 -118 19.5t-90.5 53t-63 79.5t-34.5 98h150q7 -22 18.5 -43.5t29 -38.5t42.5 -27.5t58 -10.5q42 1 75.5 14.5t56.5 38t35 58.5t12 77h-216v118z" />
    <glyph glyph-name="IUcyrillic" horiz-adv-x="1000" 
d="M70 718h144v-300h93q5 61 28.5 118.5t64 102t98 71t130.5 26.5q33 0 70 -6.5t73.5 -23t70 -44t59 -68.5t40.5 -97.5t15 -131.5q0 -88 -23.5 -159t-66.5 -120.5t-103.5 -76.5t-134.5 -27q-78 0 -135.5 25.5t-96.5 69t-60.5 101t-28.5 122.5h-93v-300h-144v718zM451 360
q0 -64 13 -111t36 -77.5t55.5 -45t72.5 -14.5t73 14.5t56.5 45t36 77.5t12.5 111q0 63 -12.5 109.5t-36 77t-56.5 45t-73 14.5t-72.5 -14.5t-55.5 -45t-36 -77t-13 -109.5z" />
    <glyph glyph-name="IAcyrillic" horiz-adv-x="724" 
d="M654 0h-145v283h-134q-22 0 -42.5 -0.5t-37.5 -4t-31 -10.5t-24.5 -20t-17.5 -33.5t-9 -50.5l-5 -68q-2 -23 -4 -39t-4.5 -26.5t-5 -17.5t-4.5 -13h-156q8 14 12 23.5t6.5 20.5t4.5 25t4 37l7 68q3 32 8.5 57t16.5 45t30.5 35t51.5 25q-8 2 -15.5 5t-15.5 7.5t-16.5 11
t-17.5 15.5q-24 23 -37.5 57t-13.5 75q0 25 5.5 48.5t15 44t23 37.5t29.5 30q22 19 49 29.5t55.5 15t58.5 5.5t59 1h300v-718zM509 592h-169h-12t-20 -1t-22 -2.5t-19 -4.5q-10 -3 -20 -10t-18.5 -18t-14 -26t-5.5 -36q0 -23 6.5 -39t17.5 -26.5t25 -16t28.5 -8t28.5 -3
t25 -0.5h169v191z" />
    <glyph glyph-name="acyrillic" horiz-adv-x="556" 
d="M496 105q0 -24 2.5 -39.5t7 -24.5t10 -13t12.5 -6v-22h-153q-4 9 -8.5 24.5t-4.5 37.5q-16 -17 -31.5 -31t-34.5 -24.5t-44 -16.5t-60 -6q-36 0 -66 10.5t-52 31t-34 51t-12 71.5q0 33 10 61t29 49t46 35t61 19l135 20q7 1 15.5 3t16 6.5t12.5 12.5t5 22q0 13 -4 24
t-14 19t-26.5 12.5t-40.5 4.5q-28 0 -45 -5.5t-26.5 -15.5t-13.5 -23.5t-7 -28.5h-138q0 10 3 27t11.5 37.5t24 41.5t40.5 38.5t61.5 28.5t86.5 12q71 0 115.5 -14.5t69 -37.5t33 -51.5t8.5 -57.5v-282zM358 260q-6 -4 -12.5 -7t-13 -5.5t-14.5 -5t-19 -4.5l-37 -7
q-24 -4 -42 -10t-30 -15.5t-18 -23.5t-6 -34q0 -17 5.5 -29.5t15 -20.5t22 -12t27.5 -4q8 0 20 1.5t25.5 6.5t27.5 13.5t24.5 22.5t17.5 33.5t7 46.5v54z" />
    <glyph glyph-name="becyrillic" horiz-adv-x="611" 
d="M516 726q-8 -39 -24 -61.5t-39.5 -33.5t-52.5 -15t-62 -7q-34 -3 -63 -8t-50.5 -20.5t-36 -45.5t-20.5 -83q22 24 43 37.5t41 21t40 10t39 2.5q59 0 104.5 -19t77.5 -53t48.5 -82t16.5 -105q0 -63 -18.5 -115t-53.5 -89t-85.5 -57t-113.5 -20q-91 0 -151.5 37.5
t-92.5 122.5q-11 29 -16.5 61t-8.5 60.5t-3.5 49.5t-0.5 28q0 32 3 67t10 71t19.5 69.5t31.5 62t45.5 50t61.5 32.5q15 4 33 7.5t37 5t38 2.5t34 1q14 0 22 1t12.5 3.5t6.5 5.5t3 6h125zM179 266q0 -30 6.5 -59.5t22 -53t39.5 -37.5t60 -14q38 0 62.5 14t39 36.5t20.5 52.5
t6 61q0 32 -6 61.5t-20.5 52t-39 36.5t-62.5 14q-36 0 -60 -14t-39.5 -37.5t-22 -53t-6.5 -59.5z" />
    <glyph glyph-name="vecyrillic" horiz-adv-x="611" 
d="M208 323h121q24 0 39.5 4t24.5 11t12.5 17.5t3.5 24.5q0 12 -3.5 22t-12.5 17t-23.5 11t-36.5 4h-125v-111zM70 532h290q36 0 70 -6t60 -22t41.5 -43t15.5 -69q0 -24 -5 -41.5t-14 -30t-20 -21t-24 -14.5q40 -14 61 -45t21 -74q0 -38 -12.5 -68.5t-36.5 -52t-58 -33.5
t-76 -12h-313v532zM208 98h121q30 0 48.5 6.5t28.5 16t13 21.5t3 22q0 20 -5 32.5t-16 20.5t-29 11t-43 3h-121v-133z" />
    <glyph glyph-name="gecyrillic" horiz-adv-x="444" 
d="M66 532h358v-112h-220v-420h-138v532z" />
    <glyph glyph-name="decyrillic" horiz-adv-x="649" 
d="M15 112h60q25 67 39.5 131.5t23 119.5t12.5 99t6 70h416v-420h62v-240h-130v128h-359v-128h-130v240zM434 112v308h-158q-2 -21 -6.5 -54t-11.5 -74.5t-18 -87.5t-26 -92h220z" />
    <glyph glyph-name="iecyrillic" horiz-adv-x="556" 
d="M165 223q0 -7 1.5 -19.5t6 -26.5t12.5 -28.5t22 -26t34.5 -19t48.5 -7.5q15 0 29 4t26.5 12.5t21.5 20t13 25.5h143q0 -14 -6.5 -33t-19.5 -38.5t-32.5 -38t-46 -33t-60.5 -23t-76 -8.5q-53 0 -99.5 16t-81.5 50t-55 89t-20 133q0 54 14.5 104t45 88t78 61t114.5 23
q71 0 119 -23.5t77.5 -65.5t42.5 -102.5t13 -133.5h-365zM386 315q0 35 -10.5 58.5t-26.5 37.5t-35 19.5t-36 5.5t-36 -5.5t-35 -19.5t-26.5 -37.5t-10.5 -58.5h216z" />
    <glyph glyph-name="zhecyrillic" horiz-adv-x="834" 
d="M487 321h26l146 211h158l-179 -246l188 -286h-167l-146 226h-26v-226h-138v226h-30l-150 -226h-161l189 286l-177 246h158l145 -211h26v211h138v-211z" />
    <glyph glyph-name="zecyrillic" horiz-adv-x="500" 
d="M35 385q2 10 4.5 22t8 25t13.5 27t20 27t28 24t38 19.5t49.5 13.5t61.5 5q50 0 88 -13t63.5 -34t38 -47.5t12.5 -55.5q0 -23 -5.5 -39.5t-14.5 -28.5t-22 -21.5t-28 -19.5v-2q47 -21 67.5 -53t20.5 -80q0 -45 -19.5 -77t-51 -53t-71 -30.5t-78.5 -9.5q-48 0 -88 10.5
t-70 32.5t-50 57t-28 83h132q6 -19 13 -34.5t18 -26.5t26.5 -17.5t35.5 -6.5q25 0 42 8t27 20.5t14 26t4 25.5q0 19 -7 32.5t-19 21.5t-27.5 11.5t-33.5 3.5q-11 0 -20 -1t-19 -3v96h29q18 0 34 4.5t27 12t17.5 19.5t6.5 27q0 18 -5.5 30.5t-15.5 20t-24 10.5t-30 3
q-37 0 -56.5 -15.5t-25.5 -49.5h-130z" />
    <glyph glyph-name="iicyrillic" horiz-adv-x="611" 
d="M66 532h138v-328h2l194 328h145v-532h-138v321h-2l-188 -321h-151v532z" />
    <glyph glyph-name="iishortcyrillic" horiz-adv-x="611" 
d="M468 755q0 -39 -12 -66t-33.5 -44.5t-51.5 -25.5t-66 -8t-66.5 8t-51.5 25.5t-33 44.5t-12 66h56q4 -17 13.5 -29.5t23.5 -20.5t32 -12t38 -4t38 4t32.5 12t24 20.5t12.5 29.5h56zM66 532h138v-328h2l194 328h145v-532h-138v321h-2l-188 -321h-151v532z" />
    <glyph glyph-name="kacyrillic" horiz-adv-x="611" 
d="M70 532h138v-202l199 202h184l-220 -221l229 -311h-180l-153 211l-59 -57v-154h-138v532z" />
    <glyph glyph-name="elcyrillic" horiz-adv-x="667" 
d="M588 0h-138v420h-174l-6 -195q-1 -27 -2.5 -55t-7 -55t-16 -50.5t-29 -41.5t-45.5 -28.5t-66 -10.5q-23 0 -41 2.5t-29 7.5v116q7 -3 17.5 -5.5t25.5 -2.5q16 0 26 7.5t16 21t8.5 33.5t3.5 45l8 323h449v-532z" />
    <glyph glyph-name="emcyrillic" 
d="M66 532h208l90 -386h2l88 386h202v-532h-130v428h-2l-100 -428h-126l-100 428h-2v-428h-130v532z" />
    <glyph glyph-name="encyrillic" horiz-adv-x="611" 
d="M66 532h138v-192h203v192h138v-532h-138v228h-203v-228h-138v532z" />
    <glyph glyph-name="ocyrillic" horiz-adv-x="612" 
d="M34 266q0 62 19 113.5t54.5 89t85.5 58.5t113 21q64 0 114.5 -21t85.5 -58.5t53.5 -89t18.5 -113.5q0 -61 -18.5 -113t-53.5 -89.5t-85.5 -58.5t-114.5 -21q-63 0 -113 21t-85.5 58.5t-54.5 89.5t-19 113zM178 266q0 -30 6.5 -59.5t22 -53t40 -37.5t59.5 -14
q38 0 62.5 14t39 36.5t20.5 52.5t6 61q0 32 -6 61.5t-20.5 52t-39 36.5t-62.5 14q-35 0 -59.5 -14t-40 -37.5t-22 -53t-6.5 -59.5z" />
    <glyph glyph-name="pecyrillic" horiz-adv-x="611" 
d="M66 532h479v-532h-138v420h-203v-420h-138v532z" />
    <glyph glyph-name="ercyrillic" horiz-adv-x="611" 
d="M62 532h132v-76h2q14 24 29.5 41.5t34.5 28.5t42.5 16.5t52.5 5.5q24 0 50 -6t50.5 -19t46.5 -33.5t39 -51t26.5 -70.5t9.5 -92q0 -65 -14 -118.5t-42 -92t-70.5 -60t-100.5 -21.5q-20 0 -40.5 4t-40 13t-37 25t-30.5 40h-2v-272h-138v738zM314 424q-33 0 -56 -14
t-36.5 -36.5t-20 -51t-6.5 -56.5q0 -15 1.5 -33t6.5 -36t13.5 -35t21.5 -30.5t32 -21.5t44 -8t43.5 8t32 21.5t22 30.5t13.5 35t6.5 36t1.5 33q0 28 -6.5 56.5t-20 51t-36.5 36.5t-56 14z" />
    <glyph glyph-name="escyrillic" horiz-adv-x="556" 
d="M378 344q-4 21 -11 37t-18 27t-26.5 16.5t-38.5 5.5q-34 0 -55 -16t-32 -40.5t-15 -53t-4 -54.5q0 -17 1.5 -36.5t5 -37.5t10.5 -34.5t18.5 -28.5t29 -19.5t41.5 -7.5t41.5 9.5t29.5 23.5t17.5 30.5t5.5 29.5h144q0 -13 -4.5 -34t-15.5 -44.5t-28.5 -47.5t-44.5 -42.5
t-62.5 -30.5t-82.5 -12q-60 0 -107 18.5t-78.5 54.5t-48 88.5t-16.5 120.5t18 120.5t50.5 88.5t79 54.5t102.5 18.5q25 0 51 -4t51.5 -13.5t48.5 -24.5t41.5 -38t30.5 -53.5t15 -70.5h-144z" />
    <glyph glyph-name="tecyrillic" horiz-adv-x="500" 
d="M181 420h-161v112h460v-112h-161v-420h-138v420z" />
    <glyph glyph-name="ucyrillic" horiz-adv-x="556" 
d="M359 9q-16 -46 -28.5 -80t-25 -58.5t-26.5 -40.5t-32.5 -25.5t-43.5 -13t-59 -3.5q-14 0 -26 1t-28 2v112q8 -1 20.5 -2t20.5 -1q22 0 37 8.5t24 19.5t13 23.5t4 20.5l-195 560h155l114 -392h2l109 392h148z" />
    <glyph glyph-name="efcyrillic" horiz-adv-x="832" 
d="M347 52h-2q-7 -13 -18.5 -25t-26 -21.5t-33.5 -15.5t-42 -6q-38 0 -72 18.5t-60.5 54t-42.5 88.5t-16 123q0 56 9 99t24.5 74t35.5 51.5t41.5 33t43.5 17.5t41 5q17 0 33 -3t31 -11t28 -21t24 -33h2v238h138v-238h2q11 20 24 33t28 21t31.5 11t33.5 3q19 0 41 -5
t43 -17.5t41.5 -33t35.5 -51.5t24 -74t9 -99q0 -70 -16 -123t-42.5 -88.5t-60.5 -54t-72 -18.5q-23 0 -42 6t-33.5 15.5t-26 21.5t-18.5 25h-2v-258h-138v258zM660 262q0 32 -4.5 62.5t-16 54t-30.5 37.5t-49 14q-20 0 -34.5 -7t-23.5 -20t-13 -31t-4 -39v-126
q0 -24 3.5 -43.5t12 -33t23.5 -21t38 -7.5q32 0 51 16.5t29.5 40.5t14 52t3.5 51zM172 262q0 -15 1.5 -33t5.5 -36t10.5 -34t17.5 -29t26.5 -20.5t36.5 -7.5q23 0 38 7.5t23.5 21t12 33t3.5 43.5v126q0 21 -4 39t-13 31t-23.5 20t-34.5 7q-30 0 -49 -14t-30.5 -37.5t-16 -54
t-4.5 -62.5z" />
    <glyph glyph-name="khacyrillic" horiz-adv-x="556" 
d="M23 532h170l87 -155l89 155h165l-174 -261l181 -271h-173l-88 160l-96 -160h-169l181 271z" />
    <glyph glyph-name="tsecyrillic" horiz-adv-x="611" 
d="M66 532h138v-420h203v420h138v-420h55v-240h-128v128h-406v532z" />
    <glyph glyph-name="checyrillic" horiz-adv-x="556" 
d="M490 0h-138v210q-9 -2 -24.5 -4t-33 -3.5t-34.5 -3t-29 -1.5q-44 0 -81 6.5t-63 22.5t-41 43t-15 70v192h138v-165q0 -23 5 -36t16.5 -19.5t30 -8t45.5 -1.5q29 0 50.5 3t35.5 7v220h138v-532z" />
    <glyph glyph-name="shacyrillic" horiz-adv-x="834" 
d="M66 532h138v-420h144v420h138v-420h144v420h138v-532h-702v532z" />
    <glyph glyph-name="shchacyrillic" horiz-adv-x="833" 
d="M66 532h138v-420h144v420h138v-420h144v420h138v-420h54v-240h-126v128h-630v532z" />
    <glyph glyph-name="hardsigncyrillic" horiz-adv-x="667" 
d="M20 532h286v-185h128q49 0 88 -10t66 -31.5t41 -54.5t14 -78q0 -41 -11.5 -69.5t-30 -48t-41 -30.5t-44 -16.5t-39.5 -7t-28 -1.5h-281v420h-148v112zM306 104h104q16 0 32 2.5t28.5 10.5t20.5 21t8 35q0 21 -8 34.5t-21.5 21.5t-32.5 11t-39 3h-92v-139z" />
    <glyph glyph-name="yericyrillic" horiz-adv-x="833" 
d="M629 532h138v-532h-138v532zM66 532h138v-185h140q50 0 88.5 -10t65.5 -31.5t41 -54.5t14 -78q0 -41 -11.5 -69.5t-30 -48t-41 -30.5t-44 -16.5t-39.5 -7t-28 -1.5h-293v532zM204 104h116q16 0 32 2.5t29 10.5t20.5 21t7.5 35q0 21 -8 34.5t-22 21.5t-32 11t-39 3h-104
v-139z" />
    <glyph glyph-name="softsigncyrillic" horiz-adv-x="578" 
d="M65 532h138v-185h141q50 0 88.5 -10t65.5 -31.5t41 -54.5t14 -78q0 -41 -11.5 -69.5t-30 -48t-41 -30.5t-44 -16.5t-39.5 -7t-28 -1.5h-294v532zM203 104h117q16 0 32 2.5t29 10.5t20.5 21t7.5 35q0 21 -8 34.5t-22 21.5t-32 11t-39 3h-105v-139z" />
    <glyph glyph-name="ereversedcyrillic" horiz-adv-x="556" 
d="M246 309h132q-2 24 -8.5 46t-19 38.5t-30.5 26.5t-42 10q-23 0 -38.5 -5.5t-26.5 -16.5t-18 -27t-11 -37h-144q3 40 15 70.5t30.5 53.5t41.5 38t48.5 24.5t51.5 13.5t51 4q56 0 101.5 -18.5t77 -54.5t48.5 -88.5t17 -120.5t-16.5 -120.5t-48 -88.5t-78 -54.5
t-107.5 -18.5q-47 0 -82.5 12t-62 30.5t-44.5 42.5t-29 47.5t-15.5 44.5t-4.5 34h144q0 -13 5.5 -29.5t17.5 -30.5t29.5 -23.5t41.5 -9.5t43 9t32 24.5t21 36.5t10 45h-132v92z" />
    <glyph glyph-name="iucyrillic" horiz-adv-x="833" 
d="M660 266q0 35 -6 65t-19.5 52t-35 34.5t-51.5 12.5t-52 -12.5t-35.5 -34.5t-20 -52t-6.5 -65t6.5 -65t20 -52t35.5 -34.5t52 -12.5t51.5 12.5t35 34.5t19.5 52t6 65zM66 532h138v-209h92q9 59 31 101.5t54.5 70t75 40.5t91.5 13q66 0 114.5 -22t80 -60t46.5 -89t15 -110
q0 -34 -6 -67.5t-18.5 -65t-32.5 -59t-48.5 -48t-66 -32t-84.5 -11.5q-48 0 -91 12t-76.5 39.5t-55.5 72.5t-29 111h-92v-219h-138v532z" />
    <glyph glyph-name="iacyrillic" horiz-adv-x="611" 
d="M546 0h-139v196h-90q-30 0 -51 -2.5t-35 -10.5t-21 -23.5t-8 -42.5l-2 -51q-1 -11 -2.5 -29t-9.5 -37h-146q13 21 16.5 40t5.5 40l7 64q2 22 5.5 37.5t11.5 27t21.5 19.5t36.5 15q-7 3 -16 6t-19 9.5t-20 16t-19 23.5q-7 10 -10.5 20t-5.5 20t-2.5 19t-0.5 15q0 29 7 51
t17.5 38.5t24.5 28t28 19.5q16 9 35 13.5t37 7t33.5 2.5h24.5h286v-532zM407 428h-111q-18 0 -35 -1t-31 -7.5t-23 -20t-9 -39.5q0 -25 8.5 -38t22 -19.5t30 -7.5t33.5 -1h115v134z" />
    <glyph glyph-name="Iocyrillic" horiz-adv-x="667" 
d="M82 718h527v-124h-383v-159h352v-124h-352v-181h400v-130h-544v718zM171 898h130v-118h-130v118zM367 898h130v-118h-130v118z" />
    <glyph glyph-name="iocyrillic" horiz-adv-x="556" 
d="M165 223q0 -7 1.5 -19.5t6 -26.5t12.5 -28.5t22 -26t34.5 -19t48.5 -7.5q15 0 29 4t26.5 12.5t21.5 20t13 25.5h143q0 -14 -6.5 -33t-19.5 -38.5t-32.5 -38t-46 -33t-60.5 -23t-76 -8.5q-53 0 -99.5 16t-81.5 50t-55 89t-20 133q0 54 14.5 104t45 88t78 61t114.5 23
q71 0 119 -23.5t77.5 -65.5t42.5 -102.5t13 -133.5h-365zM386 315q0 35 -10.5 58.5t-26.5 37.5t-35 19.5t-36 5.5t-36 -5.5t-35 -19.5t-26.5 -37.5t-10.5 -58.5h216zM115 729h130v-118h-130v118zM311 729h130v-118h-130v118z" />
    <glyph glyph-name="Gjecyrillic" horiz-adv-x="578" 
d="M82 718h483v-124h-333v-594h-150v718zM316 924h155l-148 -144h-100z" />
    <glyph glyph-name="gjecyrillic" horiz-adv-x="444" 
d="M66 532h358v-112h-220v-420h-138v532zM232 755h155l-148 -144h-100z" />
    <glyph glyph-name="Icyrillic" horiz-adv-x="278" 
d="M64 718h150v-718h-150v718z" />
    <glyph glyph-name="icyrillic" horiz-adv-x="278" 
d="M70 532h138v-532h-138v532zM70 741h138v-130h-138v130z" />
    <glyph glyph-name="Jecyrillic" horiz-adv-x="556" 
d="M336 718h150v-520q0 -45 -11 -78.5t-29.5 -57.5t-42.5 -39.5t-50 -24.5t-52 -12.5t-48 -3.5q-55 0 -93.5 12t-64 33t-40 49.5t-22 60.5t-9 66.5t-1.5 67.5h144q0 -37 1.5 -67.5t9.5 -52t25.5 -33.5t49.5 -12q31 0 48 10t24.5 26t9 36t1.5 39v501z" />
    <glyph glyph-name="Ecyrillic" 
d="M416 300h-216q0 -43 12.5 -77t35.5 -58.5t56 -38t75 -14.5q33 0 57.5 10.5t42.5 27.5t29.5 38.5t18.5 43.5h150q-10 -52 -34.5 -98t-63 -79.5t-90.5 -53t-118 -19.5q-31 0 -66.5 6.5t-72 22.5t-70.5 43.5t-60 70t-42 101.5t-16 138q0 49 9 95.5t27.5 88t46 76t64 59.5
t82 39t100.5 14q64 0 116.5 -16.5t92 -47.5t64 -76t32.5 -101h-150q-5 17 -14.5 36t-26.5 35.5t-42 28t-60 11.5q-34 0 -60.5 -9.5t-47 -24.5t-34.5 -34.5t-23.5 -40.5t-13.5 -41.5t-4 -37.5h214v-118z" />
    <glyph glyph-name="ecyrillic" horiz-adv-x="556" 
d="M310 217h-132q3 -24 10.5 -45t20.5 -36.5t32 -24.5t43 -9t41.5 9.5t29.5 23.5t17.5 30.5t5.5 29.5h144q0 -13 -4.5 -34t-15.5 -44.5t-28.5 -47.5t-44.5 -42.5t-62.5 -30.5t-82.5 -12q-60 0 -107 18.5t-78.5 54.5t-48 88.5t-16.5 120.5t18 120.5t50.5 88.5t79 54.5
t102.5 18.5q25 0 51 -4t51.5 -13.5t48.5 -24.5t41.5 -38t30.5 -53.5t15 -70.5h-144q-4 21 -11 37t-18 27t-26.5 16.5t-38.5 5.5q-24 0 -43 -10t-32.5 -26.5t-21 -38.5t-9.5 -46h132v-92z" />
    <glyph glyph-name="Yicyrillic" horiz-adv-x="278" 
d="M64 718h150v-718h-150v718zM-24 898h130v-118h-130v118zM172 898h130v-118h-130v118z" />
    <glyph glyph-name="yicyrillic" horiz-adv-x="278" 
d="M70 532h138v-532h-138v532zM-24 729h130v-118h-130v118zM172 729h130v-118h-130v118z" />
    <glyph glyph-name="Ljecyrillic" horiz-adv-x="1000" 
d="M10 125l11 -5.5t15 -6.5t17 -5t18 -2q23 0 36 13t18.5 32t7 40.5t2.5 38.5q4 70 6.5 134t4 124t3.5 117t4 113h468v-283h87q16 0 41 -1t54 -7t58 -19t52.5 -37.5t38 -62t14.5 -91.5t-14.5 -91.5t-37.5 -61.5t-50.5 -37t-53.5 -19t-47.5 -7t-32.5 -1h-259v594h-177
l-6 -198q-2 -67 -4.5 -124t-9 -102.5t-18 -81t-31.5 -59t-49.5 -35.5t-71.5 -12q-25 0 -47.5 5.5t-46.5 12.5v125zM621 124h71q20 0 42 3t40 12.5t30 29t12 51.5q0 34 -11.5 53t-30 29t-42 12.5t-46.5 2.5h-65v-193z" />
    <glyph glyph-name="ljecyrillic" horiz-adv-x="914" 
d="M430 420h-154l-6 -195q0 -28 -2 -56.5t-8 -55.5t-16.5 -50.5t-29 -41t-46 -27.5t-67.5 -10h-10.5t-16.5 1t-19.5 3t-20.5 6v116q10 -4 19.5 -6t20.5 -2q13 0 23 4.5t17.5 16.5t11.5 32.5t5 53.5l8 323h429v-185h113q49 0 88 -10t66 -31.5t41 -54.5t14 -78
q0 -41 -11.5 -69.5t-30 -48t-41 -30.5t-44 -16.5t-39.5 -7t-28 -1.5h-266v420zM568 104h89q16 0 32 2.5t28.5 10.5t20.5 21t8 35q0 21 -8 34.5t-21.5 21.5t-32 11t-39.5 3h-77v-139z" />
    <glyph glyph-name="Njecyrillic" horiz-adv-x="989" 
d="M612 124h70q20 0 42 3t40.5 12.5t30 29t11.5 51.5q0 34 -11.5 53t-30 29t-42 12.5t-46.5 2.5h-64v-193zM70 718h150v-283h242v283h150v-283h86q16 0 41.5 -1t54 -7t57.5 -19t52.5 -37.5t38 -62t14.5 -91.5t-14.5 -91.5t-37.5 -61.5t-50.5 -37t-53.5 -19t-47.5 -7
t-32.5 -1h-258v317h-242v-317h-150v718z" />
    <glyph glyph-name="njecyrillic" horiz-adv-x="882" 
d="M66 532h138v-185h203v185h138v-185h104q49 0 88 -10t66 -31.5t41 -54.5t14 -78q0 -41 -12 -69.5t-30 -48t-40.5 -30.5t-44 -16.5t-39.5 -7t-28 -1.5h-257v243h-203v-243h-138v532zM545 104h80q16 0 32 2.5t28.5 10.5t20.5 21t8 35q0 21 -8 34.5t-22 21.5t-32.5 11
t-38.5 3h-68v-139z" />
    <glyph glyph-name="jecyrillic" horiz-adv-x="278" 
d="M70 532h138v-588q0 -49 -10.5 -79.5t-29.5 -47.5t-45.5 -23t-59.5 -6q-28 0 -61 3v109h33q17 0 26 10.5t9 38.5v583zM70 741h138v-130h-138v130z" />
    <glyph glyph-name="Dzecyrillic" horiz-adv-x="667" 
d="M328 736q24 0 54 -3.5t60.5 -13t60 -26t52.5 -42.5t37 -62.5t14 -85.5h-144q0 29 -11.5 49.5t-31 34t-46 19.5t-57.5 6q-23 0 -45.5 -4.5t-41 -15t-30 -27.5t-11.5 -41q0 -22 7.5 -34.5t19.5 -20.5t25.5 -11.5t25.5 -6.5l175 -43q18 -4 39.5 -10.5t42 -16t40 -23.5
t34 -34.5t23.5 -48.5t9 -65q0 -43 -16 -84t-51.5 -73t-92.5 -51.5t-140 -19.5q-38 0 -75 6t-69 18t-59 31.5t-46.5 45.5t-30.5 60.5t-11 77.5h144q0 -32 13 -54t35 -35.5t50 -19.5t57 -6q23 0 49 4t48 14.5t36.5 28t14.5 45.5q0 22 -10.5 36t-28 23.5t-41.5 16t-50 12.5
l-77 18q-29 7 -57 14t-53 17.5t-47 25t-37.5 35.5t-24.5 49.5t-9 67.5q0 61 23.5 103.5t62 69t88.5 38.5t104 12z" />
    <glyph glyph-name="Tshecyrillic" horiz-adv-x="799" 
d="M11 718h562v-124h-230v-159h161q50 0 91.5 -7.5t70.5 -29.5t45 -61t16 -103v-234h-150v223q0 26 -6.5 43t-19 27t-31.5 14t-43 4h-134v-311h-150v594h-182v124z" />
    <glyph glyph-name="tshecyrillic" horiz-adv-x="611" 
d="M114 487h-94v112h94v119h138v-119h232v-112h-232v-131q6 6 15.5 14.5t25.5 17t38 14t52 5.5q43 0 73 -12t49 -32t27.5 -46t8.5 -55v-262h-138v228q0 6 -1 18.5t-7.5 25t-20.5 22t-40 9.5q-22 0 -37.5 -7.5t-25.5 -20.5t-14.5 -29.5t-4.5 -33.5v-212h-138v487z" />
    <glyph glyph-name="Kjecyrillic" 
d="M371 924h155l-148 -144h-100zM87 718h150v-292l274 292h194l-293 -294l310 -424h-190l-222 318l-73 -75v-243h-150v718z" />
    <glyph glyph-name="kjecyrillic" horiz-adv-x="611" 
d="M70 532h138v-202l199 202h184l-220 -221l229 -311h-180l-153 211l-59 -57v-154h-138v532zM316 755h155l-148 -144h-100z" />
    <glyph glyph-name="dzecyrillic" horiz-adv-x="556" 
d="M367 371q-1 10 -4.5 22.5t-13 24t-27 19t-47.5 7.5q-7 0 -21 -1t-28.5 -6t-25.5 -15.5t-11 -30.5q0 -12 7.5 -20t26.5 -16t51 -16t82 -20q33 -8 63 -18t53.5 -27t37 -43t13.5 -65q0 -45 -15 -76.5t-38.5 -51.5t-52 -31t-56.5 -16.5t-51 -6t-35 -0.5q-46 0 -87.5 8.5
t-74.5 30t-54 57.5t-26 90h144q0 -13 3.5 -27.5t15 -26.5t32.5 -20t56 -8q16 0 32.5 2t30.5 8t23 16.5t9 27.5q0 15 -8 24t-26.5 16.5t-50 15t-79.5 18.5q-31 7 -60.5 18t-52.5 28.5t-37 43.5t-14 62q0 17 3.5 37t13 40t25.5 38.5t41 33t60 23t81 8.5q21 0 45.5 -2.5t49 -9
t47.5 -18.5t41.5 -31.5t31 -48t15.5 -67.5h-138z" />
    <glyph glyph-name="Djecyrillic" horiz-adv-x="761" 
d="M573 595h-230v-168q24 4 41.5 7t32 5t27.5 3t28 1q66 0 113.5 -22.5t79 -60.5t46.5 -90t15 -112q0 -48 -7.5 -93t-25 -85t-46.5 -74.5t-72 -61.5q-27 -17 -53.5 -26.5t-50.5 -15t-44.5 -7.5t-36.5 -2v121q11 1 26.5 3.5t32.5 8.5t35.5 17t35.5 29q16 18 27 39t17.5 44
t9 47t2.5 48q0 10 -0.5 26.5t-4.5 35t-12 38t-23 35t-37.5 25.5t-56.5 10q-7 0 -32.5 -1.5t-66.5 -11.5v-307h-150v595h-185v123h565v-123z" />
    <glyph glyph-name="djecyrillic" horiz-adv-x="611" 
d="M114 487h-94v112h94v119h138v-119h232v-112h-232v-131q7 6 18 15t26.5 17t36 13.5t47.5 5.5q26 0 47.5 -6t38 -16.5t28 -23t18.5 -25.5q9 -14 15.5 -30.5t11.5 -40t8 -55.5t3 -77q0 -19 -1 -44.5t-4.5 -54.5t-10.5 -60t-19 -62q-14 -37 -45 -66.5t-81 -42.5
q-22 -6 -38.5 -7.5t-31.5 -1.5v118q17 3 30.5 7t23 12.5t16 23.5t10.5 37.5t5.5 55t1.5 77.5q0 19 -0.5 39t-3 38.5t-7 35t-13.5 29t-23 19.5t-34 7t-34 -6.5t-22.5 -18t-12.5 -26.5t-4 -32v-210h-138v487z" />
    <glyph glyph-name="Ushortcyrillic" horiz-adv-x="667" 
d="M116 146q14 -6 33.5 -13t41.5 -7q18 0 31.5 4.5t22.5 12.5t13.5 19t4.5 23q0 23 -8 44t-19 43l-212 446h168l163 -386l143 386h162l-229 -530q-22 -53 -44.5 -91.5t-48.5 -64t-59 -38t-76 -12.5q-29 0 -51 7t-36 11v146zM497 924q0 -39 -11.5 -66t-33 -44.5t-51.5 -25.5
t-67 -8t-67 8t-51.5 25.5t-33 44.5t-11.5 66h56q3 -17 13 -29.5t24 -20.5t31.5 -12t38.5 -4q20 0 38 4t32 12t23.5 20.5t13.5 29.5h56z" />
    <glyph glyph-name="ushortcyrillic" horiz-adv-x="556" 
d="M359 9q-16 -46 -28.5 -80t-25 -58.5t-26.5 -40.5t-32.5 -25.5t-43.5 -13t-59 -3.5q-14 0 -26 1t-28 2v112q8 -1 20.5 -2t20.5 -1q22 0 37 8.5t24 19.5t13 23.5t4 20.5l-195 560h155l114 -392h2l109 392h148zM441 755q0 -39 -12 -66t-33 -44.5t-51.5 -25.5t-66.5 -8t-66 8
t-51.5 25.5t-33.5 44.5t-12 66h56q3 -17 12.5 -29.5t24 -20.5t32.5 -12t38 -4t38 4t32 12t23.5 20.5t13.5 29.5h56z" />
    <glyph glyph-name="Dzhecyrillic" 
d="M70 718h150v-588h282v588h150v-718h-226v-154h-130v154h-226v718z" />
    <glyph glyph-name="dzhecyrillic" horiz-adv-x="611" 
d="M65 532h138v-420h204v420h138v-532h-171v-128h-138v128h-171v532z" />
    <glyph glyph-name="Gheupturncyrillic" horiz-adv-x="611" 
d="M82 718h395v126h118v-250h-363v-594h-150v718z" />
    <glyph glyph-name="gheupturncyrillic" horiz-adv-x="444" 
d="M66 532h252v122h104v-234h-218v-420h-138v532z" />
    <glyph glyph-name="commaturnedabovecmb" unicode="&#x312;" horiz-adv-x="0" 
d="M-375 555q0 75 35.5 116.5t101.5 55.5v-51q-50 -15 -67 -55q-9 -21 -7 -40h76v-129h-139v103z" />
    <glyph glyph-name="commaabovecmb" unicode="&#x313;" horiz-adv-x="0" 
d="M-372 494q48 15 66 51q10 22 8 44h-77v128h140v-103q0 -73 -36 -115.5t-101 -55.5v51z" />
    <glyph glyph-name="commaaboverightcmb" unicode="&#x315;" horiz-adv-x="0" 
d="M-372 494q48 15 66 51q10 22 8 44h-77v128h140v-103q0 -73 -36 -115.5t-101 -55.5v51z" />
    <glyph glyph-name="commareversedabovecmb" unicode="&#x314;" horiz-adv-x="0" 
d="M-375 727h139v-129h-76q-2 -19 7 -40q17 -40 67 -55v-51q-66 13 -101.5 55t-35.5 117v103z" />
    <glyph glyph-name="dblgravecmb" unicode="&#x30f;" horiz-adv-x="0" 
d="M-305 607h-95l-120 143h143zM-163 750l73 -143h-96l-119 143h142z" />
    <glyph glyph-name="verticallineabovecmb" unicode="&#x30d;" horiz-adv-x="0" 
d="M-268 712v-152h-74v152h74z" />
    <glyph glyph-name="dblverticallineabovecmb" unicode="&#x30e;" horiz-adv-x="0" 
d="M-349 712v-152h-74v152h74zM-188 712v-152h-74v152h74z" />
    <glyph glyph-name="candrabinducmb" unicode="&#x310;" horiz-adv-x="0" 
d="M-305 604q-75 0 -118.5 35.5t-50.5 110.5h66q7 -45 47 -61q23 -9 56 -9t55 9q41 16 47 61h66q-6 -75 -49.5 -110.5t-118.5 -35.5zM-370 876h127v-115h-127v115z" />
    <glyph glyph-name="gravebelowcmb" unicode="&#x316;" horiz-adv-x="0" 
d="M-181 -177h-100l-148 146h155z" />
    <glyph glyph-name="acutebelowcmb" unicode="&#x317;" horiz-adv-x="0" 
d="M-181 -31l-148 -146h-101l94 146h155z" />
    <glyph glyph-name="minusbelowcmb" unicode="&#x320;" horiz-adv-x="0" 
d="M-479 -72h348v-74h-348v74z" />
    <glyph glyph-name="dotbelowcmb" unicode="&#x323;" horiz-adv-x="0" 
d="M-369 -52h127v-116h-127v116z" />
    <glyph glyph-name="dieresisbelowcmb" unicode="&#x324;" horiz-adv-x="0" 
d="M-271 -52h127v-116h-127v116zM-466 -52h127v-116h-127v116z" />
    <glyph glyph-name="ringbelowcmb" unicode="&#x325;" horiz-adv-x="0" 
d="M-305 -134q24 0 40.5 16.5t16.5 40.5t-16.5 41t-40.5 17t-41 -17t-17 -41t17 -40.5t41 -16.5zM-305 30q44 0 75 -31.5t31 -75.5t-31 -75t-75 -31t-75.5 31t-31.5 75t31.5 75.5t75.5 31.5z" />
    <glyph glyph-name="verticallinebelowcmb" unicode="&#x329;" horiz-adv-x="0" 
d="M-268 -69v-152h-74v152h74z" />
    <glyph glyph-name="caronbelowcmb" unicode="&#x32c;" horiz-adv-x="0" 
d="M-367 -177l-115 146h113l64 -83l64 83h113l-114 -146h-125z" />
    <glyph glyph-name="circumflexbelowcmb" unicode="&#x32d;" horiz-adv-x="0" 
d="M-128 -177h-113l-64 82l-64 -82h-113l115 146h125z" />
    <glyph glyph-name="brevebelowcmb" unicode="&#x32e;" horiz-adv-x="0" 
d="M-305 -177q-75 0 -118.5 35.5t-50.5 110.5h66q7 -45 47 -61q23 -10 56 -10t55 10q41 16 47 61h66q-6 -75 -49.5 -110.5t-118.5 -35.5z" />
    <glyph glyph-name="breveinvertedbelowcmb" unicode="&#x32f;" horiz-adv-x="0" 
d="M-305 -31q75 0 118.5 -35.5t49.5 -110.5h-66q-6 45 -47 61q-22 10 -55 10t-56 -10q-40 -16 -47 -61h-66q7 75 50.5 110.5t118.5 35.5z" />
    <glyph glyph-name="tildebelowcmb" unicode="&#x330;" horiz-adv-x="0" 
d="M-320 -57l46 -17q20 -7 26.5 -9t14.5 -2q23 0 32.5 12.5t13.5 29.5h65q-8 -51 -34.5 -86t-76.5 -35q-15 0 -43 8q-16 4 -31 9l-39 13q-8 3 -16 4t-16 1q-18 0 -30 -11t-17 -30h-63q10 50 28 76q31 46 92 46q14 0 26.5 -3t21.5 -6z" />
    <glyph glyph-name="macronbelowcmb" unicode="&#x331;" horiz-adv-x="0" 
d="M-459 -72h308v-74h-308v74z" />
    <glyph glyph-name="lowlinecmb" unicode="&#x332;" horiz-adv-x="0" 
d="M-479 -72h348v-74h-348v74z" />
    <glyph glyph-name="tildeoverlaycmb" unicode="&#x334;" horiz-adv-x="0" 
d="M-320 333l46 -17q20 -6 26.5 -8t14.5 -2q23 0 32.5 12.5t13.5 29.5h65q-8 -52 -34.5 -86.5t-76.5 -34.5q-15 0 -43 7q-16 4 -31 9l-39 13q-8 3 -16 4.5t-16 1.5q-18 0 -30 -11t-17 -31h-63q10 51 28 76q31 47 92 47q14 0 26.5 -3t21.5 -7z" />
    <glyph glyph-name="strokeshortoverlaycmb" unicode="&#x335;" horiz-adv-x="0" 
d="M-479 319h348v-74h-348v74z" />
    <glyph glyph-name="strokelongoverlaycmb" unicode="&#x336;" horiz-adv-x="0" 
d="M-479 319h348v-74h-348v74z" />
    <glyph glyph-name="dbllowlinecmb" unicode="&#x333;" horiz-adv-x="0" 
d="M-479 -72h348v-74h-348v74zM-479 -218h348v-74h-348v74z" />
    <glyph glyph-name="tildeverticalcmb" unicode="&#x33e;" horiz-adv-x="0" 
d="M-354 689q-4 9 -7 22t-3 26q0 61 47 93q25 17 76 27v-63q-20 -5 -31 -17q-11 -11 -11 -30q0 -8 1.5 -15.5t4.5 -16.5l13 -39q5 -15 9 -31q7 -28 7 -43q0 -50 -34.5 -76t-86.5 -35v65q17 4 29.5 13.5t12.5 33.5q0 7 -2 13.5t-8 27.5z" />
    <glyph glyph-name="dbloverlinecmb" unicode="&#x33f;" horiz-adv-x="0" 
d="M-479 709h348v-74h-348v74zM-479 563h348v-74h-348v74z" />
    <glyph glyph-name="koroniscmb" unicode="&#x343;" horiz-adv-x="0" 
d="M-372 494q48 15 66 51q10 22 8 44h-77v128h140v-103q0 -73 -36 -115.5t-101 -55.5v51z" />
    <glyph glyph-name="perispomenigreekcmb" unicode="&#x342;" horiz-adv-x="0" 
d="M-305 750q75 0 118.5 -35.5t49.5 -110.5h-66q-6 45 -47 62q-22 9 -55 9t-56 -9q-40 -17 -47 -62h-66q7 75 50.5 110.5t118.5 35.5z" />
    <glyph glyph-name="dialytikatonoscmb" unicode="&#x344;" horiz-adv-x="0" 
d="M-482 711h89v-90h-89v90zM-218 711h91v-90h-91v90zM-315 755h119l-115 -135h-69z" />
    <glyph glyph-name="uni0348" unicode="&#x348;" horiz-adv-x="0" 
d="M-349 -69v-152h-74v152h74zM-188 -69v-152h-74v152h74z" />
    <glyph glyph-name="combininggraphemejoiner" unicode="&#x34f;" horiz-adv-x="0" 
 />
    <glyph glyph-name="jdotlessstroke" unicode="&#x25f;" horiz-adv-x="333" 
d="M14 -194v113q11 -2 39 -2.5t38.5 12.5t10.5 29v44h-92v99h92v429h138v-429h78v-99h-76v-34q0 -85 -29 -117q-30 -48 -146 -48q-13 0 -24 0.5t-29 2.5z" />
    <glyph glyph-name="hturned" unicode="&#x265;" horiz-adv-x="611" 
d="M97 53q-22 30 -27 61.5t-5 102.5v313h143v-324q0 -43 14 -69q19 -37 72 -37q56 0 84.5 36.5t28.5 105.5v288h138v-718h-138v255q-31 -46 -70.5 -64.5t-83.5 -18.5q-49 0 -89.5 17t-66.5 52z" />
    <glyph glyph-name="mturned" unicode="&#x26f;" horiz-adv-x="889" 
d="M98 62q-23 27 -31 68q-5 27 -5 78l1 336h143v-339q0 -30 10 -50q18 -37 68 -37q58 0 80 48q11 25 11 61v317h140v-317q0 -47 10 -69q17 -38 69 -38q59 0 80 38q11 22 11 66v320h141v-531h-135v77q-26 -41 -49 -59q-40 -31 -105 -31q-61 0 -99 27q-30 25 -45 64
q-28 -47 -68 -69q-43 -22 -96 -22q-35 0 -69.5 13.5t-61.5 48.5z" />
    <glyph glyph-name="rturned" unicode="&#x279;" horiz-adv-x="389" 
d="M63 1v143q13 -2 23.5 -2.5t16.5 -0.5q84 0 113 55q16 31 16 95v254h140v-532h-133v92q-32 -53 -56 -72q-39 -33 -101 -33h-7t-12 1z" />
    <glyph glyph-name="mlonglegturned" unicode="&#x270;" horiz-adv-x="889" 
d="M98 62q-23 27 -31 68q-5 27 -5 78l1 336h143v-339q0 -30 10 -50q18 -37 68 -37q58 0 80 48q11 25 11 61v317h140v-317q0 -47 10 -69q17 -38 69 -38q59 0 80 38q11 22 11 66v320h141v-732h-135v278q-26 -41 -49 -59q-40 -31 -105 -31q-61 0 -99 27q-30 25 -45 64
q-28 -47 -68 -69q-43 -22 -96 -22q-35 0 -69.5 13.5t-61.5 48.5z" />
    <glyph glyph-name="rlongleg" unicode="&#x27c;" horiz-adv-x="389" 
d="M373 544v-143q-14 2 -24 2.5t-16 0.5q-84 0 -113 -55q-16 -31 -16 -95v-442h-141v720h133v-93q33 54 56 73q40 33 102 33q4 0 6.5 -0.5t12.5 -0.5z" />
    <glyph glyph-name="rlonglegturned" unicode="&#x27a;" horiz-adv-x="389" 
d="M63 1v143q13 -2 23.5 -2.5t16.5 -0.5q84 0 113 55q16 31 16 95v429h140v-707h-133v92q-32 -53 -56 -72q-39 -33 -101 -33h-7t-12 1z" />
    <glyph glyph-name="eopen" unicode="&#x25b;" horiz-adv-x="505" 
d="M260 432q-42 0 -69.5 -13t-27.5 -47v-9q2 -24 31.5 -37.5t60.5 -13.5h47v-92h-46q-35 0 -68.5 -18.5t-33.5 -47.5q0 -39 28.5 -54.5t67.5 -15.5q49 0 74.5 21t31.5 55h115l-6 -44q-15 -51 -63 -89.5t-146 -38.5q-88 0 -155 35t-67 100q0 50 21.5 87t54.5 56
q-34 17 -51 41.5t-17 68.5q0 16 4.5 50.5t67 71t140.5 36.5q99 0 143 -34t67 -119h-120q-12 28 -26 39.5t-58 11.5z" />
    <glyph glyph-name="eopenreversed" unicode="&#x25c;" horiz-adv-x="505" 
d="M246 432q-44 0 -58 -11.5t-26 -39.5h-120q23 85 67 119t143 34q78 0 140.5 -36.5t67 -71t4.5 -50.5q0 -44 -17 -68.5t-51 -41.5q33 -19 54.5 -56t21.5 -87q0 -65 -67 -100t-155 -35q-98 0 -146 38.5t-63 89.5l-6 44h115q6 -34 31.5 -55t74.5 -21q39 0 67.5 15.5
t28.5 54.5q0 29 -33.5 47.5t-68.5 18.5h-46v92h47q31 0 60.5 13.5t31.5 37.5v9q0 34 -27.5 47t-69.5 13z" />
    <glyph glyph-name="iotalatin" unicode="&#x269;" horiz-adv-x="278" 
d="M67 525h140v-525h-140v525z" />
    <glyph glyph-name="esh" unicode="&#x283;" horiz-adv-x="380" 
d="M222 -121q-39 -90 -139 -90q-21 0 -48.5 5.5t-54.5 15.5l12 111q19 -10 30.5 -14.5t25.5 -4.5q35 0 48 39q8 25 10 105l19 449q5 121 28 173q38 87 139 87q31 0 70 -9q39 -10 34 -10l-10 -111q-18 8 -31 12.5t-28 4.5q-37 0 -51 -39q-9 -25 -12 -108l-17 -474
q-4 -93 -25 -142z" />
    <glyph glyph-name="tturned" unicode="&#x287;" horiz-adv-x="333" 
d="M309 237v-99h-75v-149h-137v149h-87v99h87v281q0 33 -8.5 41t-50.5 8q-7 0 -14 -0.5t-14 -0.5v104l66 2q99 4 135 -34q23 -24 23 -74v-327h75z" />
    <glyph glyph-name="tretroflexhook" unicode="&#x288;" horiz-adv-x="333" 
d="M10 428v99h74v149h138v-149h87v-99h-87v-491q0 -33 8.5 -41t50.5 -8h14t14 1v-104l-66 -3q-99 -3 -135 34q-24 24 -24 74v538h-74z" />
    <glyph glyph-name="vturned" unicode="&#x28c;" horiz-adv-x="556" 
d="M162 0h-150l192 532h147l191 -532h-156l-111 393z" />
    <glyph glyph-name="wturned" unicode="&#x28d;" horiz-adv-x="778" 
d="M457 0h-142l-81 383l-83 -383h-145l155 532h143l83 -387l85 387h144l150 -532h-150l-83 382z" />
    <glyph glyph-name="yturned" unicode="&#x28e;" horiz-adv-x="556" 
d="M462 634l-17 1q-21 1 -39.5 -1.5t-30.5 -10.5q-13 -9 -23.5 -35t-8.5 -32l196 -556h-155l-116 393l-110 -393h-148l182 523q53 152 84 188.5t123 36.5q18 0 29.5 -0.5t33.5 -1.5v-112z" />
    <glyph glyph-name="glottalstop" unicode="&#x294;" horiz-adv-x="611" 
d="M157 690q58 37 142 37q110 0 183 -52.5t73 -156.5q0 -63 -32 -107q-18 -26 -71 -67l-35 -27q-28 -22 -37 -51q-6 -19 -6 -266h-132q3 291 15.5 322.5t65.5 72.5l35 27q18 14 29 29q19 27 19 59q0 37 -21.5 67.5t-79.5 30.5q-56 0 -80 -37.5t-24 -77.5h-141q6 139 97 197z
" />
    <glyph glyph-name="glottalstopreversed" unicode="&#x295;" horiz-adv-x="611" 
d="M458 690q91 -58 97 -197h-141q0 40 -23.5 77.5t-80.5 37.5q-58 0 -79.5 -30.5t-21.5 -67.5q0 -32 20 -59q10 -15 28 -29l35 -27q53 -41 66 -72.5t16 -322.5h-132q-1 247 -7 266q-9 29 -37 51l-35 27q-53 41 -71 67q-32 44 -32 107q0 104 73 156.5t183 52.5q84 0 142 -37z
" />
    <glyph glyph-name="glottalstopinverted" unicode="&#x296;" horiz-adv-x="611" 
d="M157 37q-91 58 -97 197h141q0 -41 24 -78.5t80 -37.5q58 0 79.5 30.5t21.5 67.5q0 33 -19 59q-11 16 -29 29l-35 28q-53 41 -65.5 72.5t-15.5 322.5h132q0 -248 6 -266q9 -29 37 -51l35 -27q53 -41 71 -68q32 -43 32 -107q0 -103 -73 -155.5t-183 -52.5q-84 0 -142 37z
" />
    <glyph glyph-name="kturned" unicode="&#x29e;" horiz-adv-x="556" 
d="M553 -188h-137v388l-173 -200h-173l186 203l-193 326h168l127 -227l58 60v167h137v-717z" />
    <glyph glyph-name="ascript" unicode="&#x251;" horiz-adv-x="592" 
d="M385 468v57h140v-525h-144v64q-31 -39 -69 -57.5t-87 -18.5q-87 0 -141.5 87t-54.5 189q0 105 59.5 187t152.5 82q44 0 78 -15.5t66 -49.5zM281 424q-53 0 -82.5 -48t-29.5 -114t29 -114t83 -48q49 0 76 48t27 114t-26.5 114t-76.5 48z" />
    </font>
</defs>
</svg>
