<?xml version="1.0" encoding="utf-8"?>
<!-- Generator: Adobe Illustrator 19.0.1, SVG Export Plug-In . SVG Version: 6.00 Build 0)  -->
<svg version="1.1" id="Layer_1" xmlns="http://www.w3.org/2000/svg" xmlns:xlink="http://www.w3.org/1999/xlink" x="0px" y="0px"
	 viewBox="0 0 523.9 99.7" style="enable-background:new 0 0 523.9 99.7;" xml:space="preserve">
<style type="text/css">
	.st0{fill:none;}
	.st1{fill:#D6DE4C;}
	.st2{fill:#FFFFFF;}
</style>
<g>
	<path class="st0" d="M450.9,32.8c0,0,18.2-0.2,20.2-32.8l0,0L450.9,32.8z"/>
	<path class="st1" d="M450.9,32.8c0,0,18.2-0.2,20.2-32.8l0,0C442.3,15.5,450.9,32.8,450.9,32.8"/>
	<g>
		<path class="st2" d="M19.1,20h0.5l6-0.1c11.9,0,17,6,17,19.6c0,10.7-1.3,14.3-5.9,17.1c-2.7,1.6-3.8,2-7.7,2.3
			c12.8,0.9,18.2,6.5,18.2,18.8c0,11.9-3.2,17-11.6,19.5c-2.7,0.7-5.7,1.1-8.9,1.1h-0.5H0v-0.8h5.9V20.9L0,21v-0.9L19.1,20z
			 M13.6,58.8h10.6h0.5c8.7,0,10.6-2.9,10.6-16.7c0-14.3-0.9-18.3-4.5-20.3c-1.1-0.6-4.1-1.1-6.7-1.1h-0.1l-10.3,0.1V58.8z
			 M13.6,97.3l9.5,0.1h0.2h0.2c4.9,0,8.2-0.4,9.5-0.8c4.8-1.9,6.3-5.6,6.3-15.6v-3.1l-0.2-8c-0.4-7.3-4.1-10.3-13.1-10.3h-0.4H13.6
			V97.3z"/>
		<path class="st2" d="M110.4,97.4h6.5v0.8H95.2v-0.8h6.8l-8.9-29.7H66.8L58,97.4h6.5v0.8h-16v-0.8h6.8l23-76.5h-8v-0.8h24.6v0.8
			h-7.9L110.4,97.4z M67.7,64.4H92L79.8,24.3L67.7,64.4z"/>
		<path class="st2" d="M163.6,43h-4.1v-0.1c-0.1-12.8-8.1-22.8-18.3-22.8c-7.6,0-13.4,5.3-14.6,13.1c-0.5,2.9-0.7,6.5-0.7,10.6v0.4
			l0.1,31.3v0.2c0,12.1,2,17.7,7.2,20.8c2.3,1.4,5.2,2,8.2,2c11.1,0,17.7-7.7,17.7-21.5v-0.4h5.4v0.1c0,13.1-9.9,22.5-23.5,22.5
			c-9.3,0-17.7-5.3-20.5-13.1c-1.5-4.2-2.3-10.1-2.3-17.1v-0.4V50.4V50c0-17.2,3.2-24.2,13.1-28.8c3.1-1.3,6.3-2,9.9-2
			c10,0,17.7,5.2,21,14.1l0.1-12.7h1.3V43z"/>
		<polygon class="st2" points="192.2,20.1 192.2,20.9 185.2,20.9 185.2,57.2 216.4,57.2 216.4,21 209.5,21 209.5,20.1 231.6,20.1 
			231.6,20.9 224.5,20.9 224.5,97.3 231.6,97.3 231.6,98.2 209.5,98.2 209.5,97.4 216.4,97.4 216.4,60.4 185.2,60.4 185.2,97.3 
			192.2,97.3 192.2,98.2 170.2,98.2 170.2,97.4 177.2,97.4 177.2,21 170.1,21 170.1,20.1 		"/>
		<polygon class="st2" points="263.9,20.1 263.9,20.9 256.1,20.9 277.2,84.1 298,21 290.7,21 290.7,20.1 312.8,20.1 312.8,20.9 
			306.1,20.9 310.3,97.4 317,97.4 317,98.2 295,98.2 295,97.4 301.9,97.4 298.4,25.9 274.2,98.2 273.7,98.2 249.3,25.2 245.7,97.4 
			252.6,97.4 252.6,98.2 236.2,98.2 236.2,97.4 243.6,97.4 247.5,21 239.6,21 239.6,20.1 		"/>
		<path class="st2" d="M380,97.4h6.5v0.8h-21.7v-0.8h6.8l-8.9-29.7h-26.3l-8.8,29.7h6.5v0.8h-16v-0.8h6.8l23-76.5h-8v-0.8h24.6v0.8
			h-7.9L380,97.4z M337.3,64.4h24.3l-12.2-40.1L337.3,64.4z"/>
		<polygon class="st2" points="403.6,20.1 437.9,80 437.9,21 430.8,21 430.8,20.1 446.4,20.1 446.4,20.9 440.1,20.9 440.1,99.2 
			439.9,99.2 397.2,24.5 397.2,97.3 404.1,97.3 404.1,98.2 388.2,98.2 388.2,97.4 395.2,97.4 395.2,21 388.1,21 388.1,20.1 		"/>
		<path class="st2" d="M504.8,41.8h-4.3v-0.4C499.5,25.6,495.1,20,484,20c-9,0-15.1,6.8-15.1,17c0,10.1,4.2,15.3,14.9,18.2l5.5,1.5
			c11.8,3.3,16.9,9.3,16.9,20.2c0,13.5-8.6,22.3-21.2,22.3c-1.3,0-3.1-0.1-5.2-0.4c-0.6-0.1-0.9-0.1-1.2-0.1l-1.3-0.3l-2.7-0.1h-2.9
			h-0.4h-5.5l-0.1-17.5h0.9v6.5c3.6,6.9,10.6,11.2,17.8,11.2c9.3,0,15.1-6.7,15.1-17.4c0-9.6-3.3-13.5-14-16.7
			c-11.3-3.3-12.1-3.5-15.1-6c-4.1-3-6.6-8.8-6.6-15.4c0-13.6,9-23.9,20.8-23.9c9.2,0,15.1,4.6,19,14.4V20.2h0.9L504.8,41.8z"/>
		<path class="st2" d="M19.1,20h0.5l6-0.1c11.9,0,17,6,17,19.6c0,10.7-1.3,14.3-5.9,17.1c-2.7,1.6-3.8,2-7.7,2.3
			c12.8,0.9,18.2,6.5,18.2,18.8c0,11.9-3.2,17-11.6,19.5c-2.7,0.7-5.7,1.1-8.9,1.1h-0.5H0v-0.8h5.9V20.9L0,21v-0.9L19.1,20z
			 M13.6,58.8h10.6h0.5c8.7,0,10.6-2.9,10.6-16.7c0-14.3-0.9-18.3-4.5-20.3c-1.1-0.6-4.1-1.1-6.7-1.1h-0.1l-10.3,0.1V58.8z
			 M13.6,97.3l9.5,0.1h0.2h0.2c4.9,0,8.2-0.4,9.5-0.8c4.8-1.9,6.3-5.6,6.3-15.6v-3.1l-0.2-8c-0.4-7.3-4.1-10.3-13.1-10.3h-0.4H13.6
			V97.3z"/>
		<path class="st2" d="M110.4,97.4h6.5v0.8H95.2v-0.8h6.8l-8.9-29.7H66.8L58,97.4h6.5v0.8h-16v-0.8h6.8l23-76.5h-8v-0.8h24.6v0.8
			h-7.9L110.4,97.4z M67.7,64.4H92L79.8,24.3L67.7,64.4z"/>
		<path class="st2" d="M163.6,43h-4.1v-0.1c-0.1-12.8-8.1-22.8-18.3-22.8c-7.6,0-13.4,5.3-14.6,13.1c-0.5,2.9-0.7,6.5-0.7,10.6v0.4
			l0.1,31.3v0.2c0,12.1,2,17.7,7.2,20.8c2.3,1.4,5.2,2,8.2,2c11.1,0,17.7-7.7,17.7-21.5v-0.4h5.4v0.1c0,13.1-9.9,22.5-23.5,22.5
			c-9.3,0-17.7-5.3-20.5-13.1c-1.5-4.2-2.3-10.1-2.3-17.1v-0.4V50.4V50c0-17.2,3.2-24.2,13.1-28.8c3.1-1.3,6.3-2,9.9-2
			c10,0,17.7,5.2,21,14.1l0.1-12.7h1.3V43z"/>
		<polygon class="st2" points="192.2,20.1 192.2,20.9 185.2,20.9 185.2,57.2 216.4,57.2 216.4,21 209.5,21 209.5,20.1 231.6,20.1 
			231.6,20.9 224.5,20.9 224.5,97.3 231.6,97.3 231.6,98.2 209.5,98.2 209.5,97.4 216.4,97.4 216.4,60.4 185.2,60.4 185.2,97.3 
			192.2,97.3 192.2,98.2 170.2,98.2 170.2,97.4 177.2,97.4 177.2,21 170.1,21 170.1,20.1 		"/>
		<polygon class="st2" points="263.9,20.1 263.9,20.9 256.1,20.9 277.2,84.1 298,21 290.7,21 290.7,20.1 312.8,20.1 312.8,20.9 
			306.1,20.9 310.3,97.4 317,97.4 317,98.2 295,98.2 295,97.4 301.9,97.4 298.4,25.9 274.2,98.2 273.7,98.2 249.3,25.2 245.7,97.4 
			252.6,97.4 252.6,98.2 236.2,98.2 236.2,97.4 243.6,97.4 247.5,21 239.6,21 239.6,20.1 		"/>
		<path class="st2" d="M380,97.4h6.5v0.8h-21.7v-0.8h6.8l-8.9-29.7h-26.3l-8.8,29.7h6.5v0.8h-16v-0.8h6.8l23-76.5h-8v-0.8h24.6v0.8
			h-7.9L380,97.4z M337.3,64.4h24.3l-12.2-40.1L337.3,64.4z"/>
		<polygon class="st2" points="403.6,20.1 437.9,80 437.9,21 430.8,21 430.8,20.1 446.4,20.1 446.4,20.9 440.1,20.9 440.1,99.2 
			439.9,99.2 397.2,24.5 397.2,97.3 404.1,97.3 404.1,98.2 388.2,98.2 388.2,97.4 395.2,97.4 395.2,21 388.1,21 388.1,20.1 		"/>
		<path class="st2" d="M504.8,41.8h-4.3v-0.4C499.5,25.6,495.1,20,484,20c-9,0-15.1,6.8-15.1,17c0,10.1,4.2,15.3,14.9,18.2l5.5,1.5
			c11.8,3.3,16.9,9.3,16.9,20.2c0,13.5-8.6,22.3-21.2,22.3c-1.3,0-3.1-0.1-5.2-0.4c-0.6-0.1-0.9-0.1-1.2-0.1l-1.3-0.3l-2.7-0.1h-2.9
			h-0.4h-5.5l-0.1-17.5h0.9v6.5c3.6,6.9,10.6,11.2,17.8,11.2c9.3,0,15.1-6.7,15.1-17.4c0-9.6-3.3-13.5-14-16.7
			c-11.3-3.3-12.1-3.5-15.1-6c-4.1-3-6.6-8.8-6.6-15.4c0-13.6,9-23.9,20.8-23.9c9.2,0,15.1,4.6,19,14.4V20.2h0.9L504.8,41.8z"/>
		<polygon class="st2" points="511.5,92.5 509,92.5 509,91.6 515,91.6 515,92.5 512.5,92.5 512.5,99.7 511.5,99.7 		"/>
		<path class="st2" d="M522.7,96.1c-0.1-1.1-0.1-2.5-0.1-3.5h0c-0.3,0.9-0.6,2-1,3.1l-1.4,3.9h-0.8l-1.3-3.9
			c-0.4-1.2-0.7-2.2-0.9-3.1h0c0,1-0.1,2.4-0.2,3.6l-0.2,3.5h-1l0.6-8.1h1.3l1.4,3.9c0.3,1,0.6,1.9,0.8,2.7h0
			c0.2-0.8,0.5-1.7,0.9-2.7l1.4-3.9h1.3l0.5,8.1h-1L522.7,96.1z"/>
	</g>
</g>
</svg>
