<?xml version="1.0" encoding="utf-8"?>
<!-- Generator: Adobe Illustrator 19.0.1, SVG Export Plug-In . SVG Version: 6.00 Build 0)  -->
<svg version="1.1" id="Layer_1" xmlns="http://www.w3.org/2000/svg" xmlns:xlink="http://www.w3.org/1999/xlink" x="0px" y="0px"
	 viewBox="0 0 33 36" style="enable-background:new 0 0 33 36;" xml:space="preserve">
<style type="text/css">
	.st0{fill:#91949B;}
</style>
<g>
	<path class="st0" d="M0,10.2v20c0,2.7,2.2,4.9,4.9,4.9H28c2.7,0,4.9-2.2,4.9-4.9v-20c0-2.7-2.2-4.9-4.9-4.9h-1v-3
		c0-0.8-0.7-1.5-1.5-1.5c-0.8,0-1.5,0.7-1.5,1.5v6c0,0.7-0.6,1.3-1.3,1.3c-0.7,0-1.3-0.6-1.3-1.3V5.3h-2.6v-3c0-0.8-0.7-1.5-1.5-1.5
		c-0.8,0-1.5,0.7-1.5,1.5v6c0,0.7-0.6,1.3-1.3,1.3c-0.7,0-1.3-0.6-1.3-1.3V5.3h-2.6v-3c0-0.8-0.7-1.5-1.5-1.5
		c-0.8,0-1.5,0.7-1.5,1.5v6c0,0.7-0.6,1.3-1.3,1.3c-0.7,0-1.3-0.6-1.3-1.3V5.3C2.2,5.3,0,7.5,0,10.2z M29.4,29.6
		c0,0.9-0.7,1.6-1.6,1.6H5.4c-0.9,0-1.6-0.7-1.6-1.6V16.7h25.6L29.4,29.6z"/>
	<path class="st0" d="M19.2,29h-7l2.8-3.7c0.3-0.4,0.6-0.8,0.8-1.1c0.2-0.3,0.4-0.6,0.5-0.9c0.2-0.5,0.4-1,0.4-1.5
		c0-0.3-0.1-0.5-0.2-0.7c-0.1-0.2-0.3-0.2-0.5-0.2c-0.4,0-0.7,0.4-0.7,1.2c0,0,0,0.1,0,0.2c0,0.1,0,0.1,0,0.2h-2.7l0-0.4
		c0-1,0.3-1.8,0.9-2.5c0.6-0.6,1.5-0.9,2.4-0.9c1,0,1.7,0.3,2.3,0.9c0.6,0.6,0.9,1.4,0.9,2.4c0,0.8-0.2,1.6-0.6,2.3
		c-0.2,0.4-0.5,0.8-0.8,1.2c-0.3,0.4-0.7,0.8-1.2,1.3c0.4-0.1,0.8-0.2,1.2-0.2c0.4,0,0.8-0.1,1.3-0.1L19.2,29L19.2,29z"/>
</g>
</svg>
