<?xml version="1.0" encoding="utf-8"?>
<!-- Generator: Adobe Illustrator 19.1.0, SVG Export Plug-In . SVG Version: 6.00 Build 0)  -->
<svg version="1.1" id="Layer_1" xmlns="http://www.w3.org/2000/svg" xmlns:xlink="http://www.w3.org/1999/xlink" x="0px" y="0px"
	 viewBox="0 0 140.5 140" style="enable-background:new 0 0 140.5 140;" xml:space="preserve" fill="#fff">
<g>
	<path d="M118.2,243.9c-0.5,0-0.9-0.4-0.9-0.9V238H116v5.1c0,0.5-0.4,0.9-0.9,0.9s-0.9-0.4-0.9-0.9V238h-1.3v5.1
		c0,0.5-0.4,0.9-0.9,0.9c-0.5,0-0.9-0.4-0.9-0.9v-5.9c0-0.5,0.4-0.9,0.9-0.9h6.2c0.2,0,0.5,0.1,0.6,0.3s0.3,0.4,0.3,0.6v5.9
		C119.1,243.6,118.7,243.9,118.2,243.9z M121.2,240c-0.4,0-0.8-0.3-0.9-0.7l-0.7-4.5l0,0l0-0.2l0,0l0,0l0,0l0,0l0-0.1l0,0l0-0.1l0,0
		l0,0l0-0.1l0,0l0-0.1l0,0l0,0l0-0.1l0-0.1l0,0l0,0l0,0l0,0h0l0.1-0.1l0,0l0.1,0l0.1,0l0.1,0l0.1,0l0.1,0l0.1,0l0.1,0l0.1,0l0.1,0
		l0.1,0l0.1,0c0,0,0.1,0,0.1,0c0,0,0,0,0,0l0,0l0.1,0.1l0,0l0,0l0,0l0,0l0.1,0.1l3.1,3.1c0.3,0.3,0.3,0.9,0,1.3
		c-0.2,0.2-0.4,0.3-0.6,0.3c-0.2,0-0.5-0.1-0.6-0.3l-1.1-1.1l0.3,1.8c0,0.2,0,0.5-0.2,0.7s-0.3,0.3-0.6,0.4
		C121.3,240,121.3,240,121.2,240z M112.2,235.4c-0.5,0-0.9-0.4-0.9-0.9s0.4-0.9,0.9-0.9h5.9c0.5,0,0.9,0.4,0.9,0.9s-0.4,0.9-0.9,0.9
		H112.2z M112,232.8c0,0-0.1,0-0.1,0c-0.1,0-0.1,0-0.1,0c-0.1,0-0.1,0-0.1,0c0,0-0.1,0-0.1,0c-0.1,0-0.1-0.1-0.1-0.1
		c0,0-0.1-0.1-0.1-0.1c0-0.1-0.1-0.1-0.1-0.1c0,0,0-0.1-0.1-0.1l-4.9-10c-0.2-0.4,0-1,0.4-1.2c0.1-0.1,0.3-0.1,0.4-0.1
		c0.3,0,0.6,0.2,0.8,0.5l4.6,9.5h1.7v-5c0-0.5,0.4-0.9,0.9-0.9s0.9,0.4,0.9,0.9v5h1.7l4.8-9.5c0.2-0.3,0.5-0.5,0.8-0.5
		c0.1,0,0.3,0,0.4,0.1c0.2,0.1,0.4,0.3,0.4,0.5c0.1,0.2,0.1,0.5-0.1,0.7l-5.1,10l-0.1,0.1c0,0.1-0.1,0.1-0.1,0.1
		c0,0-0.1,0.1-0.1,0.1l-0.1,0.1c-0.1,0-0.1,0-0.1,0.1c0,0-0.1,0-0.1,0c-0.1,0-0.1,0-0.1,0c-0.1,0-0.1,0-0.1,0H112z M117.4,224.7
		c-0.8,0-1.6-0.3-2.3-0.7l0,0c-0.7,0.5-1.5,0.8-2.3,0.8c-0.8,0-1.6-0.3-2.3-0.7c-1.3-1-1.9-2.7-1.4-4.3l0,0
		c-1.7-1.2-2.1-3.6-0.8-5.4c0.7-1,1.9-1.6,3.1-1.6l0,0c0.1-0.4,0.3-0.8,0.6-1.1c0.7-1,1.9-1.6,3.1-1.6c0.8,0,1.6,0.3,2.3,0.7
		c0.7,0.5,1.2,1.2,1.4,1.9l0,0c0.8,0,1.6,0.3,2.3,0.7c1.7,1.2,2.1,3.6,0.8,5.4c-0.2,0.3-0.5,0.6-0.9,0.9c0.4,1.2,0.2,2.5-0.5,3.5
		C119.8,224.1,118.6,224.7,117.4,224.7z M115.1,221.9c0.3,0,0.5,0.1,0.7,0.3c0.1,0.1,0.2,0.3,0.4,0.3c0.4,0.3,0.8,0.4,1.3,0.4
		c0.7,0,1.3-0.3,1.7-0.9c0.5-0.7,0.5-1.6,0.1-2.4c-0.1-0.2-0.2-0.5-0.1-0.7c0.1-0.2,0.3-0.4,0.5-0.5c0.4-0.1,0.7-0.4,0.9-0.7
		c0.7-1,0.5-2.3-0.5-3c-0.4-0.3-0.8-0.4-1.2-0.4c-0.2,0-0.3,0-0.5,0.1c-0.1,0-0.1,0-0.2,0c-0.2,0-0.4-0.1-0.5-0.2
		c-0.2-0.1-0.3-0.4-0.3-0.6c0-0.6-0.4-1.2-0.9-1.6c-0.4-0.3-0.8-0.4-1.3-0.4c-0.7,0-1.3,0.3-1.7,0.9c-0.2,0.3-0.4,0.7-0.4,1.1
		c0,0.2-0.1,0.5-0.3,0.6c-0.1,0.1-0.3,0.2-0.5,0.2c-0.1,0-0.1,0-0.2,0c-0.2,0-0.3-0.1-0.5-0.1c-0.7,0-1.3,0.3-1.7,0.9
		c-0.3,0.5-0.5,1-0.4,1.6c0.1,0.6,0.4,1.1,0.9,1.4c0.1,0.1,0.3,0.2,0.4,0.3c0.2,0.1,0.4,0.3,0.5,0.5c0.1,0.2,0,0.5-0.1,0.7
		c-0.6,0.9-0.3,2.2,0.6,2.8c0.4,0.3,0.8,0.4,1.2,0.4c0.6,0,1.2-0.3,1.6-0.8C114.6,222,114.9,221.9,115.1,221.9L115.1,221.9z
		 M115.1,221.5c-0.8,0-1.6-0.3-2.2-0.7c-0.8-0.6-1.4-1.5-1.5-2.5c-0.2-1,0.1-2,0.7-2.8c0.7-1,1.9-1.6,3.1-1.6c0.8,0,1.6,0.3,2.2,0.7
		c1.7,1.2,2.1,3.6,0.8,5.3C117.5,220.9,116.3,221.5,115.1,221.5z M115.1,215.6c-0.7,0-1.3,0.3-1.7,0.9c-0.3,0.5-0.5,1-0.4,1.6
		c0.1,0.6,0.4,1,0.8,1.4c0.4,0.3,0.8,0.4,1.2,0.4c0.7,0,1.3-0.3,1.7-0.9c0.7-0.9,0.5-2.3-0.5-2.9C116,215.7,115.6,215.6,115.1,215.6
		z M128.4,220.2c-0.8,0-1.6-0.3-2.3-0.7l0,0c-0.7,0.5-1.5,0.8-2.3,0.8c-0.6,0-1.2-0.2-1.8-0.5l-0.2-0.1l0.2-0.2
		c0.1-0.1,0.2-0.3,0.3-0.4c0.1-0.2,0.3-0.4,0.4-0.6l0.1-0.2l0.2,0.1c0.3,0.1,0.6,0.2,0.9,0.2c0.6,0,1.2-0.3,1.6-0.8
		c0.2-0.2,0.4-0.3,0.6-0.3c0.3,0,0.5,0.1,0.7,0.3c0.1,0.1,0.2,0.2,0.4,0.4c0.4,0.3,0.8,0.4,1.3,0.4c0.7,0,1.3-0.3,1.7-0.9
		c0.5-0.7,0.5-1.6,0.1-2.4c-0.1-0.2-0.2-0.5-0.1-0.7c0.1-0.2,0.3-0.4,0.5-0.5c0.4-0.1,0.7-0.4,0.9-0.7c0.7-1,0.5-2.3-0.5-3
		c-0.4-0.3-0.8-0.4-1.2-0.4c-0.2,0-0.3,0-0.5,0.1c-0.1,0-0.1,0-0.2,0c-0.2,0-0.4-0.1-0.5-0.2c-0.2-0.1-0.3-0.4-0.3-0.6
		c0-0.6-0.4-1.2-0.9-1.6c-0.4-0.3-0.8-0.4-1.3-0.4c-0.7,0-1.3,0.3-1.7,0.9c-0.2,0.3-0.4,0.7-0.4,1.1c0,0.2-0.1,0.5-0.3,0.6
		c-0.1,0.1-0.3,0.2-0.5,0.2c-0.1,0-0.1,0-0.2,0c-0.2,0-0.3-0.1-0.5-0.1c-0.7,0-1.3,0.3-1.7,0.9c-0.3,0.4-0.4,0.9-0.4,1.4l0,0.3
		l-0.3-0.1c-0.3-0.1-0.5-0.1-0.8-0.2l-0.1,0l0-0.1c-0.1-0.2-0.2-0.5-0.4-0.7l0,0l0-0.1c0.1-0.6,0.3-1.1,0.7-1.5
		c0.7-1,1.9-1.6,3.1-1.6l0,0c0.1-0.4,0.3-0.8,0.6-1.1c0.7-1,1.9-1.6,3.1-1.6c0.8,0,1.6,0.3,2.3,0.7c0.7,0.5,1.2,1.2,1.4,1.9l0,0
		c0.8,0,1.6,0.3,2.2,0.7c1.7,1.2,2.1,3.6,0.9,5.4c-0.2,0.3-0.5,0.6-0.9,0.9c0.4,1.2,0.2,2.5-0.5,3.5
		C130.8,219.6,129.6,220.2,128.4,220.2z M106.4,220.2c-0.8,0-1.6-0.3-2.3-0.7l0,0c-0.7,0.5-1.5,0.7-2.3,0.7c-0.8,0-1.6-0.3-2.3-0.7
		c-1.3-1-1.9-2.7-1.4-4.3l0,0c-0.8-0.6-1.4-1.5-1.5-2.5c-0.2-1,0.1-2,0.7-2.9c0.7-1,1.9-1.6,3.1-1.6l0,0c0.1-0.4,0.3-0.8,0.6-1.1
		c0.7-1,1.9-1.6,3.1-1.6c0.8,0,1.6,0.3,2.3,0.7c0.7,0.5,1.2,1.2,1.4,1.9l0,0c0.8,0,1.6,0.3,2.3,0.7c0.8,0.6,1.3,1.4,1.5,2.3l0,0
		l0,0.1c-0.2,0.3-0.3,0.5-0.4,0.7l0,0.1l-0.1,0c-0.3,0-0.5,0.1-0.8,0.2l-0.3,0.1l0-0.3c0-0.7-0.3-1.4-0.9-1.8
		c-0.4-0.3-0.8-0.4-1.2-0.4c-0.2,0-0.3,0-0.5,0.1c-0.1,0-0.1,0-0.2,0c-0.2,0-0.4-0.1-0.5-0.2c-0.2-0.1-0.3-0.4-0.3-0.6
		c0-0.6-0.4-1.2-0.9-1.6c-0.4-0.3-0.8-0.4-1.3-0.4c-0.7,0-1.3,0.3-1.7,0.9c-0.2,0.3-0.4,0.7-0.4,1.1c0,0.2-0.1,0.5-0.3,0.6
		c-0.1,0.1-0.3,0.2-0.5,0.2c-0.1,0-0.1,0-0.2,0c-0.2,0-0.3-0.1-0.5-0.1c-0.7,0-1.3,0.3-1.7,0.9c-0.3,0.5-0.5,1-0.4,1.6
		c0.1,0.6,0.4,1.1,0.9,1.4c0.1,0.1,0.3,0.2,0.4,0.3c0.2,0.1,0.4,0.3,0.5,0.5c0.1,0.2,0,0.5-0.1,0.7c-0.6,0.9-0.3,2.2,0.6,2.8
		c0.4,0.3,0.8,0.4,1.2,0.4c0.6,0,1.2-0.3,1.6-0.8c0.2-0.2,0.4-0.3,0.7-0.3c0.3,0,0.5,0.1,0.7,0.3c0.1,0.1,0.2,0.2,0.4,0.4
		c0.4,0.3,0.8,0.4,1.3,0.4c0.3,0,0.6-0.1,0.9-0.2l0.2-0.1l0.1,0.2c0.2,0.4,0.4,0.7,0.7,1l0.2,0.2l-0.2,0.1
		C107.7,220,107,220.2,106.4,220.2z M104.1,217c-0.8,0-1.6-0.3-2.2-0.7c-0.8-0.6-1.4-1.5-1.5-2.5c-0.2-1,0.1-2,0.7-2.8
		c0.7-1,1.9-1.6,3.1-1.6c0.8,0,1.6,0.3,2.2,0.7c0.8,0.6,1.4,1.5,1.5,2.5c0.2,1-0.1,2-0.7,2.8C106.5,216.4,105.4,217,104.1,217z
		 M104.1,211.1c-0.7,0-1.3,0.3-1.7,0.9c-0.3,0.5-0.5,1-0.4,1.6c0.1,0.6,0.4,1,0.8,1.4c0.4,0.3,0.8,0.4,1.2,0.4
		c0.7,0,1.3-0.3,1.7-0.9c0.3-0.5,0.5-1,0.4-1.6c-0.1-0.6-0.4-1-0.8-1.4C105,211.2,104.6,211.1,104.1,211.1z M126.1,217
		c-0.8,0-1.6-0.3-2.2-0.7c-0.8-0.6-1.4-1.5-1.5-2.5c-0.2-1,0.1-2,0.7-2.8c0.7-1,1.9-1.6,3.1-1.6c0.8,0,1.6,0.3,2.2,0.7
		c0.8,0.6,1.4,1.5,1.5,2.5c0.2,1-0.1,2-0.7,2.8C128.5,216.4,127.3,217,126.1,217z M126.1,211.1c-0.7,0-1.3,0.3-1.7,0.9
		c-0.3,0.5-0.5,1-0.4,1.6c0.1,0.6,0.4,1,0.8,1.4c0.4,0.3,0.8,0.4,1.2,0.4c0.7,0,1.3-0.3,1.7-0.9c0.3-0.5,0.5-1,0.4-1.6
		c-0.1-0.6-0.4-1-0.8-1.4C127,211.2,126.6,211.1,126.1,211.1z M114.1,209.6c0-0.5,0-1,0.2-1.5c-1.7-1.3-2.1-3.7-0.9-5.4
		c0.7-1,1.9-1.6,3.1-1.6l0,0c0.1-0.4,0.3-0.8,0.6-1.1c0.7-1,1.9-1.6,3.1-1.6c0.8,0,1.6,0.3,2.3,0.7c0.7,0.5,1.2,1.2,1.4,1.9l0,0
		c0.8,0,1.6,0.3,2.3,0.7c1,0.7,1.6,1.9,1.6,3.1l0,0.3l-0.3-0.1c-0.4-0.1-0.8-0.2-1.3-0.2l-0.2,0l0-0.2c-0.1-0.6-0.4-1.1-0.9-1.5
		c-0.4-0.3-0.8-0.4-1.2-0.4c-0.2,0-0.3,0-0.5,0.1c-0.1,0-0.1,0-0.2,0c-0.2,0-0.4-0.1-0.5-0.2c-0.2-0.1-0.3-0.4-0.3-0.6
		c0-0.6-0.4-1.2-0.9-1.6c-0.4-0.3-0.8-0.4-1.3-0.4c-0.7,0-1.3,0.3-1.7,0.9c-0.2,0.3-0.4,0.7-0.4,1.1c0,0.2-0.1,0.5-0.3,0.6
		c-0.1,0.1-0.3,0.2-0.5,0.2c-0.1,0-0.1,0-0.2,0c-0.2,0-0.3-0.1-0.5-0.1c-0.7,0-1.3,0.3-1.7,0.9c-0.7,1-0.5,2.3,0.5,3
		c0.1,0.1,0.3,0.2,0.4,0.3c0.2,0.1,0.4,0.3,0.5,0.5c0.1,0.2,0,0.5-0.1,0.7c-0.2,0.4-0.3,0.8-0.3,1.3l0,0.2l-0.2,0
		c-0.2,0-0.3,0-0.5,0c-0.3,0-0.5,0-0.8,0.1l-0.2,0L114.1,209.6z M118.6,209.7c-0.2-0.1-0.4-0.2-0.6-0.3c-0.8-0.6-1.4-1.5-1.5-2.5
		c-0.2-1,0.1-2,0.7-2.8c0.7-1,1.9-1.6,3.1-1.6c0.8,0,1.6,0.3,2.2,0.7c0.8,0.5,1.3,1.4,1.5,2.3l0,0.1l-0.1,0.1
		c-0.5,0.3-0.9,0.6-1.2,1.1l0,0.1l-0.3-0.1l0-0.1c0.1-0.8-0.2-1.6-0.8-2c-0.4-0.3-0.8-0.4-1.2-0.4c-0.7,0-1.3,0.3-1.7,0.9
		c-0.3,0.5-0.5,1-0.4,1.6c0.1,0.6,0.4,1,0.8,1.4c0.2,0.1,0.4,0.3,0.7,0.3l0.4,0.1l-0.3,0.2c-0.3,0.2-0.6,0.5-0.8,0.8
		c0,0-0.1,0.1-0.1,0.1l-0.1,0.1L118.6,209.7z M111.4,209.6c-0.2-0.4-0.6-0.7-0.9-1l-0.3-0.2l0.4-0.1c0.4-0.1,0.8-0.4,1.1-0.8
		c0.2-0.3,0.4-0.7,0.4-1l0-0.1l0.4,0l0,0.1c0.2,0.5,0.5,1,0.8,1.5l0.1,0.1l-0.1,0.1c-0.1,0.1-0.2,0.3-0.2,0.4
		c-0.4,0.5-0.8,0.9-1.4,1.2l-0.2,0.1L111.4,209.6z M107.5,206.6c-0.2-0.3-0.5-0.6-0.8-0.8c-0.1-0.1-0.2-0.2-0.3-0.2l-0.1-0.1l0-0.1
		c0.1-0.5,0.3-1,0.6-1.4c0.7-1,1.9-1.6,3.1-1.6c0.8,0,1.6,0.3,2.2,0.7c0.1,0.1,0.2,0.1,0.2,0.2l0.1,0.1l0,0.1
		c-0.2,0.5-0.3,1.1-0.3,1.7l0,0.1l-0.3,0.1l0-0.1c-0.2-0.3-0.4-0.6-0.7-0.8c-0.4-0.3-0.8-0.4-1.2-0.4c-0.7,0-1.3,0.3-1.7,0.9
		c-0.3,0.4-0.4,0.9-0.4,1.5l0.1,0.7L107.5,206.6z M102.4,205.1c0-0.8,0.2-1.6,0.7-2.3c0.7-1,1.9-1.6,3.1-1.6l0,0
		c0.1-0.4,0.3-0.8,0.6-1.1c0.7-1,1.9-1.6,3.1-1.6c0.8,0,1.6,0.3,2.3,0.7c0.7,0.5,1.2,1.3,1.4,2.1l0,0c0,0,0,0.1,0,0.1
		c0,0.1,0,0.2,0,0.2l0,0l0,0.1l0,0l0,0c-0.2,0.2-0.4,0.4-0.6,0.6c-0.1,0.1-0.2,0.2-0.2,0.3l-0.1,0.2l-0.2-0.1c0,0-0.1,0-0.1-0.1
		c-0.2-0.1-0.3-0.4-0.3-0.6c0-0.6-0.4-1.2-0.9-1.6c-0.4-0.3-0.8-0.4-1.3-0.4c-0.7,0-1.3,0.3-1.7,0.9c-0.2,0.3-0.4,0.7-0.4,1.1
		c0,0.3-0.1,0.5-0.3,0.6c-0.1,0.1-0.3,0.2-0.5,0.2c-0.1,0-0.1,0-0.2,0c-0.2,0-0.3-0.1-0.5-0.1c-0.7,0-1.3,0.3-1.7,0.9
		c-0.2,0.3-0.4,0.7-0.4,1l0,0.2l-0.2,0c-0.4,0-0.8,0.1-1.3,0.2l-0.3,0.1L102.4,205.1z"/>
</g>
<g>
	<path d="M113.5,43c-4.7-4.7-12.4-12.4-12.4-12.4s-6-5.5-11.5,0c-5.5,5.5-43.1,43.1-43.1,43.1l23.1,23.6l43.9-43.9
		C113.5,53.4,118.1,47.7,113.5,43z"/>
	<polygon points="31.9,111.8 63,102.6 40.6,80.2 	"/>
</g>
</svg>
