<?xml version="1.0" encoding="utf-8"?>
<!-- Generator: Adobe Illustrator 19.0.1, SVG Export Plug-In . SVG Version: 6.00 Build 0)  -->
<svg version="1.1" id="Layer_1" xmlns="http://www.w3.org/2000/svg" xmlns:xlink="http://www.w3.org/1999/xlink" x="0px" y="0px"
	 viewBox="0 0 28 28" style="enable-background:new 0 0 28 28;" xml:space="preserve">
<style type="text/css">
	.st0{fill:none;}
	.st1{fill:#4CB530;}
</style>
<g>
	<rect x="1.4" y="1.4" class="st0" width="25.2" height="25.2"/>
</g>
<path class="st1" d="M7.1,9.6c-0.4,0-0.7-0.1-1-0.4c-0.6-0.6-0.6-1.4,0-2l6.8-6.8c0.6-0.6,1.4-0.6,2,0c0.6,0.6,0.6,1.4,0,2L8.1,9.2
	C7.8,9.5,7.5,9.6,7.1,9.6z"/>
<path class="st1" d="M20.8,9.6c-0.4,0-0.7-0.1-1-0.4l-6.8-6.8c-0.6-0.6-0.6-1.4,0-2c0.6-0.6,1.4-0.6,2,0l6.8,6.8
	c0.6,0.6,0.6,1.4,0,2C21.5,9.5,21.1,9.6,20.8,9.6z"/>
<path class="st1" d="M13.9,23.4c-0.8,0-1.4-0.6-1.4-1.4V1.9c0-0.8,0.6-1.4,1.4-1.4s1.4,0.6,1.4,1.4V22
	C15.3,22.8,14.7,23.4,13.9,23.4z"/>
<path class="st1" d="M22,28h-16c-3.3,0-6-2.7-6-6c0-0.8,0.6-1.4,1.4-1.4s1.4,0.6,1.4,1.4c0,1.8,1.4,3.2,3.2,3.2h16
	c1.8,0,3.2-1.4,3.2-3.2c0-0.8,0.6-1.4,1.4-1.4c0.8,0,1.4,0.6,1.4,1.4C27.9,25.3,25.3,28,22,28z"/>
</svg>
