<?xml version="1.0" encoding="utf-8"?>
<!-- Generator: Adobe Illustrator 19.0.1, SVG Export Plug-In . SVG Version: 6.00 Build 0)  -->
<svg version="1.1" id="Layer_1" xmlns="http://www.w3.org/2000/svg" xmlns:xlink="http://www.w3.org/1999/xlink" x="0px" y="0px"
	 viewBox="0 0 28 36" style="enable-background:new 0 0 28 36;" xml:space="preserve">
<style type="text/css">
	.st0{fill:#A77BCA;}
</style>
<g>
	<path class="st0" d="M6.5,7.9h15.6c0.3,0,0.5-0.2,0.5-0.5V4.8c0-1-0.8-1.8-1.8-1.8H18c-0.2,0-0.3-0.1-0.4-0.3
		c-0.4-1.5-1.8-2.6-3.4-2.6s-3,1.1-3.4,2.6C10.9,2.9,10.7,3,10.5,3H7.8C6.8,3,6,3.8,6,4.8v2.6C6,7.7,6.3,7.9,6.5,7.9z M14.3,1.7
		c1.1,0,2,0.9,2,2c0,1.1-0.9,2-2,2s-2-0.9-2-2S13.2,1.7,14.3,1.7z"/>
	<path class="st0" d="M26.8,5.8h-1.7c-0.4,0-0.6,0.3-0.6,0.6v1c0,1.4-1.1,2.5-2.5,2.5H6.5C5.1,9.9,4,8.8,4,7.4v-1
		C4,6,3.8,5.8,3.4,5.8H1.8C1.4,5.8,1.2,6,1.2,6.4v28.8c0,0.4,0.3,0.6,0.6,0.6h25.1c0.4,0,0.6-0.3,0.6-0.6V6.4
		C27.5,6.1,27.2,5.8,26.8,5.8z"/>
</g>
</svg>
