<?xml version="1.0" encoding="utf-8"?>
<!-- Generator: Adobe Illustrator 19.0.1, SVG Export Plug-In . SVG Version: 6.00 Build 0)  -->
<svg version="1.1" id="Layer_1" xmlns="http://www.w3.org/2000/svg" xmlns:xlink="http://www.w3.org/1999/xlink" x="0px" y="0px"
	 viewBox="0 0 64 38" style="enable-background:new 0 0 64 38;" xml:space="preserve">
<style type="text/css">
	.st0{fill:#D6E03D;}
</style>
<g>
	<g transform="translate(288 0)">
		<path class="st0" d="M-263.8,28.8v-3.9h19.6V21h3.9v3.9h3.9V21h3.9v3.9h2c3.2,0,5.9-2.6,5.9-5.9c0-3.2-2.6-5.9-5.9-5.9h-33.3V9.2
			l-11.7-7.8l-11.7,7.8v19.6l11.7,7.8L-263.8,28.8z M-281.5,28.8c-1.1,0-2-0.9-2-2V11.2c0-1.1,0.9-2,2-2s2,0.9,2,2v15.7
			C-279.5,27.9-280.4,28.8-281.5,28.8z"/>
	</g>
</g>
</svg>
