<?xml version="1.0" encoding="utf-8"?>
<!-- Generator: Adobe Illustrator 19.0.1, SVG Export Plug-In . SVG Version: 6.00 Build 0)  -->
<svg version="1.1" id="Layer_1" xmlns="http://www.w3.org/2000/svg" xmlns:xlink="http://www.w3.org/1999/xlink" x="0px" y="0px"
	 viewBox="0 0 32 24" style="enable-background:new 0 0 32 24;" xml:space="preserve">
<style type="text/css">
	.st0{fill:#A77BCA;}
</style>
<g>
	<g>
		<path class="st0" d="M31.5,5V3.3c0-1.6-1.3-2.9-2.9-2.9H3.4c-1.6,0-2.9,1.3-2.9,2.9V5H31.5z"/>
		<path class="st0" d="M0.5,10.1v10.6c0,1.6,1.3,2.9,2.9,2.9h25.3c1.6,0,2.9-1.3,2.9-2.9V10.1H0.5z M15.6,19.4H4.7
			c-0.6,0-1.1-0.5-1.1-1.1c0-0.6,0.5-1.1,1.1-1.1h10.9c0.6,0,1.1,0.5,1.1,1.1C16.6,18.9,16.2,19.4,15.6,19.4z M27.4,15.3H4.7
			c-0.6,0-1.1-0.5-1.1-1.1s0.5-1.1,1.1-1.1h22.7c0.6,0,1.1,0.5,1.1,1.1C28.5,14.9,28,15.3,27.4,15.3z"/>
	</g>
</g>
</svg>
