<?xml version="1.0" encoding="utf-8"?>
<!-- Generator: Adobe Illustrator 19.0.1, SVG Export Plug-In . SVG Version: 6.00 Build 0)  -->
<svg version="1.1" id="Layer_1" xmlns="http://www.w3.org/2000/svg" xmlns:xlink="http://www.w3.org/1999/xlink" x="0px" y="0px"
	 viewBox="0 0 44 43" style="enable-background:new 0 0 44 43;" xml:space="preserve">
<style type="text/css">
	.st0{fill:#FFFFFF;}
</style>
<path class="st0" d="M32.3,11.9c0,5.7-3,13.2-10.3,13.2c-7.6,0-10.3-7.5-10.3-13.2c0-5.7,2.5-11.6,10.3-11.6
	C30.1,0.3,32.3,6.2,32.3,11.9z"/>
<path class="st0" d="M29.9,28.6c-1.1-0.4-3-0.8-4.2-0.8h-7.3c-1.2,0-3.1,0.4-4.2,0.8L2.8,33c-1.1,0.4-2,1.8-2,3v4.6
	c0,1.2,1,2.2,2.2,2.2H41c1.2,0,2.2-1,2.2-2.2v-4.6c0-1.2-0.9-2.5-2-3L29.9,28.6z"/>
</svg>
