<?xml version="1.0" encoding="utf-8"?>
<!-- Generator: Adobe Illustrator 19.0.1, SVG Export Plug-In . SVG Version: 6.00 Build 0)  -->
<svg version="1.1" id="Layer_1" xmlns="http://www.w3.org/2000/svg" xmlns:xlink="http://www.w3.org/1999/xlink" x="0px" y="0px"
	 viewBox="0 0 38 38" style="enable-background:new 0 0 38 38;" xml:space="preserve">
<style type="text/css">
	.st0{fill:#A77BCA;}
</style>
<g id="XMLID_13_">
	<g>
		<g id="XMLID_10_">
			<g>
				<path class="st0" d="M32.7,37.3l-8.8-8.8c-2.4,1.6-5.3,2.5-8.4,2.5c-8.4,0-15.3-6.8-15.3-15.3c0-8.4,6.8-15.3,15.3-15.3
					c8.4,0,15.3,6.8,15.3,15.3c0,2.9-0.8,5.7-2.3,8l8.8,8.8c0.5,0.5,0.1,1.6-0.9,2.5l-1.3,1.3C34.2,37.4,33.1,37.8,32.7,37.3z
					 M25.7,15.8c0-5.6-4.6-10.2-10.2-10.2c-5.6,0-10.2,4.6-10.2,10.2S9.9,26,15.5,26C21.2,26,25.7,21.4,25.7,15.8z"/>
			</g>
		</g>
	</g>
</g>
</svg>
