<?xml version="1.0" encoding="utf-8"?>
<!-- Generator: Adobe Illustrator 19.0.1, SVG Export Plug-In . SVG Version: 6.00 Build 0)  -->
<svg version="1.1" id="Layer_1" xmlns="http://www.w3.org/2000/svg" xmlns:xlink="http://www.w3.org/1999/xlink" x="0px" y="0px"
	 viewBox="0 0 48 52" style="enable-background:new 0 0 48 52;" xml:space="preserve">
<style type="text/css">
	.st0{fill:#D6E03D;}
</style>
<path class="st0" d="M46.7,46.6c-1.3-3-7.9-5-12.3-6.9s-3.8-3-3.9-4.6c0-0.4-0.1-0.9-0.1-1.4c1.3-1.1,2.4-2.3,3.1-4.1
	c0,0,0-0.1,0.1-0.1c0.2-0.4,0.2-1.7,0.4-2.2c1-0.2,1.6-1.3,1.8-2.2c0.2-0.4,0.7-1.4,0.6-2.5c-0.1-1.4-0.7-2.1-1.4-2.4
	c0-0.1,0-0.2,0-0.2c0-0.3,0-0.5,0-0.8c0.2-1.3,0.4-2.6,0.4-3.4c0-1-0.2-2.9-0.9-4.7l0,0l-0.9-1.9l-0.2-0.7l-0.7-0.2
	c0,0-0.1-0.1-0.1-0.1c0.1-0.2-0.6-0.7,0-0.9C32.2,6.8,30.9,7,30.9,7s-0.2-1.3-0.5-1.5c-0.2,0.2-0.8,0.2-1.4,0.1
	c-2.1-0.3-0.8-2-2.9-2.2c0-0.8,0-1.5,0-1.5S25,2.9,24.6,2.5c-0.2-0.8,0.3-1.9,0.3-1.9s-1.6,0-1.9,1.6c-0.3-0.4,0.1-1.1,0.3-1.5
	c-2,0.7-2.6,2.2-3.4,3.1c-0.1,0.1-0.4-0.4-0.4-0.8c-0.8,0.4-1.2,2.4-1.6,2.6c-0.3,0.1-1.1-0.4-1.1-0.7c-0.7,0.1-2.4,3.5-2.4,3.5
	l-1.7,1.7c0,0,0.8-0.1,0.9,0.2c0,0.3-1.2,2.6-1.2,2.6s0.7-0.4,0.8-0.2c0.1,0.2,0,0.1,0,0.1l-1,2.7l0.7-0.3c-0.1,1-0.1,2-0.1,2.8
	c0,0.8,0,1.5,0.1,2c-0.6,0.3-1.1,1-1.2,2.3c-0.1,1.1,0.4,2.1,0.6,2.5c0.2,1,0.8,2.1,1.9,2.3c0.1,0.5,0.3,1.6,0.5,2.1
	c0,0,0,0.1,0,0.1l0,0c0.7,1.8,1.7,3.1,3,4.1c0,0.5,0,1-0.1,1.5c-0.2,1.6,0.3,2.7-4.1,4.6c-4.4,1.9-10.9,3.9-12.3,6.9
	s-0.8,4.8-0.8,4.8h47.1C47.6,51.4,48.1,49.6,46.7,46.6z"/>
</svg>
